<?xml version="1.0" standalone="no"?>
<!DOCTYPE svg PUBLIC "-//W3C//DTD SVG 1.1//EN" "http://www.w3.org/Graphics/SVG/1.1/DTD/svg11.dtd" >
<svg xmlns="http://www.w3.org/2000/svg">
<metadata></metadata>
<defs>
<font id="alegreya_scblack" horiz-adv-x="1134" >
<font-face units-per-em="2048" ascent="1638" descent="-410" />
<missing-glyph horiz-adv-x="294" />
<glyph horiz-adv-x="2048" />
<glyph horiz-adv-x="2048" />
<glyph unicode="&#xd;" horiz-adv-x="681" />
<glyph unicode=" "  horiz-adv-x="294" />
<glyph unicode="&#x09;" horiz-adv-x="294" />
<glyph unicode="&#xa0;" horiz-adv-x="294" />
<glyph unicode="!" horiz-adv-x="581" d="M78 178q0 96 56 153.5t149.5 57.5t143.5 -51t50 -146.5t-55 -152.5t-150.5 -57t-144.5 50t-49 146zM90 1366l37 49l385 53l51 -53l-149 -880l-211 -33l-43 41z" />
<glyph unicode="&#x22;" horiz-adv-x="708" d="M51 1321l275 29l18 -25q-33 -223 -86 -453l-149 -51l-39 13v88q0 147 -19 399zM399 1321l275 29l18 -25q-33 -223 -86 -453l-149 -51l-39 13v88q0 147 -19 399z" />
<glyph unicode="#" horiz-adv-x="1140" d="M14 322l29 215l190 -2l25 159h-162l-18 27l28 215l187 -2l35 240l221 18l29 -14l-46 -244h164l35 240l221 18l29 -14l-45 -238l174 6l14 -31l-18 -217l-211 -2l-25 -155l177 6l14 -31l-19 -217l-206 -2l-31 -205l-217 -29l-27 19l37 215h-168l-29 -205l-217 -29l-26 19 l37 213h-162zM467 535h170l25 161h-170z" />
<glyph unicode="$" horiz-adv-x="970" d="M27 82q33 164 39 260l231 16q0 -143 154 -143q82 0 81 47q0 37 -49 64q-51 25 -108 47q-188 68 -264 141.5t-76 195t100.5 211t278.5 117.5l35 281l237 29l12 -19l-36 -282q131 -8 245 -41l23 -39q-33 -135 -47 -279l-213 -14l-23 14v17q0 49 -30.5 76.5t-77.5 27.5 t-74 -15.5t-27 -35t5.5 -30.5t18.5 -21.5t24.5 -18.5t35 -17t38.5 -15.5t46 -16.5t69 -24.5t80 -36t89 -58.5q94 -70 94 -204t-107.5 -219t-302.5 -107l-36 -299l-234 -27l-16 12l39 314q-125 16 -232 61z" />
<glyph unicode="%" horiz-adv-x="1552" d="M0 960.5q0 180.5 90 285t243.5 104.5t231.5 -92.5t78 -273.5t-89 -285.5t-242.5 -104.5t-232.5 93t-79 273.5zM164 -80q227 328 397 598l547 873l178 -66l21 -49q-367 -567 -553 -852l-387 -610l-191 71zM164 973q0 -96 156.5 -96t156.5 86q0 96 -166 96 q-78 0 -112.5 -20.5t-34.5 -65.5zM909 342q0 180 90.5 284.5t244 104.5t231 -92t77.5 -273.5t-89 -286t-242.5 -104.5t-232.5 93.5t-79 273.5zM1073 354q0 -96 156.5 -96t156.5 86q0 96 -165 96q-78 0 -113 -20.5t-35 -65.5z" />
<glyph unicode="&#x26;" horiz-adv-x="1392" d="M49 508q0 195 128 338t300 143q76 0 132.5 -41t56.5 -92v-16l12 -9q80 119 118 216.5t54 238.5l29 33h106q131 -188 131 -242q0 -33 -31 -71q-276 -457 -690 -680q102 -96 275 -97q252 0 295 197l-29 2q-41 0 -92 -39h-13l-83 121v8l143 135l35 11l360 -25q55 0 133 43 h15l77 -119l2 -10l-139 -135l-39 -12l-123 6q-66 -188 -234.5 -312.5t-363.5 -124.5q-254 0 -409.5 147.5t-155.5 385.5zM293 577.5q0 -57.5 16 -116.5q98 59 130 93t32 81q0 70 -65 70q-54 0 -83.5 -35t-29.5 -92.5z" />
<glyph unicode="'" horiz-adv-x="360" d="M51 1321l275 29l18 -25q-33 -223 -86 -453l-149 -51l-39 13v88q0 147 -19 399z" />
<glyph unicode="(" horiz-adv-x="632" d="M111 334v354q0 141 35.5 259t86.5 186q106 139 189 178l35 18h35l106 -131l-2 -18q-23 -16 -54.5 -56.5t-54.5 -87.5q-55 -123 -55 -317v-354q0 -283 109 -449q27 -39 61 -70v-22l-127 -123h-24q-47 20 -112 75.5t-110 120t-81.5 181.5t-36.5 256z" />
<glyph unicode=")" horiz-adv-x="632" d="M31 1184v22l127 123h24q47 -20 111.5 -75.5t110 -120t82 -181.5t36.5 -256v-354q0 -141 -35.5 -259t-87.5 -185q-106 -139 -186 -181l-37 -16h-35l-106 131l2 18q23 16 54.5 56.5t51.5 87.5q57 123 58 317v355q0 223 -62 354q-51 113 -90 147z" />
<glyph unicode="*" horiz-adv-x="745" d="M25 1198q0 111 28 191l23 6q90 -49 215 -144l-19 -100l-18 -14zM61 928l2 24q74 70 201 160l92 -49l6 -19l-126 -200q-106 33 -175 84zM295 1507q106 33 192 33l15 -20q-23 -100 -72 -250l-102 -10l-17 10zM389 1047l76 71h22l150 -184q-63 -92 -135 -139l-23 10 q-43 90 -90 242zM446 1237l9 23l221 83q68 -90 90 -172l-16 -16q-74 -12 -258 -12z" />
<glyph unicode="+" horiz-adv-x="1036" d="M31 387l37 277q150 -2 301 -2l2 321l268 27l31 -15q-8 -180 -13 -333l332 12l15 -31l-27 -278l-320 -3l2 -288l-266 -37l-26 18q0 152 2 307l-320 -2z" />
<glyph unicode="," horiz-adv-x="487" d="M-16 -104q59 43 95 102t36 132t-60 138l6 29q117 90 202 90t133 -56.5t48 -157.5t-92 -217t-250 -206l-118 94v52z" />
<glyph unicode="-" horiz-adv-x="663" d="M68 397l20 217l313 35l170 23l25 -37l-27 -221l-475 -54z" />
<glyph unicode="." horiz-adv-x="487" d="M43 178q0 96 56.5 153.5t149.5 57.5t143 -51t50 -146.5t-55 -152.5t-150.5 -57t-144.5 50t-49 146z" />
<glyph unicode="/" horiz-adv-x="673" d="M8 -195q102 346 182 658l236 919h244l35 -41q-158 -569 -246 -901l-170 -665h-258z" />
<glyph unicode="0" horiz-adv-x="956" d="M27 498q0 256 127 406.5t342 150.5t324.5 -133.5t109.5 -390.5t-125 -406.5t-340 -149.5t-326.5 133.5t-111.5 389.5zM248 516q0 -150 229.5 -149.5t229.5 137.5q0 152 -229.5 151.5t-229.5 -139.5z" />
<glyph unicode="1" horiz-adv-x="772" d="M12 827l17 154q242 20 626 74l33 -88q-59 -45 -86 -165t-27 -489q0 -133 80 -133l90 4l9 -12l-29 -184q-209 12 -295 12q-98 0 -405 -20l18 165q96 10 138 43t42 97v411q0 72 -19.5 94.5t-76.5 22.5l-96 -6z" />
<glyph unicode="2" horiz-adv-x="1009" d="M4 90l143 158q162 188 217.5 271t53.5 140q0 92 -101.5 92.5t-201.5 -128.5h-37l-51 213q215 219 456 219q162 0 262.5 -79t100.5 -192.5t-63.5 -209t-262.5 -293.5l10 -19h70q78 0 114 42t46 145l237 18q-45 -272 -55 -455l-35 -37q-528 25 -739 25l-154 -12z" />
<glyph unicode="3" horiz-adv-x="917" d="M4 80l45 47q74 -37 182.5 -37t172 31t63.5 88q0 111 -234 110l-26 31l-21 185l133 26q119 49 119 148q0 35 -24.5 56t-65.5 21q-90 0 -213 -98l-31 -2l-65 211q88 68 210 113t216 45q156 0 250 -67.5t94 -169t-61.5 -174.5t-165.5 -105v-23q141 -41 216.5 -115.5 t75.5 -171.5q0 -160 -207.5 -292t-459.5 -132q-104 0 -147.5 60.5t-55.5 214.5z" />
<glyph unicode="4" horiz-adv-x="1003" d="M0 113l2 204l520 734l19 4l286 -25v-676h142l22 -30l-22 -232q-55 2 -140 4l13 -243l-23 -23l-336 -25l-20 25q8 141 12 276q-246 6 -475 7zM279 354h198v260h-22z" />
<glyph unicode="5" horiz-adv-x="866" d="M-33 80l45 47q76 -37 182.5 -37t171 32t64.5 87t-77 87t-265 50l-18 23q33 293 47 612l16 16l406 13q59 2 86.5 19.5t42.5 62.5l161 10l-59 -367l-39 -39q-162 16 -366 17l-17 -103q260 -45 369.5 -122t109.5 -216q0 -180 -201.5 -323.5t-455.5 -143.5 q-102 0 -147.5 60.5t-55.5 214.5z" />
<glyph unicode="6" horiz-adv-x="968" d="M31 432q0 127 41 239.5t106.5 190.5t144 143.5t158.5 104.5q156 80 293 117l27 -15l61 -165q-10 -4 -26.5 -10.5t-65.5 -32t-94 -56.5q-117 -76 -199 -192l12 -23l119 43q154 0 245 -97t91 -263q0 -205 -130 -323t-340 -118t-326.5 124t-116.5 333zM373 414 q0 -199 116 -199q59 0 85 35t26 112q0 168 -106 168q-63 0 -117 -34q-4 -53 -4 -82z" />
<glyph unicode="7" horiz-adv-x="890" d="M20 539q31 272 41 489l13 10q123 -8 250 -8h456l117 -143q-190 -416 -338 -789l-78 -293h-55l-254 78l-25 58l400 796l-189 -18q-90 -10 -120.5 -40t-47.5 -128z" />
<glyph unicode="8" horiz-adv-x="968" d="M39 281q0 182 190 264q-174 129 -174 319q0 154 132 258.5t310.5 104.5t292 -88t113.5 -213q0 -168 -164 -256q178 -111 178.5 -289t-132 -292t-323 -114t-307 86.5t-116.5 219.5zM342 338q0 -64 36 -102.5t93 -38.5q109 0 109 96q0 51 -84 100q-82 49 -115 62 q-39 -53 -39 -117zM395 900q0 -42 41 -73.5t125 -68.5q37 55 37 112.5t-28.5 88t-76 30.5t-73 -23.5t-25.5 -65.5z" />
<glyph unicode="9" horiz-adv-x="968" d="M25 614q0 205 130 323t340 118t326.5 -124t116.5 -333q0 -127 -41 -239.5t-106.5 -190.5t-145.5 -143.5t-158 -106.5q-154 -76 -292 -115l-27 15l-62 166q10 4 27 10t66 31.5t94 56.5q121 82 196 192l-10 23l-119 -43q-154 0 -244.5 97t-90.5 263zM369 668 q0 -168 106 -168q59 0 115 32q6 41 6 84q0 199 -117 199q-59 0 -84.5 -35t-25.5 -112z" />
<glyph unicode=":" horiz-adv-x="487" d="M43 178q0 96 56.5 153.5t149.5 57.5t143 -51t50 -146.5t-55 -152.5t-150.5 -57t-144.5 50t-49 146zM43 721q0 96 56.5 153.5t149.5 57.5t143 -51.5t50 -146.5t-55 -152.5t-150.5 -57.5t-144.5 50.5t-49 146.5z" />
<glyph unicode=";" horiz-adv-x="487" d="M-16 -104q59 43 95 102t36 132t-60 138l6 29q117 90 202 90t133 -56.5t48 -157.5t-92 -217t-250 -206l-118 94v52zM43 721q0 96 56.5 153.5t149.5 57.5t143 -51.5t50 -146.5t-55 -152.5t-150.5 -57.5t-144.5 50.5t-49 146.5z" />
<glyph unicode="&#x3c;" horiz-adv-x="882" d="M51 408v313l365 158l309 143l37 -23l69 -215q-174 -68 -524 -219v-16l209 -100l297 -132l18 -43l-114 -188q-135 59 -283 129l-366 162z" />
<glyph unicode="=" horiz-adv-x="1036" d="M31 182l37 277q287 -2 469 -2l452 12l15 -31l-27 -278l-928 -4zM31 592l37 276q287 -2 469 -2l452 13l15 -31l-27 -279l-928 -4z" />
<glyph unicode="&#x3e;" horiz-adv-x="882" d="M51 324q174 68 524 219v16l-208 100l-297 132l-19 43l115 188q135 -59 283 -129l366 -162l16 -31v-313l-364 -158l-309 -143l-37 23z" />
<glyph unicode="?" horiz-adv-x="780" d="M80 1206l84 242l35 18q260 -6 433 -112.5t173 -259.5q0 -106 -65.5 -184.5t-268.5 -211.5l-6 -12l16 -141l-18 -29l-242 -41l-31 17l-49 272l6 31l199 96q96 54 96 117q0 145 -333 161zM137 178q0 96 56.5 153.5t149.5 57.5t143.5 -51t50.5 -146.5t-55.5 -152.5 t-150.5 -57t-144.5 50t-49.5 146z" />
<glyph unicode="@" horiz-adv-x="1837" d="M29 346q0 201 83 391.5t219 330.5t320.5 225t380.5 85q360 0 568 -177t208 -500.5t-205.5 -524.5t-555.5 -201q-49 0 -80 31t-31 69t49 249h-20q-156 -268 -273 -349q-145 0 -227 85t-82 237q0 242 167 456t353 214l148 -41l10 41l39 24l274 -24l17 -47 q-98 -428 -142 -691l15 -16q141 0 233 120t92 302q0 246 -166 387t-465 140t-502.5 -214t-203.5 -547.5t214.5 -520t620.5 -185.5l-2 -55l-75 -132q-459 0 -720 223.5t-261 614.5zM757.5 416q-0.5 -123 28.5 -123q35 0 101.5 130t105.5 275q-78 53 -151 54 q-29 0 -56.5 -106.5t-28 -229.5z" />
<glyph unicode="A" horiz-adv-x="1384" d="M-10 -4l14 178q74 18 105 113l325 1028l539 33l31 -25q197 -788 256 -1010q18 -70 45.5 -101.5t74.5 -35.5l15 -20l-17 -162q-176 4 -288 4l-392 -10l-16 18l12 172q94 10 112.5 20.5t18.5 35.5t-16 131q-111 4 -149.5 4t-172.5 -11q-27 -115 -27 -138q0 -22 12 -30 q11 -8 52 -8h54l16 -20l-16 -170q-190 6 -316 6zM553 616h104q33 0 107 5l-70 358h-45z" />
<glyph unicode="B" horiz-adv-x="1357" d="M27 -14l18 184q80 14 108.5 45t28.5 104l2 732q0 94 -55 94l-70 -4l-24 24l24 164q281 -4 347 -4l393 14q229 0 348 -82.5t119 -240.5q0 -180 -199 -314q115 -41 185.5 -107.5t70.5 -188.5q0 -428 -590 -429q-168 23 -336 23zM580 328q0 -94 152 -94q1 0 1 -1 q150 0 150 150q0 109 -131 149h-162zM594 797q117 -23 164 -23q33 20 59.5 69.5t26.5 98.5q0 139 -199 139q-35 0 -37 -28z" />
<glyph unicode="C" horiz-adv-x="1234" d="M31 653.5q0 327.5 186 512t533 184.5q156 0 430 -54l16 -41q-43 -188 -57 -438l-316 -18q4 53 4 125.5t-31.5 107.5t-109.5 35q-106 0 -147 -77t-41 -293t48 -323.5t150 -107.5q78 0 115 53.5t47 184.5l313 20q-24 -231 -24 -421v-15l-27 -33q-221 -78 -495.5 -78 t-434 174.5t-159.5 502z" />
<glyph unicode="D" horiz-adv-x="1396" d="M35 -16l16 190q78 12 105.5 48t27.5 122v686q0 63 -11 87t-40 24l-65 -4l-21 28l19 166q227 -6 311 -6l340 12q649 0 649 -616q0 -344 -191.5 -545t-521.5 -201q-197 25 -325 25zM580 332q0 -59 15 -80t58 -21q133 0 188.5 94.5t55.5 331t-54.5 328.5t-199.5 92 q-41 0 -43 -55q-20 -293 -20 -690z" />
<glyph unicode="E" horiz-adv-x="1234" d="M27 -20l18 188q78 12 105.5 50t27.5 130l2 686q0 66 -11 88.5t-44 22.5l-53 -4l-25 28l19 162q291 -6 602 -6t508 25l26 -33q-37 -215 -47 -408l-283 -18q4 49 5 76q0 70 -38 91t-122 21t-97.5 -10t-13.5 -45l-12 -231l168 -2l225 12l25 -29l-29 -235q-152 6 -220.5 6 t-178.5 -13q-2 -70 -2 -161.5t17 -113t81 -21.5q133 0 176 39.5t62 177.5l262 18l24 -31q-37 -199 -57 -422l-31 -32q-340 14 -547 14q-297 0 -542 -20z" />
<glyph unicode="F" d="M27 -20l18 188q78 12 105.5 50t27.5 130l2 686q0 66 -11 88.5t-44 22.5l-53 -4l-25 28l19 162q291 -6 582.5 -6t469.5 25l27 -33q-29 -219 -37 -408l-283 -16q4 49 4 74q0 66 -31.5 89t-98 23t-80 -10t-13.5 -45l-14 -266l170 -2l215 12l24 -29l-28 -235q-145 6 -215 6 t-174 -12l-2 -140q0 -73 17 -97.5t69.5 -24.5t117.5 16l33 -37l-26 -221q-238 6 -334 6q-186 0 -432 -20z" />
<glyph unicode="G" horiz-adv-x="1308" d="M31 655.5q0 329.5 189.5 512t549.5 182.5q170 0 416 -54l22 -41q-45 -174 -57 -413l-315 -19q4 47 4 118t-26 98.5t-95 27.5q-125 0 -173 -77t-48 -295t50 -323.5t163 -105.5q66 0 106 25v129q0 49 -13 66.5t-52 17.5l-68 -2l-18 28l24 195h314q244 0 243 10l21 -119 q-72 -41 -89.5 -101t-17.5 -219t15 -218l-25 -33q-164 -68 -477.5 -68t-478 174.5t-164.5 504z" />
<glyph unicode="H" horiz-adv-x="1513" d="M31 -10l16 174q82 16 107.5 49t25.5 119v708q0 63 -14 84t-57 21l-54 -2l-18 28l16 154h264l408 10l-14 -184q-66 -12 -85.5 -31.5t-23.5 -75.5l-12 -247l174 -6q113 0 172 6v243q0 61 -14.5 83t-57.5 22l-55 -2l-18 28l16 154h330l360 10l-14 -180q-74 -12 -97.5 -32.5 t-25.5 -78.5q-21 -276 -21 -725q0 -76 17.5 -106.5t62.5 -30.5l58 6l16 -22l-18 -170q-180 4 -351 4l-340 -2l17 178q74 2 104.5 37t30.5 119v209q-70 2 -121 2l-231 -19v-205q0 -86 13 -113.5t52 -27.5l56 6l16 -20l-19 -172q-248 8 -331 8z" />
<glyph unicode="I" horiz-adv-x="757" d="M31 -10l16 174q82 18 107.5 51t25.5 117v708q0 63 -14 84t-57 21l-54 -2l-18 28l16 154h330l352 10l-14 -184q-70 -10 -91.5 -29.5t-25.5 -77.5q-20 -322 -20 -725q0 -86 13 -113.5t52 -27.5l66 6l16 -20l-18 -172q-256 8 -342 8z" />
<glyph unicode="J" horiz-adv-x="694" d="M-10 -238l4 31q104 96 137 187t33 290v770q0 63 -13.5 84t-52.5 21l-73 -4l-19 28l17 156l288 2l389 14l-16 -190q-59 -14 -75.5 -31.5t-20.5 -75.5q-25 -377 -25 -870q0 -197 -117.5 -319.5t-373.5 -190.5z" />
<glyph unicode="K" horiz-adv-x="1419" d="M31 -10l16 174q82 16 107.5 49t25.5 119v708q0 63 -14 84t-57 21l-54 -2l-18 28l18 156q291 -2 328 -2l352 10l-14 -184q-76 -18 -98.5 -39.5t-24.5 -75.5q-14 -731 -14 -769t12 -63.5t53 -25.5l66 6l16 -20l-18 -172q-256 8 -342 8zM602 649l10 62l230 272q43 43 43 86 t-18.5 57.5t-65.5 16.5l-13 20l19 168q199 -6 293 -6l295 10l18 -30l-18 -154q-145 -82 -301 -301l-86 -121l192 -373q47 -90 92 -133t109 -51l20 -31l-22 -151q-262 -23 -327.5 -23t-115 36t-96.5 130z" />
<glyph unicode="L" horiz-adv-x="1140" d="M27 -20l18 188q78 12 105.5 50t27.5 130v692q0 63 -14 84t-58 21l-53 -2l-18 28l16 154h330l424 10l-23 -200q-106 -10 -142 -32t-38 -75q-20 -307 -20 -704q0 -47 17 -67.5t58 -20.5q109 0 148 64.5t49 268.5l262 27l25 -31q-31 -262 -49 -547l-31 -32q-309 14 -504 14 q-285 0 -530 -20z" />
<glyph unicode="M" horiz-adv-x="1708" d="M14 -16l17 184q57 6 84.5 37t31.5 98q72 694 72 749.5t-17.5 68t-109.5 22.5l-16 16l20 176q215 -10 301 -10l316 8q53 -270 151 -651h27q100 346 172 643q346 0 379 2l192 10l15 -8l-17 -180q-84 -2 -109.5 -22.5t-25.5 -82.5q0 -264 45 -684q8 -100 28.5 -139t65.5 -39 l62 4l14 -16l-18 -176q-135 5 -252 5q-88 0 -167 -3q-183 -6 -200 -12l25 186q57 6 80.5 28.5t23.5 71.5l-8 473h-27q-115 -344 -223 -747l-256 -21q-106 399 -221 768h-27q-10 -448 -10 -493q0 -70 68 -70l53 4l18 -16l-24 -176q-225 8 -277.5 8t-111.5 -4 q-143 -10 -144 -12z" />
<glyph unicode="N" horiz-adv-x="1513" d="M27 1169l12 166q154 -10 303 -10l262 8q164 -295 393 -651h31l-8 375q-2 51 -16.5 69.5t-51.5 18.5h-63l-10 22l10 166q225 -8 424.5 -8t199.5 6l-10 -184q-66 -8 -91.5 -37t-27.5 -92l-26 -1018l-385 -25q-213 354 -420 670h-31l6 -364q2 -59 18.5 -82t61.5 -23l70 8 l18 -18l-22 -174q-227 8 -303 8q-139 0 -328 -16l20 184q115 14 117 129l25 715q0 70 -29 94t-125 35z" />
<glyph unicode="O" horiz-adv-x="1341" d="M31 650q0 333 172 516.5t497 183.5q610 0 611 -654q0 -346 -174 -533.5t-483.5 -187.5t-466 171t-156.5 504zM500 689.5q0 -230.5 40 -343.5t134 -113t131 77t37 307.5t-41 341t-135.5 110.5t-130 -74.5t-35.5 -305z" />
<glyph unicode="P" horiz-adv-x="1241" d="M29 -18l18 188q76 12 104.5 50t28.5 124v690q0 63 -11 87t-42 24l-72 -4l-20 24l20 160h293l369 12q139 0 244.5 -29.5t163 -73.5t92.5 -104q55 -96 55 -219q0 -195 -153.5 -340t-358.5 -145h-176v-98q0 -86 20.5 -117t81.5 -31l68 4l10 -16l-21 -176q-248 8 -333 8z M588 678l141 -21q121 44 121 234q0 100 -51 145t-160 45q-20 0 -27 -8q-10 -14 -24 -395z" />
<glyph unicode="Q" horiz-adv-x="1349" d="M31 650q0 333 172 516.5t497 183.5q610 0 611 -654q0 -213 -84 -376.5t-234 -253.5v-29q111 -84 235 -134t224 -50q80 0 186 20l25 -23l35 -139q-285 -207 -361 -207q-127 0 -254 86t-442 385q-297 0 -453.5 171t-156.5 504zM500 689.5q0 -230.5 40 -343.5t134 -113 t131 77t37 307.5t-41 341t-135.5 110.5t-130 -74.5t-35.5 -305z" />
<glyph unicode="R" horiz-adv-x="1388" d="M29 -18l18 188q76 12 104.5 50t28.5 124v711q0 51 -11 70.5t-42 19.5l-72 -4l-20 24l22 162q207 -2 291 -2l379 12q565 0 565 -385q0 -242 -245 -387l127 -213q106 -180 198 -180l23 -33l-19 -149l-317 -23q-86 0 -140.5 43t-93.5 144l-127 313h-114v-139 q0 -94 23.5 -119t121.5 -29l10 -16l-20 -172q-250 8 -326 8q-166 0 -364 -18zM590 725l155 -20q70 28 97.5 74t27.5 133t-56 128t-175 41q-20 0 -27 -8q-14 -20 -22 -348z" />
<glyph unicode="S" horiz-adv-x="1128" d="M27 100q37 203 43 338l258 19q0 -209 180 -209q63 0 99 22.5t36 55t-14.5 54t-48 42t-61 34t-85 38t-84.5 36.5q-143 63 -228 150.5t-85 230.5q0 199 173 319t458 120q100 0 197.5 -14.5t193.5 -43.5l24 -45q-39 -172 -55 -356l-237 -17l-25 17v33q0 143 -150 143 q-57 0 -93 -25.5t-36 -66.5q0 -29 13.5 -45.5t22.5 -26.5t27.5 -20.5t31 -17.5t37 -18t39 -17.5t44 -18.5t74.5 -31.5t96.5 -47t108.5 -73.5q115 -94 115 -256q0 -199 -171 -313.5t-470 -114.5q-106 0 -207 21.5t-150 44.5l-47 22z" />
<glyph unicode="T" horiz-adv-x="1214" d="M0 782q14 303 16 537l27 29l244 -23h643l248 23l26 -29l10 -520l-253 -17q-16 197 -39 246t-103 49q-10 -338 -10 -749q0 -78 23.5 -110t82.5 -32l105 7l10 -13l-18 -192q-299 12 -416 12l-412 -18l17 188q125 10 163.5 44t38.5 130v733q-82 0 -108.5 -52t-40.5 -226z " />
<glyph unicode="U" horiz-adv-x="1284" d="M0 1149l20 182q201 -6 363 -6l274 8l-20 -190q-53 -4 -74.5 -27.5t-23.5 -73.5l-13 -591q0 -101 41 -158t118 -57t111.5 43t34.5 137l-2 618q0 63 -11 87t-42 24l-47 -4l-6 8l22 182q170 -6 246 -6l295 6l-16 -184q-63 -20 -81 -36.5t-18 -53.5v-578q0 -250 -138 -377 t-404.5 -127t-387 103.5t-120.5 329.5v626q0 68 -11.5 89.5t-46.5 21.5l-59 -4z" />
<glyph unicode="V" horiz-adv-x="1312" d="M-10 1167l16 162q172 -4 281 -4l391 10l16 -18l-12 -172q-96 -12 -113.5 -21.5t-17.5 -46.5q0 -74 111 -733h45q167 684 167 755q0 28 -11 35t-52 7h-53l-17 20l17 170q190 -6 315 -6l252 2l-14 -178q-33 -10 -49.5 -31.5t-34.5 -81.5l-305 -1028l-564 -35 q-184 815 -241 1037q-18 70 -44 100.5t-69 36.5z" />
<glyph unicode="W" horiz-adv-x="2043" d="M-10 1167l18 162q164 -4 268 -4l377 10l15 -18l-13 -172q-92 -12 -109.5 -21.5t-17.5 -46.5q0 -74 107 -733h43q162 653 162 739q0 39 -21.5 51.5t-93.5 12.5l-14 20l18 162q211 -4 332 -4l375 10l16 -18l-14 -172q-92 -12 -108.5 -21.5t-16.5 -46.5q0 -86 104 -733h43 q162 688 162 756q0 27 -11.5 34t-49.5 7h-52l-14 20l16 170q184 -6 304 -6l241 2l-14 -178q-33 -10 -48.5 -31.5t-33.5 -81.5l-283 -1028l-542 -35l-91 584h-28l-129 -549l-543 -35q-178 815 -231 1037q-33 127 -109 137z" />
<glyph unicode="X" horiz-adv-x="1456" d="M2 20l12 164q45 20 123 101.5t135 163.5l181 260l-168 247q-61 90 -109.5 121t-134.5 51l-10 13l18 186q143 -2 361 -2l354 12l12 -22l-14 -168q-80 0 -80 -49q0 -37 19.5 -68t25.5 -39q31 -47 38 -57t22.5 -33t23.5 -33q125 209 125 235.5t-16.5 36t-61.5 9.5l-4 12 l12 164h318l264 6l8 -16l-10 -178q-98 -47 -154.5 -94.5t-107.5 -129.5l-193 -297l178 -249q123 -174 256 -177l9 -8l-19 -184q-199 6 -276 6l-424 -14l-15 14l15 172q59 4 59 41q0 25 -22 55l-125 181l-78 -129q-35 -55 -35 -82q0 -61 80 -62l12 -22l-10 -166 q-244 12 -309 12l-275 -12z" />
<glyph unicode="Y" horiz-adv-x="1357" d="M0 1141l20 186q240 -4 308 -4l368 14l15 -22l-19 -168q-84 0 -84 -51q0 -16 115 -303h29l84 233q27 58 27 90q0 33 -79 33l-6 12l17 162h323l232 8l8 -16l-17 -178q-137 -78 -227 -258l-186 -373q-31 -72 -31 -167t22.5 -124t79.5 -29l105 7l10 -13l-18 -192 q-305 12 -424 12l-412 -18l16 188q131 8 171 40t40 122v33q0 78 -57 184l-219 407q-61 113 -203 172z" />
<glyph unicode="Z" horiz-adv-x="1216" d="M6 104l668 1006l-158 -20q-119 -23 -151.5 -63t-36.5 -171l-258 -18q25 301 30 491l23 23l371 -23h677l52 -110q-279 -373 -682 -996l215 31q98 18 143 82.5t59 208.5l259 18q-44 -319 -48 -524l-43 -45l-878 12l-168 -20z" />
<glyph unicode="[" horiz-adv-x="667" d="M133 -238q23 565 23 770l-23 777l520 22l9 -20l-17 -172l-188 -35v-1137l196 -35l9 -22l-17 -170z" />
<glyph unicode="\" horiz-adv-x="673" d="M-31 1341l35 41h244l235 -919l183 -658l-23 -30h-258q-84 328 -170 665z" />
<glyph unicode="]" horiz-adv-x="667" d="M6 -240l17 172l188 35v1137l-197 35l-8 22l17 170l512 -22q-23 -565 -23 -770l23 -777l-521 -22z" />
<glyph unicode="^" horiz-adv-x="962" d="M10 303q76 152 144 309l157 365l310 14l30 -16q104 -240 166 -381l135 -283l-188 -114l-43 18q-72 152 -137 297l-101 209h-16l-80 -184l-139 -340l-215 69z" />
<glyph unicode="_" horiz-adv-x="917" d="M-25 -410l23 215h747l179 5l20 -39l-29 -217l-917 -3z" />
<glyph unicode="`" horiz-adv-x="815" d="M119 1350l147 206h35q190 -176 383 -342l-84 -124l-45 -15q-233 138 -432 240z" />
<glyph unicode="a" horiz-adv-x="1200" d="M8 -2l12 149q57 16 80 80l262 797l494 27l27 -23q166 -635 198.5 -753.5t98.5 -124.5l12 -19l-14 -135q-150 2 -246 2l-336 -6l-14 14l10 148q92 10 100 22q4 8 4 31l-6 61q-47 2 -125 2l-129 -6q-14 -61 -14 -80.5t6 -23.5t39 -4h37l16 -19l-14 -143q-164 4 -266 4h-232 zM494 487h77q49 0 80 2l-49 254h-39z" />
<glyph unicode="b" horiz-adv-x="1171" d="M27 -10l16 155q66 10 88.5 34t22.5 79l2 551q0 70 -43 70l-60 -2l-22 20l22 139q248 -4 299 -4l344 12h3q393 0 393 -253q0 -70 -39 -127q-53 -84 -121 -115q41 -10 96 -43q109 -68 109 -187q0 -172 -124 -254.5t-378 -82.5q-111 18 -287 18zM512 268q0 -65 114.5 -65 t114.5 100q0 70 -92 98l-129 2zM524 631q88 -18 129 -19q60 43 60 117q0 90 -148 90q-29 0 -30 -18z" />
<glyph unicode="c" horiz-adv-x="1048" d="M35 512q0 258 151.5 398.5t444.5 140.5q129 0 366 -41l15 -37q-37 -150 -49 -352l-285 -17q2 41 2 98.5t-21.5 82t-89 24.5t-92 -49t-24.5 -213t30.5 -239t97 -75t91 38t30.5 135l283 18q-16 -180 -16 -354l-25 -27q-188 -59 -417.5 -59t-360.5 135t-131 393z" />
<glyph unicode="d" horiz-adv-x="1183" d="M35 -12l12 162q63 8 86 36.5t23 94.5v510q0 49 -9.5 67.5t-31.5 18.5l-54 -5l-18 25l16 139q199 -4 269 -4l284 10q537 0 537 -479q0 -272 -157.5 -426.5t-434.5 -154.5q-164 18 -274 18zM510 266q0 -39 9 -52t32 -13q100 0 139 64.5t39 244.5t-33 243.5t-137 63.5 q-31 0 -33 -43q-16 -193 -16 -508z" />
<glyph unicode="e" horiz-adv-x="1056" d="M27 -16l16 159q61 8 84 39t23 103l2 508q0 51 -8.5 68.5t-34.5 17.5l-43 -2l-23 24l16 135q254 -4 514.5 -4t430.5 19l24 -27q-31 -176 -39 -328l-256 -14q4 37 4 71.5t-30.5 51t-92 16.5t-72 -8t-10.5 -31l-8 -157h133l185 8l22 -27l-24 -198q-123 4 -163 4t-163 -9 v-104q0 -61 12.5 -78.5t85 -17.5t107.5 30.5t49 133.5l236 16l22 -27q-31 -160 -47 -340l-29 -26q-272 10 -450 10q-260 0 -473 -16z" />
<glyph unicode="f" horiz-adv-x="978" d="M27 -14l16 159q61 8 84 38t23 102l2 508q0 51 -8.5 68.5t-34.5 17.5l-43 -2l-23 24l16 135q254 -4 499 -4t396 19l23 -27q-23 -180 -29 -326l-254 -14q2 35 2 68.5t-24.5 51t-71.5 17.5t-57.5 -8t-10.5 -31l-10 -184l135 -2l179 8l22 -24l-22 -199q-121 4 -164 4t-158 -8 v-80q0 -57 13.5 -75.5t61.5 -18.5t91 14l31 -33l-25 -188q-201 4 -280 4q-131 0 -379 -14z" />
<glyph unicode="g" horiz-adv-x="1110" d="M35 513q0 259 155.5 398.5t460.5 139.5q145 0 346 -41l21 -37q-39 -137 -49 -330l-285 -16q4 37 4 90t-16.5 73.5t-63.5 20.5q-94 0 -124.5 -51t-30.5 -216t33.5 -239t115.5 -74q45 0 70 13v84q0 35 -10.5 48t-38.5 13l-48 -2l-18 27l23 161l264 3q211 0 211 8l18 -103 q-63 -33 -78.5 -80t-15.5 -169.5t12 -174.5l-22 -28q-131 -47 -395.5 -47t-401.5 135t-137 394z" />
<glyph unicode="h" horiz-adv-x="1280" d="M31 -6l14 147q66 12 86.5 37t20.5 92v529q0 49 -12.5 64.5t-47.5 15.5h-43l-16 24l14 129h223l359 6l-13 -155q-51 -8 -67.5 -22.5t-18.5 -49.5l-10 -180l125 -6q80 0 129 4v170q0 47 -12 63.5t-47 16.5h-45l-17 24l15 129h286l312 6l-13 -151q-61 -10 -79.5 -25.5 t-20.5 -60.5q-16 -174 -16 -541q0 -57 15 -80.5t50 -23.5l43 4l17 -21l-17 -141q-152 2 -301 2l-293 -2l13 152q59 2 84.5 28.5t25.5 83.5v148q-43 2 -80 2l-180 -15v-137q0 -66 10.5 -87t42.5 -21l41 4l15 -19l-15 -143q-221 6 -279.5 6t-132 -2t-165.5 -4z" />
<glyph unicode="i" horiz-adv-x="659" d="M31 -6l14 147q68 14 87.5 38t19.5 91v529q0 49 -12.5 64.5t-47.5 15.5h-41l-16 24l14 129h283l305 6l-12 -155q-57 -8 -73.5 -22.5t-21.5 -59.5q-16 -213 -16 -541q0 -66 10.5 -87t42.5 -21l49 4l15 -19l-15 -143q-221 6 -292 6z" />
<glyph unicode="j" horiz-adv-x="608" d="M0 -186l2 26q84 78 110.5 148.5t26.5 226.5v584q0 49 -10 65.5t-43 16.5l-59 -4l-17 26l15 129l245 2l340 10l-14 -161q-49 -10 -61.5 -24.5t-16.5 -57.5q-20 -291 -20 -674q0 -152 -101.5 -247t-324.5 -146z" />
<glyph unicode="k" horiz-adv-x="1220" d="M31 -8l12 145q68 16 88.5 40.5t20.5 92.5v529q0 49 -12.5 64.5t-47.5 15.5h-43l-16 24l16 131q256 -2 283 -2l307 6l-12 -155q-63 -16 -81 -31.5t-20 -56.5l-12 -535q0 -66 10.5 -87t42.5 -21l51 4l15 -19l-15 -143q-223 6 -294 6zM526 506l9 51l176 197q33 29 33 63 q0 36 -14 47q-13 10 -50 13l-12 18l16 141q170 -4 250 -4l256 8l18 -26l-16 -129q-127 -74 -258 -252l-43 -62l141 -278q66 -129 160 -146l18 -26l-18 -129q-230 -18 -288 -18q-1 0 -3 -1q-56 0 -94 27q-39 27 -78 102z" />
<glyph unicode="l" horiz-adv-x="987" d="M25 -16l16 159q63 8 86 39t23 103v514q0 49 -12.5 64.5t-47.5 15.5h-41l-18 24l14 129h285l375 6l-21 -170q-90 -8 -121 -22.5t-33 -48.5q-18 -240 -18 -535q0 -59 53 -59q84 0 113 52t37 214l235 23l23 -27q-25 -215 -39 -447l-29 -28q-252 10 -418 10q-250 0 -462 -16z " />
<glyph unicode="m" horiz-adv-x="1443" d="M18 -12l13 155q49 4 71.5 28t24.5 73l57 563q0 45 -12 52t-88 15l-14 15l18 151q184 -8 258 -8l281 6q39 -201 104 -454h25q76 258 123 448q311 0 340 2l157 8l13 -6l-15 -155q-70 -2 -89 -16.5t-19 -63.5q0 -207 37 -510q4 -76 21 -105.5t56 -29.5l52 2l12 -15l-14 -147 q-156 3 -268 3q-224 0 -269 -11l20 157q47 4 66.5 21.5t19.5 56.5v309h-24q-102 -299 -166 -532l-236 -16q-121 449 -163 555h-2q0 -2 2 -7h-25q-2 -291 -2 -325q0 -53 57 -53l41 2l17 -13l-21 -149q-199 6 -241.5 6t-93 -3t-87.5 -5t-37 -4z" />
<glyph unicode="n" horiz-adv-x="1290" d="M27 899l10 141q131 -8 266 -8l232 6q109 -186 292 -454h29l-8 227q-4 41 -14 55.5t-41 14.5h-52l-10 18l8 139q199 -6 371 -6t172 4l-8 -155q-53 -8 -73.5 -30t-22.5 -71l-23 -772l-354 -18l-312 454h-28l8 -211q2 -49 15.5 -66t52.5 -17l53 6l18 -15l-20 -147 q-199 6 -273 6l-274 -12l18 155q49 6 71 30t24 71l20 530q0 55 -22.5 72.5t-102.5 27.5z" />
<glyph unicode="o" d="M35 502q0 549 555 549q258 0 384 -126t126 -391.5t-142.5 -408.5t-402.5 -143q-520 0 -520 520zM457 538.5q0 -178.5 23.5 -257t89 -78.5t87 49t21.5 227t-23.5 255t-90 77t-87 -47t-20.5 -225.5z" />
<glyph unicode="p" horiz-adv-x="1071" d="M27 -14l16 159q61 8 85 39t24 97v512q0 49 -9.5 67.5t-31.5 18.5l-62 -2l-18 20l18 135h250l317 10q123 0 214.5 -25.5t139.5 -60t79 -84.5q43 -76 43 -170q0 -154 -128 -267t-302 -113h-148v-64q0 -57 18.5 -80.5t69.5 -23.5l51 2l9 -15l-17 -147q-221 6 -273.5 6 t-135 -4t-209.5 -10zM518 535l109 -15q86 33 86 170q0 70 -37 100.5t-119 30.5q-14 0 -19.5 -7t-7.5 -30z" />
<glyph unicode="q" horiz-adv-x="1140" d="M35 502q0 549 555 549q258 0 384 -126t126 -384q0 -326 -244 -482v-24q80 -57 181.5 -94t158.5 -37q90 0 180 16l23 -20l31 -123q-252 -170 -318 -170q-102 0 -205.5 68.5t-361.5 306.5q-250 0 -380 132t-130 388zM457 538.5q0 -178.5 23.5 -257t89 -78.5t87 49t21.5 227 t-23.5 255t-90 77t-87 -47t-20.5 -225.5z" />
<glyph unicode="r" horiz-adv-x="1196" d="M29 -16l14 159q61 10 85 41t24 97v532q0 37 -9.5 51.5t-31.5 14.5l-62 -2l-18 20l20 137q178 -2 248 -2l328 10q487 0 487 -307q0 -186 -199 -301l95 -145q92 -141 159 -142l21 -28l-16 -127l-279 -17q-76 0 -120 32t-77 112l-94 231h-90v-86q0 -70 19.5 -88t101.5 -22 l10 -15l-18 -145q-221 6 -285 6q-121 0 -313 -16zM520 571l123 -16q59 25 75.5 55.5t16.5 92t-42 89t-134 27.5q-16 0 -22 -6q-10 -14 -17 -242z" />
<glyph unicode="s" horiz-adv-x="968" d="M27 82q33 164 39 260l231 16q0 -70 37 -106.5t117.5 -36.5t80.5 47q0 37 -49 64q-51 25 -108 47q-188 68 -264 141.5t-76 187.5q0 160 147.5 254.5t392.5 94.5q168 0 332 -45l23 -39q-33 -135 -47 -279l-213 -14l-23 14v17q0 49 -30.5 76.5t-77.5 27.5t-74 -15.5t-27 -35 t5.5 -30.5t18.5 -21.5t24.5 -18.5t35 -17t38.5 -15.5t46 -16.5t69 -24.5t80 -36t89 -58.5q94 -70 94 -203q0 -158 -144.5 -246.5t-400.5 -88.5q-90 0 -176 17t-168 52z" />
<glyph unicode="t" horiz-adv-x="1046" d="M12 584q10 252 13 442l22 25l211 -19h535l213 19l24 -25l6 -430l-229 -12q-12 154 -26.5 193.5t-67.5 39.5q-6 -246 -6 -549q0 -61 19 -85.5t69 -24.5l84 6l10 -10l-17 -164q-258 10 -356 10l-356 -16l12 161q102 8 136 32.5t34 90.5v549q-55 0 -72.5 -43t-29.5 -178z " />
<glyph unicode="u" horiz-adv-x="1081" d="M6 883l19 153q172 -4 315 -4l233 6l-18 -164q-74 -2 -78 -73l-10 -459q0 -63 28.5 -101t82 -38t78 26.5t24.5 89.5l-2 474v7q0 79 -41 79l-35 -2l-6 6l20 153q143 -4 205 -4l256 4l-14 -157q-49 -16 -63.5 -28.5t-14.5 -37.5v-434q0 -397 -457 -397q-225 0 -324.5 77.5 t-99.5 253.5v480q0 53 -9 69.5t-38 16.5l-47 -2z" />
<glyph unicode="v" horiz-adv-x="1124" d="M6 899l14 137q143 -4 238 -4l334 6l14 -14l-10 -147q-78 -7 -90 -15q-13 -8 -13 -44q0 -38 76 -529h39q121 528 121 552.5t-7 28.5t-36 4h-39l-14 19l12 143q162 -4 264 -4l213 2l-12 -151q-25 -8 -36 -25.5t-27 -62.5l-238 -789l-516 -26q-154 666 -178.5 756.5 t-44 115.5t-50.5 29z" />
<glyph unicode="w" horiz-adv-x="1740" d="M6 899l17 137q135 -4 227 -4l321 6l13 -14l-11 -147q-76 -8 -88 -15.5t-12 -57.5t72 -515h39q10 33 58 248t56 268l11 35q2 29 -12.5 35t-39 6h-36.5l-13 18l17 137q180 -4 284 -4l322 6l14 -14l-12 -147q-76 -10 -87 -15.5t-11 -34.5q0 -59 69 -538h37q16 66 67.5 296 t51.5 255.5t-7 29.5t-36 4h-37l-12 19l12 143q158 -4 254 -4l203 2l-11 -151q-25 -8 -36 -25.5t-27 -62.5l-219 -789l-496 -26q-27 166 -57 413h-25l-90 -387l-495 -26q-147 666 -172 756.5t-42.5 115.5t-46.5 29z" />
<glyph unicode="x" horiz-adv-x="1249" d="M14 18l9 138q33 16 98 80.5t108 121.5l146 201l-129 170q-66 90 -127 115q-23 8 -72 20l-8 10l16 160q113 -2 305 -2l304 10l10 -20l-12 -143h-7q-51 0 -51 -35q0 -33 23.5 -64.5t29 -39t21.5 -26t22 -26.5q10 20 37 62q51 82 51 102q0 29 -53 29h-8l-2 10l10 139l500 6 l6 -12l-8 -154q-147 -72 -215 -174l-154 -229l133 -168q106 -137 211 -137l6 -6l-14 -156q-170 4 -233 4l-363 -10l-12 10l12 148q37 0 37 26q0 16 -16 39l-93 117l-53 -82q-20 -33 -20 -51q0 -47 61 -47l12 -19l-8 -141q-213 10 -266 10l-235 -10z" />
<glyph unicode="y" horiz-adv-x="1183" d="M18 874l19 160q211 -4 264 -4l313 12l15 -20l-19 -143h-10q-51 0 -51 -37q0 -16 34.5 -92t49.5 -111h24l54 152q23 44 23 67t-50 23h-10l-6 10l14 137l279 2l198 6l6 -12l-14 -154q-51 -31 -102.5 -86t-81.5 -112l-152 -291q-25 -54 -25 -114q0 -63 19 -87q18 -22 68 -22 l88 6l8 -10l-15 -164q-268 10 -370 10l-361 -14l13 159q111 6 146.5 29t35.5 90v17q0 57 -47 137l-187 321q-43 63 -161 125z" />
<glyph unicode="z" horiz-adv-x="1044" d="M12 88l543 760l-109 -17q-96 -23 -119.5 -50t-25.5 -126l-233 -14q20 246 24 395l21 17l307 -17l579 2l48 -94q-260 -317 -555 -751l155 26q82 16 118 64.5t44 154.5l231 17q-35 -262 -39 -422l-36 -37l-744 8l-143 -16z" />
<glyph unicode="{" horiz-adv-x="686" d="M84 481l8 156q139 43 139 133q0 41 -54 162t-54 180q0 106 99.5 172t258.5 66q74 0 185 -25l20 -33l-37 -170q-41 10 -71 11q-102 0 -103 -103q0 -31 27.5 -127t27.5 -147t-39.5 -97.5t-109.5 -64.5v-10q150 -49 149 -185q0 -45 -27.5 -154.5t-27.5 -154.5t30 -76.5 t83 -31.5l63 10l27 -27l-29 -170q-76 -47 -213 -47t-225 68.5t-88 169.5q0 63 54 187t54 159q0 109 -147 149z" />
<glyph unicode="|" horiz-adv-x="600" d="M160 -518q0 18 4 2148l233 23l43 -33q-12 -684 -12 -1024l2 -1124l-240 -23z" />
<glyph unicode="}" horiz-adv-x="686" d="M0 -195l37 170q41 -10 72 -10q102 0 102 103q0 33 -27.5 137t-27.5 145q0 131 149 174v11q-150 49 -149 184q0 41 27.5 143.5t27.5 146.5t-29.5 75.5t-83.5 31.5l-63 -10l-27 27l29 170q76 47 213 47t225 -69t88 -169q0 -59 -54 -176t-54 -162t38.5 -85t108.5 -52 l-8 -156q-64 -14 -101.5 -51t-37.5 -80t54 -163.5t54 -180.5q0 -115 -99 -186.5t-259 -71.5q-74 0 -185 25z" />
<glyph unicode="~" horiz-adv-x="1034" d="M20 424v33l220 235l45 8q49 0 213 -34.5t197.5 -34.5t78.5 29.5t107 89.5h32l101 -115v-33l-219 -235l-45 -9q-49 0 -213 35t-198 35t-79 -29.5t-106 -89.5h-33z" />
<glyph unicode="&#xa1;" horiz-adv-x="581" d="M18 -442l150 880l211 33l43 -41l70 -823l-37 -49l-385 -54zM104 781.5q0 95.5 55.5 152.5t151 57t144.5 -50t49 -146.5t-56.5 -153.5t-149.5 -57t-143.5 51t-50.5 146.5z" />
<glyph unicode="&#xa2;" horiz-adv-x="901" d="M29 483.5q0 196.5 114.5 333.5t313.5 166l43 336l237 29l13 -19l-43 -350q74 -12 133 -33l10 -22q-33 -172 -47 -357l-189 -10v74q0 66 -18 92.5t-64 26.5q-117 0 -116 -191q0 -158 40 -230.5t126 -72.5q98 0 176 39l24 14l21 -10l45 -154q-137 -121 -268 -157l-37 -297 l-234 -27l-16 12l41 324q-146 43 -225.5 165t-79.5 318.5z" />
<glyph unicode="&#xa3;" horiz-adv-x="1046" d="M31 197q164 84 164 215v69q-2 47 -29 62.5t-109 19.5l-8 12l17 144l129 18v56q0 158 171 295t352 137t269 -31l10 -23l-88 -268l-39 -6q-152 88 -220 88t-89.5 -28.5t-21.5 -102.5l-4 -117l284 6l10 -14l-22 -174q-117 6 -279 6l-2 -78q0 -53 -17 -108.5t-42 -79.5 l121 29q23 0 104.5 -17.5t121.5 -17.5t70.5 41.5t30.5 111.5h64q27 -33 45 -100.5t18 -126.5q0 -104 -69.5 -172t-175.5 -68q-63 0 -200.5 55.5t-203.5 55.5q-131 0 -280 -88l-31 12z" />
<glyph unicode="&#xa4;" horiz-adv-x="909" d="M-12 981l8 47l215 158l135 -158q68 27 133.5 27t132.5 -27l142 162l47 -8l157 -215l-151 -131q27 -70 27 -138.5t-29 -136.5l158 -137l-9 -47l-215 -158l-133 152q-61 -23 -129.5 -23t-136.5 29l-143 -162l-47 8l-158 215l158 135q-23 61 -23 130t25 131zM328 700.5 q0 -63.5 44 -107.5t107.5 -44t108.5 44t45 107.5t-45 108.5t-108.5 45t-107.5 -45t-44 -108.5z" />
<glyph unicode="&#xa5;" horiz-adv-x="1206" d="M14 874q6 80 19 160q143 -4 341.5 -4t235.5 12l13 -20l-17 -143q-61 0 -61 -29q0 -14 84 -211h24q76 213 76 223t-4 13.5t-11 1t-18 -4.5q-20 -8 -32 19l14 137l278 2l197 6l8 -12l-14 -154q-63 -35 -94 -63q-33 -29 -70 -94l152 4l16 -21l-12 -176h-267l-53 -94l309 6 l17 -20l-12 -176h-361q0 -14 10 -39q14 -39 80 -39l86 6l10 -10l-14 -164q-264 10 -362 10l-363 -14l14 159q94 6 129 23.5t44 67.5l-334 -3l-21 17l25 174h301l-53 96l-246 -2l-21 17l25 174h125q-8 12 -94.5 75t-98.5 90z" />
<glyph unicode="&#xa6;" horiz-adv-x="600" d="M160 -518q0 448 2 825l229 35l37 -35l2 -835l-240 -23zM162 756l2 874l233 23l43 -33q-10 -498 -12 -854l-240 -33z" />
<glyph unicode="&#xa7;" horiz-adv-x="995" d="M43 537q0 172 217 284q-106 88 -106 216t118.5 220.5t300.5 92.5q119 0 210 -32t91 -73q0 -59 -29.5 -150t-56.5 -114h-51q-18 51 -56 84t-70.5 33t-51 -15.5t-18.5 -42t43 -59.5t104.5 -66.5t123.5 -74.5t105.5 -104.5t43.5 -139.5q0 -152 -205 -270q100 -80 100 -189 q0 -141 -129 -236.5t-321 -95.5q-123 0 -221.5 49.5t-98.5 108.5q0 145 82 256l55 -4q10 -70 65.5 -119t122 -49t66.5 49q0 37 -45 70t-108.5 62.5t-127 66.5t-108.5 99.5t-45 142.5zM362 649q0 -43 16.5 -73.5t59.5 -61.5q57 -39 160 -92q31 37 31 78t-16.5 72.5 t-59.5 62.5q-56 43 -152 96q-39 -39 -39 -82z" />
<glyph unicode="&#xa8;" horiz-adv-x="815" d="M41 1309q0 82 47 130t127 48t122 -43t42 -123t-47 -128t-129 -48q-162 0 -162 164zM434 1309q0 82 47 130t127 48t122 -43t42 -123t-47 -128t-127 -48q-164 0 -164 164z" />
<glyph unicode="&#xa9;" horiz-adv-x="1431" d="M92 600q0 260 182.5 442.5t440.5 182.5t441 -183.5t183 -442.5t-183 -441.5t-441 -182.5t-440.5 182.5t-182.5 442.5zM215 600q0 -209 146.5 -356.5t353.5 -147.5t354.5 147.5t147.5 356.5t-147.5 356.5t-354.5 147.5t-353.5 -147.5t-146.5 -356.5zM362 596 q0 356 388 356q74 0 237 -26l10 -23q-27 -98 -32 -231l-185 -8q2 27 2 63.5t-14 53t-58 16.5t-60.5 -33t-16.5 -138.5t20.5 -154.5t62.5 -49t59.5 25.5t19.5 87.5l182 14l-8 -232l-17 -20q-123 -37 -272.5 -37t-233.5 88t-84 248z" />
<glyph unicode="&#xaa;" horiz-adv-x="743" d="M31 901q0 45 25.5 78t66.5 43l278 45q-2 39 -33.5 62.5t-72.5 23.5q-72 0 -170 -57l-19 8l-36 117q225 117 301 116q156 0 223.5 -58t67.5 -144l-31 -232q0 -45 39 -45l43 8l24 -39q-90 -162 -155 -174q-152 0 -164 99l-19 8q-100 -100 -157 -101q-88 0 -149.5 71 t-61.5 171zM285 918q0 -72 51 -72h61l2 115l-92 -17q-22 -3 -22 -26z" />
<glyph unicode="&#xab;" horiz-adv-x="974" d="M20 449v55q179 190 320 360l127 -71l14 -48q-37 -61 -141 -270q86 -172 141 -268l-14 -47l-127 -74q-145 174 -320 363zM442 449v55q179 190 320 360l127 -71l14 -48q-37 -61 -141 -270q86 -172 141 -268l-14 -47l-127 -74q-145 174 -320 363z" />
<glyph unicode="&#xac;" horiz-adv-x="1036" d="M31 449l37 276q287 -2 469 -2l391 12l14 -30q-25 -160 -27 -369l3 -277l-277 -36l-27 18q0 186 2 383h-104l-463 -2z" />
<glyph unicode="&#xad;" horiz-adv-x="663" d="M68 397l20 217l313 35l170 23l25 -37l-27 -221l-475 -54z" />
<glyph unicode="&#xae;" horiz-adv-x="958" d="M61 1038q0 174 122 296t296 122t296 -122t122 -296t-122 -295.5t-296 -121.5t-296 121.5t-122 295.5zM147 1038.5q0 -137.5 97.5 -234.5t234.5 -97t234.5 97t97.5 234.5t-97.5 234.5t-234.5 97t-234.5 -97t-97.5 -234.5zM274 848l7 55q41 8 41 55v211q0 37 -17 37l-22 -2 l-7 4l7 52h110q43 0 84 4q186 0 187 -117q0 -76 -76 -121l41 -65q27 -53 61 -58l4 -6l2 -27q0 -10 -6 -12q-29 -12 -76 -13t-63 8t-33 46l-39 96h-35v-43q0 -31 7.5 -37t24 -8t17.5 -2t1 -2l-7 -53q-70 4 -96 4h-24zM446 1073l50 -2q37 12 36.5 63.5t-69.5 51.5 q-10 0 -10 -17z" />
<glyph unicode="&#xaf;" horiz-adv-x="815" d="M102 1186l39 223q195 -2 316 -2l254 12l22 -37l-37 -223l-561 -4z" />
<glyph unicode="&#xb0;" horiz-adv-x="618" d="M33 1073q0 115 81 196t195.5 81t195.5 -81t81 -196t-81 -195.5t-195.5 -80.5t-195.5 80.5t-81 195.5zM186 1072q0 -54 34 -88t88 -34t89 34t35 88t-35 89t-89 35t-88 -35t-34 -89z" />
<glyph unicode="&#xb1;" horiz-adv-x="1036" d="M31 432l37 277q150 -2 301 -2l2 321l268 27l31 -15q-8 -180 -13 -333l332 12l15 -31l-27 -278l-320 -2l2 -289l-266 -37l-26 18q0 152 2 308l-320 -2zM63 -215l23 215h686l178 4l21 -39l-29 -217l-856 -2z" />
<glyph unicode="&#xb2;" horiz-adv-x="772" d="M39 811l192 199q117 125 117 182t-72.5 57t-156.5 -90h-27l-37 176q61 72 144.5 114t186.5 42t180 -57.5t77 -151.5t-55.5 -184t-196.5 -228l6 -12h64q53 0 76.5 27.5t27.5 97.5l178 12q-31 -190 -36 -315l-27 -27q-336 16 -485 17l-142 -8z" />
<glyph unicode="&#xb3;" horiz-adv-x="673" d="M27 848l34 35q60 -27 132 -27q133 0 133 72q0 57 -150 57l-18 23l-17 135l92 16q76 29 76 94q0 45 -57 45t-143 -55h-23l-49 152q66 45 150.5 70.5t173 25.5t156 -46t67.5 -115.5t-43 -118t-115 -68.5v-17q106 -37 154.5 -86t48.5 -120q0 -104 -138.5 -185.5 t-316.5 -81.5q-74 0 -105.5 43t-41.5 152z" />
<glyph unicode="&#xb4;" horiz-adv-x="815" d="M203 1214l383 342h35l147 -206l-4 -35q-221 -115 -432 -240l-45 15z" />
<glyph unicode="&#xb6;" horiz-adv-x="1175" d="M10 862q0 207 140.5 340t359.5 133l330 -10l336 6l-13 -172l-4 -8q-57 -14 -72.5 -30.5t-21.5 -73t-14.5 -287t-8.5 -371.5q0 -227 -178 -404.5t-405 -177.5q-119 0 -209 61.5t-90 141.5q0 57 27.5 135t66.5 131h37q14 -117 68.5 -184t137.5 -67t119.5 44t36.5 148v899 q0 18 -11 24.5t-46 6.5q-121 0 -121 -287q0 -121 27.5 -207t95.5 -178v-72q-266 0 -427 126t-161 333z" />
<glyph unicode="&#xb7;" horiz-adv-x="487" d="M43 512q0 96 56.5 153.5t149.5 57.5t143 -51t50 -146.5t-55 -153t-150.5 -57.5t-144.5 50.5t-49 146.5z" />
<glyph unicode="&#xb8;" horiz-adv-x="815" d="M162 -391q0 45 100 145h19q2 -55 28.5 -84.5t81.5 -29.5t55 48t-178 134l64 250h125l-33 -150q221 -104 221 -225q0 -74 -88 -133.5t-215 -59.5q-66 0 -123 30t-57 75z" />
<glyph unicode="&#xb9;" horiz-adv-x="579" d="M25 1331l10 109q33 2 65.5 6t97 11t104.5 11.5t69.5 8.5t55.5 7t54 7l25 -66q-39 -29 -57.5 -94t-18.5 -444q0 -88 53 -88l60 2l6 -8l-21 -131q-147 8 -223 8l-274 -15l12 119q125 12 125 90v377q0 47 -12.5 62.5t-53.5 15.5l-65 -2z" />
<glyph unicode="&#xba;" horiz-adv-x="761" d="M37 989q0 162 94 255t260 93t250 -84t84 -247.5t-93 -258t-256 -94.5t-251 87t-88 249zM324 1009.5q0 -106.5 11 -152.5t45 -46t44 23.5t10 130t-11 151.5t-45 45t-44 -22.5t-10 -129z" />
<glyph unicode="&#xbb;" horiz-adv-x="974" d="M72 205q37 61 141 270q-86 172 -141 268l14 48l127 73q145 -174 319 -362v-56q-178 -190 -319 -360l-127 72zM494 205q37 61 141 270q-86 172 -141 268l14 48l127 73q145 -174 319 -362v-56q-178 -190 -319 -360l-127 72z" />
<glyph unicode="&#xbc;" horiz-adv-x="1730" d="M25 1182l10 108q33 2 65.5 6t97 11.5t104.5 11.5t69.5 8t55.5 7t54 7l25 -65q-39 -29 -57.5 -95.5t-18.5 -443.5q0 -88 53 -88l60 2l6 -8l-21 -131q-147 8 -223 8l-274 -14l12 119q125 12 125 90v377q0 47 -12.5 62t-53.5 15l-65 -2zM254 -80q227 328 397 598l547 873 l178 -66l21 -49q-367 -567 -553 -852l-387 -610l-191 71zM999 174l2 148l347 495l14 4l217 -18v-457h92l17 -20l-17 -166l-90 2l8 -146l-18 -16l-248 -16l-14 16q6 82 8 170zM1198 346h121v166h-16z" />
<glyph unicode="&#xbd;" horiz-adv-x="1796" d="M25 1182l10 108q33 2 65.5 6t97 11.5t104.5 11.5t69.5 8t55.5 7t54 7l25 -65q-39 -29 -57.5 -95.5t-18.5 -443.5q0 -88 53 -88l60 2l6 -8l-21 -131q-147 8 -223 8l-274 -14l12 119q125 12 125 90v377q0 47 -12.5 62t-53.5 15l-65 -2zM254 -80q227 328 397 598l547 873 l178 -66l21 -49q-367 -567 -553 -852l-387 -610l-191 71zM1063 141l192 199q117 125 117 182.5t-72.5 57.5t-156.5 -91h-27l-37 177q61 72 144.5 113.5t186.5 41.5t180 -57t77 -151.5t-55.5 -184.5t-196.5 -227l6 -13h64q53 0 76.5 28t27.5 97l178 13q-31 -190 -36 -316 l-27 -26q-336 16 -485 16l-142 -8z" />
<glyph unicode="&#xbe;" horiz-adv-x="1722" d="M27 698l34 35q60 -26 132 -26q133 0 133 71q0 57 -150 58l-18 22l-17 135l92 17q76 29 76 94q0 45 -57 45t-143 -55h-23l-49 151q66 45 150.5 70.5t173 25.5t156 -46t67.5 -115.5t-43 -117.5t-115 -69v-16q106 -37 154.5 -86t48.5 -121q0 -104 -138.5 -185t-316.5 -81 q-74 0 -105.5 43t-41.5 151zM246 -80q227 328 397 598l547 873l178 -66l21 -49q-367 -567 -553 -852l-387 -610l-191 71zM991 174l2 148l346 495l15 4l217 -18v-457h92l16 -20l-16 -166l-90 2l8 -146l-18 -16l-248 -16l-15 16q6 82 9 170zM1190 346h121v166h-17z" />
<glyph unicode="&#xbf;" horiz-adv-x="780" d="M-25 -121q0 106 64.5 183t269.5 212l6 13l-16 141l18 29l242 41l31 -17l49 -272l-6 -31l-199 -96q-96 -53 -96 -120.5t87 -109.5t247 -49l28 -36l-84 -242l-34 -19q-260 6 -433.5 113t-173.5 260zM244 781.5q0 95.5 55 152.5t150.5 57t144.5 -50t49 -146.5t-56.5 -153.5 t-149.5 -57t-143 51t-50 146.5z" />
<glyph unicode="&#xc0;" horiz-adv-x="1384" d="M-10 -4l14 178q74 18 105 113l325 1028l539 33l31 -25q197 -788 256 -1010q18 -70 45.5 -101.5t74.5 -35.5l15 -20l-17 -162q-176 4 -288 4l-392 -10l-16 18l12 172q94 10 112.5 20.5t18.5 35.5t-16 131q-111 4 -149.5 4t-172.5 -11q-27 -117 -26.5 -139t11.5 -29.5 t52 -7.5h54l16 -20l-16 -170q-190 6 -316 6zM385 1561l74 221l33 10q258 -111 509 -205l-43 -145l-38 -27q-191 50 -521 113zM553 616h104q33 0 107 5l-70 358h-45z" />
<glyph unicode="&#xc1;" horiz-adv-x="1384" d="M-10 -4l14 178q74 18 105 113l325 1028l539 33l31 -25q197 -788 256 -1010q18 -70 45.5 -101.5t74.5 -35.5l15 -20l-17 -162q-176 4 -288 4l-392 -10l-16 18l12 172q94 10 112.5 20.5t18.5 35.5t-16 131q-111 4 -149.5 4t-172.5 -11q-27 -117 -26.5 -139t11.5 -29.5 t52 -7.5h54l16 -20l-16 -170q-190 6 -316 6zM469 1587q211 78 510 205l33 -10l73 -221l-14 -33q-266 -49 -520 -113l-39 27zM553 616h104q33 0 107 5l-70 358h-45z" />
<glyph unicode="&#xc2;" horiz-adv-x="1384" d="M-10 -4l14 178q74 18 105 113l325 1028l539 33l31 -25q197 -788 256 -1010q18 -70 45.5 -101.5t74.5 -35.5l15 -20l-17 -162q-176 4 -288 4l-392 -10l-16 18l12 172q94 10 112.5 20.5t18.5 35.5t-16 131q-111 4 -149.5 4t-172.5 -11q-27 -117 -26.5 -139t11.5 -29.5 t52 -7.5h54l16 -20l-16 -170q-190 6 -316 6zM313 1577q170 123 363 283h55q0 6 51 -35q203 -166 310 -248l-72 -127l-47 -14q-96 41 -271 104q-106 -39 -268 -104l-47 14zM553 616h104q33 0 107 5l-70 358h-45z" />
<glyph unicode="&#xc3;" horiz-adv-x="1384" d="M-10 -4l14 178q74 18 105 113l325 1028l539 33l31 -25q197 -788 256 -1010q18 -70 45.5 -101.5t74.5 -35.5l15 -20l-17 -162q-176 4 -288 4l-392 -10l-16 18l12 172q94 10 112.5 20.5t18.5 35.5t-16 131q-111 4 -149.5 4t-172.5 -11q-27 -117 -26.5 -139t11.5 -29.5 t52 -7.5h54l16 -20l-16 -170q-190 6 -316 6zM297 1493v33l166 235l35 8q37 0 161.5 -34.5t151.5 -34.5q45 0 115 90l24 29h33l121 -111v-33l-166 -235l-35 -8q-37 0 -162 34.5t-150.5 34.5t-60 -29.5t-79.5 -89.5h-33zM553 616h104q33 0 107 5l-70 358h-45z" />
<glyph unicode="&#xc4;" horiz-adv-x="1384" d="M-10 -4l14 178q74 18 105 113l325 1028l539 33l31 -25q197 -788 256 -1010q18 -70 45.5 -101.5t74.5 -35.5l15 -20l-17 -162q-176 4 -288 4l-392 -10l-16 18l12 172q94 10 112.5 20.5t18.5 35.5t-16 131q-111 4 -149.5 4t-172.5 -11q-27 -117 -26.5 -139t11.5 -29.5 t52 -7.5h54l16 -20l-16 -170q-190 6 -316 6zM334 1567q0 82 47 130t127 48t122 -43t42 -123t-47 -128t-129 -48q-162 0 -162 164zM553 616h104q33 0 107 5l-70 358h-45zM727 1567q0 82 47 130t127 48t122 -43t42 -123t-47 -128t-127 -48q-164 0 -164 164z" />
<glyph unicode="&#xc5;" horiz-adv-x="1384" d="M-10 -4l14 178q74 18 105 113l325 1028l539 33l31 -25q197 -788 256 -1010q18 -70 45.5 -101.5t74.5 -35.5l15 -20l-17 -162q-176 4 -288 4l-392 -10l-16 18l12 172q94 10 112.5 20.5t18.5 35.5t-16 131q-111 4 -149.5 4t-172.5 -11q-27 -117 -26.5 -139t11.5 -29.5 t52 -7.5h54l16 -20l-16 -170q-190 6 -316 6zM483 1607.5q0 96.5 61.5 158t166 61.5t156 -57.5t51.5 -147.5t-61.5 -157.5t-163 -67.5t-156 57t-54.5 153.5zM553 616h104q33 0 107 5l-70 358h-45zM625 1614q0 -39 24.5 -56.5t55.5 -17.5q72 0 71 68q0 72 -75.5 71.5 t-75.5 -65.5z" />
<glyph unicode="&#xc6;" horiz-adv-x="1921" d="M4 174q74 18 117 113l340 800q-8 57 -53 58l-54 -4l-24 28l18 162q334 -6 781.5 -4t605.5 23l26 -33q-37 -215 -47 -408l-282 -18q4 49 4 76q0 70 -38 91t-121 21t-97.5 -10t-14.5 -39l39 -268l150 26l207 54l34 -35l-24 -238l-197 -24l-133 -25l23 -149 q20 -137 112 -138q119 0 158 40t57 180l262 18l25 -31q-37 -199 -57 -422l-31 -32q-340 14 -657 14h-86l-351 -12l-14 18l12 172q86 8 113 25.5t27 58.5q0 47 -13 187l-153 -27l-158 -47q-45 -150 -45 -167.5t17.5 -21.5t95.5 -4l14 -20l-14 -170q-12 6 -404 6l-164 -2z M610 664l88 8l103 18l-29 289h-45z" />
<glyph unicode="&#xc7;" horiz-adv-x="1234" d="M31 637q0 344 186 528.5t533 184.5q156 0 430 -54l16 -41q-43 -188 -57 -438l-316 -18q4 53 4 125.5t-31.5 107.5t-109.5 35q-106 0 -147 -77t-41 -293t48 -323.5t150 -107.5q78 0 115 53.5t47 184.5l313 20q-25 -240 -24 -436l-27 -33q-186 -66 -418 -75l-12 -58 q86 -41 153.5 -97t67.5 -129t-88 -132.5t-215 -59.5q-66 0 -123 30t-57 75t100 145h19q2 -55 28.5 -84.5t82 -29.5t55.5 48t-178 134l38 158q-258 18 -400 190t-142 467z" />
<glyph unicode="&#xc8;" horiz-adv-x="1234" d="M27 -20l18 188q78 12 105.5 50t27.5 130l2 686q0 66 -11 88.5t-44 22.5l-53 -4l-25 28l19 162q291 -6 602 -6t508 25l26 -33q-37 -215 -47 -408l-283 -18q4 49 5 76q0 70 -38 91t-122 21t-97.5 -10t-13.5 -45l-12 -231l168 -2l225 12l25 -29l-29 -235q-152 6 -220.5 6 t-178.5 -13q-2 -70 -2 -161.5t17 -113t81 -21.5q133 0 176 39.5t62 177.5l262 18l24 -31q-37 -199 -57 -422l-31 -32q-340 14 -547 14q-297 0 -542 -20zM293 1561l74 221l32 10q258 -111 510 -205l-43 -145l-39 -27q-190 50 -520 113z" />
<glyph unicode="&#xc9;" horiz-adv-x="1234" d="M27 -20l18 188q78 12 105.5 50t27.5 130l2 686q0 66 -11 88.5t-44 22.5l-53 -4l-25 28l19 162q291 -6 602 -6t508 25l26 -33q-37 -215 -47 -408l-283 -18q4 49 5 76q0 70 -38 91t-122 21t-97.5 -10t-13.5 -45l-12 -231l168 -2l225 12l25 -29l-29 -235q-152 6 -220.5 6 t-178.5 -13q-2 -70 -2 -161.5t17 -113t81 -21.5q133 0 176 39.5t62 177.5l262 18l24 -31q-37 -199 -57 -422l-31 -32q-340 14 -547 14q-297 0 -542 -20zM438 1587q211 78 510 205l33 -10l74 -221l-15 -33q-266 -49 -520 -113l-39 27z" />
<glyph unicode="&#xca;" horiz-adv-x="1234" d="M27 -20l18 188q78 12 105.5 50t27.5 130l2 686q0 66 -11 88.5t-44 22.5l-53 -4l-25 28l19 162q291 -6 602 -6t508 25l26 -33q-37 -215 -47 -408l-283 -18q4 49 5 76q0 70 -38 91t-122 21t-97.5 -10t-13.5 -45l-12 -231l168 -2l225 12l25 -29l-29 -235q-152 6 -220.5 6 t-178.5 -13q-2 -70 -2 -161.5t17 -113t81 -21.5q133 0 176 39.5t62 177.5l262 18l24 -31q-37 -199 -57 -422l-31 -32q-340 14 -547 14q-297 0 -542 -20zM283 1577q170 123 362 283h55q0 6 50 -35q205 -166 311 -248l-72 -127l-47 -14q-96 41 -270 104q-106 -39 -269 -104 l-47 14z" />
<glyph unicode="&#xcb;" horiz-adv-x="1234" d="M27 -20l18 188q78 12 105.5 50t27.5 130l2 686q0 66 -11 88.5t-44 22.5l-53 -4l-25 28l19 162q291 -6 602 -6t508 25l26 -33q-37 -215 -47 -408l-283 -18q4 49 5 76q0 70 -38 91t-122 21t-97.5 -10t-13.5 -45l-12 -231l168 -2l225 12l25 -29l-29 -235q-152 6 -220.5 6 t-178.5 -13q-2 -70 -2 -161.5t17 -113t81 -21.5q133 0 176 39.5t62 177.5l262 18l24 -31q-37 -199 -57 -422l-31 -32q-340 14 -547 14q-297 0 -542 -20zM303 1567q0 82 47 130t127 48t122 -43t42 -123t-47 -128t-129 -48q-162 0 -162 164zM696 1567q0 82 47.5 130t127 48 t121.5 -43t42 -123t-47 -128t-127 -48q-164 0 -164 164z" />
<glyph unicode="&#xcc;" horiz-adv-x="757" d="M8 1561l74 221l33 10q258 -111 510 -205l-43 -145l-39 -27q-190 50 -520 113zM31 -10l16 174q82 18 107.5 51t25.5 117v708q0 63 -14 84t-57 21l-54 -2l-18 28l16 154h330l352 10l-14 -184q-70 -10 -91.5 -29.5t-25.5 -77.5q-20 -322 -20 -725q0 -86 13 -113.5t52 -27.5 l66 6l16 -20l-18 -172q-256 8 -342 8z" />
<glyph unicode="&#xcd;" horiz-adv-x="757" d="M31 -10l16 174q82 18 107.5 51t25.5 117v708q0 63 -14 84t-57 21l-54 -2l-18 28l16 154h330l352 10l-14 -184q-70 -10 -91.5 -29.5t-25.5 -77.5q-20 -322 -20 -725q0 -86 13 -113.5t52 -27.5l66 6l16 -20l-18 -172q-256 8 -342 8zM154 1587q211 78 510 205l32 -10 l74 -221l-14 -33q-266 -49 -520 -113l-39 27z" />
<glyph unicode="&#xce;" horiz-adv-x="757" d="M-2 1577q170 123 362 283h56q0 6 51 -35q203 -166 309 -248l-71 -127l-48 -14q-96 41 -270 104q-106 -39 -268 -104l-47 14zM31 -10l16 174q82 18 107.5 51t25.5 117v708q0 63 -14 84t-57 21l-54 -2l-18 28l16 154h330l352 10l-14 -184q-70 -10 -91.5 -29.5t-25.5 -77.5 q-20 -322 -20 -725q0 -86 13 -113.5t52 -27.5l66 6l16 -20l-18 -172q-256 8 -342 8z" />
<glyph unicode="&#xcf;" horiz-adv-x="757" d="M18 1567q0 82 47.5 130t127 48t121.5 -43t42 -123t-47 -128t-129 -48q-162 0 -162 164zM31 -10l16 174q82 18 107.5 51t25.5 117v708q0 63 -14 84t-57 21l-54 -2l-18 28l16 154h330l352 10l-14 -184q-70 -10 -91.5 -29.5t-25.5 -77.5q-20 -322 -20 -725q0 -86 13 -113.5 t52 -27.5l66 6l16 -20l-18 -172q-256 8 -342 8zM412 1567q0 82 47 130t127 48t122 -43t42 -123t-47.5 -128t-127.5 -48q-164 0 -163 164z" />
<glyph unicode="&#xd0;" horiz-adv-x="1441" d="M14 561l27 182h190v287q0 63 -11 87t-40 24l-65 -4l-21 28l19 166q227 -6 311 -6l340 12q649 0 649 -616q0 -344 -191.5 -545t-521.5 -201q-197 25 -325 25l-293 -16l16 190q78 12 105.5 48t27.5 122v201h-196zM627 332q0 -59 15 -80t58 -21q133 0 188.5 94.5t55.5 331 t-54 328.5t-200 92q-41 0 -43 -55l-14 -277l153 7l17 -21l-15 -184h-161v-215z" />
<glyph unicode="&#xd1;" horiz-adv-x="1513" d="M27 1169l12 166q154 -10 303 -10l262 8q164 -295 393 -651h31l-8 375q-2 51 -16.5 69.5t-51.5 18.5h-63l-10 22l10 166q225 -8 424.5 -8t199.5 6l-10 -184q-66 -8 -91.5 -37t-27.5 -92l-26 -1018l-385 -25q-213 354 -420 670h-31l6 -364q2 -59 18.5 -82t61.5 -23l70 8 l18 -18l-22 -174q-227 8 -303 8q-139 0 -328 -16l20 184q115 14 117 129l25 715q0 70 -29 94t-125 35zM385 1493v33l166 235l35 8q37 0 161.5 -34.5t149.5 -34.5q47 0 119 90l22 29h33l121 -111v-33l-166 -235l-35 -8q-37 0 -161.5 34.5t-150.5 34.5t-60.5 -29.5 t-79.5 -89.5h-33z" />
<glyph unicode="&#xd2;" horiz-adv-x="1341" d="M31 650q0 333 172 516.5t497 183.5q610 0 611 -654q0 -346 -174 -533.5t-483.5 -187.5t-466 171t-156.5 504zM289 1561l73 221l33 10q258 -111 510 -205l-43 -145l-39 -27q-190 50 -520 113zM500 689.5q0 -230.5 40 -343.5t134 -113t131 77t37 307.5t-41 341 t-135.5 110.5t-130 -74.5t-35.5 -305z" />
<glyph unicode="&#xd3;" horiz-adv-x="1341" d="M31 650q0 333 172 516.5t497 183.5q610 0 611 -654q0 -346 -174 -533.5t-483.5 -187.5t-466 171t-156.5 504zM434 1587q211 78 510 205l33 -10l74 -221l-15 -33q-266 -49 -520 -113l-39 27zM500 689.5q0 -230.5 40 -343.5t134 -113t131 77t37 307.5t-41 341t-135.5 110.5 t-130 -74.5t-35.5 -305z" />
<glyph unicode="&#xd4;" horiz-adv-x="1341" d="M31 650q0 333 172 516.5t497 183.5q610 0 611 -654q0 -346 -174 -533.5t-483.5 -187.5t-466 171t-156.5 504zM279 1577q170 123 362 283h55q0 6 49 -35q205 -166 312 -248l-72 -127l-47 -14q-96 41 -270 104q-106 -39 -269 -104l-47 14zM500 689.5q0 -230.5 40 -343.5 t134 -113t131 77t37 307.5t-41 341t-135.5 110.5t-130 -74.5t-35.5 -305z" />
<glyph unicode="&#xd5;" horiz-adv-x="1341" d="M31 650q0 333 172 516.5t497 183.5q610 0 611 -654q0 -346 -174 -533.5t-483.5 -187.5t-466 171t-156.5 504zM262 1493v33l166 235l35 8q37 0 162 -34.5t149 -34.5q47 0 119 90l22 29h33l121 -111v-33l-166 -235l-35 -8q-37 0 -161.5 34.5t-150.5 34.5t-60.5 -29.5 t-79.5 -89.5h-33zM500 689.5q0 -230.5 40 -343.5t134 -113t131 77t37 307.5t-41 341t-135.5 110.5t-130 -74.5t-35.5 -305z" />
<glyph unicode="&#xd6;" horiz-adv-x="1341" d="M31 650q0 333 172 516.5t497 183.5q610 0 611 -654q0 -346 -174 -533.5t-483.5 -187.5t-466 171t-156.5 504zM299 1567q0 82 47 130t127 48t122 -43t42 -123t-47 -128t-129 -48q-162 0 -162 164zM500 689.5q0 -230.5 40 -343.5t134 -113t131 77t37 307.5t-41 341 t-135.5 110.5t-130 -74.5t-35.5 -305zM692 1567q0 82 47 130t127 48t122 -43t42 -123t-47 -128t-127 -48q-164 0 -164 164z" />
<glyph unicode="&#xd7;" horiz-adv-x="1036" d="M72 707l6 32l221 170q111 -113 217 -221l229 244l31 -12l172 -209l-225 -228l235 -219l-12 -33l-215 -178l-221 217l-215 -217l-33 6l-162 213q100 100 205 203z" />
<glyph unicode="&#xd8;" horiz-adv-x="1341" d="M31 645q0 338 172 521.5t497 183.5q154 0 271 -43l155 233l199 -110l4 -27l-158 -234q139 -164 139.5 -491.5t-173.5 -515t-496 -187.5q-133 0 -242 35l-163 -250l-195 113l-8 21l162 243q-164 170 -164 508zM500 689.5q0 -230.5 40 -343.5t134 -113t131 77t37 307.5 t-41 341t-135.5 110.5t-130 -74.5t-35.5 -305z" />
<glyph unicode="&#xd9;" horiz-adv-x="1284" d="M0 1149l20 182q201 -6 363 -6l274 8l-20 -190q-53 -4 -74.5 -27.5t-23.5 -73.5l-13 -591q0 -101 41 -158t118 -57t111.5 43t34.5 137l-2 618q0 63 -11 87t-42 24l-47 -4l-6 8l22 182q170 -6 246 -6l295 6l-16 -184q-63 -20 -81 -36.5t-18 -53.5v-578q0 -250 -138 -377 t-404.5 -127t-387 103.5t-120.5 329.5v626q0 68 -11.5 89.5t-46.5 21.5l-59 -4zM305 1561l74 221l33 10q258 -111 510 -205l-43 -145l-39 -27q-191 50 -521 113z" />
<glyph unicode="&#xda;" horiz-adv-x="1284" d="M0 1149l20 182q201 -6 363 -6l274 8l-20 -190q-53 -4 -74.5 -27.5t-23.5 -73.5l-13 -591q0 -101 41 -158t118 -57t111.5 43t34.5 137l-2 618q0 63 -11 87t-42 24l-47 -4l-6 8l22 182q170 -6 246 -6l295 6l-16 -184q-63 -20 -81 -36.5t-18 -53.5v-578q0 -250 -138 -377 t-404.5 -127t-387 103.5t-120.5 329.5v626q0 68 -11.5 89.5t-46.5 21.5l-59 -4zM451 1587q211 78 510 205l32 -10l74 -221l-14 -33q-266 -49 -521 -113l-38 27z" />
<glyph unicode="&#xdb;" horiz-adv-x="1284" d="M0 1149l20 182q201 -6 363 -6l274 8l-20 -190q-53 -4 -74.5 -27.5t-23.5 -73.5l-13 -591q0 -101 41 -158t118 -57t111.5 43t34.5 137l-2 618q0 63 -11 87t-42 24l-47 -4l-6 8l22 182q170 -6 246 -6l295 6l-16 -184q-63 -20 -81 -36.5t-18 -53.5v-578q0 -250 -138 -377 t-404.5 -127t-387 103.5t-120.5 329.5v626q0 68 -11.5 89.5t-46.5 21.5l-59 -4zM295 1577q170 123 362 283h56q0 6 49 -35q205 -166 311 -248l-72 -127l-47 -14q-96 41 -270 104q-106 -39 -268 -104l-47 14z" />
<glyph unicode="&#xdc;" horiz-adv-x="1284" d="M0 1149l20 182q201 -6 363 -6l274 8l-20 -190q-53 -4 -74.5 -27.5t-23.5 -73.5l-13 -591q0 -101 41 -158t118 -57t111.5 43t34.5 137l-2 618q0 63 -11 87t-42 24l-47 -4l-6 8l22 182q170 -6 246 -6l295 6l-16 -184q-63 -20 -81 -36.5t-18 -53.5v-578q0 -250 -138 -377 t-404.5 -127t-387 103.5t-120.5 329.5v626q0 68 -11.5 89.5t-46.5 21.5l-59 -4zM315 1567q0 82 47.5 130t127 48t121.5 -43t42 -123t-47 -128t-129 -48q-162 0 -162 164zM709 1567q0 82 47 130t127 48t122 -43t42 -123t-47.5 -128t-127.5 -48q-164 0 -163 164z" />
<glyph unicode="&#xdd;" horiz-adv-x="1357" d="M0 1141l20 186q240 -4 308 -4l368 14l15 -22l-19 -168q-84 0 -84 -51q0 -16 115 -303h29l84 233q27 59 26.5 91t-78.5 32l-6 12l17 162h323l232 8l8 -16l-17 -178q-137 -78 -227 -258l-186 -373q-31 -72 -31 -167t22.5 -124t79.5 -29l105 7l10 -13l-18 -192 q-305 12 -424 12l-412 -18l16 188q131 8 171 40t40 122v33q0 78 -57 184l-219 407q-61 113 -203 172zM516 1587q211 78 510 205l33 -10l74 -221l-15 -33q-266 -49 -520 -113l-39 27z" />
<glyph unicode="&#xde;" horiz-adv-x="1239" d="M31 -10l16 174q82 16 107.5 49t25.5 119v708q0 63 -14 84t-57 21l-54 -2l-18 28l16 154h330l352 10l-14 -184q-76 -16 -94.5 -27.5t-20.5 -29t-4 -25.5h141q254 0 375 -95t121 -283.5t-141.5 -297t-368.5 -108.5h-145v-47q0 -37 12 -48.5t53 -11.5l86 6l17 -20l-19 -172 q-270 8 -362 8zM586 524q92 -20 131 -20q100 27 100 174q0 82 -45 119t-141 37q-41 -1 -41 -46z" />
<glyph unicode="&#xdf;" horiz-adv-x="1941" d="M27 82q33 164 39 260l231 16q0 -70 37 -106.5t117.5 -36.5t80.5 47q0 37 -49 64q-51 25 -108 47q-188 68 -264 141.5t-76 187.5q0 160 147.5 254.5t392.5 94.5q168 0 332 -45l23 -39q-33 -135 -47 -279l-213 -14l-23 14v17q0 49 -30.5 76.5t-77.5 27.5t-74 -15.5t-27 -35 t5.5 -30.5t18.5 -21.5t24.5 -18.5t35 -17t38.5 -15.5t46 -16.5t69 -24.5t80 -36t89 -58.5q94 -70 94 -203q0 -158 -144.5 -246.5t-400.5 -88.5q-90 0 -176 17t-168 52zM997 82q33 164 39 260l232 16q0 -70 36.5 -106.5t117.5 -36.5t81 47q0 37 -49 64q-51 25 -108 47 q-188 68 -264 141.5t-76 187.5q0 160 147 254.5t393 94.5q168 0 332 -45l23 -39q-33 -135 -48 -279l-213 -14l-22 14v17q0 49 -31 76.5t-78 27.5t-73.5 -15.5t-26.5 -35t5 -30.5t18.5 -21.5t24.5 -18.5t35 -17t39 -15.5t46 -16.5t68.5 -24.5t79.5 -36t90 -58.5 q94 -70 94 -203q0 -158 -144.5 -246.5t-400.5 -88.5q-90 0 -176 17t-168 52z" />
<glyph unicode="&#xe0;" horiz-adv-x="1200" d="M8 -2l12 149q57 16 80 80l262 797l494 27l27 -23q166 -635 198.5 -753.5t98.5 -124.5l12 -19l-14 -135q-150 2 -246 2l-336 -6l-14 14l10 148q92 10 100 22q4 8 4 31l-6 61q-47 2 -125 2l-129 -6q-14 -61 -14 -80.5t6 -23.5t39 -4h37l16 -19l-14 -143q-164 4 -266 4h-232 zM266 1266l74 221l33 10q258 -111 510 -205l-43 -145l-39 -27q-190 50 -520 113zM494 487h77q49 0 80 2l-49 254h-39z" />
<glyph unicode="&#xe1;" horiz-adv-x="1200" d="M8 -2l12 149q57 16 80 80l262 797l494 27l27 -23q166 -635 198.5 -753.5t98.5 -124.5l12 -19l-14 -135q-150 2 -246 2l-336 -6l-14 14l10 148q92 10 100 22q4 8 4 31l-6 61q-47 2 -125 2l-129 -6q-14 -61 -14 -80.5t6 -23.5t39 -4h37l16 -19l-14 -143q-164 4 -266 4h-232 zM354 1292q211 78 510 205l33 -10l74 -221l-15 -33q-266 -49 -520 -113l-39 27zM494 487h77q49 0 80 2l-49 254h-39z" />
<glyph unicode="&#xe2;" horiz-adv-x="1200" d="M8 -2l12 149q57 16 80 80l262 797l494 27l27 -23q166 -635 198.5 -753.5t98.5 -124.5l12 -19l-14 -135q-150 2 -246 2l-336 -6l-14 14l10 148q92 10 100 22q4 8 4 31l-6 61q-47 2 -125 2l-129 -6q-14 -61 -14 -80.5t6 -23.5t39 -4h37l16 -19l-14 -143q-164 4 -266 4h-232 zM219 1282q170 123 363 283h55q0 6 51 -35q203 -166 309 -248l-71 -127l-47 -14q-96 41 -271 104q-106 -39 -268 -104l-47 14zM494 487h77q49 0 80 2l-49 254h-39z" />
<glyph unicode="&#xe3;" horiz-adv-x="1200" d="M8 -2l12 149q57 16 80 80l262 797l494 27l27 -23q166 -635 198.5 -753.5t98.5 -124.5l12 -19l-14 -135q-150 2 -246 2l-336 -6l-14 14l10 148q92 10 100 22q4 8 4 31l-6 61q-47 2 -125 2l-129 -6q-14 -61 -14 -80.5t6 -23.5t39 -4h37l16 -19l-14 -143q-164 4 -266 4h-232 zM201 1198v33l166 235l34 9q37 0 162 -35t150 -35q47 0 118 90l23 29h33l121 -111v-33l-166 -235l-35 -8q-37 0 -162 34.5t-150.5 34.5t-60.5 -29.5t-80 -89.5h-32zM494 487h77q49 0 80 2l-49 254h-39z" />
<glyph unicode="&#xe4;" horiz-adv-x="1200" d="M8 -2l12 149q57 16 80 80l262 797l494 27l27 -23q166 -635 198.5 -753.5t98.5 -124.5l12 -19l-14 -135q-150 2 -246 2l-336 -6l-14 14l10 148q92 10 100 22q4 8 4 31l-6 61q-47 2 -125 2l-129 -6q-14 -61 -14 -80.5t6 -23.5t39 -4h37l16 -19l-14 -143q-164 4 -266 4h-232 zM240 1272q0 82 47 130t127 48t122 -43t42 -123t-47.5 -128t-129.5 -48q-162 0 -161 164zM494 487h77q49 0 80 2l-49 254h-39zM633 1272q0 82 47 130t127 48t122 -43t42 -123t-47 -128t-127 -48q-164 0 -164 164z" />
<glyph unicode="&#xe5;" horiz-adv-x="1200" d="M8 -2l12 149q57 16 80 80l262 797l494 27l27 -23q166 -635 198.5 -753.5t98.5 -124.5l12 -19l-14 -135q-150 2 -246 2l-336 -6l-14 14l10 148q92 10 100 22q4 8 4 31l-6 61q-47 2 -125 2l-129 -6q-14 -61 -14 -80.5t6 -23.5t39 -4h37l16 -19l-14 -143q-164 4 -266 4h-232 zM389 1313q0 96 61.5 157.5t166 61.5t155.5 -57.5t51 -147.5t-61.5 -157.5t-162.5 -67.5t-155.5 57.5t-54.5 153.5zM494 487h77q49 0 80 2l-49 254h-39zM530 1319q0 -39 24.5 -56.5t55.5 -17.5q72 0 72 68q0 72 -76 71.5t-76 -65.5z" />
<glyph unicode="&#xe6;" horiz-adv-x="1652" d="M20 152q66 14 97 75l262 604q-4 47 -43 48l-43 -2l-23 24l17 135q932 -12 1200 15l24 -27q-31 -176 -38 -328l-256 -14q4 37 4 71.5t-31 51t-91.5 16.5t-70.5 -7t-10 -30l29 -180l114 23l174 45l31 -31l-20 -203l-164 -22l-101 -21l15 -88q16 -106 86 -106 q88 0 117.5 31.5t43.5 134.5l238 16l23 -27q-31 -160 -50 -340l-26 -26q-283 10 -557 10h-74l-297 -8l-12 14l12 148q66 6 87.5 19t21.5 46v41l-7 72l-122 -23l-127 -39l-23 -96q0 -14 9.5 -16t39.5 -2h43l2 -19l-12 -143q-8 4 -348 4h-139zM541 520l63 6l80 15l-20 202h-39 z" />
<glyph unicode="&#xe7;" horiz-adv-x="1048" d="M35 519q0 251 151.5 391.5t444.5 140.5q129 0 366 -41l15 -37q-37 -150 -49 -352l-285 -17q2 41 2 98.5t-21.5 82t-89 24.5t-92 -49t-24.5 -213t30.5 -239t97 -75t91 38t30.5 135l283 18q-16 -180 -16 -354l-25 -27q-152 -47 -338 -57l-14 -64q86 -41 153.5 -97 t67.5 -129t-88 -132.5t-215 -59.5q-66 0 -123 30t-57 75t100 145h19q2 -55 28.5 -84.5t81.5 -29.5t55 48t-178 134l41 164q-213 16 -327.5 149t-114.5 384z" />
<glyph unicode="&#xe8;" horiz-adv-x="1056" d="M27 -16l16 159q61 8 84 39t23 103l2 508q0 51 -8.5 68.5t-34.5 17.5l-43 -2l-23 24l16 135q254 -4 514.5 -4t430.5 19l24 -27q-31 -176 -39 -328l-256 -14q4 37 4 71.5t-30.5 51t-92 16.5t-72 -8t-10.5 -31l-8 -157h133l185 8l22 -27l-24 -198q-123 4 -163 4t-163 -9 v-104q0 -61 12.5 -78.5t85 -17.5t107.5 30.5t49 133.5l236 16l22 -27q-31 -160 -47 -340l-29 -26q-272 10 -450 10q-260 0 -473 -16zM213 1266l74 221l32 10q258 -111 510 -205l-43 -145l-38 -27q-191 50 -521 113z" />
<glyph unicode="&#xe9;" horiz-adv-x="1056" d="M27 -16l16 159q61 8 84 39t23 103l2 508q0 51 -8.5 68.5t-34.5 17.5l-43 -2l-23 24l16 135q254 -4 514.5 -4t430.5 19l24 -27q-31 -176 -39 -328l-256 -14q4 37 4 71.5t-30.5 51t-92 16.5t-72 -8t-10.5 -31l-8 -157h133l185 8l22 -27l-24 -198q-123 4 -163 4t-163 -9 v-104q0 -61 12.5 -78.5t85 -17.5t107.5 30.5t49 133.5l236 16l22 -27q-31 -160 -47 -340l-29 -26q-272 10 -450 10q-260 0 -473 -16zM322 1292q211 78 509 205l33 -10l74 -221l-14 -33q-266 -49 -521 -113l-38 27z" />
<glyph unicode="&#xea;" horiz-adv-x="1056" d="M27 -16l16 159q61 8 84 39t23 103l2 508q0 51 -8.5 68.5t-34.5 17.5l-43 -2l-23 24l16 135q254 -4 514.5 -4t430.5 19l24 -27q-31 -176 -39 -328l-256 -14q4 37 4 71.5t-30.5 51t-92 16.5t-72 -8t-10.5 -31l-8 -157h133l185 8l22 -27l-24 -198q-123 4 -163 4t-163 -9 v-104q0 -61 12.5 -78.5t85 -17.5t107.5 30.5t49 133.5l236 16l22 -27q-31 -160 -47 -340l-29 -26q-272 10 -450 10q-260 0 -473 -16zM186 1282q170 123 363 283h55q0 6 51 -35q203 -166 310 -248l-72 -127l-47 -14q-96 41 -271 104q-106 -39 -268 -104l-47 14z" />
<glyph unicode="&#xeb;" horiz-adv-x="1056" d="M27 -16l16 159q61 8 84 39t23 103l2 508q0 51 -8.5 68.5t-34.5 17.5l-43 -2l-23 24l16 135q254 -4 514.5 -4t430.5 19l24 -27q-31 -176 -39 -328l-256 -14q4 37 4 71.5t-30.5 51t-92 16.5t-72 -8t-10.5 -31l-8 -157h133l185 8l22 -27l-24 -198q-123 4 -163 4t-163 -9 v-104q0 -61 12.5 -78.5t85 -17.5t107.5 30.5t49 133.5l236 16l22 -27q-31 -160 -47 -340l-29 -26q-272 10 -450 10q-260 0 -473 -16zM207 1272q0 82 47 130t127 48t122 -43t42 -123t-47 -128t-129 -48q-162 0 -162 164zM600 1272q0 82 47 130t127 48t122 -43t42 -123 t-47 -128t-127 -48q-164 0 -164 164z" />
<glyph unicode="&#xec;" horiz-adv-x="659" d="M-25 1266l74 221l33 10q258 -111 510 -205l-43 -145l-39 -27q-190 50 -520 113zM31 -6l14 147q68 14 87.5 38t19.5 91v529q0 49 -12.5 64.5t-47.5 15.5h-41l-16 24l14 129h283l305 6l-12 -155q-57 -8 -73.5 -22.5t-21.5 -59.5q-16 -213 -16 -541q0 -66 10.5 -87t42.5 -21 l49 4l15 -19l-15 -143q-221 6 -292 6z" />
<glyph unicode="&#xed;" horiz-adv-x="659" d="M31 -6l14 147q68 14 87.5 38t19.5 91v529q0 49 -12.5 64.5t-47.5 15.5h-41l-16 24l14 129h283l305 6l-12 -155q-57 -8 -73.5 -22.5t-21.5 -59.5q-16 -213 -16 -541q0 -66 10.5 -87t42.5 -21l49 4l15 -19l-15 -143q-221 6 -292 6zM82 1292q211 78 510 205l33 -10l73 -221 l-14 -33q-266 -49 -520 -113l-39 27z" />
<glyph unicode="&#xee;" horiz-adv-x="659" d="M-53 1282q170 123 362 283h56q0 6 49 -35q205 -166 311 -248l-72 -127l-47 -14q-96 41 -270 104q-106 -39 -268 -104l-48 14zM31 -6l14 147q68 14 87.5 38t19.5 91v529q0 49 -12.5 64.5t-47.5 15.5h-41l-16 24l14 129h283l305 6l-12 -155q-57 -8 -73.5 -22.5t-21.5 -59.5 q-16 -213 -16 -541q0 -66 10.5 -87t42.5 -21l49 4l15 -19l-15 -143q-221 6 -292 6z" />
<glyph unicode="&#xef;" horiz-adv-x="659" d="M-33 1272q0 82 47 130t127 48t122 -43t42 -123t-47 -128t-129 -48q-162 0 -162 164zM31 -6l14 147q68 14 87.5 38t19.5 91v529q0 49 -12.5 64.5t-47.5 15.5h-41l-16 24l14 129h283l305 6l-12 -155q-57 -8 -73.5 -22.5t-21.5 -59.5q-16 -213 -16 -541q0 -66 10.5 -87 t42.5 -21l49 4l15 -19l-15 -143q-221 6 -292 6zM360 1272q0 82 47.5 130t127 48t121.5 -43t42 -123t-47 -128t-127 -48q-164 0 -164 164z" />
<glyph unicode="&#xf0;" horiz-adv-x="1224" d="M27 426l22 158h150v207q0 49 -9.5 67.5t-31.5 18.5l-54 -5l-18 25l16 139q197 -4 269 -4l284 10q537 0 537 -479q0 -272 -157.5 -426.5t-434.5 -154.5q-164 18 -274 18l-248 -12l12 162q61 8 85 34.5t24 85.5v144h-156zM551 414l2 -148q0 -39 8 -52t33 -13 q100 0 139 64.5t39 245.5t-32.5 244.5t-137.5 63.5q-33 0 -33 -45l-12 -188l107 4l14 -17l-12 -159h-115z" />
<glyph unicode="&#xf1;" horiz-adv-x="1290" d="M27 899l10 141q131 -8 266 -8l232 6q109 -186 292 -454h29l-8 227q-4 41 -14 55.5t-41 14.5h-52l-10 18l8 139q199 -6 371 -6t172 4l-8 -155q-53 -8 -73.5 -30t-22.5 -71l-23 -772l-354 -18l-312 454h-28l8 -211q2 -49 15.5 -66t52.5 -17l53 6l18 -15l-20 -147 q-199 6 -273 6l-274 -12l18 155q49 6 71 30t24 71l20 530q0 55 -22.5 72.5t-102.5 27.5zM268 1198v33l166 235l35 9q37 0 162 -35t151 -35q45 0 115 90l25 29h32l121 -111v-33l-166 -235l-35 -8q-37 0 -161.5 34.5t-150 34.5t-60.5 -29.5t-80 -89.5h-33z" />
<glyph unicode="&#xf2;" d="M35 502q0 549 555 549q258 0 384 -126t126 -391.5t-142.5 -408.5t-402.5 -143q-520 0 -520 520zM203 1266l73 221l33 10q258 -111 510 -205l-43 -145l-39 -27q-190 50 -520 113zM457 538.5q0 -178.5 23.5 -257t89 -78.5t87 49t21.5 227t-23.5 255t-90 77t-87 -47 t-20.5 -225.5z" />
<glyph unicode="&#xf3;" d="M35 502q0 549 555 549q258 0 384 -126t126 -391.5t-142.5 -408.5t-402.5 -143q-520 0 -520 520zM311 1292q211 78 510 205l33 -10l74 -221l-15 -33q-266 -49 -520 -113l-39 27zM457 538.5q0 -178.5 23.5 -257t89 -78.5t87 49t21.5 227t-23.5 255t-90 77t-87 -47 t-20.5 -225.5z" />
<glyph unicode="&#xf4;" d="M35 502q0 549 555 549q258 0 384 -126t126 -391.5t-142.5 -408.5t-402.5 -143q-520 0 -520 520zM174 1282q170 123 363 283h55q0 6 51 -35q203 -166 309 -248l-71 -127l-47 -14q-96 41 -271 104q-106 -39 -268 -104l-47 14zM457 538.5q0 -178.5 23.5 -257t89 -78.5t87 49 t21.5 227t-23.5 255t-90 77t-87 -47t-20.5 -225.5z" />
<glyph unicode="&#xf5;" d="M35 502q0 549 555 549q258 0 384 -126t126 -391.5t-142.5 -408.5t-402.5 -143q-520 0 -520 520zM158 1198v33l166 235l34 9q37 0 162 -35t152 -35q45 0 114 90l25 29h33l121 -111v-33l-166 -235l-35 -8q-37 0 -162 34.5t-150.5 34.5t-60.5 -29.5t-80 -89.5h-32z M457 538.5q0 -178.5 23.5 -257t89 -78.5t87 49t21.5 227t-23.5 255t-90 77t-87 -47t-20.5 -225.5z" />
<glyph unicode="&#xf6;" d="M35 502q0 549 555 549q258 0 384 -126t126 -391.5t-142.5 -408.5t-402.5 -143q-520 0 -520 520zM197 1272q0 82 47 130t127 48t122 -43t42 -123t-47.5 -128t-129.5 -48q-162 0 -161 164zM457 538.5q0 -178.5 23.5 -257t89 -78.5t87 49t21.5 227t-23.5 255t-90 77t-87 -47 t-20.5 -225.5zM590 1272q0 82 47 130t127 48t122 -43t42 -123t-47 -128t-127 -48q-164 0 -164 164z" />
<glyph unicode="&#xf7;" horiz-adv-x="1036" d="M31 387l37 277q287 -2 469 -2l452 12l15 -31l-27 -278l-928 -5zM338 134q0 83 48 132t128 49t123 -44t43 -126t-47 -131t-129 -49t-124 43t-42 126zM338 873.5q0 82.5 48 132t128 49.5t123 -44t43 -126t-47 -131t-129 -49t-124 43t-42 125.5z" />
<glyph unicode="&#xf8;" d="M-8 -66l153 199q-110 133 -110 369q0 549 555 549q111 0 207 -27l149 203l197 -113l2 -22l-146 -197q100 -125 101 -354q0 -272 -142.5 -415.5t-412.5 -143.5q-113 0 -199 24l-156 -205l-192 117zM457 538.5q0 -178.5 23.5 -257t89 -78.5t87 49t21.5 227t-23.5 255 t-90 77t-87 -47t-20.5 -225.5z" />
<glyph unicode="&#xf9;" horiz-adv-x="1081" d="M6 883l19 153q172 -4 315 -4l233 6l-18 -164q-74 -2 -78 -73l-10 -459q0 -63 28.5 -101t82 -38t78 26.5t24.5 89.5l-2 474q2 86 -41 86l-35 -2l-6 6l20 153q143 -4 205 -4l256 4l-14 -157q-49 -16 -63.5 -28.5t-14.5 -37.5v-434q0 -397 -457 -397q-225 0 -324.5 77.5 t-99.5 253.5v480q0 53 -9 69.5t-38 16.5l-47 -2zM217 1266l74 221l33 10q258 -111 510 -205l-43 -145l-39 -27q-191 50 -521 113z" />
<glyph unicode="&#xfa;" horiz-adv-x="1081" d="M6 883l19 153q172 -4 315 -4l233 6l-18 -164q-74 -2 -78 -73l-10 -459q0 -63 28.5 -101t82 -38t78 26.5t24.5 89.5l-2 474q2 86 -41 86l-35 -2l-6 6l20 153q143 -4 205 -4l256 4l-14 -157q-49 -16 -63.5 -28.5t-14.5 -37.5v-434q0 -397 -457 -397q-225 0 -324.5 77.5 t-99.5 253.5v480q0 53 -9 69.5t-38 16.5l-47 -2zM326 1292q211 78 510 205l32 -10l74 -221l-14 -33q-266 -49 -520 -113l-39 27z" />
<glyph unicode="&#xfb;" horiz-adv-x="1081" d="M6 883l19 153q172 -4 315 -4l233 6l-18 -164q-74 -2 -78 -73l-10 -459q0 -63 28.5 -101t82 -38t78 26.5t24.5 89.5l-2 474q2 86 -41 86l-35 -2l-6 6l20 153q143 -4 205 -4l256 4l-14 -157q-49 -16 -63.5 -28.5t-14.5 -37.5v-434q0 -397 -457 -397q-225 0 -324.5 77.5 t-99.5 253.5v480q0 53 -9 69.5t-38 16.5l-47 -2zM188 1282q170 123 363 283h55q0 6 49 -35q205 -166 312 -248l-72 -127l-47 -14q-96 41 -270 104q-106 -39 -269 -104l-47 14z" />
<glyph unicode="&#xfc;" horiz-adv-x="1081" d="M6 883l19 153q172 -4 315 -4l233 6l-18 -164q-74 -2 -78 -73l-10 -459q0 -63 28.5 -101t82 -38t78 26.5t24.5 89.5l-2 474q2 86 -41 86l-35 -2l-6 6l20 153q143 -4 205 -4l256 4l-14 -157q-49 -16 -63.5 -28.5t-14.5 -37.5v-434q0 -397 -457 -397q-225 0 -324.5 77.5 t-99.5 253.5v480q0 53 -9 69.5t-38 16.5l-47 -2zM211 1272q0 82 47 130t127 48t122 -43t42 -123t-47 -128t-129 -48q-162 0 -162 164zM604 1272q0 82 47 130t127 48t122 -43t42 -123t-47 -128t-127 -48q-164 0 -164 164z" />
<glyph unicode="&#xfd;" horiz-adv-x="1183" d="M18 874l19 160q211 -4 264 -4l313 12l15 -20l-19 -143h-10q-51 0 -51 -37q0 -16 34.5 -92t49.5 -111h24l54 152q23 45 22.5 67.5t-49.5 22.5h-10l-6 10l14 137l279 2l198 6l6 -12l-14 -154q-51 -31 -102.5 -86t-81.5 -112l-152 -291q-25 -55 -24.5 -116.5t18.5 -84 t68 -22.5l88 6l8 -10l-15 -164q-268 10 -370 10l-361 -14l13 159q111 6 146.5 29t35.5 90v17q0 57 -47 137l-187 321q-43 63 -161 125zM381 1292q211 78 510 205l33 -10l73 -221l-14 -33q-266 -49 -520 -113l-39 27z" />
<glyph unicode="&#xfe;" horiz-adv-x="1071" d="M31 -6l14 147q66 12 86.5 37t20.5 92v529q0 49 -12.5 64.5t-47.5 15.5h-41l-16 24l14 129h283l305 6l-12 -155q-61 -12 -75.5 -19.5t-19.5 -27.5h113q215 0 316.5 -76t101.5 -225.5t-117 -232.5t-309 -83h-121v-33q0 -23 10.5 -28.5t42.5 -5.5l68 4l16 -19l-16 -143 q-236 6 -311 6zM516 422q66 -14 100 -14q68 23 68 125t-133 102q-33 0 -33 -39v-43z" />
<glyph unicode="&#xff;" horiz-adv-x="1183" d="M18 874l19 160q211 -4 264 -4l313 12l15 -20l-19 -143h-10q-51 0 -51 -37q0 -16 34.5 -92t49.5 -111h24l54 152q23 45 22.5 67.5t-49.5 22.5h-10l-6 10l14 137l279 2l198 6l6 -12l-14 -154q-51 -31 -102.5 -86t-81.5 -112l-152 -291q-25 -55 -24.5 -116.5t18.5 -84 t68 -22.5l88 6l8 -10l-15 -164q-268 10 -370 10l-361 -14l13 159q111 6 146.5 29t35.5 90v17q0 57 -47 137l-187 321q-43 63 -161 125zM266 1272q0 82 47 130t127 48t122 -43t42 -123t-47 -128t-129 -48q-162 0 -162 164zM659 1272q0 82 47.5 130t127 48t121.5 -43t42 -123 t-47 -128t-127 -48q-164 0 -164 164z" />
<glyph unicode="&#x152;" horiz-adv-x="1873" d="M31 651q0 332 167 506t492 174q59 0 214 -12t255 -12q311 0 656 43l26 -33q-37 -215 -47 -408l-283 -18q4 49 5 76q0 70 -38 91t-122 21t-97.5 -10t-13.5 -45l-12 -231l168 -2l225 12l25 -29l-29 -235q-152 6 -246 6l-153 -13l-2 -174q0 -80 17.5 -101t80.5 -21 q133 0 177 39.5t60 177.5l263 18l24 -31q-37 -199 -57 -422l-31 -32q-346 20 -545.5 20t-353.5 -13t-205 -13q-297 0 -458.5 169.5t-161.5 501.5zM496 690.5q0 -237.5 41 -353.5t143 -116q147 0 147 180l2 498q0 182 -170 182q-90 0 -126.5 -76.5t-36.5 -314z" />
<glyph unicode="&#x153;" horiz-adv-x="1560" d="M29 510q0 524 546 524q47 0 176.5 -9t292 -9t469.5 35l25 -27q-31 -176 -39 -328l-254 -14q2 37 2 71.5t-29.5 51t-91 16.5t-72 -8t-10.5 -31l-10 -157h135l185 8l22 -27l-24 -198q-123 4 -199 4l-127 -9l-2 -104q0 -61 13.5 -78.5t87 -17.5t107.5 30.5t46 133.5l238 16 l22 -27q-31 -160 -49 -340l-27 -26q-279 16 -555 16l-356 -20q-254 0 -388 131t-134 393zM446 539.5q0 -183.5 24.5 -265t98.5 -81.5q100 0 101 116v381q0 131 -119 131q-61 0 -83 -49t-22 -232.5z" />
<glyph unicode="&#x178;" horiz-adv-x="1357" d="M0 1141l20 186q240 -4 308 -4l368 14l15 -22l-19 -168q-84 0 -84 -51q0 -16 115 -303h29l84 233q27 59 26.5 91t-78.5 32l-6 12l17 162h323l232 8l8 -16l-17 -178q-137 -78 -227 -258l-186 -373q-31 -72 -31 -167t22.5 -124t79.5 -29l105 7l10 -13l-18 -192 q-305 12 -424 12l-412 -18l16 188q131 8 171 40t40 122v33q0 78 -57 184l-219 407q-61 113 -203 172zM381 1567q0 82 47 130t127 48t122 -43t42 -123t-47 -128t-129 -48q-162 0 -162 164zM774 1567q0 82 47 130t127 48t122 -43t42 -123t-47 -128t-127 -48q-164 0 -164 164z " />
<glyph unicode="&#x2c6;" horiz-adv-x="815" d="M37 1237q164 145 342 319h55q180 -178 340 -319l-92 -127l-47 -14q-78 53 -229 141q-139 -80 -228 -141l-47 14z" />
<glyph unicode="&#x2dc;" horiz-adv-x="815" d="M4 1186v33l166 235l35 8q37 0 162 -34.5t149 -34.5q47 0 119 90l22 28h33l121 -110v-33l-166 -235l-35 -9q-37 0 -161.5 35t-150.5 35t-60.5 -29.5t-79.5 -89.5h-33z" />
<glyph unicode="&#x2000;" horiz-adv-x="930" />
<glyph unicode="&#x2001;" horiz-adv-x="1860" />
<glyph unicode="&#x2002;" horiz-adv-x="930" />
<glyph unicode="&#x2003;" horiz-adv-x="1860" />
<glyph unicode="&#x2004;" horiz-adv-x="620" />
<glyph unicode="&#x2005;" horiz-adv-x="465" />
<glyph unicode="&#x2006;" horiz-adv-x="310" />
<glyph unicode="&#x2007;" horiz-adv-x="310" />
<glyph unicode="&#x2008;" horiz-adv-x="232" />
<glyph unicode="&#x2009;" horiz-adv-x="372" />
<glyph unicode="&#x200a;" horiz-adv-x="103" />
<glyph unicode="&#x2010;" horiz-adv-x="663" d="M68 397l20 217l313 35l170 23l25 -37l-27 -221l-475 -54z" />
<glyph unicode="&#x2011;" horiz-adv-x="663" d="M68 397l20 217l313 35l170 23l25 -37l-27 -221l-475 -54z" />
<glyph unicode="&#x2012;" horiz-adv-x="663" d="M68 397l20 217l313 35l170 23l25 -37l-27 -221l-475 -54z" />
<glyph unicode="&#x2013;" horiz-adv-x="917" d="M-25 444l23 215h747l179 5l20 -39l-29 -217l-917 -2z" />
<glyph unicode="&#x2014;" horiz-adv-x="1699" d="M-25 444l23 215h833q831 0 875 5l20 -39l-28 -217l-1700 -2z" />
<glyph unicode="&#x2018;" horiz-adv-x="538" d="M57 926.5q0 101.5 92.5 217.5t249.5 206l119 -95v-51q-59 -43 -95 -102.5t-36 -132t59 -138.5l-6 -28q-117 -90 -201.5 -90t-133 56t-48.5 157.5z" />
<glyph unicode="&#x2019;" horiz-adv-x="538" d="M20 807v51q59 41 95.5 100.5t36.5 133t-60 139.5l6 29q117 90 202 90t133 -56.5t48 -158t-92 -217t-250 -205.5z" />
<glyph unicode="&#x201a;" horiz-adv-x="487" d="M-16 -104q59 43 95 102t36 132t-60 138l6 29q117 90 202 90t133 -56.5t48 -157.5t-92 -217t-250 -206l-118 94v52z" />
<glyph unicode="&#x201c;" horiz-adv-x="978" d="M57 926.5q0 101.5 92.5 217.5t249.5 206l119 -95v-51q-59 -43 -95 -102.5t-36 -132t59 -138.5l-6 -28q-117 -90 -201.5 -90t-133 56t-48.5 157.5zM498 926.5q0 101.5 92 217.5t250 206l118 -95v-51q-59 -43 -95 -102.5t-36 -132t60 -138.5l-6 -28q-117 -90 -202 -90 t-133 56t-48 157.5z" />
<glyph unicode="&#x201d;" horiz-adv-x="978" d="M20 807v51q59 41 95.5 100.5t36.5 133t-60 139.5l6 29q117 90 202 90t133 -56.5t48 -158t-92 -217t-250 -205.5zM461 807v51q59 41 95 100.5t36 133t-60 139.5l7 29q117 90 201.5 90t133 -56.5t48.5 -158t-92.5 -217t-249.5 -205.5z" />
<glyph unicode="&#x201e;" horiz-adv-x="915" d="M-16 -104q59 43 95 102t36 132t-60 138l6 29q117 90 202 90t133 -56.5t48 -157.5t-92 -217t-250 -206l-118 94v52zM412 -104q59 43 95 102t36 132t-60 138l6 29q117 90 202 90t133 -56.5t48 -157.5t-92 -217t-250 -206l-118 94v52z" />
<glyph unicode="&#x2022;" horiz-adv-x="696" d="M82 485q0 129 73.5 205t199.5 76t191.5 -67.5t65.5 -195.5t-73.5 -204t-199.5 -76t-191.5 66.5t-65.5 195.5z" />
<glyph unicode="&#x2026;" horiz-adv-x="1429" d="M43 178q0 96 56.5 153.5t149.5 57.5t143 -51t50 -146.5t-55 -152.5t-150.5 -57t-144.5 50t-49 146zM514 178q0 96 56.5 153.5t149.5 57.5t143 -51t50 -146.5t-55 -152.5t-150.5 -57t-144.5 50t-49 146zM985 178q0 96 56.5 153.5t149.5 57.5t143 -51t50 -146.5t-55 -152.5 t-150.5 -57t-144.5 50t-49 146z" />
<glyph unicode="&#x202f;" horiz-adv-x="372" />
<glyph unicode="&#x2039;" horiz-adv-x="552" d="M20 449v55q179 190 320 360l127 -71l14 -48q-37 -61 -141 -270q86 -172 141 -268l-14 -47l-127 -74q-145 174 -320 363z" />
<glyph unicode="&#x203a;" horiz-adv-x="552" d="M72 205q37 61 141 270q-86 172 -141 268l14 48l127 73q145 -174 319 -362v-56q-178 -190 -319 -360l-127 72z" />
<glyph unicode="&#x205f;" horiz-adv-x="465" />
<glyph unicode="&#x20ac;" horiz-adv-x="1138" d="M-4 340l18 137h127v17q0 43 2 65h-131l-16 12l18 138h158q53 166 197.5 253t365.5 87q131 0 352 -41l15 -33q-37 -143 -49 -336l-246 -14q2 41 2 97t-29.5 84t-97.5 28q-129 0 -160 -125l238 8l16 -17l-12 -139l-256 -2v-8q0 -51 2 -74h6l244 8l16 -16l-12 -139l-229 -2 q42 -127 157 -127q68 0 101.5 43t44.5 145l245 17q-20 -186 -22 -338l-21 -25q-180 -59 -385.5 -59t-329.5 90t-165 254h-148z" />
<glyph unicode="&#x2122;" horiz-adv-x="1175" d="M-2 1108q6 123 6 215l10 10l105 -8h258l104 8l13 -10l2 -207l-115 -8q-4 74 -10 93.5t-31 19.5l-2 -258q0 -53 43 -54l41 4l4 -6l-8 -78q-127 4 -174 5l-176 -9l6 78q49 4 65.5 16.5t16.5 43.5v258q-23 0 -31 -20.5t-12 -84.5zM494 827l6 76q43 2 45 47l28 267 q0 20 -5 24t-42 8l-8 6l8 74q92 -4 127 -4l142 4l45 -213h12q35 123 53 209q98 0 246 4l6 -2l-6 -76q-33 0 -43 -7t-10 -30q0 -98 18 -241q6 -63 37 -64h25l6 -6l-6 -72q-53 2 -149.5 2.5t-115.5 -6.5l11 76q23 4 32 11.5t9 25.5l2 143h-13q-37 -100 -75 -249l-119 -9 q-72 244 -76 258h-10v-149q0 -27 26 -27l21 2l8 -6l-10 -72q-98 2 -125 3z" />
<glyph unicode="&#xe000;" horiz-adv-x="1044" d="M0 0v1044h1044v-1044h-1044z" />
<glyph unicode="&#xfb01;" horiz-adv-x="1638" d="M27 -14l16 159q61 8 84 38t23 102l2 508q0 51 -8.5 68.5t-34.5 17.5l-43 -2l-23 24l16 135q254 -4 499 -4t396 19l23 -27q-23 -180 -29 -326l-254 -14q2 35 2 68.5t-24.5 51t-71.5 17.5t-57.5 -8t-10.5 -31l-10 -184l135 -2l179 8l22 -24l-22 -199q-121 4 -164 4t-158 -8 v-80q0 -57 13.5 -75.5t61.5 -18.5t91 14l31 -33l-25 -188q-201 4 -280 4q-131 0 -379 -14zM1010 -6l14 147q68 14 87 38t19 91v529q0 49 -12 64.5t-47 15.5h-41l-16 24l14 129h283l305 6l-12 -155q-57 -8 -74 -22.5t-21 -59.5q-16 -213 -16 -541q0 -66 10 -87t43 -21l49 4 l15 -19l-15 -143q-221 6 -292 6z" />
<glyph unicode="&#xfb02;" horiz-adv-x="1966" d="M27 -14l16 159q61 8 84 38t23 102l2 508q0 51 -8.5 68.5t-34.5 17.5l-43 -2l-23 24l16 135q254 -4 499 -4t396 19l23 -27q-23 -180 -29 -326l-254 -14q2 35 2 68.5t-24.5 51t-71.5 17.5t-57.5 -8t-10.5 -31l-10 -184l135 -2l179 8l22 -24l-22 -199q-121 4 -164 4t-158 -8 v-80q0 -57 13.5 -75.5t61.5 -18.5t91 14l31 -33l-25 -188q-201 4 -280 4q-131 0 -379 -14zM1004 -16l16 159q63 8 85.5 39t22.5 103v514q0 49 -12 64.5t-47 15.5h-41l-18 24l14 129h285l374 6l-20 -170q-90 -8 -121 -22.5t-33 -48.5q-18 -240 -18 -535q0 -59 53 -59 q84 0 113 52t37 214l235 23l23 -27q-25 -215 -39 -447l-29 -28q-252 10 -418 10q-250 0 -462 -16z" />
</font>
</defs>
</svg>
