<?xml version="1.0" standalone="no"?>
<!DOCTYPE svg PUBLIC "-//W3C//DTD SVG 1.1//EN" "http://www.w3.org/Graphics/SVG/1.1/DTD/svg11.dtd" >
<svg xmlns="http://www.w3.org/2000/svg">
<metadata></metadata>
<defs>
<font id="alegreya_scbold_italic" horiz-adv-x="1128" >
<font-face units-per-em="2048" ascent="1638" descent="-410" />
<missing-glyph horiz-adv-x="339" />
<glyph horiz-adv-x="2048" />
<glyph horiz-adv-x="2048" />
<glyph unicode="&#xd;" horiz-adv-x="681" />
<glyph unicode=" "  horiz-adv-x="339" />
<glyph unicode="&#x09;" horiz-adv-x="339" />
<glyph unicode="&#xa0;" horiz-adv-x="339" />
<glyph unicode="!" horiz-adv-x="561" d="M53 123q0 72 52.5 125t125 53t107.5 -36t35 -107.5t-51.5 -126t-125 -54.5t-108.5 37t-35 109zM182 483l66 881l31 35l276 45l31 -37l-240 -928l-135 -22z" />
<glyph unicode="&#x22;" horiz-adv-x="636" d="M143 844q31 190 43 467l207 28l13 -20q-57 -225 -130 -442l-104 -41zM434 844q29 209 41 467l209 28l12 -20q-57 -225 -129 -442l-104 -41z" />
<glyph unicode="#" horiz-adv-x="1044" d="M8 387l45 141l199 -2l59 193h-184l-8 22l45 144l194 -2l88 284l152 15l20 -13l-94 -286h90l91 -2l88 286l151 15l21 -13l-95 -286l191 4l8 -25l-45 -143h-205l-59 -191l188 2l8 -24l-43 -141h-200l-84 -275l-148 -22l-20 16l90 281l-109 2l-75 -2l-84 -275l-150 -22 l-18 16l88 281l-187 -3zM414 526h86l98 -2l61 197h-186z" />
<glyph unicode="$" horiz-adv-x="892" d="M29 68q45 143 63 268l156 12q-4 -37 -4 -84q0 -125 147 -125q76 0 122 32t46 81t-43 82t-118.5 70.5t-107.5 56t-77 55.5q-88 68 -88 189.5t105.5 216t277.5 116.5l67 291l146 19l10 -19l-67 -287q121 -8 239 -41l10 -24q-45 -129 -73 -275l-144 -10l-14 10q10 49 10 74 q0 100 -135 101q-68 0 -113 -32t-45 -81q0 -61 121 -125q16 -8 66.5 -32.5t76 -39t65.5 -42t60 -52.5q53 -63 54 -141q0 -143 -113 -236.5t-307 -109.5l-68 -295l-143 -17l-12 15l67 297q-119 12 -225 57z" />
<glyph unicode="%" horiz-adv-x="1417" d="M90 915q0 190 99.5 307t256.5 117q119 0 184.5 -76.5t65.5 -201.5q0 -188 -96 -308t-256 -120q-117 0 -185.5 74.5t-68.5 207.5zM145 -106q248 369 424 647l537 848l127 -52l14 -39q-360 -547 -545 -833l-413 -655l-133 55zM223 973q0 -70 44 -103.5t118 -33.5 q176 0 176 155q0 63 -42 100t-122 37q-174 0 -174 -155zM788 258q0 190 99.5 307t257.5 117q119 0 184.5 -77t65.5 -202q0 -188 -97.5 -308t-257.5 -120q-117 0 -184.5 76t-67.5 207zM920 317q0 -137 170 -137t170 154q0 66 -42 102.5t-124 36.5t-128 -41t-46 -115z" />
<glyph unicode="&#x26;" horiz-adv-x="1298" d="M57 443q0 212 132.5 369t299.5 157q74 0 119 -38t45 -86t-14 -73l10 -6q141 131 217 251t101 265l20 21h72q76 -150 76 -207q0 -31 -64 -111q-139 -180 -318.5 -328.5t-467.5 -314.5q80 -182 299 -182q141 0 234 77.5t128 219.5l-65 8q-37 0 -117 -80h-10l-60 80v8 l160 164l33 10q37 0 184.5 -19.5t171.5 -19.5q43 0 141 82h13l55 -78v-10l-156 -164l-36 -12l-138 14q-70 -203 -241.5 -334t-372.5 -131t-326 128t-125 340zM240 512q0 -27 4 -63q147 90 191 137t44 114.5t-69.5 67.5t-119.5 -70.5t-50 -185.5z" />
<glyph unicode="'" horiz-adv-x="348" d="M143 844q31 190 43 467l207 28l13 -20q-57 -225 -130 -442l-104 -41z" />
<glyph unicode="(" horiz-adv-x="610" d="M113 209.5q0 64.5 6 124.5l43 354q16 141 67.5 259t110.5 186q119 135 213 178l39 18h22l56 -94l-4 -12q-27 -10 -76 -57.5t-83 -98.5t-69 -144.5t-47 -203.5l-43 -354q-8 -78 -8 -131.5t6 -120t31 -129.5q47 -115 102 -164l21 -17l-2 -16l-95 -86h-16 q-45 18 -104.5 74.5t-97.5 121t-55 156.5t-17 156.5z" />
<glyph unicode=")" horiz-adv-x="618" d="M-45 -205l2 12q33 16 78 60.5t80 95.5t68.5 144.5t47.5 203.5l43 355q8 78 8.5 131t-6 119.5t-30.5 132.5q-47 113 -103 159l-20 19l2 16l94 86h17q12 -6 34.5 -18.5t75.5 -62.5t90 -114.5t55.5 -157.5t18.5 -157.5t-6 -122.5l-45 -354q-16 -141 -67.5 -259t-110.5 -185 q-121 -137 -211 -181l-39 -16h-23z" />
<glyph unicode="*" horiz-adv-x="804" d="M164 1208q0 92 22 164l21 6q102 -53 209 -135l-15 -84l-16 -12zM207 940v21q82 80 192 157l76 -41l6 -16l-125 -195q-90 29 -149 74zM426 1495q90 29 164 29l14 -17q-23 -113 -63 -241l-86 -11l-15 9zM512 1065l63 59h19l143 -180q-53 -76 -114 -119l-21 6 q-49 102 -90 234zM563 1231l4 20l217 82q55 -76 76 -147l-12 -17q-86 -14 -248 -14z" />
<glyph unicode="+" horiz-adv-x="999" d="M31 444l51 185q176 -2 334 -2l45 368l188 23l23 -14q-37 -217 -58 -377l361 12l10 -25l-45 -188l-352 -2l-39 -344l-187 -31l-18 17q25 190 45 358l-346 -2z" />
<glyph unicode="," horiz-adv-x="468" d="M-49 -190q66 45 106.5 108.5t40.5 136t-61 138.5l4 28q92 70 157.5 70t104.5 -49t39 -144.5t-90 -202t-223 -182.5l-78 62v35z" />
<glyph unicode="-" horiz-adv-x="638" d="M63 422l35 160l475 59l17 -27l-37 -163l-473 -54z" />
<glyph unicode="." horiz-adv-x="471" d="M35 122q0 73 52 126t125 53t107.5 -36t34.5 -107.5t-52 -126t-126 -54.5t-107.5 36t-33.5 109z" />
<glyph unicode="/" horiz-adv-x="649" d="M-45 -203q145 354 260 666l340 919h166l22 -30q-256 -649 -600 -1577h-174z" />
<glyph unicode="0" horiz-adv-x="985" d="M45 401q0 283 153.5 463t391.5 180q170 0 265 -112.5t95 -308.5q0 -285 -151 -466.5t-389 -181.5q-172 0 -268.5 114t-96.5 312zM217 490.5q0 -119.5 67.5 -183t198.5 -63.5t212 76.5t81 197.5t-68.5 184.5t-199.5 63.5t-211 -78t-80 -197.5z" />
<glyph unicode="1" horiz-adv-x="722" d="M0 -23l29 129q102 10 145 49.5t53 139.5q57 461 57.5 489.5t-15 48t-72.5 19.5l-99 -10l-10 14l27 117q98 8 213.5 25.5t185.5 27.5t123 18l14 -61q-68 -51 -96 -160q-92 -442 -92 -596q0 -94 74 -94l96 6l4 -10l-39 -137q-184 8 -251.5 8t-113 -2t-85 -6t-74.5 -7 t-74 -8z" />
<glyph unicode="2" horiz-adv-x="956" d="M-25 49l168 170q186 193 267 309q84 119 84 201q0 98 -115 98t-229 -157h-27l-19 151q92 104 203 163.5t227.5 59.5t193.5 -64.5t77 -169.5t-80 -217t-358 -386l8 -17h178q90 0 133 39t76 148l160 14q-70 -219 -103 -385l-33 -24q-485 18 -673 18l-129 -18z" />
<glyph unicode="3" horiz-adv-x="856" d="M-37 -70.5q0 50.5 2 74.5l31 29q68 -27 182.5 -27t203.5 61.5t89 153.5q0 143 -268 144l-17 20l2 127l131 29q76 35 123 91t47 109.5t-29.5 80t-76.5 26.5q-100 0 -227 -100l-25 -3l-25 146q74 49 188 101t220.5 52t179 -58t72.5 -152.5t-69.5 -177.5t-186.5 -130l-2 -16 q244 -70 244 -246q0 -109 -99.5 -219.5t-252 -180t-300.5 -69.5q-84 0 -110.5 42t-26.5 92.5z" />
<glyph unicode="4" horiz-adv-x="929" d="M-35 150q4 23 11.5 68.5t11.5 68.5l614 753q2 0 12 4l172 -22l-86 -700h160l14 -23l-38 -170q-63 2 -156 6l-25 -297l-18 -18l-240 -25l-12 21q29 178 51 325q-307 8 -471 9zM199 322h260l47 364h-21z" />
<glyph unicode="5" horiz-adv-x="843" d="M-59 -41q0 20 2 45l30 29q72 -27 186.5 -27t206 60.5t91.5 142.5t-78 125t-268 72l-15 22l109 553l16 16l385 15q57 4 85 20.5t50 61.5l113 8l-88 -301l-29 -27q-176 16 -389 17l-37 -189q213 -39 320.5 -110.5t107.5 -194.5q0 -186 -215 -344t-446 -158q-80 0 -108.5 41 t-28.5 123z" />
<glyph unicode="6" horiz-adv-x="917" d="M43 336.5q0 152.5 44 274.5t113.5 207t153.5 158t170 118q186 96 267 118l45 13l18 -11l27 -112q-33 -8 -112 -53t-137.5 -90.5t-127 -121t-113.5 -161.5l6 -12q2 0 74 35.5t100 39.5q139 0 217 -87t78 -218q0 -197 -137 -328t-350 -131q-158 0 -247 104.5t-89 257z M289 354q0 -100 38 -156.5t116.5 -56.5t124.5 62.5t46 158t-37.5 146.5t-109.5 51t-158 -57q-20 -106 -20 -148z" />
<glyph unicode="7" horiz-adv-x="845" d="M63 598q55 233 89 420l14 10q117 -8 240 -8h430l67 -98q-199 -342 -491 -895l-93 -232h-34l-176 55l-17 52l547 905l-258 -16q-94 -8 -129 -41t-66 -140z" />
<glyph unicode="8" horiz-adv-x="946" d="M45 240q0 213 258 329q-158 113 -158 270.5t131.5 271.5t315.5 114q131 0 221 -71t90 -187q0 -197 -213 -305q168 -111 168 -277t-140 -288t-335 -122q-147 0 -242.5 73t-95.5 192zM274 297q0 -72 44 -121t116 -49t125 50t53 124q0 68 -67 117q-61 45 -139 88 q-131 -86 -132 -209zM391 914.5q0 -60.5 45 -100.5t137 -91q98 80 99 195q0 70 -35 107.5t-96.5 37.5t-105.5 -44t-44 -104.5z" />
<glyph unicode="9" horiz-adv-x="917" d="M47 -82q33 8 112 53t137 89t127 120t114 162l-9 14q-6 -2 -41 -20q-94 -51 -131 -55q-139 0 -216 87t-77 218q0 197 136.5 327.5t349.5 130.5q158 0 248 -104t90 -257t-44 -274.5t-114 -207.5t-153.5 -158t-169.5 -117q-168 -90 -312 -133l-18 12zM313 656.5 q0 -95.5 38 -145.5t108.5 -50t156.5 55q20 80 20.5 164t-36.5 141.5t-114.5 57.5t-125 -63.5t-47.5 -159z" />
<glyph unicode=":" horiz-adv-x="468" d="M35 122q0 73 52 126t125 53t107.5 -36t34.5 -107.5t-52 -126t-126 -54.5t-107.5 36t-33.5 109zM102 681q0 73 52.5 126t125 53t107.5 -36t35 -107.5t-52.5 -125.5t-126 -54t-107.5 35.5t-34 108.5z" />
<glyph unicode=";" horiz-adv-x="468" d="M-51 -190q66 45 106.5 108.5t40.5 136t-61 138.5l4 28q92 70 157.5 70t104.5 -49t39 -144.5t-90 -202t-223 -182.5l-78 62v35zM102 681q0 73 52.5 126t125 53t107.5 -36t35 -107.5t-52.5 -125.5t-126 -54t-107.5 35.5t-34 108.5z" />
<glyph unicode="&#x3c;" horiz-adv-x="921" d="M53 463l29 199l760 323l24 -16l23 -156q-180 -66 -623 -248l-2 -14l551 -270l6 -31l-102 -133q-266 135 -651 319z" />
<glyph unicode="=" horiz-adv-x="999" d="M8 264l51 185q287 -2 461 -3l432 13l11 -25l-45 -188l-898 -4zM53 629l51 184q285 -2 461 -2l432 12l11 -24l-43 -189l-899 -4z" />
<glyph unicode="&#x3e;" horiz-adv-x="921" d="M53 289q186 68 623 246l2 14l-551 270l-6 33l102 133q158 -82 301 -154l353 -165l12 -27l-27 -201l-762 -321l-22 14z" />
<glyph unicode="?" horiz-adv-x="733" d="M109 123q0 72 51 125t124.5 53t108.5 -36t35 -107.5t-52 -126t-125 -54.5t-107.5 37t-34.5 109zM180 711l10 28l228 129q121 70 121 164q0 176 -334 197l-12 28l94 173l32 14q207 -6 341.5 -99.5t134.5 -230.5q0 -90 -50.5 -165t-101.5 -113q-98 -76 -225 -152l-6 -14 l6 -170l-15 -23l-184 -37l-22 13z" />
<glyph unicode="@" horiz-adv-x="1712" d="M33 367q0 184 72.5 357t195.5 303t298 209t370 79q332 0 532.5 -180.5t200.5 -474t-189.5 -489.5t-519.5 -196q-43 0 -66.5 22.5t-23.5 74t70 323.5l-17 2q-170 -309 -329 -422q-113 0 -174.5 80t-61.5 219q0 250 159 465t335 215l178 -36l14 45l25 14l164 -29l16 -35 q-109 -418 -158 -741l13 -12q180 0 283.5 121.5t103.5 320.5q0 258 -165 403.5t-459 145.5t-489.5 -212t-195.5 -532.5t197.5 -520t578.5 -210.5v-32l-63 -103q-422 8 -658.5 235.5t-236.5 590.5zM647 387q0 -72 12.5 -122t30.5 -50q45 0 139.5 153.5t174.5 364.5 q-104 59 -181 60q-66 0 -121 -127t-55 -279z" />
<glyph unicode="A" horiz-adv-x="1236" d="M-80 -6l31 135q88 14 145 137l471 1037l322 34l22 -10q94 -707 158 -1059q12 -74 41 -103.5t94 -37.5l8 -14l-28 -119q-158 6 -238 6q-156 0 -344 -16l-8 16l24 121q98 8 130 24.5t32 61.5q0 25 -22 217q-53 4 -164 4t-205 -14l-65 -158q-20 -49 -21 -76q0 -53 80 -53h86 l6 -12l-29 -127q-162 12 -286 12zM461 584h137q55 0 145 8l-57 457h-29z" />
<glyph unicode="B" horiz-adv-x="1243" d="M10 -20l31 135q88 16 123 50t43 114q102 819 102 843.5t-9 43t-44 18.5l-68 -4l-12 16l35 123q205 -6 274 -6l287 12q190 0 297 -72.5t107 -205.5q0 -221 -254 -353q117 -37 180 -109.5t63 -168.5q0 -195 -153.5 -315.5t-403.5 -120.5l-303 20q-102 0 -295 -20zM463 248 q0 -47 37 -71.5t139 -24.5t163.5 62t61.5 169q0 154 -172 195l-180 -3q-49 -315 -49 -327zM537 754q150 -18 184 -19q23 6 54.5 29.5t51.5 50.5q58 66 58 170q0 174 -246 174q-20 0 -29 -8q-16 -14 -73 -397z" />
<glyph unicode="C" horiz-adv-x="1216" d="M66 524q0 371 205.5 592t551.5 221q145 0 404 -49l8 -26q-61 -170 -100 -385l-199 -13q18 96 18 135q0 145 -202 146q-174 0 -270.5 -150.5t-96.5 -431.5q0 -195 68.5 -297t187.5 -102t184.5 65.5t110.5 216.5l199 15q-59 -211 -86 -379l-21 -25q-180 -82 -428 -82 t-391 146.5t-143 402.5z" />
<glyph unicode="D" horiz-adv-x="1368" d="M14 -20l31 137q84 14 118 50t46 122q100 811 100 834.5t-8 41t-43 17.5l-68 -4l-8 18l31 123q174 -6 252 -6l297 10q270 0 429 -140.5t159 -387.5q0 -352 -219 -586t-551 -234q-195 25 -275 25q-127 0 -291 -20zM465 253.5q0 -60.5 31.5 -83.5t115.5 -23q195 0 307.5 167 t112.5 456q0 381 -377 381q-33 0 -45 -10.5t-16 -38.5q-129 -788 -129 -848.5z" />
<glyph unicode="E" horiz-adv-x="1179" d="M10 -20l33 137q84 12 118 49t44 125q102 813 102 836.5t-7 40t-46 16.5l-61 -4l-11 18l31 121q217 -6 501.5 -6t469.5 24l12 -20q-57 -180 -90 -371l-184 -12q16 72 16 125t-45 70.5t-152.5 17.5t-125 -10.5t-25.5 -57.5l-53 -323l184 -2l231 16l13 -16l-50 -174 q-158 6 -230.5 6t-176.5 -13q-47 -322 -47 -355.5t22.5 -46.5t94.5 -13q182 0 238 39t97 194l170 15l13 -21q-59 -182 -103 -379l-22 -20q-367 14 -529 14q-240 0 -432 -20z" />
<glyph unicode="F" horiz-adv-x="1052" d="M10 -23l31 136q86 16 120 53t44 125q102 813 102 836.5t-7 40t-46 16.5l-61 -4l-11 18l31 121q217 -6 484.5 -6t439.5 24l12 -20q-53 -184 -86 -373l-182 -12q16 74 16 127t-39 70.5t-132 17.5t-110.5 -10.5t-25.5 -57.5l-58 -358l185 -2l209 16l12 -16l-47 -174 q-145 6 -225 6t-162 -14q-41 -279 -41 -307.5t12 -51t62 -22.5l129 10l14 -21l-39 -153q-209 8 -293 8q-131 0 -338 -23z" />
<glyph unicode="G" horiz-adv-x="1288" d="M66 524q0 371 205.5 592t551.5 221q145 0 404 -49l8 -26q-61 -156 -100 -371l-199 -14q18 88 18 127q0 141 -202 141q-174 0 -270.5 -150.5t-96.5 -431.5q0 -195 68.5 -297t199.5 -102q51 0 101.5 13t97.5 40q25 211 25 235.5t-12.5 41t-63.5 16.5h-103l-8 16l39 144h8 l66 -2h47l104 -2h52q72 0 133 4t61 6l4 -78q-72 -45 -90 -168q-35 -178 -35 -278l2 -68l-20 -25q-61 -31 -196.5 -57.5t-262.5 -26.5q-250 0 -393 146.5t-143 402.5z" />
<glyph unicode="H" horiz-adv-x="1474" d="M12 -18l31 131q94 20 125 58t43 148q96 786 96 809t-9 39.5t-52 16.5l-60 -2l-8 16l29 119q156 -4 237 -4l301 16l-26 -135q-76 -12 -99.5 -38t-35.5 -109l-49 -295q86 0 229 -2h35q121 0 217 12q45 340 45 362.5t-10.5 41t-51.5 18.5l-61 -2l-8 16l31 119q217 -4 278 -4 l266 16l-24 -133q-74 -10 -100.5 -31.5t-37.5 -81.5q-39 -221 -82.5 -512.5t-43.5 -346t15 -74t52 -19.5l74 6l8 -14l-33 -129q-137 6 -243 6h-82l-242 -4l33 133q82 2 115.5 40t48.5 148l32 265q-139 2 -211 2l-278 -21q-43 -344 -43 -356v-33q4 -43 61 -43l72 6l8 -14 l-33 -129q-168 6 -233.5 6t-140.5 -4q-184 -6 -185 -14z" />
<glyph unicode="I" horiz-adv-x="720" d="M10 -18l31 131q88 18 122 53t44 119q100 821 100 842.5t-9 39t-52 17.5l-68 -2l-8 16l29 119l276 -4l285 16l-29 -135q-76 -10 -103.5 -31.5t-37.5 -79.5q-129 -748 -129 -870q0 -47 14 -64.5t49 -17.5l86 6l6 -14l-32 -129q-205 6 -273 6q-139 0 -301 -18z" />
<glyph unicode="J" horiz-adv-x="657" d="M-86 -231l8 22q131 84 183 177.5t77 283.5q106 854 106.5 875.5t-9 39t-48.5 17.5l-86 -6l-6 16l29 119l246 2q123 0 303 16l-29 -137q-66 -12 -86 -31.5t-31 -79.5q-80 -457 -131 -874q-27 -205 -141.5 -329t-337.5 -193z" />
<glyph unicode="K" horiz-adv-x="1304" d="M12 -6l35 129q88 14 119 45t41 117q100 821 100 843.5t-9 39t-52 16.5l-60 -2l-8 16l31 121q211 -6 266 -6l277 16l-27 -135q-76 -14 -104.5 -39t-36.5 -80l-119 -805q-4 -39 -4 -67.5t6 -42.5q10 -29 57 -29l78 6l8 -14l-35 -129q-199 6 -284 6zM551 647l10 43l322 324 q72 72 72 118q0 48 -95 54l-6 14l31 125q166 -12 248 -12l233 10l10 -23l-28 -114q-70 -27 -125.5 -71t-145.5 -140l-250 -264l209 -414q47 -94 92.5 -135t108.5 -45l12 -17l-28 -106q-201 -25 -236 -25q-117 0 -199 172z" />
<glyph unicode="L" horiz-adv-x="1050" d="M20 -20l33 137q78 12 110 49t42 125q102 813 102 835.5t-10 40t-53 17.5l-60 -2l-8 16l31 119l268 -4l309 16l-30 -141q-96 -12 -126 -38t-53.5 -153t-66.5 -414.5t-43 -338.5t22.5 -68.5t85.5 -17.5q139 0 192.5 56t98.5 253l172 16l13 -18q-59 -221 -111 -461l-23 -20 q-317 16 -473 16q-233 0 -422 -20z" />
<glyph unicode="M" horiz-adv-x="1660" d="M-6 -16l31 135q59 8 88.5 39.5t46.5 107.5q174 799 174 841t-30 60.5t-107 24.5l-11 12l33 119q178 -10 250 -10l219 8q61 -438 146 -850h16q172 387 352 846l191 -2q35 0 256 10l8 -8l-29 -123q-84 -6 -115.5 -28.5t-37.5 -80.5q-25 -215 -39 -766v-71.5t12 -81.5 t59 -35l58 4l6 -10l-33 -131q-119 6 -183.5 6t-183 -6t-129.5 -10l33 135q59 8 87 31.5t34 70.5l49 699h-18q-240 -526 -414 -936l-149 -17q-86 475 -183 953h-16q-129 -702 -129 -736q0 -53 55 -53l68 2l10 -10l-39 -131q-170 8 -235 8z" />
<glyph unicode="N" horiz-adv-x="1439" d="M25 -16l32 135q117 14 133 129q127 825 127 855t-25.5 52.5t-121.5 32.5l-12 20l26 115q131 -10 232 -10l190 8q172 -371 420 -850h21q72 633 71 645q0 68 -53 68l-68 -2l-6 16l29 123q168 -8 256 -8l235 12l-26 -135q-66 -10 -98.5 -39t-40.5 -90l-160 -1092l-217 -26 q-205 442 -459 923h-18q-84 -662 -84 -682t10 -37.5t49 -17.5l84 4l10 -12l-35 -129q-170 8 -235 8q-115 0 -266 -16z" />
<glyph unicode="O" horiz-adv-x="1331" d="M66 522q0 365 198.5 590t523.5 225q242 0 383.5 -143t141.5 -395q0 -365 -202.5 -594.5t-526.5 -229.5q-236 0 -377 147.5t-141 399.5zM379 535q0 -180 68.5 -282.5t189.5 -102.5q164 0 260 160.5t96 449.5q0 180 -70.5 282.5t-193.5 102.5q-162 0 -256 -162t-94 -448z " />
<glyph unicode="P" horiz-adv-x="1142" d="M18 -16l31 135q84 16 116 50t42 120q100 813 100 836.5t-8 41t-43 17.5l-70 -4l-10 16l33 121l248 -4l284 10q231 0 342 -95t111 -243q0 -203 -160 -360.5t-362 -157.5h-178q-35 -238 -35 -265.5t13 -49t71 -21.5l86 6l6 -12l-35 -131q-176 6 -235.5 6t-141.5 -4 q-203 -10 -205 -12zM520 645l168 -24q219 49 219 323q0 109 -64.5 159t-199.5 50q-29 0 -35 -5t-31.5 -143.5t-56.5 -359.5z" />
<glyph unicode="Q" horiz-adv-x="1339" d="M66 522q0 365 198.5 590t523.5 225q242 0 383.5 -143t141.5 -412.5t-129 -476.5t-348 -287v-6q281 -233 497 -233q80 0 170 20l15 -12l12 -84q-231 -168 -287 -168q-131 0 -255 81t-415 359q-231 4 -369 150.5t-138 396.5zM379 535q0 -180 68.5 -282.5t189.5 -102.5 q164 0 260 160.5t96 449.5q0 180 -70.5 282.5t-193.5 102.5q-162 0 -256 -162t-94 -448z" />
<glyph unicode="R" horiz-adv-x="1271" d="M10 -12l35 135q86 12 119 46t43 120q100 813 100 837.5t-8 41t-43 16.5l-70 -4l-10 16l33 123q170 -6 248 -6l286 10q211 0 330 -81t119 -226q0 -283 -303 -432l133 -293q45 -94 91 -135t108 -41l12 -19l-27 -106l-239 -23q-129 0 -195 191l-123 360h-149 q-37 -276 -37 -310t16.5 -55.5t110.5 -23.5l6 -12l-35 -125q-176 6 -264 6zM526 696l176 -20q201 82 201 293q0 190 -268 190q-20 0 -29 -8q-16 -18 -80 -455z" />
<glyph unicode="S" horiz-adv-x="1067" d="M20 82q55 176 78 346l170 14q-8 -57 -8 -122.5t27 -104.5q37 -61 148.5 -61t174 48t62.5 117.5t-53.5 114.5t-138.5 91t-113.5 62.5t-81 54.5t-76.5 71q-68 86 -68 184q0 190 158 315t403 125q176 0 310 -39l43 -14l12 -27q-55 -164 -90 -350l-154 -12l-16 12 q14 70 14 107q0 74 -41 105.5t-131 31.5t-148.5 -47t-58.5 -117q0 -86 144 -172q20 -12 99 -53t112.5 -64.5t87.5 -66.5q96 -84 96 -211q0 -199 -160 -322t-426 -123q-92 0 -182 19.5t-178 58.5z" />
<glyph unicode="T" horiz-adv-x="1124" d="M59 879q47 238 76 436l27 22l192 -22h619l207 22l18 -22l-33 -424l-170 -12v24q0 168 -27.5 209t-172.5 47q-29 -160 -81 -514t-52 -408.5t21.5 -79t70.5 -24.5l108 6l6 -10l-34 -137q-242 8 -347 8l-333 -12l32 133q131 12 169 49t55 168l100 821q-115 -4 -150.5 -19.5 t-50 -28.5t-30.5 -50q-25 -51 -50 -170z" />
<glyph unicode="U" horiz-adv-x="1292" d="M123 1188l35 131q168 -6 282 -6l238 14l-31 -137q-63 -8 -89 -31.5t-34 -77.5l-88 -596q-4 -59 -4 -90q0 -115 52.5 -176t154.5 -61q238 0 270 270q76 666 76 693.5t-7 45t-44 17.5l-66 -4l-4 8l33 131q156 -6 229 -6l240 14l-29 -135q-76 -14 -98 -32.5t-29 -69.5 l-80 -641q-29 -231 -171 -352.5t-386 -121.5q-419 0 -419 361q0 35 46 401.5t46 390t-8.5 40t-49.5 16.5l-61 -4z" />
<glyph unicode="V" horiz-adv-x="1234" d="M76 1198l30 121q162 -6 238 -6q115 0 350 18l6 -16l-24 -123q-100 -8 -131 -27.5t-31 -74.5q0 -92 76 -826h31q352 782 352 864q0 57 -92 58h-78l-8 14l28 125q168 -12 293 -12l232 6l-31 -133q-49 -8 -70.5 -27.5t-50.5 -79.5l-481 -1069l-338 -41q-96 696 -164 1088 q-16 121 -131 127z" />
<glyph unicode="W" horiz-adv-x="1904" d="M78 1198l31 121q156 -6 231 -6q127 0 334 18l8 -16l-25 -123q-96 -8 -127.5 -27.5t-31.5 -77.5q0 -141 71 -823h29q31 74 96 236q133 328 211 506q2 16 2 39.5t-8 46.5q-4 51 -33.5 70.5t-99.5 21.5l-8 14l33 121q178 -6 256 -6q121 0 337 18l9 -16l-25 -123 q-100 -8 -131 -27.5t-31 -74.5q0 -113 74 -826h29q344 803 344 873q0 27 -20.5 38t-69.5 11h-74l-8 14l30 125q162 -12 283 -12l219 6l-28 -133q-47 -8 -69 -28.5t-48 -78.5l-473 -1069l-326 -41l-78 740h-20l-287 -699l-328 -41q-84 696 -145 1088q-12 66 -41 94.5 t-84 32.5z" />
<glyph unicode="X" horiz-adv-x="1349" d="M-41 12l25 121q125 45 319 275l229 268l-170 334q-43 82 -96 118.5t-137 51.5l-4 10l31 129q166 -6 313 -6l307 16l6 -18l-24 -117q-125 -6 -125 -66q0 -43 135 -313q18 25 92 117q141 180 141 218t-90 44q-2 8 -2 10l25 117l262 -8l223 8l6 -14l-26 -123 q-90 -29 -146.5 -73t-140.5 -144l-250 -308l189 -352q47 -86 101 -126t136 -46l-28 -139q-172 6 -254 6l-359 -16l-8 14l25 121q114 8 114 64q0 28 -22 69l-133 266l-156 -194q-84 -102 -84 -146q0 -49 88 -55l6 -12l-26 -125q-188 14 -258 14l-228 -10z" />
<glyph unicode="Y" horiz-adv-x="1183" d="M70 1190l32 129q176 -6 254 -6l320 16l8 -18l-27 -117q-72 -4 -97 -18.5t-25 -62.5t114 -408h17l198 344q39 66 39 102.5t-94 42.5l-4 10l31 117l262 -8l205 8l6 -14l-31 -123q-82 -27 -136.5 -81t-133.5 -181q-238 -373 -245 -386.5t-12.5 -22.5t-9.5 -23.5t-7 -22.5 t-6 -25.5t-5 -26.5t-5 -32t-5 -33q-2 -35 -8.5 -73.5t-6.5 -67.5t12.5 -52.5t67.5 -23.5l99 6l6 -10l-35 -137q-227 8 -303 8q-104 0 -338 -23l31 138q117 16 154.5 53t47.5 141q11 88 11 139q0 53 -33 136l-146 389q-37 102 -74.5 145t-121.5 62z" />
<glyph unicode="Z" horiz-adv-x="1146" d="M-10 80l825 1087l-252 -16q-125 -8 -176 -61.5t-80 -198.5l-172 -12q59 252 86 440l25 20l350 -22l580 -8l24 -82q-377 -446 -844 -1082l310 23q98 8 160.5 82t105.5 235l172 15q-76 -268 -107 -467l-39 -39l-778 12l-153 -16z" />
<glyph unicode="[" horiz-adv-x="628" d="M70 -248q92 565 116 770l74 776l438 23l7 -16l-29 -117l-207 -41l-154 -1243l205 -43l6 -19l-28 -112z" />
<glyph unicode="\" horiz-adv-x="649" d="M129 1352l29 30h166q133 -1085 155.5 -1237.5t55.5 -347.5l-21 -22h-176q-76 602 -209 1577z" />
<glyph unicode="]" horiz-adv-x="628" d="M-63 -254l30 115l207 43l152 1243l-203 41l-6 18l28 115l428 -23q-90 -565 -116 -770l-74 -776l-440 -22z" />
<glyph unicode="^" horiz-adv-x="962" d="M29 225q80 150 401 754l201 8l24 -16q72 -248 115 -393l107 -336l-142 -86l-33 10q-84 268 -184 614h-14l-127 -254q-78 -139 -184 -368l-152 41z" />
<glyph unicode="_" horiz-adv-x="894" d="M-119 -340l43 156l477 -2q90 0 418 8l12 -29l-43 -158l-892 -4z" />
<glyph unicode="`" horiz-adv-x="786" d="M150 1362l112 143l27 2q174 -184 344 -348l-62 -80l-32 -8q-168 127 -385 262z" />
<glyph unicode="a" horiz-adv-x="1081" d="M-45 -4l27 115q70 12 112 100l375 805l311 28l19 -12q84 -569 131 -811q8 -57 31.5 -81.5t70.5 -28.5l8 -13l-24 -102q-131 4 -209 4l-287 -12l-8 12l20 109q80 6 103.5 17t23.5 42q0 24 -14 147l-141 2q-92 0 -150 -8l-45 -108q-16 -33 -16 -51q0 -37 59 -37h66l6 -13 l-23 -108q-139 8 -241 8zM416 463h106q55 0 111 6l-43 332h-27z" />
<glyph unicode="b" horiz-adv-x="1079" d="M18 -14l27 116q72 12 98.5 38t34.5 87q78 617 78 627q0 57 -43 57l-55 -2l-13 15l31 106q182 -6 238 -6l254 10q162 0 252 -57t90 -162q0 -164 -203 -272q94 -31 145.5 -87.5t51.5 -131.5q0 -158 -128 -249t-346 -91q-205 16 -256 16zM418 211q0 -37 27.5 -55.5 t107.5 -18.5t127 43t47 121q0 106 -131 137h-143q-35 -219 -35 -227zM475 598q113 -16 146 -16q121 61 120 178q0 125 -186 125q-27 0 -35 -27q-12 -59 -45 -260z" />
<glyph unicode="c" horiz-adv-x="1036" d="M66 416q0 293 165.5 460.5t454.5 167.5q123 0 340 -40l10 -23q-51 -137 -84 -313l-188 -13q16 82 16 111q0 106 -153 106q-268 0 -269 -423q0 -297 199 -297q82 0 129 47t80 163l186 13q-45 -172 -65 -309l-19 -21q-154 -63 -360.5 -63t-324 114.5t-117.5 319.5z" />
<glyph unicode="d" horiz-adv-x="1161" d="M23 -16l26 120q68 12 95.5 39t35.5 95q74 610 74 628.5t-5 31.5t-34 13l-55 -4l-8 17l26 106q154 -6 219 -6l248 10q225 0 355 -108.5t130 -302.5q0 -281 -178 -461t-456 -180q-160 18 -254 18zM418 200.5q0 -32.5 22.5 -49t81.5 -16.5q147 0 231.5 124t84.5 343 q0 143 -67 210t-208 67q-23 0 -33 -8.5t-14 -30.5q-27 -145 -62.5 -376t-35.5 -263.5z" />
<glyph unicode="e" horiz-adv-x="1013" d="M18 -16l27 118q68 10 95.5 40t35.5 100q78 604 78 623.5t-6 32.5t-37 13l-47 -2l-12 17l26 104q193 -6 426.5 -6t396.5 20l13 -18q-47 -150 -74 -299l-172 -10q14 53 14 93t-35.5 53.5t-116.5 13.5t-95.5 -8.5t-18.5 -41.5l-41 -231h148l186 12l12 -16l-41 -150 q-127 4 -195.5 4t-133.5 -10q-35 -197 -35 -234.5t18.5 -49t71.5 -11.5q139 0 183 31t75 147l160 13l12 -19q-49 -145 -82 -305l-23 -18q-293 10 -434 10q-211 0 -379 -16z" />
<glyph unicode="f" horiz-adv-x="915" d="M18 -18l27 120q68 10 94.5 39t36.5 101q78 604 78 623.5t-6 32.5t-37 13l-47 -2l-12 17l26 104q193 -6 411 -6t372 20l14 -18q-43 -154 -70 -299l-170 -10q13 55 13 93t-30 52q-30 15 -99.5 15t-84 -8.5t-18.5 -41.5l-45 -258l147 -2l175 15l10 -19l-39 -149 q-119 4 -161 4t-157 -8q-29 -190 -29 -214q0 -21 11 -40q10 -17 51 -17l103 11l14 -21l-33 -135q-176 6 -248 6q-145 0 -297 -18z" />
<glyph unicode="g" horiz-adv-x="1095" d="M68 410q0 295 167.5 464.5t456.5 169.5q123 0 340 -40l10 -23q-51 -123 -86 -297l-186 -12q18 70 18 100q0 102 -157 102q-131 0 -202 -110.5t-71 -327.5q0 -289 199 -289q78 0 148 37l18 138q4 45 -7 59t-50 14h-76l-10 17l34 120h234q164 0 164 9l4 -72 q-61 -35 -76 -127q-29 -158 -29 -223v-56l-18 -20q-141 -61 -366.5 -61t-342 112.5t-116.5 315.5z" />
<glyph unicode="h" horiz-adv-x="1251" d="M20 -12l25 112q76 14 100.5 43t34.5 109q74 596 74 615.5t-8 31.5t-43 12h-47l-9 15l25 102q131 -4 199 -4l270 12l-23 -116q-59 -8 -78.5 -28t-29.5 -79l-37 -217q61 0 167 -2h34q86 0 164 8q33 240 33 263q0 19 -9 33q-8 13 -43 13h-49l-8 15l24 102q4 -4 252 -4 l228 12l-23 -114q-61 -10 -82.5 -26.5t-30.5 -61.5q-96 -553 -96 -650q0 -69 56 -69h2l55 4l8 -13l-29 -110q-106 4 -200 4h-70l-178 -2h-41l27 113q66 2 94 31.5t37 109.5l24 192h-153l-217 -14q-33 -252 -33 -274q0 -43 49 -43l57 4l8 -13l-28 -108q-154 4 -208 4 t-118.5 -3t-108.5 -5t-47 -4z" />
<glyph unicode="i" horiz-adv-x="634" d="M20 -12l25 112q72 14 98.5 41t32.5 92q78 614 78 633t-8 32t-43 13h-53q-6 12 -7 15l23 102l237 -4l248 12l-24 -116q-61 -8 -82 -24.5t-29 -61.5q-100 -541 -100 -658q0 -37 11 -50t38 -13l67 4l7 -13l-29 -108q-176 4 -250 4z" />
<glyph unicode="j" horiz-adv-x="581" d="M-61 -182l6 20q109 68 151 139.5t62 223.5q80 649 80 667.5t-6.5 31.5t-38.5 13l-68 -6l-8 17l24 100l211 2l266 12l-24 -118q-53 -10 -69.5 -24.5t-24.5 -61.5q-49 -268 -105 -678q-20 -158 -118.5 -255.5t-292.5 -150.5z" />
<glyph unicode="k" d="M20 -4l29 108q72 12 96.5 36.5t30.5 92.5q78 614 78 634t-8 32t-43 12h-47l-9 15l27 102q188 -4 229 -4l244 12l-24 -116q-63 -14 -86 -33t-27 -60l-90 -604q-4 -31 -4 -53.5t7 -39.5t42 -17l61 4l11 -13l-29 -108q-176 4 -248 4zM481 504l11 39l245 235q60 56 60 92.5 t-74 42.5l-6 13l24 106q143 -8 213 -8l205 8l8 -18l-24 -99q-59 -27 -108.5 -64.5t-119.5 -111.5l-176 -182l158 -311q37 -72 73 -103.5t87 -38.5l12 -16l-27 -94q-176 -18 -219 -19q-92 0 -153 134z" />
<glyph unicode="l" horiz-adv-x="917" d="M25 -16l28 118q63 10 89 40t34 100q76 606 76 625.5t-8 31.5t-43 12h-47l-9 15l25 102l233 -4l277 12l-27 -125q-82 -10 -107.5 -28.5t-37.5 -77.5q-90 -489 -90 -602q0 -35 17.5 -48.5t64.5 -13.5q106 0 148 45t77 201l160 16l10 -16q-47 -182 -88 -381l-21 -18 q-258 12 -393 12q-205 0 -368 -16z" />
<glyph unicode="m" horiz-adv-x="1404" d="M6 -12l25 116q47 4 71.5 29t38.5 82q135 625 135 647q0 47 -108 53l-8 13l26 104q154 -8 215 -8l199 8q37 -258 109 -616h16q131 295 262 610l162 -2q41 0 229 10l8 -6l-22 -108q-70 -4 -95.5 -21.5t-29.5 -62.5q-16 -123 -21.5 -360.5t-5.5 -272.5t10.5 -61.5 t49.5 -26.5l47 2l6 -11l-29 -110q-98 4 -221 4t-209 -12l29 116q90 12 98 80l37 490h-16q-119 -229 -316 -684l-143 -13q-80 426 -141 697h-17q-90 -494 -90 -518q0 -41 47 -41h52l10 -9l-33 -112q-152 6 -205 6z" />
<glyph unicode="n" horiz-adv-x="1230" d="M29 -12l28 116q98 12 109 101q98 625 98 645t-20.5 37.5t-98.5 25.5l-12 19l23 100q111 -8 202 -8l172 8q145 -295 326 -616h16q51 434 52 442q0 55 -45 55l-56 -2l-6 13l25 108q150 -8 207 -8t106 2q117 4 117 8l-21 -116q-55 -8 -80.5 -31t-33.5 -70l-125 -831 l-211 -21q-184 360 -355 656h-18l-55 -435q-4 -41 7 -57t44 -16l63 2l11 -11l-29 -110q-152 6 -221 6z" />
<glyph unicode="o" d="M66 414q0 289 159.5 459.5t431.5 170.5q205 0 322 -111.5t117 -314.5q0 -289 -163 -462.5t-433 -173.5q-201 0 -317.5 114.5t-116.5 317.5zM354 420q0 -139 49.5 -211t139.5 -72q123 0 191.5 117t68.5 336q0 139 -51.5 210.5t-143.5 71.5q-119 0 -186.5 -116.5 t-67.5 -335.5z" />
<glyph unicode="p" horiz-adv-x="993" d="M25 -12l26 116q63 10 90 39t37 95q76 608 76 626.5t-6 32.5t-35 14l-57 -2l-11 15l29 104l211 -4l246 10q201 0 295 -78.5t94 -193.5q0 -162 -133 -285t-301 -123h-148q-23 -157 -23 -181q0 -22 12 -41q11 -17 58 -17l68 2q0 -2 4 -11l-29 -110q-160 4 -223 4zM461 510 l131 -18q164 38 164 235q0 154 -201 154q-25 0 -29 -9q-16 -27 -65 -362z" />
<glyph unicode="q" horiz-adv-x="1134" d="M66 414q0 289 159.5 459.5t431.5 170.5q205 0 322 -111.5t117 -323.5t-98.5 -369.5t-272.5 -221.5v-4q219 -170 395 -170q66 0 144 17l12 -13l12 -77q-205 -141 -254 -142q-106 0 -205.5 63.5t-339.5 289.5q-197 4 -310 117.5t-113 314.5zM354 420q0 -139 49.5 -211 t139.5 -72q123 0 191.5 117t68.5 336q0 139 -51.5 210.5t-143.5 71.5q-119 0 -186.5 -116.5t-67.5 -335.5z" />
<glyph unicode="r" horiz-adv-x="1103" d="M18 -12l29 118q68 8 94.5 36t36.5 96l74 598q6 43 -2 59t-37 16l-57 -2l-11 15l29 104q147 -4 211 -4l250 10q184 0 286.5 -64.5t102.5 -183.5q0 -215 -244 -335l103 -209q68 -137 157 -138l13 -20l-25 -92l-211 -17q-113 0 -164 148l-94 268h-115q-27 -181 -27 -213 q0 -31 14 -47q13 -16 93 -18l4 -11l-28 -108q-162 4 -232 4zM467 551l139 -16q53 18 102.5 69t49.5 139q0 141 -207 142q-16 0 -22.5 -7.5t-26 -107.5t-35.5 -219z" />
<glyph unicode="s" horiz-adv-x="923" d="M29 68q45 143 63 268l156 12q-4 -37 -4 -84q0 -125 147 -125q76 0 122 32t46 81t-43 82t-118.5 70.5t-107.5 56t-77 55.5q-88 68 -88 176q0 156 134 254t345 98q154 0 299 -43l10 -24q-45 -129 -73 -275l-144 -10l-14 10q10 49 10 74q0 100 -135 101q-68 0 -113 -32 t-45 -81q0 -61 121 -125q16 -8 66.5 -32.5t76 -39t65.5 -42t60 -52.5q53 -63 54 -141q0 -160 -134.5 -255t-361.5 -95q-80 0 -155.5 15t-149.5 46z" />
<glyph unicode="t" horiz-adv-x="976" d="M59 662q39 199 60 362l22 20l170 -18h510l178 18l17 -20l-29 -352l-156 -10v22q0 129 -22.5 162t-124.5 37q-98 -582 -98 -686q0 -80 76 -80l88 4l4 -8l-29 -121q-207 8 -295 8l-291 -12l27 118q106 8 138 37t44 121l76 619q-109 -4 -141.5 -38t-65.5 -173z" />
<glyph unicode="u" horiz-adv-x="1091" d="M106 915l29 115q145 -6 248 -6l203 10l-27 -119q-51 -6 -71.5 -23.5t-26.5 -57.5l-68 -463q-4 -21 -4 -60q0 -170 154 -170q176 0 200 189q59 508 59.5 531.5t-5.5 36.5t-35 13l-51 -2l-2 6l28 115q129 -6 191 -6l209 10l-27 -116q-59 -14 -77.5 -27.5t-22.5 -50.5 l-60 -482q-49 -376 -459 -376h-2q-356 0 -356 278q0 14 35 301t35 305.5t-6.5 31.5t-36.5 13l-51 -2z" />
<glyph unicode="v" horiz-adv-x="1062" d="M76 926l24 104q135 -6 211 -6l287 12l8 -12l-20 -106q-78 -9 -102.5 -24t-24.5 -58q0 -94 53 -611h29q68 147 166 380t98 265q0 41 -68 41h-59l-8 15l24 106q143 -8 246 -8l193 4l-27 -115q-37 -6 -54.5 -21t-37.5 -61l-377 -823l-326 -33q-82 573 -129 836 q-10 53 -32.5 76.5t-67.5 25.5z" />
<glyph unicode="w" horiz-adv-x="1626" d="M76 926l26 104q129 -6 201 -6l281 12l6 -12l-21 -106q-68 -6 -97.5 -63.5t-29.5 -129.5q0 -176 52 -500h26l234 563v60q-4 37 -26.5 51t-80.5 14l-6 13l27 104q154 -6 233 -6l279 12l8 -12l-23 -106q-78 -8 -102.5 -22.5t-24.5 -55.5l54 -615h26q258 598 258 652 q0 20 -14 27t-53 7h-56l-8 15l27 106q137 -8 233 -8l187 4l-25 -115q-35 -6 -53.5 -22.5t-38.5 -59.5l-365 -823l-313 -33l-57 541h-17l-213 -508l-313 -33q-74 573 -117 836q-10 53 -31.5 75.5t-64.5 26.5z" />
<glyph unicode="x" horiz-adv-x="1163" d="M-18 12l22 105q90 29 254 209l182 209l-133 237q-37 66 -77 93.5t-111 41.5l-6 8l26 113q131 -4 267 -4l262 12l6 -16l-21 -100q-94 -2 -94 -50q0 -37 103 -223q18 25 67 86q106 129 107 152q0 33 -70 33q0 2 -2 10l20 102l228 -6l192 6l4 -12l-22 -109 q-78 -27 -125 -61.5t-109 -108.5l-198 -235l145 -250q41 -70 86 -101.5t111 -33.5l-25 -123q-147 6 -215 6l-307 -12l-6 12l20 107q86 2 86 45q0 16 -18 49l-105 186l-112 -135q-61 -72 -62 -102q0 -39 70 -41l6 -13l-22 -106q-164 10 -222 10l-196 -8z" />
<glyph unicode="y" horiz-adv-x="1042" d="M72 915l28 113q158 -4 222 -4l270 12l8 -16l-22 -100q-53 -2 -74 -13.5t-21 -33t86 -304.5h19l141 242q33 55 33 76q0 31 -74 31l-4 10l25 102l229 -6l172 6l6 -12l-26 -109q-63 -23 -109.5 -67.5t-108.5 -134.5l-188 -285q-33 -47 -39 -92q-18 -129 -18 -152.5t11 -42 t56 -18.5l82 4l6 -8l-28 -121q-203 8 -289 8l-279 -16l27 118q98 10 131 37q35 31 45 150q2 14 2 52t-29 105l-126 308q-27 68 -60 101.5t-98 51.5z" />
<glyph unicode="z" horiz-adv-x="989" d="M4 70l664 825l-187 -14q-100 -8 -139 -47t-61 -148l-160 -12q49 207 69 356l21 14l289 -16l495 -4l25 -72q-313 -350 -678 -821l233 21q82 8 130.5 63t80.5 176l160 15q-61 -221 -86 -379l-33 -31l-659 8l-127 -12z" />
<glyph unicode="{" horiz-adv-x="636" d="M88 494l23 98q176 51 176 168q0 39 -27 150.5t-27 164.5q0 113 92.5 188.5t239.5 75.5q68 0 146 -18l10 -21l-41 -114q-47 10 -78 10q-61 0 -94 -42t-33 -110l19 -251q0 -92 -47.5 -148.5t-122.5 -77.5l-2 -12q123 -43 122 -172q0 -57 -49 -199.5t-49 -189.5t25.5 -77 t74.5 -30l82 13l13 -21l-35 -110q-66 -31 -171.5 -31t-172 60.5t-66.5 142.5t71 222t71 183q0 111 -150 148z" />
<glyph unicode="|" horiz-adv-x="653" d="M102 -528q47 397 269 2158l176 23l31 -23q-98 -694 -140 -1034l-135 -1124l-180 -23z" />
<glyph unicode="}" horiz-adv-x="636" d="M-66 -223l41 112q47 -10 78 -10q61 0 94 43t33 111l-18 260q0 174 170 225l2 12q-123 45 -123 175q0 55 49 192t49 184t-25.5 77t-74.5 30l-82 -10l-12 18l35 113q63 31 168.5 30.5t173 -61.5t67.5 -142t-69.5 -217.5t-69.5 -179.5q0 -117 147 -147l-20 -96 q-78 -23 -127 -66t-49 -93t25.5 -160.5t25.5 -164.5q0 -117 -92 -195.5t-240 -78.5q-68 0 -145 18z" />
<glyph unicode="~" horiz-adv-x="999" d="M47 440l2 23l209 207l39 8q51 0 218 -40t200 -40q57 0 145 86l29 31h20l62 -78l-2 -21l-207 -208l-39 -9q-51 0 -218 40t-200 40q-59 0 -145 -86l-29 -28h-22z" />
<glyph unicode="&#xa1;" horiz-adv-x="561" d="M-20 -459l237 928l135 23l29 -27l-66 -881l-28 -35l-279 -45zM190 790.5q0 71.5 52.5 126t125 54.5t107.5 -37t35 -108.5t-52 -125t-125 -53.5t-108 36t-35 107.5z" />
<glyph unicode="&#xa2;" horiz-adv-x="753" d="M49 328q0 223 125 405t301 223l86 373l148 19l8 -19l-84 -364q82 -10 131 -41l8 -31l-86 -197l-57 -4q-58 96 -135.5 96t-138 -117.5t-60.5 -248.5q0 -246 121 -246q53 0 104 45t86 121l35 -4l68 -84q-43 -96 -127 -170t-174 -98l-68 -295l-143 -17l-11 15l68 297 q-96 27 -150.5 115.5t-54.5 226.5z" />
<glyph unicode="&#xa3;" horiz-adv-x="1024" d="M10 137q195 115 215 279l11 84q2 47 -20.5 62.5t-98.5 19.5l-6 12l28 106l123 21l6 43q23 188 176.5 324.5t337.5 136.5q147 0 219 -31l9 -23l-90 -196l-39 -6q-125 78 -200 78t-112 -46.5t-53 -148.5l-22 -139l297 6l6 -10l-39 -140q-131 6 -285 6l-18 -122 q-25 -150 -119 -228l117 25q39 0 133 -19.5t141 -19.5t86 40t51 114l47 -5q27 -45 27 -144t-64.5 -170t-144.5 -71t-226.5 50.5t-235.5 50.5t-210 -74l-22 10z" />
<glyph unicode="&#xa4;" horiz-adv-x="876" d="M23 440q22 14 157 129q-18 49 -18 132t59 171l-131 146l10 35l158 102l113 -147q74 37 148.5 36.5t137.5 -36.5l156 157l35 -8l88 -145l-160 -138q23 -51 23 -133t-58 -172l129 -137l-10 -35l-160 -106l-110 143q-70 -41 -150 -41t-145 43l-154 -149l-35 8zM309 706.5 q0 -73.5 42 -119.5t113 -46t129 58t58 132t-43 120t-112.5 46t-128 -58.5t-58.5 -132z" />
<glyph unicode="&#xa5;" horiz-adv-x="1126" d="M57 285l31 114h320q-15 56 -52 148l-247 -2l-15 14l31 115h170q-82 199 -203 235q4 16 8 49l21 76q129 -6 180 -6t180 6t140 8l6 -20l-23 -104q-57 -4 -76.5 -14.5t-19.5 -26.5q0 -6 35 -140l67 -166l156 265q23 37 22 55q0 31 -71 31l-4 16l20 96l234 -6l174 6l8 -12 l-27 -113q-70 -23 -105.5 -52.5t-80.5 -96.5l-57 -82l186 4l12 -18l-24 -117h-267l-61 -92q-12 -16 -25 -56q160 2 328 9l12 -21l-24 -117h-357q-10 -31 -10 -92q0 -57 72 -57l82 4l4 -12l-29 -119q-201 6 -286 6l-279 -18l27 122q94 12 123.5 43t44.5 123l-336 -2z" />
<glyph unicode="&#xa6;" horiz-adv-x="653" d="M100 -528l107 852l180 30l19 -20l-105 -862l-180 -23zM260 758l111 872l176 23l31 -23q-72 -504 -119 -862l-183 -25z" />
<glyph unicode="&#xa7;" horiz-adv-x="983" d="M51 -61.5q0 55.5 24.5 123t59.5 108.5l41 -2q4 -90 55.5 -148.5t114 -58.5t96 32t33.5 81t-41 95t-100.5 87t-118.5 87t-100 112.5t-41 144.5q0 184 229 322q-16 43 -16 84q0 135 116.5 234t274.5 99q92 0 162.5 -29.5t70.5 -68.5t-32.5 -116.5t-55.5 -98.5h-39 q-14 61 -56 100t-86 39t-72.5 -29.5t-28.5 -74.5t41 -92t100 -90t117.5 -91.5t99.5 -114t41 -148.5t-61.5 -168t-161.5 -146q12 -35 12 -59q0 -152 -132 -254.5t-292 -102.5q-104 0 -179 44t-75 99.5zM297 712.5q0 -65.5 40 -118.5t93 -90q162 -115 225 -189q53 57 53.5 125 t-58 130.5t-155 135t-139.5 125.5q-59 -53 -59 -118.5z" />
<glyph unicode="&#xa8;" horiz-adv-x="786" d="M184 1260q0 66 44 110.5t104 44.5q113 0 112 -106q0 -68 -43 -112t-102 -44q-115 0 -115 107zM539 1260q0 66 44 110.5t103 44.5q115 0 115 -106q0 -68 -43 -112t-103 -44q-117 0 -116 107z" />
<glyph unicode="&#xa9;" horiz-adv-x="1374" d="M96 535q0 279 206 484.5t478 205.5q227 0 379 -162t152 -397q0 -279 -207 -485t-477 -206q-227 0 -379 162t-152 398zM201 545q0 -199 125 -334t313 -135q225 0 397 172t172 407q0 199 -126 334t-314 135q-225 0 -396 -171.5t-171 -407.5zM403 543q0 190 106.5 298.5 t293.5 108.5q80 0 219 -24l6 -17q-31 -88 -53 -200l-119 -9q10 53 10 72q0 68 -100 68q-174 0 -174 -275q0 -195 127 -194q53 0 86 30.5t53 106.5l117 8q-29 -111 -41 -199l-12 -14q-98 -39 -232.5 -39t-210.5 74t-76 205z" />
<glyph unicode="&#xaa;" horiz-adv-x="729" d="M39 881q0 160 106.5 298t227.5 138l110 -23l9 29l20 10l139 -16l11 -27q-59 -229 -89 -424l5 -4q10 0 81 62l27 -2l25 -56q-104 -111 -157.5 -149.5t-100.5 -38.5q-63 0 -64 59q0 31 41 195l-12 2q-106 -188 -201 -256q-84 0 -131 54t-47 149zM242 951.5 q0 -95.5 25.5 -95.5t80.5 94t96 211q-57 37 -112 37q-33 0 -61.5 -75.5t-28.5 -171z" />
<glyph unicode="&#xab;" horiz-adv-x="892" d="M72 440l4 43q293 276 366 359l80 -51l4 -33l-209 -289l138 -295l-13 -33l-90 -51q-51 76 -280 350zM440 440l4 43q293 276 367 359l80 -51l4 -33l-209 -289l137 -295l-12 -33l-90 -51q-33 49 -281 350z" />
<glyph unicode="&#xac;" horiz-adv-x="999" d="M33 473l53 186q285 -2 461 -2l373 13l10 -27q-39 -143 -58 -293l-32 -278l-191 -29l-18 14q27 209 51 398h-186l-449 -2z" />
<glyph unicode="&#xad;" horiz-adv-x="638" d="M63 422l35 160l475 59l17 -27l-37 -163l-473 -54z" />
<glyph unicode="&#xae;" horiz-adv-x="923" d="M127 1010q0 172 137 309t304 137t268.5 -108.5t101.5 -280.5t-137 -309t-304 -137t-268.5 108.5t-101.5 280.5zM203 1013.5q0 -139.5 82 -227.5t217 -88t247.5 113t112.5 252t-82 227t-217 88t-247.5 -112.5t-112.5 -252zM317 844l11 49q27 4 38 18.5t15 49.5l27 219 q4 37 -15 37h-22l-4 6l10 43l86 -2h20q45 4 72 4q158 0 158 -101q0 -90 -99 -139l37 -78q27 -57 62 -61l6 -6q-4 -29 -15.5 -36t-55.5 -8t-60.5 11t-28.5 49l-33 105h-41q-12 -61 -12 -79t9.5 -23t33.5 -5q2 -2 2 -6l-10 -45q-51 4 -78 4h-22zM494 1069l51 -4q59 18 59 84 q0 55 -78 55q-10 0 -12 -16z" />
<glyph unicode="&#xaf;" horiz-adv-x="786" d="M190 1210l48 156q188 -2 305 -2l252 12l12 -28l-45 -156l-553 -4z" />
<glyph unicode="&#xb0;" horiz-adv-x="595" d="M113 1054.5q0 110.5 88 197.5t195.5 87t172 -69.5t64.5 -180t-88 -197.5t-195.5 -87t-172 69.5t-64.5 180zM231 1061.5q0 -62.5 36 -100t96.5 -37.5t105.5 48t45 110.5t-37 100.5t-96 38t-104.5 -48.5t-45.5 -111z" />
<glyph unicode="&#xb1;" horiz-adv-x="999" d="M-29 -174l39 156h457q408 0 407 8l13 -31l-41 -158l-862 -4zM35 479l51 187q174 -2 334 -2l45 356l186 22l25 -14q-37 -207 -58 -364l361 12l10 -27l-45 -188l-350 -2l-39 -334l-186 -29l-21 15q25 182 45 348l-346 -2z" />
<glyph unicode="&#xb2;" horiz-adv-x="700" d="M12 782l185 179q184 194 184 286q0 66 -83 66t-171 -111h-23l-12 129q61 72 141 116t166 44t147.5 -47t61.5 -129t-68.5 -184.5t-248.5 -278.5l6 -12h106q55 0 82 25.5t47 95.5l127 10q-49 -158 -69 -271l-23 -18q-311 12 -440 12l-113 -10z" />
<glyph unicode="&#xb3;" horiz-adv-x="618" d="M20 780v54l27 24q51 -23 120 -22.5t116 32t47 80.5q0 82 -160 82l-14 17v98l88 18q102 45 102 123q0 27 -16.5 42t-44.5 15q-66 0 -148 -57h-18l-21 113q53 33 131 62.5t151 29.5t125 -39t52 -103.5t-46 -117.5t-122 -80l-2 -14q164 -53 164 -166t-137.5 -203t-294.5 -90 q-61 0 -80 31.5t-19 70.5z" />
<glyph unicode="&#xb4;" horiz-adv-x="786" d="M248 1159q174 170 344 350l26 -2l111 -143l-2 -29q-197 -123 -387 -264l-31 8z" />
<glyph unicode="&#xb6;" horiz-adv-x="1122" d="M92 843.5q0 198.5 145.5 339t362.5 140.5l289 -8l287 6l-27 -127l-6 -8q-72 -6 -96.5 -23.5t-34.5 -70.5q-37 -137 -117 -742q-31 -248 -172 -401.5t-363 -153.5q-104 0 -179 51.5t-75 130.5q0 49 34 119t79 119h33q-2 -20 -2 -39q0 -96 40 -160.5t132 -64.5t137 65.5 t64 231.5l112 903q2 20 -6 25.5t-45 5.5q-94 0 -145.5 -108.5t-51.5 -286t84 -318.5l-6 -49q-213 8 -343 116.5t-130 307z" />
<glyph unicode="&#xb7;" horiz-adv-x="471" d="M80 463q0 82 51 136t124 54t107.5 -35.5t34.5 -108.5t-52 -126t-126 -53q-139 0 -139 133z" />
<glyph unicode="&#xb8;" horiz-adv-x="792" d="M68 -402.5q0 35.5 94 136.5h16v-34t21.5 -53.5t62.5 -27.5t65.5 18.5t24.5 47.5q0 49 -153 139l92 235h106l-59 -149q172 -104 172 -187t-92 -146.5t-203 -63.5q-53 0 -100 24.5t-47 60z" />
<glyph unicode="&#xb9;" horiz-adv-x="526" d="M6 680l23 96q119 8 129 96l49 404q6 47 -5.5 61.5t-47.5 14.5l-66 -4l-8 8l18 88q35 4 375 47l12 -47q-45 -37 -65 -101q-17 -65 -44.5 -254.5t-27.5 -241.5t45 -52l62 2l4 -6l-31 -101q-125 4 -195 4z" />
<glyph unicode="&#xba;" horiz-adv-x="665" d="M49 928q0 176 98.5 289.5t249.5 113.5q104 0 160.5 -61.5t56.5 -175.5q0 -182 -97 -299t-251 -117q-102 0 -159.5 65.5t-57.5 184.5zM248 961q-1 -160 69 -160q96 0 97 241q0 154 -70 154q-43 0 -69.5 -65.5t-26.5 -169.5z" />
<glyph unicode="&#xbb;" horiz-adv-x="892" d="M92 174q10 16 60 84q135 180 145 205q-4 12 -32.5 73.5t-62.5 134t-40 85.5l12 32l90 54q49 -74 283 -353l-6 -40q-291 -277 -367 -359l-80 51zM461 174q10 16 59 84q135 180 146 205q-4 12 -33 73.5t-62.5 134t-40.5 85.5l13 32l90 54q49 -74 282 -353l-6 -40 q-290 -277 -366 -359l-80 51z" />
<glyph unicode="&#xbc;" horiz-adv-x="1560" d="M6 520l23 94q61 4 92 27t37 70l49 403q6 47 -5.5 61.5t-47.5 14.5l-66 -4l-8 10l18 86q35 4 375 47l12 -47q-43 -33 -65 -100q-16 -63 -44 -254t-28 -232q0 -63 45 -63l62 4l4 -8l-31 -101q-125 6 -195 7zM137 -106q248 369 424 647l537 848l127 -52l14 -39 q-360 -547 -545 -833l-413 -655l-134 55zM872 197l17 108l395 488l10 4l146 -17l-54 -452h99l10 -17l-29 -127l-96 2l-14 -172l-13 -14l-186 -14l-12 12q20 102 33 195zM1044 328h152l25 213h-15z" />
<glyph unicode="&#xbd;" horiz-adv-x="1622" d="M6 520l23 94q61 4 92 27t37 70l49 403q6 47 -5.5 61.5t-47.5 14.5l-66 -4l-8 10l18 86q35 4 375 47l12 -47q-43 -33 -65 -100q-16 -63 -44 -254t-28 -232q0 -63 45 -63l62 4l4 -8l-31 -101q-125 6 -195 7zM137 -106q248 369 424 647l537 848l127 -52l14 -39 q-360 -547 -545 -833l-413 -655l-134 55zM913 86l185 178q184 195 184 287q0 66 -82 65.5t-172 -108.5h-22l-13 127q61 74 141 118t166 44t147.5 -48.5t61.5 -130t-68.5 -182t-248.5 -280.5l6 -11h107q55 0 81.5 26t47.5 95l127 10q-49 -158 -70 -270l-23 -18 q-311 12 -440 12l-113 -12z" />
<glyph unicode="&#xbe;" horiz-adv-x="1560" d="M20 618.5v53.5l27 24q51 -23 118.5 -22.5t116 32t48.5 82.5q0 80 -160 80l-14 17v98l88 18q102 45 102 123q0 27 -16.5 42.5t-44.5 15.5q-63 0 -148 -56h-18l-21 111q53 33 131 62.5t151 29.5t125 -39t52 -102.5t-46 -116.5t-122 -82l-2 -14q164 -53 164 -166 t-137.5 -202t-294.5 -89q-61 0 -80 31t-19 69.5zM137 -106q248 369 424 647l537 848l127 -52l14 -39q-360 -547 -545 -833l-413 -655l-134 55zM872 197l17 108l395 488l10 4l146 -17l-54 -452h99l10 -17l-29 -127l-96 2l-14 -172l-13 -14l-186 -14l-12 12q20 102 33 195z M1044 328h152l25 213h-15z" />
<glyph unicode="&#xbf;" horiz-adv-x="733" d="M-59 -166q0 135 96 227q82 78 254 187q12 10 26 16l7 15l-7 170l15 22l184 37l23 -12l16 -258l-10 -29l-228 -129q-122 -70 -122 -166q0 -174 335 -195l13 -28l-94 -172l-33 -15q-207 6 -341 99.5t-134 230.5zM307 790.5q0 71.5 52.5 126t125 54.5t107.5 -37t35 -108.5 t-52.5 -125t-125 -53.5t-107.5 36t-35 107.5z" />
<glyph unicode="&#xc0;" horiz-adv-x="1243" d="M-80 -6l31 135q88 14 145 137l471 1037l322 34l22 -10q94 -707 158 -1059q12 -74 41 -103.5t94 -37.5l8 -14l-28 -119q-158 6 -238 6q-156 0 -344 -16l-8 16l24 121q98 8 130 24.5t32 61.5q0 25 -22 217q-53 4 -164 4t-205 -14l-65 -158q-20 -49 -21 -76q0 -53 80 -53h86 l6 -12l-29 -127q-162 12 -286 12zM459 1587l51 158l27 10q236 -117 456 -213l-26 -96l-29 -19q-250 79 -469 134zM461 584h137q55 0 145 8l-57 457h-29z" />
<glyph unicode="&#xc1;" horiz-adv-x="1243" d="M-80 -6l31 135q88 14 145 137l471 1037l322 34l22 -10q94 -707 158 -1059q12 -74 41 -103.5t94 -37.5l8 -14l-28 -119q-158 6 -238 6q-156 0 -344 -16l-8 16l24 121q98 8 130 24.5t32 61.5q0 25 -22 217q-53 4 -164 4t-205 -14l-65 -158q-20 -49 -21 -76q0 -53 80 -53h86 l6 -12l-29 -127q-162 12 -286 12zM461 584h137q55 0 145 8l-57 457h-29zM551 1542l457 213l26 -10l51 -158l-10 -26q-236 -59 -469 -134l-26 19z" />
<glyph unicode="&#xc2;" horiz-adv-x="1243" d="M-80 -6l31 135q88 14 145 137l471 1037l322 34l22 -10q94 -707 158 -1059q12 -74 41 -103.5t94 -37.5l8 -14l-28 -119q-158 6 -238 6q-156 0 -344 -16l-8 16l24 121q98 8 130 24.5t32 61.5q0 25 -22 217q-53 4 -164 4t-205 -14l-65 -158q-20 -49 -21 -76q0 -53 80 -53h86 l6 -12l-29 -127q-162 12 -286 12zM434 1540l344 254h41q0 2 53 -47q182 -168 228 -207l-60 -84l-34 -8l-236 119l-266 -119l-31 8zM461 584h137q55 0 145 8l-57 457h-29z" />
<glyph unicode="&#xc3;" horiz-adv-x="1243" d="M-80 -6l31 135q88 14 145 137l471 1037l322 34l22 -10q94 -707 158 -1059q12 -74 41 -103.5t94 -37.5l8 -14l-28 -119q-158 6 -238 6q-156 0 -344 -16l-8 16l24 121q98 8 130 24.5t32 61.5q0 25 -22 217q-53 4 -164 4t-205 -14l-65 -158q-20 -49 -21 -76q0 -53 80 -53h86 l6 -12l-29 -127q-162 12 -286 12zM406 1483l2 22l180 197l33 8q34 0 148 -35t137.5 -35t59 27t85.5 80h22l72 -76l-2 -20l-180 -199l-35 -8q-33 0 -146.5 34.5t-138.5 34.5q-45 0 -119 -79l-24 -27h-23zM461 584h137q55 0 145 8l-57 457h-29z" />
<glyph unicode="&#xc4;" horiz-adv-x="1243" d="M-80 -6l31 135q88 14 145 137l471 1037l322 34l22 -10q94 -707 158 -1059q12 -74 41 -103.5t94 -37.5l8 -14l-28 -119q-158 6 -238 6q-156 0 -344 -16l-8 16l24 121q98 8 130 24.5t32 61.5q0 25 -22 217q-53 4 -164 4t-205 -14l-65 -158q-20 -49 -21 -76q0 -53 80 -53h86 l6 -12l-29 -127q-162 12 -286 12zM461 584h137q55 0 145 8l-57 457h-29zM465 1563q0 68 43 111.5t102 43.5q115 0 115 -106q0 -68 -43 -112t-111 -44q-106 0 -106 107zM819 1563q0 68 44 111.5t102.5 43.5t86 -28.5t27.5 -87t-43 -102.5t-102 -44q-115 0 -115 107z" />
<glyph unicode="&#xc5;" horiz-adv-x="1243" d="M-80 -6l31 135q88 14 145 137l471 1037l322 34l22 -10q94 -707 158 -1059q12 -74 41 -103.5t94 -37.5l8 -14l-28 -119q-158 6 -238 6q-156 0 -344 -16l-8 16l24 121q98 8 130 24.5t32 61.5q0 25 -22 217q-53 4 -164 4t-205 -14l-65 -158q-20 -49 -21 -76q0 -53 80 -53h86 l6 -12l-29 -127q-162 12 -286 12zM461 584h137q55 0 145 8l-57 457h-29zM586 1559.5q0 82.5 62.5 146t149.5 63.5t126 -44t39 -121.5t-61.5 -146t-148.5 -68.5t-127 44t-40 126.5zM690 1573q0 -37 24.5 -56.5t53.5 -19.5q90 0 90 86q0 74 -82 74q-41 0 -63.5 -23.5 t-22.5 -60.5z" />
<glyph unicode="&#xc6;" horiz-adv-x="1728" d="M-57 -6l6 121q23 4 61.5 46t75.5 105l508 873q-6 45 -45 45l-62 -4l-12 18l33 123q0 -6 482.5 -6t643.5 24l15 -22q-57 -180 -93 -371l-186 -14q16 72 16 124t-46 70.5t-151.5 18.5t-127 -12.5t-21.5 -45.5l9 -372l192 24l195 39l18 -22l-45 -170l-182 -13l-176 -22 l8 -254q2 -72 29.5 -104.5t91.5 -32.5q162 0 214 40t93 193l174 15l14 -19q-59 -184 -102 -381l-23 -22q4 4 -260 9t-366 5q-176 0 -349 -16l-8 16l23 123q174 14 176 129q4 41 4 70v188l-174 -21l-170 -32l-109 -201q-31 -59 -30.5 -85t22 -34t80.5 -8l62 -10l-29 -131 q-2 2 -60.5 4t-139.5 5t-132 3zM526 649l123 8l125 17l2 370h-31z" />
<glyph unicode="&#xc7;" horiz-adv-x="1216" d="M66 524q0 371 205.5 592t551.5 221q145 0 404 -49l8 -26q-61 -170 -100 -385l-199 -13q18 96 18 135q0 145 -202 146q-174 0 -270.5 -150.5t-96.5 -431.5q0 -195 68.5 -297t187.5 -102t184.5 65.5t110.5 216.5l199 15q-59 -211 -86 -379l-21 -25q-158 -72 -379 -80 l-26 -67q172 -104 172 -187t-92.5 -146.5t-202.5 -63.5q-53 0 -100.5 24.5t-47.5 60t94 136.5h17v-34t21.5 -53.5t62.5 -27.5t65.5 18.5t24.5 47.5q0 49 -154 139l60 153q-223 16 -350 161.5t-127 385.5z" />
<glyph unicode="&#xc8;" horiz-adv-x="1181" d="M10 -20l33 137q84 12 118 49t44 125q102 813 102 836.5t-7 40t-46 16.5l-61 -4l-11 18l31 121q217 -6 501.5 -6t469.5 24l12 -20q-57 -180 -90 -371l-184 -12q16 72 16 125t-45 70.5t-152.5 17.5t-125 -10.5t-25.5 -57.5l-53 -323l184 -2l231 16l13 -16l-50 -174 q-158 6 -230.5 6t-176.5 -13q-47 -322 -47 -355.5t22.5 -46.5t94.5 -13q182 0 238 39t97 194l170 15l13 -21q-59 -182 -103 -379l-22 -20q-367 14 -529 14q-240 0 -432 -20zM444 1587l52 158l26 10q236 -117 457 -213l-27 -96l-28 -19q-250 79 -469 134z" />
<glyph unicode="&#xc9;" horiz-adv-x="1181" d="M10 -20l33 137q84 12 118 49t44 125q102 813 102 836.5t-7 40t-46 16.5l-61 -4l-11 18l31 121q217 -6 501.5 -6t469.5 24l12 -20q-57 -180 -90 -371l-184 -12q16 72 16 125t-45 70.5t-152.5 17.5t-125 -10.5t-25.5 -57.5l-53 -323l184 -2l231 16l13 -16l-50 -174 q-158 6 -230.5 6t-176.5 -13q-47 -322 -47 -355.5t22.5 -46.5t94.5 -13q182 0 238 39t97 194l170 15l13 -21q-59 -182 -103 -379l-22 -20q-367 14 -529 14q-240 0 -432 -20zM489 1542l457 213l27 -10l51 -158l-10 -26q-236 -59 -469 -134l-27 19z" />
<glyph unicode="&#xca;" horiz-adv-x="1181" d="M10 -20l33 137q84 12 118 49t44 125q102 813 102 836.5t-7 40t-46 16.5l-61 -4l-11 18l31 121q217 -6 501.5 -6t469.5 24l12 -20q-57 -180 -90 -371l-184 -12q16 72 16 125t-45 70.5t-152.5 17.5t-125 -10.5t-25.5 -57.5l-53 -323l184 -2l231 16l13 -16l-50 -174 q-158 6 -230.5 6t-176.5 -13q-47 -322 -47 -355.5t22.5 -46.5t94.5 -13q182 0 238 39t97 194l170 15l13 -21q-59 -182 -103 -379l-22 -20q-367 14 -529 14q-240 0 -432 -20zM436 1540l344 254h41q0 2 53 -47q182 -168 228 -207l-60 -84l-34 -8l-236 119l-266 -119l-31 8z " />
<glyph unicode="&#xcb;" horiz-adv-x="1181" d="M10 -20l33 137q84 12 118 49t44 125q102 813 102 836.5t-7 40t-46 16.5l-61 -4l-11 18l31 121q217 -6 501.5 -6t469.5 24l12 -20q-57 -180 -90 -371l-184 -12q16 72 16 125t-45 70.5t-152.5 17.5t-125 -10.5t-25.5 -57.5l-53 -323l184 -2l231 16l13 -16l-50 -174 q-158 6 -230.5 6t-176.5 -13q-47 -322 -47 -355.5t22.5 -46.5t94.5 -13q182 0 238 39t97 194l170 15l13 -21q-59 -182 -103 -379l-22 -20q-367 14 -529 14q-240 0 -432 -20zM465 1563q0 68 43 111.5t102 43.5q115 0 115 -106q0 -68 -43 -112t-111 -44q-106 0 -106 107z M819 1563q0 68 44 111.5t102.5 43.5t86 -28.5t27.5 -87t-43 -102.5t-102 -44q-115 0 -115 107z" />
<glyph unicode="&#xcc;" horiz-adv-x="722" d="M10 -18l31 131q88 18 122 53t44 119q100 821 100 842.5t-9 39t-52 17.5l-68 -2l-8 16l29 119l276 -4l285 16l-29 -135q-76 -10 -103.5 -31.5t-37.5 -79.5q-129 -748 -129 -870q0 -47 14 -64.5t49 -17.5l86 6l6 -14l-32 -129q-205 6 -273 6q-139 0 -301 -18zM180 1587 l51 158l27 10q236 -117 457 -213l-27 -96l-29 -19q-250 79 -469 134z" />
<glyph unicode="&#xcd;" horiz-adv-x="722" d="M10 -18l31 131q88 18 122 53t44 119q100 821 100 842.5t-9 39t-52 17.5l-68 -2l-8 16l29 119l276 -4l285 16l-29 -135q-76 -10 -103.5 -31.5t-37.5 -79.5q-129 -748 -129 -870q0 -47 14 -64.5t49 -17.5l86 6l6 -14l-32 -129q-205 6 -273 6q-139 0 -301 -18zM272 1542 l457 213l27 -10l51 -158l-10 -26q-236 -59 -469 -134l-27 19z" />
<glyph unicode="&#xce;" horiz-adv-x="722" d="M10 -18l31 131q88 18 122 53t44 119q100 821 100 842.5t-9 39t-52 17.5l-68 -2l-8 16l29 119l276 -4l285 16l-29 -135q-76 -10 -103.5 -31.5t-37.5 -79.5q-129 -748 -129 -870q0 -47 14 -64.5t49 -17.5l86 6l6 -14l-32 -129q-205 6 -273 6q-139 0 -301 -18zM164 1540 l344 254h41q0 2 53 -47q182 -168 227 -207l-59 -84l-35 -8l-235 119l-267 -119l-30 8z" />
<glyph unicode="&#xcf;" horiz-adv-x="722" d="M10 -18l31 131q88 18 122 53t44 119q100 821 100 842.5t-9 39t-52 17.5l-68 -2l-8 16l29 119l276 -4l285 16l-29 -135q-76 -10 -103.5 -31.5t-37.5 -79.5q-129 -748 -129 -870q0 -47 14 -64.5t49 -17.5l86 6l6 -14l-32 -129q-205 6 -273 6q-139 0 -301 -18zM195 1563 q0 68 43 111.5t102 43.5q115 0 115 -106q0 -68 -43 -112t-111 -44q-106 0 -106 107zM549 1563q0 68 44 111.5t102.5 43.5t86 -28.5t27.5 -87t-43 -102.5t-102 -44q-115 0 -115 107z" />
<glyph unicode="&#xd0;" horiz-adv-x="1396" d="M33 600l35 123h225q47 377 47 400.5t-8 41t-43 17.5l-68 -4l-8 18l31 123q174 -6 252 -6l297 10q270 0 428.5 -140.5t158.5 -387.5q0 -352 -219 -586t-551 -234q-195 25 -274 25q-127 0 -291 -20l31 137q84 14 117.5 50t46.5 122l36 297h-229zM496 246q0 -53 31.5 -76 t115.5 -23q195 0 307.5 167t112.5 456q0 381 -377 381q-33 0 -45 -10.5t-16 -36t-62 -381.5l240 4l12 -18l-29 -123h-245q-45 -287 -45 -340z" />
<glyph unicode="&#xd1;" horiz-adv-x="1441" d="M25 -16l32 135q117 14 133 129q127 825 127 855t-25.5 52.5t-121.5 32.5l-12 20l26 115q131 -10 232 -10l190 8q172 -371 420 -850h21q72 633 71 645q0 68 -53 68l-68 -2l-6 16l29 123q168 -8 256 -8l235 12l-26 -135q-66 -10 -98.5 -39t-40.5 -90l-160 -1092l-217 -26 q-205 442 -459 923h-18q-84 -662 -84 -682t10 -37.5t49 -17.5l84 4l10 -12l-35 -129q-170 8 -235 8q-115 0 -266 -16zM508 1483l2 22l180 197l33 8q35 0 148.5 -35t137 -35t59.5 27t85 80h23l71 -76l-2 -20l-180 -199l-35 -8q-35 0 -147.5 34.5t-137.5 34.5q-45 0 -118 -79 l-25 -27h-22z" />
<glyph unicode="&#xd2;" horiz-adv-x="1329" d="M66 522q0 365 198.5 590t523.5 225q242 0 383.5 -143t141.5 -395q0 -365 -202.5 -594.5t-526.5 -229.5q-236 0 -377 147.5t-141 399.5zM379 535q0 -180 68.5 -282.5t189.5 -102.5q164 0 260 160.5t96 449.5q0 180 -70.5 282.5t-193.5 102.5q-162 0 -256 -162t-94 -448z M494 1587l51 158l26 10q236 -117 457 -213l-27 -96l-28 -19q-250 79 -469 134z" />
<glyph unicode="&#xd3;" horiz-adv-x="1329" d="M66 522q0 365 198.5 590t523.5 225q242 0 383.5 -143t141.5 -395q0 -365 -202.5 -594.5t-526.5 -229.5q-236 0 -377 147.5t-141 399.5zM379 535q0 -180 68.5 -282.5t189.5 -102.5q164 0 260 160.5t96 449.5q0 180 -70.5 282.5t-193.5 102.5q-162 0 -256 -162t-94 -448z M547 1542l457 213l26 -10l51 -158l-10 -26q-236 -59 -469 -134l-27 19z" />
<glyph unicode="&#xd4;" horiz-adv-x="1329" d="M66 522q0 365 198.5 590t523.5 225q242 0 383.5 -143t141.5 -395q0 -365 -202.5 -594.5t-526.5 -229.5q-236 0 -377 147.5t-141 399.5zM379 535q0 -180 68.5 -282.5t189.5 -102.5q164 0 260 160.5t96 449.5q0 180 -70.5 282.5t-193.5 102.5q-162 0 -256 -162t-94 -448z M457 1540l344 254h41q0 2 53 -47q182 -168 227 -207l-59 -84l-35 -8l-235 119l-267 -119l-30 8z" />
<glyph unicode="&#xd5;" horiz-adv-x="1329" d="M66 522q0 365 198.5 590t523.5 225q242 0 383.5 -143t141.5 -395q0 -365 -202.5 -594.5t-526.5 -229.5q-236 0 -377 147.5t-141 399.5zM379 535q0 -180 68.5 -282.5t189.5 -102.5q164 0 260 160.5t96 449.5q0 180 -70.5 282.5t-193.5 102.5q-162 0 -256 -162t-94 -448z M438 1483l2 22l181 197l32 8q35 0 148.5 -35t137.5 -35t59.5 27t84.5 80h23l72 -76l-2 -20l-181 -199l-34 -8q-33 0 -147 34.5t-138 34.5q-45 0 -119 -79l-25 -27h-22z" />
<glyph unicode="&#xd6;" horiz-adv-x="1329" d="M66 522q0 365 198.5 590t523.5 225q242 0 383.5 -143t141.5 -395q0 -365 -202.5 -594.5t-526.5 -229.5q-236 0 -377 147.5t-141 399.5zM379 535q0 -180 68.5 -282.5t189.5 -102.5q164 0 260 160.5t96 449.5q0 180 -70.5 282.5t-193.5 102.5q-162 0 -256 -162t-94 -448z M487 1563q0 68 43 111.5t103 43.5q115 0 115 -106q0 -68 -43 -112t-111 -44q-106 0 -107 107zM842 1563q0 68 44 111.5t102.5 43.5t86 -28.5t27.5 -87t-43 -102.5t-103 -44q-115 0 -114 107z" />
<glyph unicode="&#xd7;" horiz-adv-x="999" d="M98 264q137 127 262 242l-223 264l8 29l166 108q113 -139 211 -256l281 275l24 -11l99 -143l-281 -262l225 -250l-14 -27l-160 -118l-213 252l-272 -256l-25 6z" />
<glyph unicode="&#xd8;" horiz-adv-x="1329" d="M66 522q0 365 198.5 590t523.5 225q100 0 191 -28l111 184l124 -59l7 -27l-103 -168q195 -143 195 -440q0 -365 -203 -594.5t-526 -229.5q-104 0 -195 31l-137 -225l-123 59l-6 21l133 217q-190 145 -190 444zM379 535q0 -115 29 -205l450 776q-59 39 -129 39 q-162 0 -256 -161.5t-94 -448.5zM502 193q55 -43 135 -43q164 0 260 160.5t96 449.5q0 123 -35 215z" />
<glyph unicode="&#xd9;" horiz-adv-x="1288" d="M123 1188l35 131q168 -6 282 -6l238 14l-31 -137q-63 -8 -89 -31.5t-34 -77.5l-88 -596q-4 -59 -4 -90q0 -115 52.5 -176t154.5 -61q238 0 270 270q76 666 76 693.5t-7 45t-44 17.5l-66 -4l-4 8l33 131q156 -6 229 -6l240 14l-29 -135q-76 -14 -98 -32.5t-29 -69.5 l-80 -641q-29 -231 -171 -352.5t-386 -121.5q-420 0 -419 363q0 33 46 399.5t46 390t-8.5 40t-49.5 16.5l-61 -4zM489 1587l52 158l26 10q236 -117 457 -213l-27 -96l-28 -19q-250 79 -469 134z" />
<glyph unicode="&#xda;" horiz-adv-x="1288" d="M123 1188l35 131q168 -6 282 -6l238 14l-31 -137q-63 -8 -89 -31.5t-34 -77.5l-88 -596q-4 -59 -4 -90q0 -115 52.5 -176t154.5 -61q238 0 270 270q76 666 76 693.5t-7 45t-44 17.5l-66 -4l-4 8l33 131q156 -6 229 -6l240 14l-29 -135q-76 -14 -98 -32.5t-29 -69.5 l-80 -641q-29 -231 -171 -352.5t-386 -121.5q-420 0 -419 363q0 33 46 399.5t46 390t-8.5 40t-49.5 16.5l-61 -4zM580 1542l456 213l27 -10l51 -158l-10 -26q-236 -59 -469 -134l-27 19z" />
<glyph unicode="&#xdb;" horiz-adv-x="1288" d="M123 1188l35 131q168 -6 282 -6l238 14l-31 -137q-63 -8 -89 -31.5t-34 -77.5l-88 -596q-4 -59 -4 -90q0 -115 52.5 -176t154.5 -61q238 0 270 270q76 666 76 693.5t-7 45t-44 17.5l-66 -4l-4 8l33 131q156 -6 229 -6l240 14l-29 -135q-76 -14 -98 -32.5t-29 -69.5 l-80 -641q-29 -231 -171 -352.5t-386 -121.5q-420 0 -419 363q0 33 46 399.5t46 390t-8.5 40t-49.5 16.5l-61 -4zM481 1540l344 254h41q0 2 54 -47q182 -168 227 -207l-60 -84l-34 -8l-236 119l-266 -119l-31 8z" />
<glyph unicode="&#xdc;" horiz-adv-x="1288" d="M123 1188l35 131q168 -6 282 -6l238 14l-31 -137q-63 -8 -89 -31.5t-34 -77.5l-88 -596q-4 -59 -4 -90q0 -115 52.5 -176t154.5 -61q238 0 270 270q76 666 76 693.5t-7 45t-44 17.5l-66 -4l-4 8l33 131q156 -6 229 -6l240 14l-29 -135q-76 -14 -98 -32.5t-29 -69.5 l-80 -641q-29 -231 -171 -352.5t-386 -121.5q-420 0 -419 363q0 33 46 399.5t46 390t-8.5 40t-49.5 16.5l-61 -4zM510 1563q0 68 43 111.5t102 43.5q115 0 115 -106q0 -68 -43 -112t-111 -44q-106 0 -106 107zM864 1563q0 68 44 111.5t102.5 43.5t86 -28.5t27.5 -87 t-43 -102.5t-102 -44q-115 0 -115 107z" />
<glyph unicode="&#xdd;" horiz-adv-x="1191" d="M70 1190l32 129q176 -6 254 -6l320 16l8 -18l-27 -117q-72 -4 -97 -18.5t-25 -62.5t114 -408h17l198 344q39 66 39 102.5t-94 42.5l-4 10l31 117l262 -8l205 8l6 -14l-31 -123q-82 -27 -136.5 -81t-133.5 -181q-238 -373 -245 -386.5t-12.5 -22.5t-9.5 -23.5t-7 -22.5 t-6 -25.5t-5 -26.5t-5 -32t-5 -33q-2 -35 -8.5 -73.5t-6.5 -67.5t12.5 -52.5t67.5 -23.5l99 6l6 -10l-35 -137q-227 8 -303 8q-104 0 -338 -23l31 138q117 16 154.5 53t47.5 141q10 84 10.5 137.5t-32.5 137.5l-146 389q-37 102 -74.5 145t-121.5 62zM545 1542l456 213 l27 -10l51 -158l-10 -26q-236 -59 -469 -134l-27 19z" />
<glyph unicode="&#xde;" horiz-adv-x="1136" d="M8 -18l31 133q88 18 121 52t43 120q102 815 102 837.5t-10 40t-53 17.5l-66 -2l-10 16l31 121l278 -2l287 14l-27 -137q-80 -12 -105.5 -29.5t-33.5 -64.5l-8 -49h147q412 0 412 -312q0 -188 -155.5 -315t-377.5 -127h-139q-12 -86 -12 -108.5t10 -38t55 -15.5l95 6 l8 -14l-33 -131q-215 6 -287 6q-137 0 -303 -18zM498 475q98 -29 159 -29q195 33 195 254q0 94 -60.5 138.5t-187.5 44.5q-43 0 -49 -29z" />
<glyph unicode="&#xdf;" horiz-adv-x="1847" d="M29 68q45 143 63 268l156 12q-4 -37 -4 -84q0 -125 147 -125q76 0 122 32t46 81t-43 82t-118.5 70.5t-107.5 56t-77 55.5q-88 68 -88 176q0 156 134 254t345 98q154 0 299 -43l10 -24q-45 -129 -73 -275l-144 -10l-14 10q10 49 10 74q0 100 -135 101q-68 0 -113 -32 t-45 -81q0 -61 121 -125q16 -8 66.5 -32.5t76 -39t65.5 -42t60 -52.5q53 -63 54 -141q0 -160 -134.5 -255t-361.5 -95q-80 0 -155.5 15t-149.5 46zM952 68q45 143 64 268l155 12q-4 -37 -4 -84q0 -125 148 -125q76 0 122 32t46 81t-43 82t-119 70.5t-107.5 56t-78.5 55.5 q-86 68 -86 176q0 156 134 254t347 98q152 0 297 -43l10 -24q-45 -129 -74 -275l-143 -10l-14 10q10 49 10 74q0 100 -135 101q-66 0 -111 -32t-45 -75t29.5 -70.5t67.5 -48t88.5 -45t76 -39t65.5 -42t60 -52.5q53 -63 53 -141q0 -160 -134 -255t-361 -95q-78 0 -155 15 t-150 46z" />
<glyph unicode="&#xe0;" horiz-adv-x="1085" d="M-45 -4l27 115q70 12 112 100l375 805l311 28l19 -12q84 -569 131 -811q8 -57 31.5 -81.5t70.5 -28.5l8 -13l-24 -102q-131 4 -209 4l-287 -12l-8 12l20 109q80 6 103.5 17t23.5 42q0 24 -14 147l-141 2q-92 0 -150 -8l-45 -108q-16 -33 -16 -51q0 -37 59 -37h66l6 -13 l-23 -108q-139 8 -241 8zM362 1296l52 158l26 10q236 -117 457 -213l-27 -96l-28 -18q-178 55 -469 133zM416 463h106q55 0 111 6l-43 332h-27z" />
<glyph unicode="&#xe1;" horiz-adv-x="1085" d="M-45 -4l27 115q70 12 112 100l375 805l311 28l19 -12q84 -569 131 -811q8 -57 31.5 -81.5t70.5 -28.5l8 -13l-24 -102q-131 4 -209 4l-287 -12l-8 12l20 109q80 6 103.5 17t23.5 42q0 24 -14 147l-141 2q-92 0 -150 -8l-45 -108q-16 -33 -16 -51q0 -37 59 -37h66l6 -13 l-23 -108q-139 8 -241 8zM414 1251l456 213l27 -10l51 -158l-10 -26q-236 -59 -469 -133l-27 18zM416 463h106q55 0 111 6l-43 332h-27z" />
<glyph unicode="&#xe2;" horiz-adv-x="1085" d="M-45 -4l27 115q70 12 112 100l375 805l311 28l19 -12q84 -569 131 -811q8 -57 31.5 -81.5t70.5 -28.5l8 -13l-24 -102q-131 4 -209 4l-287 -12l-8 12l20 109q80 6 103.5 17t23.5 42q0 24 -14 147l-141 2q-92 0 -150 -8l-45 -108q-16 -33 -16 -51q0 -37 59 -37h66l6 -13 l-23 -108q-139 8 -241 8zM319 1249l345 254h41q0 2 53 -47q182 -168 227 -207l-59 -84l-35 -8l-236 119l-266 -119l-31 8zM416 463h106q55 0 111 6l-43 332h-27z" />
<glyph unicode="&#xe3;" horiz-adv-x="1085" d="M-45 -4l27 115q70 12 112 100l375 805l311 28l19 -12q84 -569 131 -811q8 -57 31.5 -81.5t70.5 -28.5l8 -13l-24 -102q-131 4 -209 4l-287 -12l-8 12l20 109q80 6 103.5 17t23.5 42q0 24 -14 147l-141 2q-92 0 -150 -8l-45 -108q-16 -33 -16 -51q0 -37 59 -37h66l6 -13 l-23 -108q-139 8 -241 8zM289 1192l2 22l180 197l33 8q35 0 148.5 -34.5t137 -34.5t59.5 26.5t85 79.5h22l72 -76l-2 -20l-180 -199l-35 -8q-33 0 -145.5 35t-137.5 35q-47 0 -120 -80l-25 -27h-23zM416 463h106q55 0 111 6l-43 332h-27z" />
<glyph unicode="&#xe4;" horiz-adv-x="1085" d="M-45 -4l27 115q70 12 112 100l375 805l311 28l19 -12q84 -569 131 -811q8 -57 31.5 -81.5t70.5 -28.5l8 -13l-24 -102q-131 4 -209 4l-287 -12l-8 12l20 109q80 6 103.5 17t23.5 42q0 24 -14 147l-141 2q-92 0 -150 -8l-45 -108q-16 -33 -16 -51q0 -37 59 -37h66l6 -13 l-23 -108q-139 8 -241 8zM350 1272q0 68 43 111.5t103 43.5q115 0 114 -106q0 -68 -42.5 -112t-110.5 -44q-106 0 -107 107zM416 463h106q55 0 111 6l-43 332h-27zM705 1272q0 68 44 111.5t102 43.5t86 -28.5t28 -87t-43 -102.5t-103 -44q-115 0 -114 107z" />
<glyph unicode="&#xe5;" horiz-adv-x="1085" d="M-45 -4l27 115q70 12 112 100l375 805l311 28l19 -12q84 -569 131 -811q8 -57 31.5 -81.5t70.5 -28.5l8 -13l-24 -102q-131 4 -209 4l-287 -12l-8 12l20 109q80 6 103.5 17t23.5 42q0 24 -14 147l-141 2q-92 0 -150 -8l-45 -108q-16 -33 -16 -51q0 -37 59 -37h66l6 -13 l-23 -108q-139 8 -241 8zM416 463h106q55 0 111 6l-43 332h-27zM471 1269q0 83 62.5 146.5t149.5 63.5t126 -44t39 -122t-61.5 -146.5t-148.5 -68.5t-127 44t-40 127zM575 1282q0 -37 24.5 -56.5t53.5 -19.5q90 0 90 86q0 74 -81 74q-41 0 -64 -23.5t-23 -60.5z" />
<glyph unicode="&#xe6;" horiz-adv-x="1495" d="M-25 -4l7 108q47 10 110 109l391 659q-2 39 -37 39l-47 -2l-12 15l27 106q223 -4 534.5 -4t448.5 18l10 -18q-43 -150 -72 -299l-176 -12q14 55 14.5 93t-35.5 52t-132.5 14t-96.5 -43l11 -264l145 21l164 35l18 -23l-39 -147l-153 -15l-133 -16l8 -172q2 -109 92 -109 q123 0 163 32t72 149l162 12l13 -19q-49 -147 -84 -307l-21 -18q-86 2 -131 4t-113 2q-203 4 -311 4l-268 -12l-8 12l20 109q74 8 104.5 29.5t33.5 58.5t3 55v129l-139 -16l-137 -31l-72 -133q-25 -43 -24 -58q0 -29 86 -28l39 -11l-25 -112q-219 10 -410 4zM471 508l191 20 l2 269h-31z" />
<glyph unicode="&#xe7;" horiz-adv-x="1036" d="M66 416q0 293 165.5 460.5t454.5 167.5q123 0 340 -40l10 -23q-51 -137 -84 -313l-188 -13q16 82 16 111q0 106 -153 106q-268 0 -269 -423q0 -297 199 -297q82 0 129 47t80 163l186 13q-45 -172 -65 -309l-19 -21q-125 -51 -299 -61l-28 -74q172 -104 172 -187 t-92.5 -146.5t-202.5 -63.5q-53 0 -100.5 24.5t-47.5 60t95 136.5h16v-34t21.5 -53.5t62.5 -27.5t65.5 18.5t24.5 47.5q0 49 -154 139l62 160q-186 12 -291.5 124.5t-105.5 307.5z" />
<glyph unicode="&#xe8;" horiz-adv-x="1013" d="M18 -16l27 118q68 10 95.5 40t35.5 100q78 604 78 623.5t-6 32.5t-37 13l-47 -2l-12 17l26 104q193 -6 426.5 -6t396.5 20l13 -18q-47 -150 -74 -299l-172 -10q14 53 14 93t-35.5 53.5t-116.5 13.5t-95.5 -8.5t-18.5 -41.5l-41 -231h148l186 12l12 -16l-41 -150 q-127 4 -195.5 4t-133.5 -10q-35 -197 -35 -234.5t18.5 -49t71.5 -11.5q139 0 183 31t75 147l160 13l12 -19q-49 -145 -82 -305l-23 -18q-293 10 -434 10q-211 0 -379 -16zM342 1296l51 158l27 10q236 -117 457 -213l-27 -96l-29 -18q-178 55 -469 133z" />
<glyph unicode="&#xe9;" horiz-adv-x="1013" d="M18 -16l27 118q68 10 95.5 40t35.5 100q78 604 78 623.5t-6 32.5t-37 13l-47 -2l-12 17l26 104q193 -6 426.5 -6t396.5 20l13 -18q-47 -150 -74 -299l-172 -10q14 53 14 93t-35.5 53.5t-116.5 13.5t-95.5 -8.5t-18.5 -41.5l-41 -231h148l186 12l12 -16l-41 -150 q-127 4 -195.5 4t-133.5 -10q-35 -197 -35 -234.5t18.5 -49t71.5 -11.5q139 0 183 31t75 147l160 13l12 -19q-49 -145 -82 -305l-23 -18q-293 10 -434 10q-211 0 -379 -16zM360 1251l457 213l27 -10l51 -158l-10 -26q-236 -59 -469 -133l-27 18z" />
<glyph unicode="&#xea;" horiz-adv-x="1013" d="M18 -16l27 118q68 10 95.5 40t35.5 100q78 604 78 623.5t-6 32.5t-37 13l-47 -2l-12 17l26 104q193 -6 426.5 -6t396.5 20l13 -18q-47 -150 -74 -299l-172 -10q14 53 14 93t-35.5 53.5t-116.5 13.5t-95.5 -8.5t-18.5 -41.5l-41 -231h148l186 12l12 -16l-41 -150 q-127 4 -195.5 4t-133.5 -10q-35 -197 -35 -234.5t18.5 -49t71.5 -11.5q139 0 183 31t75 147l160 13l12 -19q-49 -145 -82 -305l-23 -18q-293 10 -434 10q-211 0 -379 -16zM313 1249l344 254h41q0 2 54 -47q182 -168 227 -207l-59 -84l-35 -8l-236 119l-266 -119l-31 8z" />
<glyph unicode="&#xeb;" horiz-adv-x="1013" d="M18 -16l27 118q68 10 95.5 40t35.5 100q78 604 78 623.5t-6 32.5t-37 13l-47 -2l-12 17l26 104q193 -6 426.5 -6t396.5 20l13 -18q-47 -150 -74 -299l-172 -10q14 53 14 93t-35.5 53.5t-116.5 13.5t-95.5 -8.5t-18.5 -41.5l-41 -231h148l186 12l12 -16l-41 -150 q-127 4 -195.5 4t-133.5 -10q-35 -197 -35 -234.5t18.5 -49t71.5 -11.5q139 0 183 31t75 147l160 13l12 -19q-49 -145 -82 -305l-23 -18q-293 10 -434 10q-211 0 -379 -16zM344 1272q0 68 43 111.5t102 43.5q115 0 115 -106q0 -68 -42.5 -112t-110.5 -44q-106 0 -107 107z M698 1272q0 68 44 111.5t102.5 43.5t86 -28.5t27.5 -87t-43 -102.5t-102 -44q-115 0 -115 107z" />
<glyph unicode="&#xec;" horiz-adv-x="634" d="M20 -12l25 112q72 14 98.5 41t32.5 92q78 614 78 633t-8 32t-43 13h-53q-6 12 -7 15l23 102l237 -4l248 12l-24 -116q-61 -8 -82 -24.5t-29 -61.5q-100 -541 -100 -658q0 -37 11 -50t38 -13l67 4l7 -13l-29 -108q-176 4 -250 4zM133 1296l51 158l27 10q236 -117 457 -213 l-27 -96l-29 -18q-178 55 -469 133z" />
<glyph unicode="&#xed;" horiz-adv-x="634" d="M20 -12l25 112q72 14 98.5 41t32.5 92q78 614 78 633t-8 32t-43 13h-53q-6 12 -7 15l23 102l237 -4l248 12l-24 -116q-61 -8 -82 -24.5t-29 -61.5q-100 -541 -100 -658q0 -37 11 -50t38 -13l67 4l7 -13l-29 -108q-176 4 -250 4zM164 1251l457 213l26 -10l51 -158l-10 -26 q-236 -59 -469 -133l-26 18z" />
<glyph unicode="&#xee;" horiz-adv-x="634" d="M20 -12l25 112q72 14 98.5 41t32.5 92q78 614 78 633t-8 32t-43 13h-53q-6 12 -7 15l23 102l237 -4l248 12l-24 -116q-61 -8 -82 -24.5t-29 -61.5q-100 -541 -100 -658q0 -37 11 -50t38 -13l67 4l7 -13l-29 -108q-176 4 -250 4zM88 1249l344 254h41q0 2 53 -47 q182 -168 228 -207l-60 -84l-35 -8q1 0 -235 119l-266 -119l-31 8z" />
<glyph unicode="&#xef;" horiz-adv-x="634" d="M20 -12l25 112q72 14 98.5 41t32.5 92q78 614 78 633t-8 32t-43 13h-53q-6 12 -7 15l23 102l237 -4l248 12l-24 -116q-61 -8 -82 -24.5t-29 -61.5q-100 -541 -100 -658q0 -37 11 -50t38 -13l67 4l7 -13l-29 -108q-176 4 -250 4zM123 1272q0 68 43 111.5t102 43.5 q115 0 115 -106q0 -68 -43 -112t-111 -44q-106 0 -106 107zM477 1272q0 68 44 111.5t102.5 43.5t86 -28.5t27.5 -87t-43 -102.5t-102 -44q-115 0 -115 107z" />
<glyph unicode="&#xf0;" horiz-adv-x="1187" d="M41 459l31 108h176q35 281 35 299.5t-5.5 31.5t-33.5 13l-56 -4l-8 17l27 106q154 -6 217 -6l250 10q225 0 355 -108.5t130 -302.5q0 -281 -178 -461t-457 -180q-160 18 -254 18l-219 -16l27 120q68 12 94.5 39t36.5 95l24 208h-180zM446 206.5q0 -38.5 23 -55t82 -16.5 q147 0 231 124t84 343q0 143 -66.5 210t-207.5 67q-43 0 -47 -39q-12 -61 -47 -271l178 2l10 -14l-24 -111h-185q-31 -201 -31 -239.5z" />
<glyph unicode="&#xf1;" horiz-adv-x="1230" d="M29 -12l28 116q98 12 109 101q98 625 98 645t-20.5 37.5t-98.5 25.5l-12 19l23 100q111 -8 202 -8l172 8q145 -295 326 -616h16q51 434 52 442q0 55 -45 55l-56 -2l-6 13l25 108q150 -8 207 -8t106 2q117 4 117 8l-21 -116q-55 -8 -80.5 -31t-33.5 -70l-125 -831 l-211 -21q-184 360 -355 656h-18l-55 -435q-4 -41 7 -57t44 -16l63 2l11 -11l-29 -110q-152 6 -221 6zM367 1192l2 22l180 197l33 8q34 0 148 -34.5t137.5 -34.5t59.5 26.5t85 79.5h22l72 -76l-2 -20l-180 -199l-35 -8q-33 0 -145.5 35t-137.5 35q-47 0 -121 -80l-24 -27 h-23z" />
<glyph unicode="&#xf2;" d="M66 414q0 289 159.5 459.5t431.5 170.5q205 0 322 -111.5t117 -314.5q0 -289 -163 -462.5t-433 -173.5q-201 0 -317.5 114.5t-116.5 317.5zM354 420q0 -139 49.5 -211t139.5 -72q123 0 191.5 117t68.5 336q0 139 -51.5 210.5t-143.5 71.5q-119 0 -186.5 -116.5 t-67.5 -335.5zM377 1296l51 158l27 10q236 -117 456 -213l-26 -96l-29 -18q-178 55 -469 133z" />
<glyph unicode="&#xf3;" d="M66 414q0 289 159.5 459.5t431.5 170.5q205 0 322 -111.5t117 -314.5q0 -289 -163 -462.5t-433 -173.5q-201 0 -317.5 114.5t-116.5 317.5zM354 420q0 -139 49.5 -211t139.5 -72q123 0 191.5 117t68.5 336q0 139 -51.5 210.5t-143.5 71.5q-119 0 -186.5 -116.5 t-67.5 -335.5zM401 1251l457 213l27 -10l51 -158l-10 -26q-236 -59 -469 -133l-27 18z" />
<glyph unicode="&#xf4;" d="M66 414q0 289 159.5 459.5t431.5 170.5q205 0 322 -111.5t117 -314.5q0 -289 -163 -462.5t-433 -173.5q-201 0 -317.5 114.5t-116.5 317.5zM328 1249l344 254h41q0 2 53 -47q182 -168 227 -207l-59 -84l-35 -8l-235 119l-267 -119l-30 8zM354 420q0 -139 49.5 -211 t139.5 -72q123 0 191.5 117t68.5 336q0 139 -51.5 210.5t-143.5 71.5q-119 0 -186.5 -116.5t-67.5 -335.5z" />
<glyph unicode="&#xf5;" d="M66 414q0 289 159.5 459.5t431.5 170.5q205 0 322 -111.5t117 -314.5q0 -289 -163 -462.5t-433 -173.5q-201 0 -317.5 114.5t-116.5 317.5zM303 1192l2 22l180 197l33 8q35 0 148.5 -34.5t137 -34.5t59.5 26.5t85 79.5h23l71 -76l-2 -20l-180 -199l-35 -8 q-35 0 -147.5 35t-136.5 35q-45 0 -119 -80l-25 -27h-22zM354 420q0 -139 49.5 -211t139.5 -72q123 0 191.5 117t68.5 336q0 139 -51.5 210.5t-143.5 71.5q-119 0 -186.5 -116.5t-67.5 -335.5z" />
<glyph unicode="&#xf6;" d="M66 414q0 289 159.5 459.5t431.5 170.5q205 0 322 -111.5t117 -314.5q0 -289 -163 -462.5t-433 -173.5q-201 0 -317.5 114.5t-116.5 317.5zM354 420q0 -139 49.5 -211t139.5 -72q123 0 191.5 117t68.5 336q0 139 -51.5 210.5t-143.5 71.5q-119 0 -186.5 -116.5 t-67.5 -335.5zM356 1272q0 68 43 111.5t103 43.5q115 0 114 -106q0 -68 -42.5 -112t-110.5 -44q-106 0 -107 107zM711 1272q0 68 44 111.5t102 43.5t86 -28.5t28 -87t-43 -102.5t-103 -44q-115 0 -114 107z" />
<glyph unicode="&#xf7;" horiz-adv-x="999" d="M31 444l51 185q285 -2 461 -2l432 12l10 -25l-45 -188l-897 -4zM309 145.5q0 65.5 47 114.5t114 49t97.5 -32.5t30.5 -98t-47 -115t-113.5 -49.5t-97.5 33t-31 98.5zM399 862q0 76 46.5 125t114 49t98 -32.5t30.5 -98t-47 -115t-115 -49.5q-127 0 -127 121z" />
<glyph unicode="&#xf8;" d="M66 414q0 289 159.5 459.5t431.5 170.5q92 0 160 -20l105 154l122 -62l3 -22l-95 -140q143 -111 144 -336q0 -289 -163 -462.5t-433 -173.5q-84 0 -162 22l-123 -182l-119 63l-4 17l115 170q-141 115 -141 342zM354 420q0 -68 8 -109l340 537q-39 25 -94 24 q-119 0 -186.5 -116.5t-67.5 -335.5zM446 166q42 -29 97 -29q123 0 191.5 117t68.5 336q0 68 -12 117z" />
<glyph unicode="&#xf9;" horiz-adv-x="1091" d="M106 915l29 115q145 -6 248 -6l203 10l-27 -119q-51 -6 -71.5 -23.5t-26.5 -57.5l-68 -463q-4 -21 -4 -60q0 -170 154 -170q176 0 200 189q59 508 59.5 531.5t-5.5 36.5t-35 13l-51 -2l-2 6l28 115q129 -6 191 -6l209 10l-27 -116q-59 -14 -77.5 -27.5t-22.5 -50.5 l-60 -482q-49 -377 -461 -376q-356 0 -356 278q0 14 35 301t35 305.5t-6.5 31.5t-36.5 13l-51 -2zM373 1296l51 158l27 10q236 -117 456 -213l-26 -96l-29 -18q-178 55 -469 133z" />
<glyph unicode="&#xfa;" horiz-adv-x="1091" d="M106 915l29 115q145 -6 248 -6l203 10l-27 -119q-51 -6 -71.5 -23.5t-26.5 -57.5l-68 -463q-4 -21 -4 -60q0 -170 154 -170q176 0 200 189q59 508 59.5 531.5t-5.5 36.5t-35 13l-51 -2l-2 6l28 115q129 -6 191 -6l209 10l-27 -116q-59 -14 -77.5 -27.5t-22.5 -50.5 l-60 -482q-49 -377 -461 -376q-356 0 -356 278q0 14 35 301t35 305.5t-6.5 31.5t-36.5 13l-51 -2zM420 1251l457 213l26 -10l51 -158l-10 -26q-236 -59 -469 -133l-26 18z" />
<glyph unicode="&#xfb;" horiz-adv-x="1091" d="M106 915l29 115q145 -6 248 -6l203 10l-27 -119q-51 -6 -71.5 -23.5t-26.5 -57.5l-68 -463q-4 -21 -4 -60q0 -170 154 -170q176 0 200 189q59 508 59.5 531.5t-5.5 36.5t-35 13l-51 -2l-2 6l28 115q129 -6 191 -6l209 10l-27 -116q-59 -14 -77.5 -27.5t-22.5 -50.5 l-60 -482q-49 -377 -461 -376q-356 0 -356 278q0 14 35 301t35 305.5t-6.5 31.5t-36.5 13l-51 -2zM346 1249l344 254h41q0 2 53 -47q182 -168 228 -207l-60 -84l-34 -8l-236 119l-266 -119l-31 8z" />
<glyph unicode="&#xfc;" horiz-adv-x="1091" d="M106 915l29 115q145 -6 248 -6l203 10l-27 -119q-51 -6 -71.5 -23.5t-26.5 -57.5l-68 -463q-4 -21 -4 -60q0 -170 154 -170q176 0 200 189q59 508 59.5 531.5t-5.5 36.5t-35 13l-51 -2l-2 6l28 115q129 -6 191 -6l209 10l-27 -116q-59 -14 -77.5 -27.5t-22.5 -50.5 l-60 -482q-49 -377 -461 -376q-356 0 -356 278q0 14 35 301t35 305.5t-6.5 31.5t-36.5 13l-51 -2zM375 1272q0 68 43 111.5t102 43.5q115 0 115 -106q0 -68 -43 -112t-111 -44q-106 0 -106 107zM729 1272q0 68 44 111.5t102.5 43.5t86 -28.5t27.5 -87t-43 -102.5t-102 -44 q-115 0 -115 107z" />
<glyph unicode="&#xfd;" horiz-adv-x="1048" d="M72 915l28 113q158 -4 222 -4l270 12l8 -16l-22 -100q-53 -2 -74 -13.5t-21 -33t86 -304.5h19l141 242q33 55 33 76q0 31 -74 31l-4 10l25 102l229 -6l172 6l6 -12l-26 -109q-63 -23 -109.5 -67.5t-108.5 -134.5l-188 -285q-33 -47 -39 -92q-18 -129 -18 -152.5t11 -42 t56 -18.5l82 4l6 -8l-28 -121q-203 8 -289 8l-279 -16l27 118q98 10 131 37q35 31 45 150q2 14 2 52t-29 105l-126 308q-27 68 -60 101.5t-98 51.5zM410 1251l456 213l27 -10l51 -158l-10 -26q-236 -59 -469 -133l-27 18z" />
<glyph unicode="&#xfe;" horiz-adv-x="985" d="M18 -12l27 112q70 14 95.5 40t33.5 93q78 614 78 633t-7 33t-44 14l-51 -2l-11 15l25 102l239 -2l246 10l-24 -116q-63 -10 -84 -23q-23 -16 -31 -76h121q346 0 346 -250q0 -147 -129 -245.5t-313 -98.5h-115q-12 -86 -1 -100t46 -14l78 6l6 -15l-27 -108q-188 4 -262 4z M440 381q59 -18 125 -23q146 27 146 187q0 133 -189 133q-37 0 -39 -27q-25 -131 -43 -270z" />
<glyph unicode="&#xff;" horiz-adv-x="1048" d="M72 915l28 113q158 -4 222 -4l270 12l8 -16l-22 -100q-53 -2 -74 -13.5t-21 -33t86 -304.5h19l141 242q33 55 33 76q0 31 -74 31l-4 10l25 102l229 -6l172 6l6 -12l-26 -109q-63 -23 -109.5 -67.5t-108.5 -134.5l-188 -285q-33 -47 -39 -92q-18 -129 -18 -152.5t11 -42 t56 -18.5l82 4l6 -8l-28 -121q-203 8 -289 8l-279 -16l27 118q98 10 131 37q35 31 45 150q2 14 2 52t-29 105l-126 308q-27 68 -60 101.5t-98 51.5zM356 1272q0 68 43 111.5t103 43.5q115 0 114 -106q0 -68 -42.5 -112t-110.5 -44q-106 0 -107 107zM711 1272q0 68 44 111.5 t102 43.5t86 -28.5t28 -87t-43 -102.5t-103 -44q-115 0 -114 107z" />
<glyph unicode="&#x152;" horiz-adv-x="1853" d="M66 524q0 362 193.5 583.5t514.5 221.5q61 0 217 -13t246 -13q348 0 621 36l14 -22q-57 -182 -92 -373l-189 -12q16 72 16.5 124t-44.5 69.5t-151.5 17.5t-123 -10.5t-22.5 -57.5l-54 -317l181 -2l233 16l14 -18l-51 -176q-158 6 -254 6l-153 -13q-43 -313 -43 -344.5 t15 -48t99 -16.5q176 0 233.5 40t96.5 193l174 15l12 -21q-57 -184 -100 -381l-22 -22q-371 18 -542 18t-319.5 -13.5t-203.5 -13.5q-236 0 -376 147.5t-140 399.5zM385 528q0 -182 62.5 -280t185.5 -98t186.5 61t81.5 203q70 541 70 567q0 82 -46 125t-196.5 43t-247 -168 t-96.5 -453z" />
<glyph unicode="&#x153;" horiz-adv-x="1533" d="M55 416q0 287 155 453.5t425 166.5q49 0 178 -10t315.5 -10t405.5 28l12 -18q-47 -150 -73 -297l-173 -12q12 53 12.5 92t-34.5 53.5t-117 14.5t-95 -8.5t-17 -41.5l-43 -231l147 -2l188 14l13 -18l-41 -148q-125 4 -205 4l-125 -10q-33 -221 -33 -245.5t11.5 -37 t114 -12.5t146.5 31t74 147l160 13l10 -19q-45 -145 -80 -305l-22 -18q-297 14 -442.5 14t-266 -11t-166.5 -11q-199 0 -316.5 115.5t-117.5 318.5zM342 414q0 -283 184 -283q94 0 141.5 44t61.5 144q51 414 51 433q0 63 -34.5 96t-148.5 33t-184.5 -124t-70.5 -343z" />
<glyph unicode="&#x178;" horiz-adv-x="1191" d="M70 1190l32 129q176 -6 254 -6l320 16l8 -18l-27 -117q-72 -4 -97 -18.5t-25 -62.5t114 -408h17l198 344q39 66 39 102.5t-94 42.5l-4 10l31 117l262 -8l205 8l6 -14l-31 -123q-82 -27 -136.5 -81t-133.5 -181q-238 -373 -245 -386.5t-12.5 -22.5t-9.5 -23.5t-7 -22.5 t-6 -25.5t-5 -26.5t-5 -32t-5 -33q-2 -35 -8.5 -73.5t-6.5 -67.5t12.5 -52.5t67.5 -23.5l99 6l6 -10l-35 -137q-227 8 -303 8q-104 0 -338 -23l31 138q117 16 154.5 53t47.5 141q10 84 10.5 137.5t-32.5 137.5l-146 389q-37 102 -74.5 145t-121.5 62zM467 1552q0 68 43 112 t102 44q115 0 115 -106q0 -68 -43 -112t-111 -44q-106 0 -106 106zM821 1552q0 68 44 112t102.5 44t86 -28.5t27.5 -87t-43 -102.5t-102 -44q-115 0 -115 106z" />
<glyph unicode="&#x2c6;" horiz-adv-x="786" d="M158 1180q74 61 340 315h41q199 -248 264 -315l-70 -84l-33 -9q-176 147 -211 170q-6 -4 -249 -170l-33 9z" />
<glyph unicode="&#x2dc;" horiz-adv-x="786" d="M123 1178l2 22l180 207l33 8q35 0 149.5 -33.5t139.5 -33.5q41 0 118 86l25 28h23l73 -76l-4 -20l-180 -209l-33 -8q-35 0 -148.5 35t-138 35t-60.5 -29t-85 -86h-22z" />
<glyph unicode="&#x2000;" horiz-adv-x="897" />
<glyph unicode="&#x2001;" horiz-adv-x="1794" />
<glyph unicode="&#x2002;" horiz-adv-x="897" />
<glyph unicode="&#x2003;" horiz-adv-x="1794" />
<glyph unicode="&#x2004;" horiz-adv-x="598" />
<glyph unicode="&#x2005;" horiz-adv-x="448" />
<glyph unicode="&#x2006;" horiz-adv-x="299" />
<glyph unicode="&#x2007;" horiz-adv-x="299" />
<glyph unicode="&#x2008;" horiz-adv-x="224" />
<glyph unicode="&#x2009;" horiz-adv-x="358" />
<glyph unicode="&#x200a;" horiz-adv-x="99" />
<glyph unicode="&#x2010;" horiz-adv-x="638" d="M63 422l35 160l475 59l17 -27l-37 -163l-473 -54z" />
<glyph unicode="&#x2011;" horiz-adv-x="638" d="M63 422l35 160l475 59l17 -27l-37 -163l-473 -54z" />
<glyph unicode="&#x2012;" horiz-adv-x="638" d="M63 422l35 160l475 59l17 -27l-37 -163l-473 -54z" />
<glyph unicode="&#x2013;" horiz-adv-x="894" d="M-18 461l41 155h475q311 0 420 9l10 -31l-39 -158l-895 -2z" />
<glyph unicode="&#x2014;" horiz-adv-x="1724" d="M-18 461l41 155h862q770 0 860 9l12 -31l-41 -158l-1722 -2z" />
<glyph unicode="&#x2018;" horiz-adv-x="438" d="M125 978q0 91 85 189.5t216 171.5l76 -61v-35q-61 -41 -100.5 -99.5t-39.5 -111.5q0 -82 72 -139l-6 -29q-90 -72 -156.5 -71.5t-106.5 47.5t-40 138z" />
<glyph unicode="&#x2019;" horiz-adv-x="438" d="M84 854v35q61 41 100 98t39 111q0 86 -71 141l6 29q92 72 157.5 71.5t105.5 -48.5t40 -139t-85 -189.5t-216 -169.5z" />
<glyph unicode="&#x201a;" horiz-adv-x="468" d="M-51 -190q66 45 106.5 108.5t40.5 136t-61 138.5l4 28q92 70 157.5 70t104.5 -49t39 -144.5t-90 -202t-223 -182.5l-78 62v35z" />
<glyph unicode="&#x201c;" horiz-adv-x="806" d="M248 978q0 91 85 189.5t216 171.5l76 -61v-35q-61 -41 -100.5 -99.5t-39.5 -111.5q0 -82 72 -139l-6 -29q-90 -72 -156.5 -71.5t-106.5 47.5t-40 138zM614 978q0 91 85 189.5t216 171.5l76 -61v-35q-61 -41 -100 -99.5t-39 -111.5q0 -82 72 -139l-6 -29 q-90 -72 -157 -71.5t-107 47.5t-40 138z" />
<glyph unicode="&#x201d;" horiz-adv-x="806" d="M215 854v35q61 41 100 98t39 111q0 86 -71 141l6 29q92 72 157.5 71.5t105.5 -48.5t40 -139t-85 -189.5t-216 -169.5zM582 854v35q61 41 100 98t39 111q0 86 -72 141l6 29q92 72 158 71.5t105.5 -48.5t39.5 -139t-85 -189.5t-216 -169.5z" />
<glyph unicode="&#x201e;" horiz-adv-x="835" d="M-39 -160q61 41 100 99.5t39 111.5q0 82 -69 142l4 28q92 70 157.5 70t105.5 -47t40 -138.5t-85 -189.5t-216 -172l-76 61v35zM332 -160q61 41 100 99.5t39 111.5q0 82 -70 142l5 28q92 70 157.5 70t105.5 -47t40 -138.5t-85 -189.5t-216 -172l-76 61v35z" />
<glyph unicode="&#x2022;" horiz-adv-x="671" d="M96 453.5q0 109.5 78 191.5t187.5 82t164 -57.5t54.5 -166t-78 -190.5t-188.5 -82t-164 56.5t-53.5 166z" />
<glyph unicode="&#x2026;" horiz-adv-x="1341" d="M39 122q0 73 52 126t125 53t107.5 -36t34.5 -107.5t-52 -126t-126 -54.5t-107.5 36t-33.5 109zM473 122q0 73 52.5 126t125 53t107.5 -36t35 -107.5t-52.5 -126t-126 -54.5t-107.5 36t-34 109zM911 122q0 73 52.5 126t125 53t107.5 -36t35 -107.5t-52.5 -126t-126 -54.5 t-107.5 36t-34 109z" />
<glyph unicode="&#x202f;" horiz-adv-x="358" />
<glyph unicode="&#x2039;" horiz-adv-x="524" d="M27 440l4 43q293 276 366 359l80 -51l4 -33l-209 -289l138 -295l-13 -33l-90 -51q-51 76 -280 350z" />
<glyph unicode="&#x203a;" horiz-adv-x="524" d="M45 174q10 16 61 84q133 180 144 205q-4 12 -33 73.5t-62.5 134t-39.5 85.5l12 32l90 54q49 -74 283 -353l-6 -40q-291 -277 -367 -359l-80 51z" />
<glyph unicode="&#x205f;" horiz-adv-x="448" />
<glyph unicode="&#x20ac;" horiz-adv-x="1130" d="M-6 352l24 97h138q4 72 14 122h-137l-10 15l24 96h154q68 172 215 267t358 95q121 0 334 -40l8 -23q-49 -133 -82 -303l-168 -12q14 78 15 108q0 111 -164 111q-193 0 -262 -203h6l297 8l12 -18l-22 -99l-316 -2q-8 -49 -8 -122h8l297 8l12 -19l-22 -98l-287 -2 q37 -201 211 -201q86 0 138.5 49.5t86.5 167.5l168 13q-45 -168 -67 -304l-19 -18q-147 -63 -341.5 -63t-310.5 93t-138 263h-156z" />
<glyph unicode="&#x2122;" horiz-adv-x="1126" d="M16 1128q16 104 29 187l10 6l86 -8h250l92 8l9 -6l-15 -180l-88 -7v44t-8 47.5t-49 17.5q-43 -258 -43 -303t35 -45l43 2l2 -6l-15 -64q-106 4 -151 4l-152 -6l15 62q51 6 66 18t22 53l34 285q-43 -2 -56 -19.5t-30 -82.5zM449 819l14 62q43 6 53 53l64 297q0 18 -52 24 l-4 7l15 55q80 -4 110 -4l109 4l41 -268h10q59 135 113 266h127l75 2q2 0 6 -2l-12 -58q-35 -2 -45 -9t-15 -39.5t-9.5 -164t2 -144.5t24.5 -13l23 2l6 -6l-17 -60q-49 2 -129.5 2t-91.5 -6l13 64q47 2 49 37l16 204h-8q-66 -131 -137 -303l-84 -6q-43 231 -62 309h-8 q-37 -207 -37 -217q0 -23 23 -22l24 2q4 -4 7 -4l-19 -60q-78 2 -104 2z" />
<glyph unicode="&#xe000;" horiz-adv-x="1034" d="M0 0v1034h1034v-1034h-1034z" />
<glyph unicode="&#xfb01;" horiz-adv-x="1550" d="M18 -18l27 120q68 10 94.5 39t36.5 101q78 604 78 623.5t-6 32.5t-37 13l-47 -2l-12 17l26 104q193 -6 411 -6t372 20l14 -18q-43 -154 -70 -299l-170 -10q12 53 12.5 92t-29.5 53.5t-99.5 14.5t-84 -8.5t-18.5 -41.5l-45 -258l147 -2l175 15l10 -19l-39 -149 q-119 4 -161 4t-157 -8q-29 -193 -28.5 -214.5t10.5 -39t51 -17.5l103 11l14 -21l-33 -135q-176 6 -248 6q-145 0 -297 -18zM936 -12l25 112q72 14 98 41t33 92q78 614 77.5 633t-8.5 32t-43 13h-53q-6 12 -6 15l22 102l238 -4l248 12l-25 -116q-61 -8 -81.5 -24.5 t-28.5 -61.5q-100 -541 -101 -658q0 -37 11.5 -50t37.5 -13l68 4l6 -13l-29 -108q-176 4 -249 4z" />
<glyph unicode="&#xfb02;" horiz-adv-x="1832" d="M18 -18l27 120q68 10 94.5 39t36.5 101q78 604 78 623.5t-6 32.5t-37 13l-47 -2l-12 17l26 104q193 -6 411 -6t372 20l14 -18q-43 -154 -70 -299l-170 -10q12 53 12.5 92t-29.5 53.5t-99.5 14.5t-84 -8.5t-18.5 -41.5l-45 -258l147 -2l175 15l10 -19l-39 -149 q-119 4 -161 4t-157 -8q-29 -193 -28.5 -214.5t10.5 -39t51 -17.5l103 11l14 -21l-33 -135q-176 6 -248 6q-145 0 -297 -18zM940 -16l29 118q63 10 88.5 40t34.5 100q76 606 75.5 625.5t-8.5 31.5t-43 12h-47l-8 15l24 102l234 -4l276 12l-26 -125q-82 -10 -107.5 -28.5 t-38.5 -77.5q-90 -489 -90 -602q0 -35 17.5 -48.5t64.5 -13.5q106 0 148.5 45t76.5 201l160 16l10 -16q-47 -182 -88 -381l-20 -18q-258 12 -395 12q-203 0 -367 -16z" />
</font>
</defs>
</svg>
