<?xml version="1.0" standalone="no"?>
<!DOCTYPE svg PUBLIC "-//W3C//DTD SVG 1.1//EN" "http://www.w3.org/Graphics/SVG/1.1/DTD/svg11.dtd" >
<svg xmlns="http://www.w3.org/2000/svg">
<metadata></metadata>
<defs>
<font id="alegreya_scblack_italic" horiz-adv-x="1353" >
<font-face units-per-em="2048" ascent="1638" descent="-410" />
<missing-glyph horiz-adv-x="280" />
<glyph horiz-adv-x="2048" />
<glyph horiz-adv-x="2048" />
<glyph unicode="&#xd;" horiz-adv-x="681" />
<glyph unicode=" "  horiz-adv-x="280" />
<glyph unicode="&#x09;" horiz-adv-x="280" />
<glyph unicode="&#xa0;" horiz-adv-x="280" />
<glyph unicode="!" horiz-adv-x="563" d="M33 145q0 111 64.5 177.5t157.5 66.5t137 -44t44 -137t-64.5 -159.5t-158.5 -66.5q-180 0 -180 163zM160 543l30 823l43 49l392 53l45 -53l-256 -880l-217 -33z" />
<glyph unicode="&#x22;" horiz-adv-x="692" d="M106 834q31 199 44 487l276 29l14 -25q-59 -223 -139 -453l-158 -51zM451 834q29 217 41 487l276 29l14 -25q-59 -223 -139 -453l-156 -51z" />
<glyph unicode="#" horiz-adv-x="1112" d="M-6 322l53 215l184 -2l41 159h-153l-15 27l54 215l178 -2l61 240l226 18l26 -14l-74 -244h158l62 240l223 18l26 -14l-71 -238l168 6l10 -31l-43 -217l-205 -2l-43 -155l170 6l10 -31l-43 -217l-200 -2l-54 -205l-221 -29l-24 19l61 215h-160l-51 -205l-221 -29l-25 19 l60 213h-154zM465 535h162l43 161h-164l-6 -32z" />
<glyph unicode="$" horiz-adv-x="909" d="M-16 82q53 164 71 260l234 16q-2 -10 -2 -38.5t28.5 -66.5t87.5 -38q94 0 95 51q0 33 -38 56.5t-80 40t-44 16.5q-98 39 -160.5 88t-84 96t-21.5 107q0 145 107.5 242.5t295.5 125.5l70 281l243 29l11 -19l-70 -282q123 -12 242 -41l18 -39q-49 -135 -80 -279l-217 -14 l-20 14q4 31 4 33q0 88 -99 88q-41 0 -66.5 -17.5t-25.5 -46.5q0 -45 115 -94q158 -63 209 -100q104 -80 104 -217t-116.5 -230.5t-327.5 -115.5l-74 -297l-239 -27l-15 12l76 316q-121 16 -213 59z" />
<glyph unicode="%" horiz-adv-x="1515" d="M49 889q0 219 106.5 340t278.5 121q123 0 189.5 -74t66.5 -219q0 -219 -105.5 -341t-275.5 -122q-123 0 -191.5 74.5t-68.5 220.5zM154 -80q227 328 397 598l547 873l178 -66l20 -49q-367 -567 -553 -852l-387 -610l-190 71zM217 961q1 -84 148 -84q84 0 118.5 23.5 t34.5 74.5q0 84 -147 84q-84 0 -119 -22.5t-35 -75.5zM866 270q0 219 106.5 340t278.5 121q123 0 189.5 -73.5t66.5 -219.5q0 -219 -105.5 -341t-275.5 -122q-123 0 -191.5 75t-68.5 220zM1034 342q1 -84 148 -84q84 0 118.5 23.5t34.5 74.5q0 84 -147 84q-84 0 -119 -22.5 t-35 -75.5z" />
<glyph unicode="&#x26;" horiz-adv-x="1374" d="M45 457q0 215 142.5 373.5t322.5 158.5q70 0 119 -39t49 -88v-22l14 -9q80 117 122 214.5t73 240.5l31 33h108q109 -182 109 -240q0 -29 -33 -78q-348 -469 -725 -675q92 -96 252 -97q238 0 299 197l-25 2q-39 0 -90 -39h-12l-72 121l2 8l150 135l34 11l347 -25 q55 0 133 43h12l68 -119v-10l-146 -135l-39 -12l-119 6q-82 -190 -256 -313.5t-362 -123.5q-231 0 -369.5 133.5t-138.5 348.5zM293 563.5q0 -57.5 10 -102.5q109 66 138.5 98.5t29.5 75.5q0 70 -56.5 70t-89 -42t-32.5 -99.5z" />
<glyph unicode="'" horiz-adv-x="350" d="M106 834q31 199 44 487l276 29l14 -25q-59 -223 -139 -453l-158 -51z" />
<glyph unicode="(" horiz-adv-x="614" d="M76 242q0 10 53 446q16 141 65.5 259t106.5 186q119 139 203 178l37 18h37l90 -131l-4 -18q-23 -14 -58 -55.5t-61 -88.5q-65 -124 -90 -317q-53 -440 -53.5 -488.5t3 -103.5t19.5 -115q29 -104 68 -149l14 -17l-2 -22l-144 -123h-24q-43 23 -69.5 47.5t-54.5 54 t-47.5 64.5t-41.5 84q-31 66 -45 231q-2 23 -2 60z" />
<glyph unicode=")" horiz-adv-x="622" d="M-47 -168l4 18q23 14 57.5 55.5t59.5 88.5q71 129 94 317q53 440 53 488.5t-3 103.5t-19 117q-29 102 -68 147l-14 17l2 22l141 123h27q45 -23 99 -77t89 -118.5t51.5 -155.5t16.5 -156.5t-6 -125.5l-45 -354q-16 -141 -65.5 -259t-107.5 -185q-119 -139 -202 -181 l-37 -16h-35z" />
<glyph unicode="*" horiz-adv-x="712" d="M104 1198q0 111 29 191l23 6q90 -49 215 -144l-19 -100l-18 -14zM141 928l2 24q74 70 201 160l92 -49l6 -19l-127 -200q-106 33 -174 84zM375 1507q106 33 192 33l15 -20q-23 -100 -72 -250l-102 -10l-17 10zM469 1047l76 71h22l150 -184q-63 -92 -135 -139l-23 10 q-43 90 -90 242zM526 1237l9 23l221 83q68 -90 90 -172l-17 -16q-74 -12 -258 -12z" />
<glyph unicode="+" horiz-adv-x="1005" d="M18 387l70 277q141 -2 287 -2l41 321l272 27l29 -15q-31 -180 -53 -333l319 12l10 -31l-61 -278l-305 -3l-33 -288l-272 -37l-23 18q18 152 39 307l-305 -2z" />
<glyph unicode="," horiz-adv-x="473" d="M-70 -104q59 43 95 102t36 132t-59 138l6 29q117 90 202 90t133 -56.5t48 -157.5t-92 -217t-250 -206l-119 94v52z" />
<glyph unicode="-" horiz-adv-x="643" d="M55 397l47 217l476 58l18 -37l-53 -221l-467 -54z" />
<glyph unicode="." horiz-adv-x="473" d="M-2 145q0 111 64.5 177.5t158.5 66.5q178 0 178 -166q0 -109 -64.5 -175t-168.5 -66q-168 0 -168 163z" />
<glyph unicode="/" horiz-adv-x="653" d="M-78 -195q141 346 256 658l342 919h244l31 -41q-223 -569 -351 -901l-245 -665h-258z" />
<glyph unicode="0" horiz-adv-x="921" d="M16 395q0 299 146.5 479.5t392.5 180.5q174 0 265 -107.5t91 -310.5q0 -303 -144 -482.5t-390 -179.5q-176 0 -268.5 109t-92.5 311zM246 500q0 -133 209 -133q119 0 172 37.5t53 117.5q0 133 -217 133t-217 -155z" />
<glyph unicode="1" horiz-adv-x="751" d="M-41 -20l37 165q94 10 139 43t53 97q53 434 53.5 462.5t-12 47t-69.5 18.5l-92 -6l-17 20l35 154q246 23 389 42t238 32l22 -88q-61 -45 -98 -148q-96 -277 -96 -543q0 -96 63 -96l88 4l6 -12l-51 -184q-203 12 -276.5 12t-129 -2t-102.5 -6q-98 -6 -180 -12z" />
<glyph unicode="2" horiz-adv-x="980" d="M-49 -12l2 102l158 158q178 186 241 270q70 92 70 163t-91 71t-204 -129h-37l-24 213q242 219 475 219q147 0 235 -71t88 -185q0 -76 -18 -123q-41 -102 -354 -395l8 -19h55q74 0 113 42t61 145l240 18q-78 -272 -109 -455l-39 -37q-512 25 -719 25z" />
<glyph unicode="3" horiz-adv-x="894" d="M-47 35v45l51 47q66 -37 174.5 -37t172 35t63.5 92q0 102 -207 102l-23 31l2 185l133 26q131 53 132 158q0 31 -20.5 49t-55.5 18q-84 0 -217 -98l-31 -2l-41 211q98 68 222 113t241 45t201 -60.5t84 -161t-70 -180.5t-186 -114l-3 -23q250 -80 250 -262 q0 -111 -104.5 -215.5t-269 -169t-332.5 -64.5q-102 0 -134 55.5t-32 174.5z" />
<glyph unicode="4" horiz-adv-x="978" d="M-45 113l27 204l591 734l19 4l287 -25l-84 -676h135l18 -30l-49 -232q-53 2 -133 4l-18 -243l-25 -23l-340 -25l-16 25q25 141 45 276q-236 6 -457 7zM260 354h184l33 260h-22z" />
<glyph unicode="5" horiz-adv-x="839" d="M-86 18q0 29 2 62l51 47q68 -37 173.5 -37t170 36t64.5 89t-69.5 83t-239.5 48l-17 23q59 256 123 612l16 16l398 13q55 2 83.5 19.5t51.5 62.5l162 10l-103 -367l-45 -39q-152 16 -348 17l-29 -107q227 -37 326.5 -106.5t99.5 -192.5q0 -190 -218 -346t-484 -156 q-102 0 -135 54.5t-33 158.5z" />
<glyph unicode="6" horiz-adv-x="942" d="M16 367q0 137 46.5 259t119 207t160.5 155.5t176 113.5q186 90 281 115l45 10l24 -15l41 -165q-27 -10 -69.5 -30t-150 -94.5t-181.5 -166.5l8 -23l115 43q133 0 208.5 -83t75.5 -224q0 -225 -144 -359.5t-386 -134.5q-172 0 -270.5 105.5t-98.5 286.5zM354 360 q0 -145 88 -145q70 0 96.5 47t26.5 146q0 122 -80 122q-55 0 -112 -34q-18 -106 -19 -136z" />
<glyph unicode="7" horiz-adv-x="866" d="M25 539q61 272 98 489l14 10q117 -8 242 -8h444l99 -143q-162 -289 -418 -789l-113 -293h-57l-242 78l-18 58l479 796l-176 -18q-88 -10 -121 -40t-61 -128z" />
<glyph unicode="8" horiz-adv-x="937" d="M6 254q0 199 217 291q-131 113 -131 280.5t146.5 284.5t349.5 117q150 0 249 -80t99 -197q0 -182 -191 -280q135 -98 135.5 -269.5t-146 -298.5t-357.5 -127q-164 0 -267.5 78t-103.5 201zM315 328q0 -64 29 -97.5t79 -33.5t78.5 27.5t28.5 65.5t-23.5 64.5t-46 41 t-57 35t-41.5 24.5q-47 -63 -47 -127zM440 893q0 -41 34 -70.5t104 -64.5q47 70 47 135q0 96 -86 96q-43 0 -71 -27.5t-28 -68.5z" />
<glyph unicode="9" horiz-adv-x="942" d="M33 561q0 225 144.5 359.5t385.5 134.5q172 0 271.5 -105.5t99.5 -285.5q0 -137 -46 -259t-119 -207t-161 -156t-176 -114q-186 -90 -280 -112l-46 -13l-24 15l-41 166q27 10 70 28.5t149.5 94t179.5 167.5l-8 23l-115 -43q-131 0 -207.5 83t-76.5 224zM383 623 q0 -123 80 -123q55 0 110 32q20 70 21 138q0 145 -86 145q-70 0 -97.5 -47t-27.5 -145z" />
<glyph unicode=":" horiz-adv-x="473" d="M8 145q0 111 64.5 177.5t156.5 66.5q180 0 181 -166q0 -109 -65 -175t-169 -66q-168 0 -168 163zM74 688q0 111 64.5 177.5t156.5 66.5q180 0 180 -166q0 -109 -64.5 -175.5t-168.5 -66.5q-168 0 -168 164z" />
<glyph unicode=";" horiz-adv-x="473" d="M-61 -104q59 43 95 102t36 132t-60 138l6 29q117 90 202 90t133 -56.5t48 -157.5t-92 -217t-250 -206l-118 94v52zM74 688q0 111 64.5 177.5t156.5 66.5q180 0 180 -166q0 -109 -64.5 -175.5t-168.5 -66.5q-168 0 -168 164z" />
<glyph unicode="&#x3c;" horiz-adv-x="847" d="M39 408l39 313l371 158l311 143l35 -23l43 -215q-236 -92 -525 -219l-2 -16l183 -100l268 -132l14 -43l-137 -188q-121 59 -254 129l-334 162z" />
<glyph unicode="=" horiz-adv-x="1005" d="M-8 182l71 277q276 -2 453 -2l442 12l11 -31l-62 -278l-899 -4zM43 592l70 276q276 -2 454 -2l441 13l10 -31l-60 -279l-901 -4z" />
<glyph unicode="&#x3e;" horiz-adv-x="847" d="M27 324q209 80 526 219l2 16l-184 100l-269 132l-12 43l137 188q119 -59 252 -129l334 -162l12 -31l-37 -313l-370 -158l-314 -143l-32 23z" />
<glyph unicode="?" horiz-adv-x="759" d="M90 145q0 111 64.5 177.5t156.5 66.5q182 0 183 -166q0 -108 -64.5 -174.5t-159.5 -66.5q-180 0 -180 163zM164 1206l112 242l37 18q242 -6 396.5 -104t154.5 -244q0 -109 -78.5 -198t-296.5 -222l-6 -12l-4 -141l-20 -29l-246 -41l-29 17l-14 272l10 31l201 96 q108 55 108 127q0 135 -301 151z" />
<glyph unicode="@" horiz-adv-x="1787" d="M14 346q0 201 83 391.5t219.5 330.5t320.5 225t381 85q360 0 568 -177t208 -500.5t-206 -524.5t-556 -201q-49 0 -79.5 31t-30.5 69t49 249h-21q-156 -268 -272 -349q-145 0 -227 85t-82 237q0 242 166.5 456t353.5 214l147 -41l11 41l38 24l275 -24l16 -47 q-98 -428 -141 -691l14 -16q141 0 233.5 120t92.5 302q0 246 -166 387t-465 140t-502.5 -214t-203.5 -547.5t214.5 -520t620.5 -185.5l-2 -55l-76 -132q-459 0 -720 223.5t-261 614.5zM743 416q0 -123 29 -123q35 0 101.5 130t105.5 275q-78 53 -152 54q-29 0 -56.5 -106.5 t-27.5 -229.5z" />
<glyph unicode="A" d="M-68 -4l35 178q74 18 113 113l432 1028l547 33l28 -25q98 -788 127 -1010q8 -70 31 -100.5t66 -36.5l12 -20l-37 -162q-172 4 -282 4l-386 -10l-14 18l33 172q86 10 110.5 22.5t24.5 47.5v117q-133 4 -149 4l-158 -11q-39 -131 -39 -145q0 -31 47 -31h55l15 -20l-37 -170 q-186 6 -307 6zM561 616h98q14 0 101 5l-21 358h-45z" />
<glyph unicode="B" horiz-adv-x="1325" d="M-41 -14l41 184q78 14 110.5 45t41.5 104q94 746 94 760q0 66 -43 66l-70 -4l-20 24l43 164q279 -4 342 -4l370 14q209 0 325 -74.5t116 -209.5q0 -104 -55.5 -188.5t-178.5 -164.5q213 -90 213 -272q0 -453 -633 -453q-35 6 -157.5 14.5t-169.5 8.5zM549 307 q0 -74 131 -74q78 0 120 43t42 131.5t-103 124.5h-153q-37 -215 -37 -225zM623 797q106 -23 151 -23q39 23 69.5 78.5t30.5 110.5q0 118 -164 118h-3q-33 0 -39 -28z" />
<glyph unicode="C" horiz-adv-x="1196" d="M37 530q0 401 192.5 610.5t561.5 209.5q152 0 454 -54l12 -41q-66 -188 -110 -438l-320 -18q23 117 23 153q0 115 -135 115q-113 0 -160 -119t-47 -399q0 -154 31.5 -218.5t107.5 -64.5t112 48t64 190l318 20q-53 -240 -76 -436l-31 -33q-205 -78 -462 -78t-396 143.5 t-139 409.5z" />
<glyph unicode="D" horiz-adv-x="1351" d="M-33 -16l41 190q74 12 103.5 47t44.5 123q88 720 88 743q0 53 -39 54l-64 -4l-16 28l39 166q223 -6 305 -6l313 12q281 0 430.5 -131t149.5 -383q0 -383 -217 -615.5t-574 -232.5q-188 25 -313 25zM547 287q0 -55 53 -56q291 0 291 584q0 145 -42.5 203.5t-146.5 58.5 q-20 0 -30 -11t-18.5 -53t-57.5 -371t-49 -355z" />
<glyph unicode="E" horiz-adv-x="1200" d="M-41 -20l41 188q76 12 107.5 50t42.5 130q92 719 92 740.5t-6.5 39t-38.5 17.5l-52 -4l-20 28l39 162q287 -6 592 -6t497 25l23 -33q-63 -215 -96 -408l-287 -18q16 66 16 109.5t-36.5 61t-107.5 17.5t-84 -10t-19 -45l-41 -231l161 -2l219 12l21 -29l-57 -235 q-145 6 -210 6t-175 -13q-29 -195 -29 -231.5t17.5 -50.5t64.5 -14q123 0 169 39.5t81 177.5l264 18l22 -31q-61 -199 -108 -422l-35 -32q-324 14 -526 14q-295 0 -541 -20z" />
<glyph unicode="F" horiz-adv-x="1105" d="M-41 -20l41 188q76 12 106.5 50t43.5 130q92 719 92 740.5t-6.5 39t-38.5 17.5l-52 -4l-20 28l39 162q287 -6 571.5 -6t460.5 25l23 -33q-53 -219 -84 -408l-287 -16q14 63 14 106t-27.5 61.5t-84 18.5t-69.5 -10t-19 -45l-48 -266l164 -2l209 12l23 -29l-58 -235 q-139 6 -206 6t-171 -12q-23 -168 -23 -197q0 -26 11 -46q10 -19 62.5 -19t113.5 16l29 -37l-53 -221q-231 6 -326 6q-184 0 -430 -20z" />
<glyph unicode="G" horiz-adv-x="1265" d="M37 530q0 401 192.5 610.5t561.5 209.5q152 0 454 -54l12 -41q-66 -160 -110 -409l-320 -19q23 94 23 131q0 109 -135 109q-113 0 -160 -119t-47 -399q0 -154 31.5 -218.5t107.5 -64.5q59 0 113 25q16 150 16 167t-8 31.5t-43 14.5l-63 -2l-15 28l47 195h307 q221 0 222 10l6 -119q-82 -51 -99 -153q-41 -213 -40 -307l2 -78l-29 -33q-166 -68 -492 -68q-256 0 -395 143.5t-139 409.5z" />
<glyph unicode="H" horiz-adv-x="1466" d="M-35 -10l37 174q80 16 108.5 49t39.5 119q92 735 92 757.5t-10.5 39t-51.5 16.5l-51 -2l-14 28l35 154h258l405 10l-37 -184q-63 -12 -85.5 -31.5t-31.5 -75.5l-41 -247l158 -6q109 0 162 6q35 270 35 291.5t-10.5 39t-51.5 17.5l-53 -2l-14 28l35 154h381l301 10 l-35 -180q-74 -12 -98.5 -32.5t-43 -115t-61.5 -387.5t-43 -348q0 -90 63 -90l56 6l14 -22l-39 -170q-113 2 -244 4h-100l-336 -2l37 178q70 2 104.5 37t45.5 119l26 209q-59 2 -108 2l-221 -19q-31 -256 -31 -286.5t11 -45t40 -14.5l53 6l15 -20l-39 -172q-248 8 -330 8z " />
<glyph unicode="I" horiz-adv-x="735" d="M-35 -10l37 174q82 18 109.5 50t38.5 118q92 735 92 757.5t-10.5 39t-51.5 16.5l-49 -2l-16 28l35 154h325l348 10l-37 -184q-68 -10 -90 -29.5t-34 -77.5q-31 -167 -73 -450t-42 -333t11 -66.5t40 -16.5l64 6l12 -20l-39 -172q-250 8 -334 8z" />
<glyph unicode="J" horiz-adv-x="673" d="M-143 -238l8 31q133 96 184 187t78 290q98 801 98 822.5t-7 37t-46 15.5l-72 -4l-14 28l35 156l285 2l387 14l-41 -190q-59 -14 -77 -31.5t-28 -75.5q-63 -322 -131 -870q-29 -197 -169 -319.5t-419 -190.5z" />
<glyph unicode="K" horiz-adv-x="1384" d="M-35 -10l37 174q80 16 110 49t38 119q92 735 92 757.5t-10.5 39t-51.5 16.5l-51 -2l-14 28l37 156q289 -2 323 -2l350 10l-37 -184q-78 -20 -103.5 -42t-29.5 -73l-102 -717q-6 -47 -6 -73.5t4 -38.5q8 -29 47 -29l64 6l14 -20l-39 -172q-252 8 -336 8zM610 649l19 62 l231 256q70 74 70 123q0 27 -16.5 39t-55.5 14l-10 20l39 168q195 -6 287 -6l292 10l15 -30l-37 -154q-160 -88 -295 -260l-123 -162l133 -373q33 -90 71 -132t97 -52l19 -31l-41 -151q-264 -23 -329 -23t-107 36t-76 130z" />
<glyph unicode="L" horiz-adv-x="1112" d="M-41 -20l41 188q76 12 107.5 50t42.5 130q90 719 90 741.5t-10.5 39t-51.5 16.5l-51 -2l-14 28l34 154h326l422 10l-47 -200q-104 -10 -143 -32t-48 -75q-106 -598 -106 -727q0 -65 57 -65h2q102 0 146.5 64.5t79.5 268.5l266 27l20 -31q-61 -262 -114 -547l-35 -32 q-295 14 -486 14q-283 0 -528 -20z" />
<glyph unicode="M" horiz-adv-x="1654" d="M-51 -16l39 184q55 6 83.5 37t50 125t87 406.5t65.5 344t-19 43t-93 19.5l-15 16l41 176q211 -10 295 -10l316 8q12 -270 57 -651h27q137 346 237 643q346 0 379 2l187 10l14 -8l-39 -180q-80 -2 -106.5 -22.5t-34.5 -82.5q-18 -154 -26.5 -430t-8.5 -319t12 -78t57 -35 l60 4l12 -16l-39 -176q-130 5 -245 5q-88 0 -166 -3q-184 -6 -201 -12l47 186q55 6 80.5 28.5t32.5 71.5l53 473h-27q-2 -2 -18.5 -43t-45 -111.5t-65.5 -158.5q-84 -209 -170 -434l-262 -21l-111 768h-26q-68 -481 -68 -507q0 -55 58 -56l51 4l16 -16l-47 -176 q-221 8 -272 8t-111 -4q-141 -10 -141 -12z" />
<glyph unicode="N" horiz-adv-x="1470" d="M-25 -16l43 184q59 8 90 38t39 91q113 735 113 764t-20.5 49t-112.5 31l-21 28l31 166q150 -10 299 -10l262 8q115 -295 287 -651h31q39 385 39 407.5t-10.5 39t-45.5 16.5h-61l-8 22l31 166q223 -8 419.5 -8t196.5 6l-33 -184q-63 -8 -91 -37t-38 -92l-151 -1018 l-394 -25q-139 319 -307 670h-31q-39 -378 -39 -406q0 -23 12 -43q11 -20 56 -20l66 8l16 -18l-43 -174q-225 8 -299 8q-137 0 -326 -16z" />
<glyph unicode="O" horiz-adv-x="1296" d="M37 524q0 397 185.5 611.5t539.5 214.5q262 0 403.5 -136.5t141.5 -398.5q0 -397 -188.5 -618.5t-538.5 -221.5q-256 0 -399.5 142.5t-143.5 406.5zM506 479q0 -246 129 -246q106 0 152.5 137.5t46.5 452.5q0 246 -134 246q-102 0 -148 -138t-46 -452z" />
<glyph unicode="P" horiz-adv-x="1210" d="M-39 -18l41 188q74 12 106.5 50t43.5 124q90 723 90 741q0 59 -41 60l-72 -4l-16 24l39 160h286l346 12q150 0 257.5 -34.5t160.5 -94.5q98 -106 98 -239q0 -217 -173 -380t-390 -163h-170q-16 -129 -16 -162t13.5 -58.5t72.5 -25.5l63 4l9 -16l-41 -176q-246 8 -332 8z M602 678l129 -21q143 52 143 269q0 82 -43 118.5t-133 36.5q-20 0 -26 -8q-16 -23 -70 -395z" />
<glyph unicode="Q" horiz-adv-x="1304" d="M37 524q0 397 185.5 611.5t539.5 214.5q262 0 403.5 -136.5t141.5 -411t-99.5 -472t-289.5 -287.5v-6q90 -84 202.5 -134t210.5 -50q78 0 185 20l20 -23l18 -139q-307 -207 -383 -207q-121 0 -233.5 86t-378.5 385q-248 6 -385 147.5t-137 401.5zM506 479 q0 -246 129 -246q106 0 152.5 137.5t46.5 452.5q0 246 -134 246q-102 0 -148 -138t-46 -452z" />
<glyph unicode="R" d="M-39 -18l41 188q74 12 106.5 49t43.5 125q90 731 90 750.5t-6.5 35t-34.5 15.5l-72 -4l-16 24l41 162q203 -2 284 -2l357 12q258 0 395 -85t137 -251q0 -272 -287 -436l93 -213q80 -180 167 -180l19 -33l-37 -149l-317 -23q-86 0 -132.5 42t-72.5 145l-80 313h-109 q-20 -170 -20 -207t16.5 -56.5t110.5 -23.5l8 -16l-41 -172q-248 8 -321 8q-164 0 -363 -18zM608 725l148 -20q143 55 143 233q0 143 -199 143q-20 0 -27 -8t-28.5 -127t-36.5 -221z" />
<glyph unicode="S" horiz-adv-x="1097" d="M-27 100q63 203 86 338l260 19q-2 -20 -2 -41q0 -70 33 -119t103.5 -49t107.5 25.5t37 62.5t-29 65q-41 41 -163 97q-244 109 -300 239q-26 57 -26 128v5q0 217 180 348.5t477 131.5q195 0 344 -43l52 -15l20 -45q-59 -172 -96 -356l-242 -17l-22 17q6 47 6 57 q0 119 -127 119q-57 0 -93 -28.5t-36 -69.5t34.5 -71t72.5 -49.5t98.5 -47t78 -37.5t67.5 -39t69.5 -52.5t48.5 -58.5q51 -66 51 -172q0 -217 -177.5 -342t-486.5 -125q-104 0 -205.5 21.5t-150.5 44.5l-49 22z" />
<glyph unicode="T" horiz-adv-x="1183" d="M35 782q51 303 82 537l30 29l236 -23h625l247 23l23 -29l-55 -520l-256 -17q4 82 4 149.5t-8 96.5q-14 49 -86 49q-105 -693 -105 -771q0 -74 20 -96q20 -24 68 -24l103 7l8 -13l-41 -192q-293 12 -408 12l-409 -18l39 188q123 10 164.5 44t54.5 130l90 733 q-74 0 -103.5 -51t-64.5 -227z" />
<glyph unicode="U" horiz-adv-x="1239" d="M78 1149l43 182q197 -6 356 -6l271 8l-43 -190q-53 -6 -77 -28.5t-30 -72.5l-84 -591q-4 -39 -4 -68q0 -147 121 -147q72 0 106.5 40.5t48.5 139.5q78 653 78 671q0 57 -41 58l-43 -4l-6 8l45 182q166 -6 238 -6l293 6l-39 -184q-63 -20 -82 -36.5t-23 -53.5l-71 -578 q-35 -256 -175.5 -380t-387 -124t-361.5 86t-115 265q0 33 44 388t44 377.5t-6 38t-39 15.5l-57 -4z" />
<glyph unicode="V" horiz-adv-x="1275" d="M74 1167l37 162q166 -4 274 -4l385 10l12 -18l-32 -172q-82 -10 -109 -31.5t-27 -75.5l13 -694h45q248 682 248 756q0 41 -54 41h-49l-14 20l37 170q186 -6 307 -6l246 2l-35 -178q-35 -10 -52.5 -31.5t-41.5 -81.5l-408 -1028l-573 -35q-84 815 -109 1037 q-10 70 -29.5 100.5t-58.5 36.5z" />
<glyph unicode="W" horiz-adv-x="1988" d="M74 1167l39 162q158 -4 262 -4l370 10l13 -18l-35 -172q-76 -12 -104.5 -35t-28.5 -70l10 -696h43q143 401 229 684q10 45 15 55q4 39 -14.5 51.5t-86.5 12.5l-12 20l39 162q207 -4 326 -4l368 10l15 -18l-35 -172q-80 -8 -107.5 -29.5t-27.5 -75.5l12 -696h43 q66 176 154 452.5t88 304t-9.5 34t-42.5 6.5h-47l-12 20l37 170q180 -6 295 -6l235 2l-34 -178q-35 -12 -52.5 -33.5t-40.5 -79.5l-385 -1028l-553 -35l-12 584h-29l-178 -549l-553 -35q-78 815 -98 1037q-14 72 -31.5 100.5t-52.5 36.5z" />
<glyph unicode="X" horiz-adv-x="1419" d="M-55 20l30 164q45 23 131.5 104t147.5 161l205 260l-127 247q-59 115 -131 146q-27 12 -82 26l-8 13l41 186q135 -2 352 -2l348 12l10 -22l-35 -168q-79 0 -79 -57q0 -49 51 -144q18 -33 41 -78q61 92 76.5 117t33.5 51q33 55 33 78q0 35 -68 35l-4 12l33 164h313l261 6 l6 -16l-33 -178q-102 -47 -161.5 -94.5t-119.5 -129.5l-219 -297l135 -249q53 -92 104.5 -133t121.5 -44l-33 -192q-195 6 -270 6l-418 -14l-13 14l35 172q59 4 60 47q0 20 -17 49l-94 181l-84 -129q-41 -63 -41 -93q0 -51 68 -51l10 -22l-31 -166q-240 12 -303 12l-270 -12 z" />
<glyph unicode="Y" horiz-adv-x="1331" d="M82 1141l43 186q238 -4 303 -4l363 14l12 -22l-39 -168q-84 0 -84 -55q0 -68 68 -299h28l103 233q37 67 37 95t-70 28l-4 12l37 162h317l227 8l7 -16l-37 -178q-150 -84 -250 -258l-225 -373q-39 -72 -54 -191q-4 -25 -4 -53.5t15.5 -52t72.5 -23.5l103 7l8 -13l-41 -192 q-301 12 -418 12l-412 -18l39 188q129 10 173 41t55 121q6 49 6 63q0 68 -35 154l-164 407q-41 109 -172 172z" />
<glyph unicode="Z" horiz-adv-x="1183" d="M-43 104l766 1006l-145 -20q-117 -16 -152 -58.5t-55 -175.5l-262 -18q61 301 90 491l24 23l359 -23h665l37 -110q-281 -334 -778 -996l203 31q96 14 147 80.5t80 210.5l262 18q-82 -319 -111 -524l-47 -45l-858 12l-166 -20z" />
<glyph unicode="[" horiz-adv-x="649" d="M37 -238q92 565 117 770l73 777l514 22l7 -20l-37 -172l-185 -35l-141 -1137l184 -35l6 -22l-36 -170z" />
<glyph unicode="\" horiz-adv-x="653" d="M70 1341l41 41h243l115 -919l96 -658l-26 -30h-258q-41 328 -84 665z" />
<glyph unicode="]" horiz-adv-x="649" d="M-86 -240l39 172l184 35l139 1137l-184 35l-6 22l37 170l502 -22q-90 -565 -117 -770l-74 -777l-514 -22z" />
<glyph unicode="^" horiz-adv-x="929" d="M-18 303q92 152 176 309l196 365l314 14l28 -16q72 -240 113 -381l94 -283l-201 -114l-40 18l-166 506h-15l-274 -524l-207 69z" />
<glyph unicode="_" horiz-adv-x="888" d="M-135 -410l49 215h725l174 5l14 -39l-55 -217l-889 -3z" />
<glyph unicode="`" horiz-adv-x="790" d="M59 1350l148 206h35q190 -176 383 -342l-84 -124l-45 -15q-234 138 -433 240z" />
<glyph unicode="a" horiz-adv-x="1175" d="M-43 -2l29 149q57 16 86 80l344 797l499 27l25 -23q88 -635 102.5 -751.5t75.5 -126.5l12 -19l-32 -135q-145 2 -242 2l-330 -6l-12 14l27 148q70 8 88 16t18 33l4 65l-116 2l-125 -6q-23 -84 -23 -90q0 -18 33 -18h39l14 -19l-31 -143q-160 4 -260 4h-225zM492 487h73 q39 0 76 2l-12 254h-41z" />
<glyph unicode="b" horiz-adv-x="1144" d="M-35 -10l35 155q63 10 89 34t34 79q72 568 72 576q0 45 -35 45l-58 -2l-18 20l37 139q246 -4 297 -4l323 12q178 0 276.5 -59t98.5 -166q0 -78 -44 -142.5t-142 -127.5q172 -76 172 -215q0 -180 -133 -266t-406 -86q-25 6 -130 12t-146 6zM481 254q0 -51 101 -51 q120 0 120 108q0 61 -71 90l-123 2q-27 -141 -27 -149zM539 631q54 -19 120 -19q68 49 68 128t-123 79q-27 0 -33 -18q-12 -43 -21 -103.5t-11 -66.5z" />
<glyph unicode="c" horiz-adv-x="1017" d="M33 422q0 631 618 631q137 0 387 -43l13 -37q-53 -150 -90 -352l-291 -17q18 94 18 123q0 82 -98 82q-78 0 -107.5 -79t-29.5 -243.5t19.5 -209t73.5 -44.5t77.5 33t44.5 140l286 18q-41 -195 -57 -354l-27 -27q-174 -59 -391 -59t-331.5 112.5t-114.5 325.5z" />
<glyph unicode="d" horiz-adv-x="1146" d="M-27 -12l35 162q59 10 84 36.5t35 94.5q66 521 66 544q0 51 -31 52l-51 -5l-17 25l33 141q197 -6 264 -6l264 10q483 0 484 -401q0 -303 -178.5 -481t-477.5 -178q-156 18 -262 18zM479 242q0 -41 25 -41q213 0 213 432q0 109 -24.5 146.5t-96.5 37.5q-27 0 -35 -43v1 q-5 0 -43 -259q-39 -270 -39 -274z" />
<glyph unicode="e" horiz-adv-x="1028" d="M-35 -16l35 159q61 10 87 40t34 102q69 529 69 549q0 45 -34 45l-41 -2l-21 24l33 137q254 -6 515 -6t415 21l20 -29q-53 -176 -78 -328l-260 -14q14 47 14.5 79t-28.5 46t-81 14t-62.5 -8t-14.5 -31l-30 -157h131l178 8l18 -27l-47 -198q-119 4 -155.5 4t-159.5 -9 q-18 -92 -18.5 -135t13 -54t76 -11t98.5 30.5t62 133.5l240 16l20 -27q-51 -158 -88 -340l-33 -26q-260 10 -436 10q-258 0 -471 -16z" />
<glyph unicode="f" horiz-adv-x="956" d="M-35 -16l35 161q61 8 86 38t35 102q69 529 69 549q0 45 -34 45l-41 -2l-21 24l33 137q254 -6 497.5 -6t381.5 21l22 -29q-43 -180 -67 -326l-259 -14q10 45 11 76q0 61 -95 61q-27 0 -37 -8t-14 -31l-35 -184l132 -2l174 8l20 -24l-47 -199q-115 4 -156 4t-155 -8 q-14 -94 -14.5 -119t9 -40t56.5 -15t86 14l27 -33l-46 -188q-197 4 -274 4q-162 0 -379 -16z" />
<glyph unicode="g" horiz-adv-x="1075" d="M39 414q0 637 625 637q129 0 387 -41l12 -35q-55 -127 -94 -328l-289 -16q20 76 20 102q0 78 -100 78q-80 0 -110.5 -85t-30.5 -249t19.5 -205t72.5 -41q41 0 78 13l10 84q4 35 -3 48t-34 13l-45 -2l-14 27l41 161q180 2 315 2.5t135 8.5l4 -103q-68 -41 -82 -116 q-35 -162 -34 -246v-62l-25 -28q-135 -47 -414 -47q-215 0 -329.5 110.5t-114.5 319.5z" />
<glyph unicode="h" horiz-adv-x="1245" d="M-29 -6l31 147q63 12 87 35t32 84q70 553 70 575q0 17 -9 31q-8 12 -43 13h-41l-12 24l29 129h217l358 6l-31 -155q-51 -10 -68.5 -23.5t-23.5 -48.5l-32 -180l112 -6q80 0 121 4q25 180 25 201.5t-8.5 35t-43.5 13.5h-43l-12 24l29 129h336l258 6l-31 -151 q-59 -10 -79.5 -25.5t-34 -77t-47.5 -289t-34 -270.5q0 -69 52 -69h2l41 4l14 -21l-33 -141q-88 0 -203 2h-86l-299 -2l31 152q106 2 121 112l20 148q-35 2 -71 2l-170 -15q-23 -186 -23 -204q0 -41 41 -41l41 4l12 -19l-30 -143q-223 6 -279.5 6t-128.5 -2t-164 -4z" />
<glyph unicode="i" horiz-adv-x="641" d="M-27 -6l29 147q68 14 90.5 39t28.5 90q70 543 70 565q0 17 -9 31q-8 12 -43 13h-37q-6 8 -14 24l29 129h278l303 6l-30 -155q-55 -8 -72.5 -22.5t-28.5 -59.5q-20 -107 -54 -326t-34 -259t9.5 -52t31.5 -12l49 4l11 -19l-33 -143q-215 6 -285 6z" />
<glyph unicode="j" horiz-adv-x="591" d="M-119 -186l6 26q113 78 154 147.5t61 227.5q74 606 74 623.5t-5 30t-38 12.5l-55 -4l-15 26l29 129l244 2l338 10l-35 -161q-47 -10 -60.5 -24.5t-21.5 -57.5q-51 -246 -104 -674q-23 -152 -144 -247t-362 -146z" />
<glyph unicode="k" horiz-adv-x="1193" d="M-29 -8l31 145q66 14 89.5 40t29.5 93q70 543 70 565q0 17 -9 31q-8 12 -43 13h-41l-12 24l31 131q254 -2 278 -2l307 6l-32 -155q-66 -16 -86.5 -32.5t-22.5 -55.5q-82 -576 -82 -594q0 -49 41 -49l49 4l15 -19l-33 -143q-219 6 -289 6zM524 506l17 51l172 182 q57 58 57 96.5t-55 41.5l-8 18l30 141q168 -4 246 -4l256 8l12 -26l-30 -129q-139 -78 -248 -213l-76 -101l98 -278q25 -70 55.5 -102.5t77.5 -43.5l17 -26l-35 -129q-230 -18 -288 -18q-1 0 -3 -1q-56 0 -89 27q-34 27 -62 102z" />
<glyph unicode="l" horiz-adv-x="964" d="M-35 -16l33 159q63 10 89 40t34 102q68 528 68 550q0 17 -9 31q-8 12 -43 13h-41l-12 24l29 129h280l373 6l-41 -170q-86 -8 -121 -23.5t-39 -47.5q-82 -451 -82 -547q0 -47 39 -47q78 0 112 52t60 214l240 23q14 -20 18 -27q-49 -215 -92 -447l-31 -28q-240 10 -407 10 q-244 0 -457 -16z" />
<glyph unicode="m" horiz-adv-x="1400" d="M-41 -12l33 155q82 8 104 103q10 37 66.5 298t56.5 285.5t-13 31.5t-75 13l-14 15l35 151q182 -8 254 -8l280 6q4 -195 35 -454h24q104 258 170 448q311 0 340 2l152 8l14 -6l-32 -155q-68 -2 -88.5 -16.5t-28.5 -81t-15.5 -289t-7.5 -255t11.5 -58t48.5 -25.5l49 2 l12 -15l-33 -147q-152 3 -262 3q-219 0 -268 -11l39 157q47 4 67.5 21.5t24.5 56.5l43 309h-25q-121 -270 -221 -532l-239 -16l-82 548h-25q-41 -315 -41 -335q0 -43 49 -43l39 2q8 -6 15 -15l-39 -147q-195 6 -237 6t-92 -3t-87 -5t-37 -4z" />
<glyph unicode="n" horiz-adv-x="1255" d="M-20 -12l36 155q49 6 74 30t33 71q86 545 86 568.5t-16.5 37.5t-92.5 24l-20 25l26 141q127 -8 263 -8l231 6q94 -225 215 -454h27l22 227q4 41 -5 55.5t-40 14.5h-49l-8 18l24 139q197 -6 367 -6t170 4l-27 -155q-51 -8 -73.5 -30t-30.5 -71l-117 -772l-362 -18 l-228 454h-28q-23 -221 -23 -241.5t10.5 -36.5t49.5 -16l51 6l14 -15l-35 -147q-199 6 -268 6z" />
<glyph unicode="o" horiz-adv-x="1097" d="M33 418q0 635 596 635q458 0 458 -422q0 -315 -151 -482t-444 -167q-219 0 -339 110.5t-120 325.5zM453 454q0 -169 18.5 -210t63.5 -41q74 0 102.5 94t28.5 263t-19.5 210t-66.5 41q-70 0 -98.5 -94t-28.5 -263z" />
<glyph unicode="p" horiz-adv-x="1046" d="M-33 -14l35 159q57 8 84 39t37 97q68 528 67 544q0 53 -30 54l-62 -2l-14 20l33 135h245l300 10q131 0 224 -29.5t138 -76.5q82 -86 82 -191q0 -170 -145.5 -296.5t-327.5 -126.5h-139q-10 -84 -10.5 -106.5t11 -42t62.5 -19.5l47 2l8 -15l-34 -147q-217 6 -269.5 6 t-133.5 -4t-208 -10zM522 535l99 -15q102 39 102 191q0 57 -30.5 83.5t-98.5 26.5q-14 0 -19.5 -6t-9.5 -29.5t-12 -72.5t-16.5 -93.5t-14.5 -84.5z" />
<glyph unicode="q" horiz-adv-x="1103" d="M33 418q0 635 596 635q459 0 458 -424q0 -446 -299 -588v-6q66 -57 158 -94t148 -37q88 0 178 16l18 -20l17 -123q-268 -170 -336 -170q-98 0 -189.5 68.5t-310.5 306.5q-211 6 -324.5 115.5t-113.5 320.5zM453 454q0 -169 18.5 -210t63.5 -41q74 0 102.5 94t28.5 263 t-19.5 210t-66.5 41q-70 0 -98.5 -94t-28.5 -263z" />
<glyph unicode="r" horiz-adv-x="1169" d="M-33 -16l35 159q59 10 86 40t35 98q70 543 70 553q0 45 -33 45l-62 -2l-14 20l35 137q174 -2 243 -2l310 10q461 0 461 -270q0 -209 -232 -338l70 -145q31 -66 66.5 -102.5t66.5 -36.5l18 -31l-32 -127l-279 -17q-76 0 -115 32t-59 112l-59 231h-82 q-12 -109 -12.5 -136.5t13 -41.5t93.5 -18l6 -15l-33 -145q-221 6 -284 6q-119 0 -312 -16zM526 571l117 -16q107 39 107 164q0 53 -36 76.5t-85 23.5t-54 -6q-10 -14 -49 -242z" />
<glyph unicode="s" horiz-adv-x="946" d="M-16 82q53 164 71 260l234 16q-2 -10 -2 -38.5t28.5 -66.5t87.5 -38q94 0 95 51q0 33 -38 56.5t-80 40t-44 16.5q-98 39 -160.5 88t-84 96t-21.5 107q0 174 152.5 277.5t410.5 103.5q164 0 336 -45l18 -39q-49 -135 -80 -279l-217 -14l-20 14q4 31 4 33q0 88 -99 88 q-41 0 -66.5 -17.5t-25.5 -46.5q0 -45 115 -94q158 -63 209 -100q104 -80 104 -203q0 -172 -150.5 -269t-414.5 -97q-90 0 -176 17t-168 52z" />
<glyph unicode="t" horiz-adv-x="1021" d="M29 584q41 252 65 442l27 25l205 -19h520l213 19l20 -25l-47 -430l-229 -12q6 76 6 122t-6 68q-8 43 -55 43q-76 -551 -76 -579q0 -80 71 -80l84 6l9 -10l-35 -164q-252 10 -350 10l-355 -16l33 161q98 8 134 33t44 90l70 549q-47 0 -67.5 -43t-47.5 -178z" />
<glyph unicode="u" horiz-adv-x="1046" d="M59 883l35 155q170 -6 312 -6l231 4l-37 -159q-78 -8 -84 -76q-70 -487 -70 -498q0 -100 84 -100q49 0 73 25.5t32 90.5q61 511 61 519q0 41 -32 41l-31 -2l-6 6l39 155q139 -6 198 -6l254 4l-33 -157q-49 -16 -63 -28.5t-18 -37.5l-54 -432q-29 -205 -144.5 -302 t-324.5 -97t-306 65.5t-99 202.5q0 14 33.5 291.5t33.5 296t-4 30t-30 11.5l-48 -2z" />
<glyph unicode="v" horiz-adv-x="1095" d="M63 899l31 137q139 -4 234 -4l327 6l13 -14l-27 -147q-63 -8 -84.5 -24.5t-21.5 -57.5v-506h40q180 508 181 559q0 27 -37 26h-35l-12 19l30 143q158 -4 259 -4l206 2l-28 -151q-25 -10 -39.5 -26.5t-32.5 -61.5l-317 -789l-525 -26q-72 666 -84 792q-10 57 -23.5 81 t-41.5 28z" />
<glyph unicode="w" horiz-adv-x="1695" d="M63 899l33 137q131 -4 221 -4l318 6l10 -14l-29 -147q-51 -8 -77.5 -111.5t-26.5 -171.5v-305h39q113 315 170 516l18 55q-2 20 -67 21h-13l-10 18l33 137q176 -4 281 -4l315 6l12 -14l-28 -147q-61 -6 -84 -23.5t-23 -58.5l2 -506h39q49 129 111.5 332.5t62.5 225 t-5 24.5t-30 3h-32l-13 19l31 143q154 -4 248 -4l198 2l-28 -151q-27 -10 -41.5 -28.5t-30.5 -59.5l-295 -789l-504 -26v413h-26l-123 -387l-504 -26q-68 666 -78 792q-12 59 -24.5 80.5t-38.5 28.5zM737 840v8v-8z" />
<glyph unicode="x" horiz-adv-x="1220" d="M-39 18l27 140q33 16 104.5 80.5t116.5 119.5l164 201l-99 170q-51 90 -106 115q-20 8 -68 20l-8 8l35 162q106 -2 299 -2l299 8l8 -18l-28 -143h-5q-53 0 -53 -40t70 -151q98 154 98 168q0 27 -51 25q0 6 -4 10l26 139l496 6l4 -12l-26 -154q-156 -74 -232 -174 l-172 -229l102 -168q86 -137 187 -137l-29 -164q-166 6 -227 6l-359 -10l-10 10l29 148q39 0 39 30q0 10 -13 35l-71 117l-55 -82q-25 -39 -25 -59q0 -39 53 -39l8 -19l-24 -141q-209 10 -262 10l-232 -10z" />
<glyph unicode="y" horiz-adv-x="1163" d="M74 872l37 162q209 -4 260 -4l309 10l12 -18l-33 -143h-6q-55 0 -55 -40t47 -200h27l63 152q31 55 31 73.5t-53 16.5l-4 10l30 137l275 2l194 6l4 -12l-30 -154q-127 -78 -201 -198l-184 -291q-41 -78 -41 -131t14 -72.5t59 -19.5l86 6l9 -10l-35 -164q-264 10 -365 10 l-360 -14l33 159q109 6 146.5 29t47.5 107q2 10 2 39.5t-31 97.5l-143 321q-27 57 -137 125z" />
<glyph unicode="z" horiz-adv-x="1017" d="M-33 88l619 760l-101 -17q-94 -14 -119.5 -44.5t-39.5 -131.5l-236 -14q49 246 72 395l20 17l299 -17l570 2l34 -94q-285 -315 -626 -751l147 26q80 14 119 63.5t59 155.5l236 17q-67 -262 -90 -422l-39 -37l-729 8l-139 -16z" />
<glyph unicode="{" horiz-adv-x="667" d="M51 -46q0 81 77 217t77 177q0 96 -125 133l29 156q72 23 110.5 60.5t38.5 79.5t-34 152.5t-34 162.5q0 113 109 185.5t274 72.5q74 0 181 -25l16 -33l-57 -170q-39 10 -80 10.5t-71 -31.5t-30 -87l25 -226q0 -72 -44 -123t-124 -71l-2 -10q125 -43 125 -162 q0 -49 -47 -174t-47 -169t25.5 -70.5t70.5 -26.5l61 10l23 -27l-49 -170q-80 -47 -211 -47t-209 62.5t-78 143.5z" />
<glyph unicode="|" horiz-adv-x="573" d="M25 -518q14 119 268 2148l233 23l39 -33q-96 -684 -137 -1024l-135 -1124l-242 -23z" />
<glyph unicode="}" horiz-adv-x="667" d="M-86 -195l57 170q39 -10 80 -10t71 33t30 90l-23 238q0 152 168 198l2 11q-125 43 -125 161q0 47 46 164t46 160t-25.5 69.5t-70.5 26.5l-61 -10l-23 27l49 170q80 47 211 47t209 -62.5t78 -141.5t-75 -208t-75 -168q0 -111 123 -133l-26 -156q-68 -16 -109 -56t-41 -83 t33 -153.5t33 -161.5q0 -123 -108.5 -201t-276.5 -78q-74 0 -181 25z" />
<glyph unicode="~" horiz-adv-x="1003" d="M8 424l4 33l246 235l45 8q47 0 199.5 -34.5t185.5 -34.5q59 0 164 90l35 29h33l86 -115l-5 -33l-245 -235l-45 -9q-47 0 -200 35t-185 35q-59 0 -164 -88l-35 -31h-33z" />
<glyph unicode="&#xa1;" horiz-adv-x="563" d="M-104 -442l256 880l217 33l37 -41l-31 -823l-43 -49l-391 -54zM129 765q0 93 64.5 159.5t158.5 66.5q180 0 180 -164q0 -111 -64.5 -177t-157.5 -66t-137 44t-44 137z" />
<glyph unicode="&#xa2;" horiz-adv-x="804" d="M27 342q0 223 123.5 398t312.5 231l86 348l244 29l10 -19l-88 -352q63 -12 110 -37l9 -37l-105 -264l-88 -2q-51 106 -115.5 106t-102.5 -91t-38 -240.5t98 -149.5q84 0 154 152l43 -6l106 -119q-39 -98 -125 -178t-186 -115l-76 -305l-239 -27l-15 12l78 324 q-92 37 -144 126t-52 216z" />
<glyph unicode="&#xa3;" horiz-adv-x="1013" d="M-8 197q168 86 182 215l10 69q2 47 -22.5 62.5t-102.5 19.5l-6 12l35 144l127 18l6 56q20 158 205.5 295t363 137t259.5 -31l8 -23l-121 -268l-39 -6q-137 88 -202.5 88t-89 -28.5t-32.5 -102.5l-18 -117l274 6l9 -14l-43 -174q-111 6 -267 6l-12 -78 q-6 -53 -28.5 -108.5t-49.5 -79.5l123 29q18 0 94 -17.5t114 -17.5t71.5 43t42.5 110h63q39 -55 39 -182t-79 -206t-195 -79q-63 0 -187.5 55.5t-185.5 55.5q-131 0 -289 -88l-29 12z" />
<glyph unicode="&#xa4;" horiz-adv-x="882" d="M-18 438l172 135q-8 33 -8.5 102.5t40.5 158.5l-141 147l14 47l236 158q72 -98 111 -158q66 27 129 27t127 -27l155 162l47 -8l131 -215l-164 -131q10 -47 10.5 -117t-46.5 -158l137 -137l-14 -47l-234 -158l-111 152q-61 -23 -126.5 -23t-127.5 29l-157 -162l-47 8z M348 690.5q0 -63.5 36 -102.5t96.5 -39t110.5 50t50 112.5t-37 102.5t-97.5 40t-109.5 -50t-49 -113.5z" />
<glyph unicode="&#xa5;" horiz-adv-x="1173" d="M18 250l45 174h289l-37 96l-237 -2l-19 17l45 174h117q-6 12 -82 75.5t-80 89.5l37 160q141 -4 335 -4t235 12l8 -20l-33 -143q-59 0 -59 -33q0 -14 57 -207h16l88 201q6 12 7 26q0 25 -41 25l-11 18l25 119l274 2l193 6l8 -12l-35 -154q-68 -37 -102 -63 q-33 -29 -70 -94l144 4l14 -21l-35 -176h-256l-39 -63l-22 -31l297 6l14 -20l-35 -176h-348v-19q0 -59 78 -59l86 6l8 -10l-33 -164q-262 10 -358 10l-361 -14l33 159q92 6 129 24.5t51 66.5l-321 -3z" />
<glyph unicode="&#xa6;" horiz-adv-x="573" d="M25 -518q53 448 102 825l231 35l33 -35l-100 -835l-242 -23zM182 756l111 874l233 23l39 -33q-71 -498 -116 -854l-242 -33z" />
<glyph unicode="&#xa7;" horiz-adv-x="962" d="M14 -43q0 131 115 262l55 -4q2 -70 49.5 -119t111 -49t63.5 55q0 35 -37 66t-90.5 59.5t-107.5 62.5t-91 90t-37 128q0 186 244 311q-84 80 -84 180q0 147 133 249t324 102q113 0 198.5 -30t85.5 -71q0 -47 -43 -145t-76 -123h-51q-10 51 -42 84t-63.5 33t-52 -16.5 t-20.5 -44t36 -58.5t87 -63.5t102 -70.5t87 -96.5t36 -125.5q0 -168 -227 -295q78 -72 78 -164q0 -14 -2 -27q-18 -141 -157 -236.5t-327 -95.5q-117 0 -207 46.5t-90 105.5zM379 638q0 -42 13.5 -69.5t45.5 -54.5q43 -33 131 -86q33 39 33 81t-13.5 70.5t-43.5 55.5 q-45 41 -125 90q-41 -45 -41 -87z" />
<glyph unicode="&#xa8;" horiz-adv-x="790" d="M133 1282q0 92 54.5 148.5t134.5 56.5q154 0 153 -139q0 -90 -55.5 -146.5t-143.5 -56.5q-143 0 -143 137zM518 1282q0 92 54.5 148.5t134.5 56.5q154 0 153 -139q0 -90 -54 -146.5t-142 -56.5q-145 0 -146 137z" />
<glyph unicode="&#xa9;" horiz-adv-x="1388" d="M98 535q0 281 207 485.5t479 204.5q229 0 382 -163t153 -398q0 -279 -208 -484t-480 -205q-229 0 -381 161t-152 399zM221 547q0 -190 121 -320.5t303 -130.5q219 0 385 166t166 391q0 190 -122 320.5t-304 130.5q-219 0 -384 -166t-165 -391zM397 549q0 399 391 399 q66 0 244 -26l8 -25q-33 -94 -57 -221l-182 -10q10 59 10 75q0 53 -55.5 53.5t-73.5 -50t-18 -155t11 -132t46 -27.5t50 21.5t28 87.5l180 12q-25 -123 -35 -223l-16 -19q-111 -37 -248 -37t-210 71t-73 206z" />
<glyph unicode="&#xaa;" horiz-adv-x="798" d="M14 874q0 162 116 303.5t247 141.5l96 -27l6 27l31 18l207 -16l12 -35q-51 -219 -78 -383l6 -4q12 0 68 53l35 -6l28 -72q-119 -131 -182 -176t-129 -45q-74 0 -74 72q0 25 31 149h-14q-100 -168 -178 -221q-106 0 -167 58.5t-61 162.5zM293 956.5q0 -75.5 18 -75.5 q23 0 63 81.5t60 170.5q-53 33 -98 32q-14 0 -28.5 -66.5t-14.5 -142z" />
<glyph unicode="&#xab;" horiz-adv-x="950" d="M61 449l7 55q196 190 352 360l119 -71l10 -48q-37 -51 -168 -270q49 -150 100 -268l-20 -47l-135 -74q-125 184 -265 363zM475 449l6 55q197 190 353 360l118 -71l11 -48q-37 -51 -168 -270q49 -150 100 -268l-21 -47l-135 -74q-125 184 -264 363z" />
<glyph unicode="&#xac;" horiz-adv-x="1005" d="M25 449l71 276q276 -2 453 -2l383 12l10 -30q-45 -160 -72 -369l-32 -277l-283 -36l-23 18q23 186 50 383h-93l-448 -2z" />
<glyph unicode="&#xad;" horiz-adv-x="643" d="M55 397l47 217l476 58l18 -37l-53 -221l-467 -54z" />
<glyph unicode="&#xae;" horiz-adv-x="929" d="M125 1010q0 172 138 309t306 137t270.5 -108.5t102.5 -280.5t-139 -309t-307 -137t-269.5 108.5t-101.5 280.5zM209 1015q0 -136 81 -222t213 -86t242.5 109.5t110.5 245.5t-81 222t-213 86t-242.5 -109.5t-110.5 -245.5zM311 848l13 55q39 8 45 55l26 211q6 37 -10 37 l-23 -2l-6 4l13 52h106q43 0 84 4q168 0 168 -103q0 -86 -88 -135q41 -90 55.5 -105.5t26.5 -17.5l4 -6q-2 -6 -2 -21.5t-6 -17.5q-29 -12 -76 -13t-62.5 8t-25.5 46l-25 96h-32q-8 -57 -8.5 -67t8 -14.5t34.5 -6.5v-4l-12 -53q-68 4 -94 4h-23zM506 1073l47 -2q43 12 43 70 q0 45 -59 45q-10 0 -12.5 -14.5t-9.5 -48.5t-9 -50z" />
<glyph unicode="&#xaf;" horiz-adv-x="790" d="M186 1186l66 223q188 -2 305 -2l248 12l18 -37l-65 -223l-543 -4z" />
<glyph unicode="&#xb0;" horiz-adv-x="600" d="M100 1054.5q0 114.5 92.5 205t205 90.5t179 -71t66.5 -186.5t-91 -205.5t-203.5 -90t-180.5 71.5t-68 186zM254 1063q0 -53 27.5 -83t80 -30t90 39t37.5 93.5t-27.5 84t-79.5 29.5t-90 -40t-38 -93z" />
<glyph unicode="&#xb1;" horiz-adv-x="1005" d="M-23 -215l48 215h661l174 4l17 -39l-56 -217l-827 -2zM23 432l71 277q141 -2 287 -2q6 53 20.5 160.5t20.5 160.5l272 27l29 -15q-31 -180 -53 -333l319 12l10 -31l-61 -278l-305 -2l-33 -289l-272 -37l-25 18q20 152 41 308l-305 -2z" />
<glyph unicode="&#xb2;" horiz-adv-x="755" d="M-4 662l4 149l213 199q133 129 133 188q0 51 -66.5 51t-154.5 -90h-29l-16 176q156 156 323 156q113 0 180.5 -52.5t67.5 -142.5t-63.5 -183t-229.5 -243l7 -12h53q47 0 73.5 27.5t40.5 97.5l179 12q-53 -190 -74 -315l-29 -27q-324 16 -471 17z" />
<glyph unicode="&#xb3;" horiz-adv-x="659" d="M-8 819v29l39 35q53 -27 119.5 -27t102.5 20.5t36 55.5q0 53 -131 53l-19 23v135l92 16q84 31 84 98q0 41 -51 41t-143 -55h-23l-28 152q72 45 157.5 70.5t168.5 25.5t141.5 -41t58.5 -109.5t-48 -123t-128 -74.5v-17q174 -66 174 -182.5t-148.5 -203.5t-332.5 -87 q-74 0 -97.5 40t-23.5 126z" />
<glyph unicode="&#xb4;" horiz-adv-x="790" d="M143 1214l383 342h35l148 -206l-4 -35q-221 -115 -433 -240l-45 15z" />
<glyph unicode="&#xb6;" horiz-adv-x="1140" d="M49 831.5q0 204.5 159 354t390 149.5l324 -10l329 6l-32 -172l-7 -8q-55 -14 -70.5 -29.5t-28.5 -74t-50 -290t-53 -368.5q-27 -225 -226.5 -403.5t-421.5 -178.5q-109 0 -188.5 57.5t-79.5 122t39 147.5t88 142h35q0 -117 44 -184t124 -67t121 44t53 148l111 899 q4 18 -6.5 24.5t-45.5 6.5q-72 0 -113.5 -106.5t-41.5 -268.5t78 -297l-9 -72q-242 0 -382 112t-140 316.5z" />
<glyph unicode="&#xb7;" horiz-adv-x="473" d="M39 479q0 111 64.5 177.5t158.5 66.5q178 0 178 -166q0 -109 -64.5 -175.5t-168.5 -66.5q-168 0 -168 164z" />
<glyph unicode="&#xb8;" horiz-adv-x="800" d="M47 -395q0 45 125 153h16v-16q0 -98 82 -98q63 0 63.5 48t-157.5 130l92 252h127l-47 -150q76 -39 136.5 -93t60.5 -114q0 -88 -97.5 -151.5t-232.5 -63.5q-61 0 -114.5 29t-53.5 74z" />
<glyph unicode="&#xb9;" horiz-adv-x="565" d="M-29 655l27 119q125 12 133 90q47 397 47 414.5t-7 29t-46 11.5l-66 -2l-12 14l27 109q14 0 444 51l19 -66q-43 -29 -62.5 -78t-50.5 -242.5t-31 -249.5t41 -56l60 2l4 -8l-37 -131q-141 8 -217 8z" />
<glyph unicode="&#xba;" horiz-adv-x="741" d="M31 930q0 188 104.5 297.5t282.5 109.5q129 0 197.5 -68.5t68.5 -199.5q0 -190 -105.5 -303t-281.5 -113q-127 0 -196.5 72t-69.5 205zM301 940q0 -131 47 -131q33 0 47.5 50t14.5 149.5t-10.5 126t-37.5 26.5q-61 0 -61 -221z" />
<glyph unicode="&#xbb;" horiz-adv-x="950" d="M84 205q72 104 166 270q-49 150 -100 268l20 48l135 73q98 -145 264 -362l-6 -56q-194 -190 -352 -360l-119 72zM498 205q72 104 166 270q-49 150 -101 268l21 48l135 73q98 -145 264 -362l-6 -56q-194 -190 -352 -360l-119 72z" />
<glyph unicode="&#xbc;" horiz-adv-x="1730" d="M-29 506l27 119q125 12 133 90q47 397 47 414.5t-7 28.5t-46 11l-66 -2l-12 15l27 108q14 0 444 51l19 -65q-43 -29 -62.5 -78t-50.5 -242.5t-31 -250t41 -56.5l60 2l4 -8l-37 -131q-141 8 -217 8zM195 -80q227 328 397 598l547 873l178 -66l20 -49q-367 -567 -553 -852 l-387 -610l-190 71zM967 174l18 148l397 495l13 4l217 -18l-56 -457h89l14 -20l-37 -166l-86 2l-12 -146l-17 -16l-250 -16l-14 16q16 82 29 170zM1186 346h110l21 166h-17z" />
<glyph unicode="&#xbd;" horiz-adv-x="1796" d="M-29 506l27 119q125 12 133 90q47 397 47 414.5t-7 28.5t-46 11l-66 -2l-12 15l27 108q14 0 444 51l19 -65q-43 -29 -62.5 -78t-50.5 -242.5t-31 -250t41 -56.5l60 2l4 -8l-37 -131q-141 8 -217 8zM195 -80q227 328 397 598l547 873l178 -66l20 -49q-367 -567 -553 -852 l-387 -610l-190 71zM1020 -8l4 149l213 199q133 129 133 188q0 51 -66.5 51.5t-154.5 -90.5h-29l-16 177q156 156 323 155q113 0 180.5 -52t67.5 -142t-63.5 -183.5t-229.5 -242.5l7 -13h53q47 0 73.5 28t40.5 97l179 13q-53 -190 -74 -316l-29 -26q-324 16 -471 16z" />
<glyph unicode="&#xbe;" horiz-adv-x="1722" d="M-8 670v28l39 35q53 -27 119.5 -26.5t102.5 21t36 54.5q0 53 -131 54l-19 22v135l92 17q84 31 84 98q0 41 -51 41t-143 -55h-23l-28 151q72 45 157.5 70.5t168.5 25.5t141.5 -40.5t58.5 -109.5t-48 -123t-128 -75v-16q174 -66 174 -182.5t-148.5 -203.5t-332.5 -87 q-74 0 -97.5 40t-23.5 126zM186 -80q227 328 398 598l546 873l179 -66l20 -49q-367 -567 -553 -852l-387 -610l-190 71zM958 174l19 148l397 495l12 4l218 -18l-56 -457h88l15 -20l-37 -166l-86 2l-12 -146l-17 -16l-250 -16l-14 16q16 82 29 170zM1178 346h110l21 166h-17z " />
<glyph unicode="&#xbf;" horiz-adv-x="759" d="M-104 -145q0 106 78.5 196t295.5 223l6 13l5 141l20 29l246 41l28 -17l15 -272l-10 -31l-201 -96q-109 -55 -109 -129q0 -137 301 -150l25 -36l-113 -242l-37 -19q-242 6 -396 104.5t-154 244.5zM266 750q0 108 64.5 174.5t156.5 66.5q182 0 183 -164q0 -111 -64.5 -177 t-159.5 -66q-180 0 -180 166z" />
<glyph unicode="&#xc0;" d="M-68 -4l35 178q74 18 113 113l432 1028l547 33l28 -25q98 -788 127 -1010q8 -70 31 -100.5t66 -36.5l12 -20l-37 -162q-172 4 -282 4l-386 -10l-14 18l33 172q86 10 110.5 22.5t24.5 47.5v117q-133 4 -149 4l-158 -11q-39 -131 -39 -145q0 -31 47 -31h55l15 -20l-37 -170 q-186 6 -307 6zM500 1561l73 221l33 10q258 -111 510 -205l-43 -145l-39 -27q-190 50 -520 113zM561 616h98q14 0 101 5l-21 358h-45z" />
<glyph unicode="&#xc1;" d="M-68 -4l35 178q74 18 113 113l432 1028l547 33l28 -25q98 -788 127 -1010q8 -70 31 -100.5t66 -36.5l12 -20l-37 -162q-172 4 -282 4l-386 -10l-14 18l33 172q86 10 110.5 22.5t24.5 47.5v117q-133 4 -149 4l-158 -11q-39 -131 -39 -145q0 -31 47 -31h55l15 -20l-37 -170 q-186 6 -307 6zM512 1587q211 78 510 205l33 -10l73 -221l-14 -33q-266 -49 -520 -113l-39 27zM561 616h98q14 0 101 5l-21 358h-45z" />
<glyph unicode="&#xc2;" d="M-68 -4l35 178q74 18 113 113l432 1028l547 33l28 -25q98 -788 127 -1010q8 -70 31 -100.5t66 -36.5l12 -20l-37 -162q-172 4 -282 4l-386 -10l-14 18l33 172q86 10 110.5 22.5t24.5 47.5v117q-133 4 -149 4l-158 -11q-39 -131 -39 -145q0 -31 47 -31h55l15 -20l-37 -170 q-186 6 -307 6zM438 1577q164 111 389 283h56q0 6 129 -112t190 -171l-88 -127l-49 -14q-90 41 -250 104q-102 -37 -274 -104l-45 14zM561 616h98q14 0 101 5l-21 358h-45z" />
<glyph unicode="&#xc3;" d="M-68 -4l35 178q74 18 113 113l432 1028l547 33l28 -25q98 -788 127 -1010q8 -70 31 -100.5t66 -36.5l12 -20l-37 -162q-172 4 -282 4l-386 -10l-14 18l33 172q86 10 110.5 22.5t24.5 47.5v117q-133 4 -149 4l-158 -11q-39 -131 -39 -145q0 -31 47 -31h55l15 -20l-37 -170 q-186 6 -307 6zM418 1493l4 33l190 235l35 8q37 0 152.5 -34.5t142.5 -34.5q45 0 125 90l27 29h32l107 -111l-4 -33l-191 -235l-34 -8q-37 0 -153 34.5t-141.5 34.5t-63.5 -29.5t-89 -89.5h-33zM561 616h98q14 0 101 5l-21 358h-45z" />
<glyph unicode="&#xc4;" d="M-68 -4l35 178q74 18 113 113l432 1028l547 33l28 -25q98 -788 127 -1010q8 -70 31 -100.5t66 -36.5l12 -20l-37 -162q-172 4 -282 4l-386 -10l-14 18l33 172q86 10 110.5 22.5t24.5 47.5v117q-133 4 -149 4l-158 -11q-39 -131 -39 -145q0 -31 47 -31h55l15 -20l-37 -170 q-186 6 -307 6zM459 1561q0 92 54 148t134 56q152 0 152 -139q0 -90 -54.5 -146.5t-142.5 -56.5q-143 0 -143 138zM561 616h98q14 0 101 5l-21 358h-45zM842 1561q0 92 54 148t134 56q154 0 154 -139q0 -90 -54.5 -146.5t-142.5 -56.5q-145 0 -145 138z" />
<glyph unicode="&#xc5;" d="M-68 -4l35 178q74 18 113 113l432 1028l547 33l28 -25q98 -788 127 -1010q8 -70 31 -100.5t66 -36.5l12 -20l-37 -162q-172 4 -282 4l-386 -10l-14 18l33 172q86 10 110.5 22.5t24.5 47.5v117q-133 4 -149 4l-158 -11q-39 -131 -39 -145q0 -31 47 -31h55l15 -20l-37 -170 q-186 6 -307 6zM561 616h98q14 0 101 5l-21 358h-45zM614 1590.5q0 95.5 71 166t172 70.5t145.5 -49t44.5 -138.5t-71 -166t-170 -76.5t-145.5 49t-46.5 144.5zM758 1604q-1 -64 67 -64q29 0 53.5 17.5t24.5 60.5q0 61 -69 61q-76 0 -76 -75z" />
<glyph unicode="&#xc6;" horiz-adv-x="1875" d="M-49 -4l16 178q78 18 127 113l412 800q-2 57 -45 58l-51 -4l-23 28l39 162q334 -6 777.5 -4t592.5 23l23 -33q-61 -215 -97 -408l-284 -18q14 66 14 109.5t-37 61t-139 17.5q-70 0 -70 -49l13 -268l143 26l207 54l30 -35l-51 -238l-196 -24l-127 -25l2 -149 q2 -137 90 -138q109 0 150.5 40t76.5 180l264 18l23 -31q-61 -199 -109 -422l-34 -32q-328 14 -725 14l-345 -12l-12 18l33 172q82 8 111 27q39 23 38 127l7 117l-150 -27l-158 -47q-57 -160 -57 -168q0 -18 17.5 -21.5t89.5 -3.5l6 -20l-35 -170q-12 6 -397 6zM623 664 l82 8l100 18l8 289h-45z" />
<glyph unicode="&#xc7;" horiz-adv-x="1196" d="M37 530q0 401 192.5 610.5t561.5 209.5q152 0 454 -54l12 -41q-66 -188 -110 -438l-320 -18q23 117 23 153q0 115 -135 115q-113 0 -160 -119t-47 -399q0 -154 31.5 -218.5t107.5 -64.5t112 48t64 190l318 20q-53 -240 -76 -436l-31 -33q-174 -66 -403 -75l-17 -56 q76 -39 136.5 -93t60.5 -114q0 -88 -97.5 -151.5t-232.5 -63.5q-61 0 -114.5 29t-53.5 74t125 153h17v-16q0 -98 82 -98q63 0 63 48t-158 130l58 160q-223 18 -343 159.5t-120 388.5z" />
<glyph unicode="&#xc8;" horiz-adv-x="1200" d="M-41 -20l41 188q76 12 107.5 50t42.5 130q92 719 92 740.5t-6.5 39t-38.5 17.5l-52 -4l-20 28l39 162q287 -6 592 -6t497 25l23 -33q-63 -215 -96 -408l-287 -18q16 66 16 109.5t-36.5 61t-107.5 17.5t-84 -10t-19 -45l-41 -231l161 -2l219 12l21 -29l-57 -235 q-145 6 -210 6t-175 -13q-29 -195 -29 -231.5t17.5 -50.5t64.5 -14q123 0 169 39.5t81 177.5l264 18l22 -31q-61 -199 -108 -422l-35 -32q-324 14 -526 14q-295 0 -541 -20zM438 1561l74 221l33 10q258 -111 510 -205l-43 -145l-39 -27q-190 50 -520 113z" />
<glyph unicode="&#xc9;" horiz-adv-x="1200" d="M-41 -20l41 188q76 12 107.5 50t42.5 130q92 719 92 740.5t-6.5 39t-38.5 17.5l-52 -4l-20 28l39 162q287 -6 592 -6t497 25l23 -33q-63 -215 -96 -408l-287 -18q16 66 16 109.5t-36.5 61t-107.5 17.5t-84 -10t-19 -45l-41 -231l161 -2l219 12l21 -29l-57 -235 q-145 6 -210 6t-175 -13q-29 -195 -29 -231.5t17.5 -50.5t64.5 -14q123 0 169 39.5t81 177.5l264 18l22 -31q-61 -199 -108 -422l-35 -32q-324 14 -526 14q-295 0 -541 -20zM440 1587q211 78 510 205l33 -10l74 -221l-15 -33q-266 -49 -520 -113l-39 27z" />
<glyph unicode="&#xca;" horiz-adv-x="1200" d="M-41 -20l41 188q76 12 107.5 50t42.5 130q92 719 92 740.5t-6.5 39t-38.5 17.5l-52 -4l-20 28l39 162q287 -6 592 -6t497 25l23 -33q-63 -215 -96 -408l-287 -18q16 66 16 109.5t-36.5 61t-107.5 17.5t-84 -10t-19 -45l-41 -231l161 -2l219 12l21 -29l-57 -235 q-145 6 -210 6t-175 -13q-29 -195 -29 -231.5t17.5 -50.5t64.5 -14q123 0 169 39.5t81 177.5l264 18l22 -31q-61 -199 -108 -422l-35 -32q-324 14 -526 14q-295 0 -541 -20zM408 1577q164 111 389 283h55q0 6 129 -112t190 -171l-88 -127l-49 -14q-90 41 -250 104 q-102 -37 -274 -104l-45 14z" />
<glyph unicode="&#xcb;" horiz-adv-x="1200" d="M-41 -20l41 188q76 12 107.5 50t42.5 130q92 719 92 740.5t-6.5 39t-38.5 17.5l-52 -4l-20 28l39 162q287 -6 592 -6t497 25l23 -33q-63 -215 -96 -408l-287 -18q16 66 16 109.5t-36.5 61t-107.5 17.5t-84 -10t-19 -45l-41 -231l161 -2l219 12l21 -29l-57 -235 q-145 6 -210 6t-175 -13q-29 -195 -29 -231.5t17.5 -50.5t64.5 -14q123 0 169 39.5t81 177.5l264 18l22 -31q-61 -199 -108 -422l-35 -32q-324 14 -526 14q-295 0 -541 -20zM428 1561q0 92 54.5 148t131.5 56q154 0 154 -139q0 -90 -54.5 -146.5t-142.5 -56.5 q-143 0 -143 138zM811 1561q0 92 54.5 148t133.5 56q154 0 154 -139q0 -90 -54.5 -146.5t-142.5 -56.5q-145 0 -145 138z" />
<glyph unicode="&#xcc;" horiz-adv-x="735" d="M-35 -10l37 174q82 18 109.5 50t38.5 118q92 735 92 757.5t-10.5 39t-51.5 16.5l-49 -2l-16 28l35 154h325l348 10l-37 -184q-68 -10 -90 -29.5t-34 -77.5q-31 -167 -73 -450t-42 -333t11 -66.5t40 -16.5l64 6l12 -20l-39 -172q-250 8 -334 8zM168 1561l74 221l32 10 q258 -111 510 -205l-43 -145l-39 -27q-190 50 -520 113z" />
<glyph unicode="&#xcd;" horiz-adv-x="735" d="M-35 -10l37 174q82 18 109.5 50t38.5 118q92 735 92 757.5t-10.5 39t-51.5 16.5l-49 -2l-16 28l35 154h325l348 10l-37 -184q-68 -10 -90 -29.5t-34 -77.5q-31 -167 -73 -450t-42 -333t11 -66.5t40 -16.5l64 6l12 -20l-39 -172q-250 8 -334 8zM197 1587q211 78 510 205 l32 -10l74 -221l-14 -33q-266 -49 -520 -113l-39 27z" />
<glyph unicode="&#xce;" horiz-adv-x="735" d="M-35 -10l37 174q82 18 109.5 50t38.5 118q92 735 92 757.5t-10.5 39t-51.5 16.5l-49 -2l-16 28l35 154h325l348 10l-37 -184q-68 -10 -90 -29.5t-34 -77.5q-31 -167 -73 -450t-42 -333t11 -66.5t40 -16.5l64 6l12 -20l-39 -172q-250 8 -334 8zM123 1577q164 111 389 283 h55q0 6 129 -112t191 -171l-88 -127l-49 -14q-90 41 -250 104q-102 -37 -275 -104l-45 14z" />
<glyph unicode="&#xcf;" horiz-adv-x="735" d="M-35 -10l37 174q82 18 109.5 50t38.5 118q92 735 92 757.5t-10.5 39t-51.5 16.5l-49 -2l-16 28l35 154h325l348 10l-37 -184q-68 -10 -90 -29.5t-34 -77.5q-31 -167 -73 -450t-42 -333t11 -66.5t40 -16.5l64 6l12 -20l-39 -172q-250 8 -334 8zM143 1561q0 92 54.5 148 t134.5 56q152 0 151 -139q0 -90 -54 -146.5t-142 -56.5q-143 0 -144 138zM526 1561q0 92 54.5 148t134.5 56q154 0 153 -139q0 -90 -54 -146.5t-142 -56.5q-145 0 -146 138z" />
<glyph unicode="&#xd0;" horiz-adv-x="1392" d="M8 -16l41 190q74 12 103.5 47t44.5 123l24 201h-180l-18 16l49 182h174q39 324 39 344q0 53 -39 54l-64 -4l-16 28l39 166q223 -6 305 -6l313 12q281 0 430.5 -131t149.5 -383q0 -383 -217 -615.5t-574 -232.5q-188 25 -313 25zM588 291q0 -59 53 -60q291 0 291 584 q0 145 -42.5 203.5t-146.5 58.5q-20 0 -30.5 -11t-16.5 -44t-45 -277l144 7l14 -21l-37 -184h-149q-35 -225 -35 -256z" />
<glyph unicode="&#xd1;" horiz-adv-x="1470" d="M-25 -16l43 184q59 8 90 38t39 91q113 735 113 764t-20.5 49t-112.5 31l-21 28l31 166q150 -10 299 -10l262 8q115 -295 287 -651h31q39 385 39 407.5t-10.5 39t-45.5 16.5h-61l-8 22l31 166q223 -8 419.5 -8t196.5 6l-33 -184q-63 -8 -91 -37t-38 -92l-151 -1018 l-394 -25q-139 319 -307 670h-31q-39 -383 -38.5 -406.5t11.5 -43t56 -19.5l66 8l16 -18l-43 -174q-225 8 -299 8q-137 0 -326 -16zM485 1493l4 33l191 235l35 8q37 0 152.5 -34.5t140.5 -34.5q47 0 127 90l26 29h33l106 -111l-4 -33l-190 -235l-35 -8q-37 0 -152.5 34.5 t-141 34.5t-63.5 -29.5t-89 -89.5h-33z" />
<glyph unicode="&#xd2;" horiz-adv-x="1296" d="M37 524q0 397 185.5 611.5t539.5 214.5q262 0 403.5 -136.5t141.5 -398.5q0 -397 -188.5 -618.5t-538.5 -221.5q-256 0 -399.5 142.5t-143.5 406.5zM467 1561l74 221l32 10q258 -111 510 -205l-43 -145l-39 -27q-190 50 -520 113zM506 479q0 -246 129 -246 q106 0 152.5 137.5t46.5 452.5q0 246 -134 246q-102 0 -148 -138t-46 -452z" />
<glyph unicode="&#xd3;" horiz-adv-x="1296" d="M37 524q0 397 185.5 611.5t539.5 214.5q262 0 403.5 -136.5t141.5 -398.5q0 -397 -188.5 -618.5t-538.5 -221.5q-256 0 -399.5 142.5t-143.5 406.5zM465 1587q211 78 510 205l33 -10l73 -221l-14 -33q-266 -49 -520 -113l-39 27zM506 479q0 -246 129 -246 q106 0 152.5 137.5t46.5 452.5q0 246 -134 246q-102 0 -148 -138t-46 -452z" />
<glyph unicode="&#xd4;" horiz-adv-x="1296" d="M37 524q0 397 185.5 611.5t539.5 214.5q262 0 403.5 -136.5t141.5 -398.5q0 -397 -188.5 -618.5t-538.5 -221.5q-256 0 -399.5 142.5t-143.5 406.5zM403 1577q164 111 390 283h55q0 6 129 -112t190 -171l-88 -127l-49 -14q-90 41 -250 104q-102 -37 -274 -104l-45 14z M506 479q0 -246 129 -246q106 0 152.5 137.5t46.5 452.5q0 246 -134 246q-102 0 -148 -138t-46 -452z" />
<glyph unicode="&#xd5;" horiz-adv-x="1296" d="M37 524q0 397 185.5 611.5t539.5 214.5q262 0 403.5 -136.5t141.5 -398.5q0 -397 -188.5 -618.5t-538.5 -221.5q-256 0 -399.5 142.5t-143.5 406.5zM383 1493l4 33l191 235l34 8q37 0 153 -34.5t140 -34.5q47 0 127 90l27 29h33l106 -111l-4 -33l-190 -235l-35 -8 q-37 0 -153 34.5t-141.5 34.5t-63.5 -29.5t-89 -89.5h-33zM506 479q0 -246 129 -246q106 0 152.5 137.5t46.5 452.5q0 246 -134 246q-102 0 -148 -138t-46 -452z" />
<glyph unicode="&#xd6;" horiz-adv-x="1296" d="M37 524q0 397 185.5 611.5t539.5 214.5q262 0 403.5 -136.5t141.5 -398.5q0 -397 -188.5 -618.5t-538.5 -221.5q-256 0 -399.5 142.5t-143.5 406.5zM424 1561q0 92 54 148t132 56q154 0 154 -139q0 -90 -54.5 -146.5t-142.5 -56.5q-143 0 -143 138zM506 479 q0 -246 129 -246q106 0 152.5 137.5t46.5 452.5q0 246 -134 246q-102 0 -148 -138t-46 -452zM807 1561q0 92 54 148t134 56q154 0 154 -139q0 -90 -54.5 -146.5t-142.5 -56.5q-145 0 -145 138z" />
<glyph unicode="&#xd7;" horiz-adv-x="1005" d="M70 272q106 100 219 203l-195 232l10 32l242 170q90 -113 180 -221l250 244l29 -12l145 -209l-241 -228l196 -219l-16 -33l-236 -178l-184 217l-233 -217l-31 6z" />
<glyph unicode="&#xd8;" horiz-adv-x="1296" d="M18 -106l156 229q-137 143 -137 401q0 397 185.5 611.5t539.5 214.5q113 0 209 -29l141 219l199 -110l4 -27l-135 -205q127 -139 127 -383q0 -397 -188.5 -618.5t-538.5 -221.5q-109 0 -197 25l-162 -240l-194 113zM506 479q0 -246 129 -246q106 0 152.5 137.5 t46.5 452.5q0 246 -134 246q-102 0 -148 -138t-46 -452z" />
<glyph unicode="&#xd9;" horiz-adv-x="1239" d="M78 1149l43 182q197 -6 356 -6l271 8l-43 -190q-53 -6 -77 -28.5t-30 -72.5l-84 -591q-4 -39 -4 -68q0 -147 121 -147q72 0 106.5 40.5t48.5 139.5q78 653 78 671q0 57 -41 58l-43 -4l-6 8l45 182q166 -6 238 -6l293 6l-39 -184q-63 -20 -82 -36.5t-23 -53.5l-71 -578 q-35 -256 -175.5 -380t-387 -124t-361.5 86t-115 265q0 33 44 388t44 377.5t-6 38t-39 15.5l-57 -4zM451 1561l73 221l33 10q258 -111 510 -205l-43 -145l-39 -27q-190 50 -520 113z" />
<glyph unicode="&#xda;" horiz-adv-x="1239" d="M78 1149l43 182q197 -6 356 -6l271 8l-43 -190q-53 -6 -77 -28.5t-30 -72.5l-84 -591q-4 -39 -4 -68q0 -147 121 -147q72 0 106.5 40.5t48.5 139.5q78 653 78 671q0 57 -41 58l-43 -4l-6 8l45 182q166 -6 238 -6l293 6l-39 -184q-63 -20 -82 -36.5t-23 -53.5l-71 -578 q-35 -256 -175.5 -380t-387 -124t-361.5 86t-115 265q0 33 44 388t44 377.5t-6 38t-39 15.5l-57 -4zM453 1587q211 78 510 205l32 -10l74 -221l-14 -33q-266 -49 -520 -113l-39 27z" />
<glyph unicode="&#xdb;" horiz-adv-x="1239" d="M78 1149l43 182q197 -6 356 -6l271 8l-43 -190q-53 -6 -77 -28.5t-30 -72.5l-84 -591q-4 -39 -4 -68q0 -147 121 -147q72 0 106.5 40.5t48.5 139.5q78 653 78 671q0 57 -41 58l-43 -4l-6 8l45 182q166 -6 238 -6l293 6l-39 -184q-63 -20 -82 -36.5t-23 -53.5l-71 -578 q-35 -256 -175.5 -380t-387 -124t-361.5 86t-115 265q0 33 44 388t44 377.5t-6 38t-39 15.5l-57 -4zM420 1577q164 111 389 283h55q0 6 129 -112t191 -171l-88 -127l-49 -14q-90 41 -250 104q-102 -37 -275 -104l-45 14z" />
<glyph unicode="&#xdc;" horiz-adv-x="1239" d="M78 1149l43 182q197 -6 356 -6l271 8l-43 -190q-53 -6 -77 -28.5t-30 -72.5l-84 -591q-4 -39 -4 -68q0 -147 121 -147q72 0 106.5 40.5t48.5 139.5q78 653 78 671q0 57 -41 58l-43 -4l-6 8l45 182q166 -6 238 -6l293 6l-39 -184q-63 -20 -82 -36.5t-23 -53.5l-71 -578 q-35 -256 -175.5 -380t-387 -124t-361.5 86t-115 265q0 33 44 388t44 377.5t-6 38t-39 15.5l-57 -4zM440 1561q0 92 54.5 148t132.5 56q154 0 153 -139q0 -90 -54 -146.5t-142 -56.5q-143 0 -144 138zM823 1561q0 92 54.5 148t134.5 56q154 0 153 -139q0 -90 -54 -146.5 t-142 -56.5q-145 0 -146 138z" />
<glyph unicode="&#xdd;" horiz-adv-x="1331" d="M82 1141l43 186q238 -4 303 -4l363 14l12 -22l-39 -168q-84 0 -84 -55q0 -68 68 -299h28l103 233q37 68 36.5 95.5t-69.5 27.5l-4 12l37 162h317l227 8l7 -16l-37 -178q-150 -84 -250 -258l-225 -373q-39 -72 -54 -191q-4 -25 -4 -53.5t15.5 -52t72.5 -23.5l103 7l8 -13 l-41 -192q-301 12 -418 12l-412 -18l39 188q129 10 173 41t55 121q6 49 6 63q0 68 -35 154l-164 407q-41 109 -172 172zM518 1587q211 78 510 205l33 -10l74 -221l-15 -33q-266 -49 -520 -113l-39 27z" />
<glyph unicode="&#xde;" horiz-adv-x="1208" d="M-35 -10l37 174q80 16 109.5 49t38.5 119q92 735 92 757.5t-10.5 39t-51.5 16.5l-49 -2l-16 28l35 154h325l348 10l-37 -184q-76 -16 -94 -29q-20 -10 -28 -53h135q440 0 440 -332q0 -203 -153.5 -327.5t-395.5 -124.5h-141l-6 -47q-4 -37 7 -48.5t48 -11.5l84 6l14 -20 l-39 -172q-266 8 -356 8zM582 524q86 -20 118 -20q115 33 115 201q0 129 -153 129q-39 0 -46 -46q-20 -147 -34 -264z" />
<glyph unicode="&#xdf;" horiz-adv-x="1892" d="M-16 82q53 164 71 260l234 16q-2 -10 -2 -38.5t28.5 -66.5t87.5 -38q94 0 95 51q0 33 -38 56.5t-80 40t-44 16.5q-98 39 -160.5 88t-84 96t-21.5 107q0 174 152.5 277.5t410.5 103.5q164 0 336 -45l18 -39q-49 -135 -80 -279l-217 -14l-20 14q4 31 4 33q0 88 -99 88 q-41 0 -66.5 -17.5t-25.5 -46.5q0 -45 115 -94q158 -63 209 -100q104 -80 104 -203q0 -172 -150.5 -269t-414.5 -97q-90 0 -176 17t-168 52zM930 82q53 164 71 260l234 16q-2 -10 -2 -38.5t28.5 -66.5t88.5 -38q94 0 94 51q0 33 -38 56.5t-80 40t-44 16.5q-98 39 -160.5 88 t-84 96t-21.5 107q0 174 152.5 277.5t410.5 103.5q164 0 336 -45l18 -39q-49 -135 -80 -279l-217 -14l-20 14q4 31 4 33q0 88 -98 88q-41 0 -66.5 -17.5t-25.5 -46.5q0 -45 114 -94q158 -63 209 -100q104 -80 105 -203q0 -172 -151 -269t-415 -97q-90 0 -176 17t-168 52z " />
<glyph unicode="&#xe0;" horiz-adv-x="1175" d="M-43 -2l29 149q57 16 86 80l344 797l499 27l25 -23q88 -635 102.5 -751.5t75.5 -126.5l12 -19l-32 -135q-145 2 -242 2l-330 -6l-12 14l27 148q70 8 88 16t18 33l4 65l-116 2l-125 -6q-23 -84 -23 -90q0 -18 33 -18h39l14 -19l-31 -143q-160 4 -260 4h-225zM383 1266 l74 221l32 10q258 -111 510 -205l-43 -145l-38 -27q-191 50 -521 113zM492 487h73q39 0 76 2l-12 254h-41z" />
<glyph unicode="&#xe1;" horiz-adv-x="1175" d="M-43 -2l29 149q57 16 86 80l344 797l499 27l25 -23q88 -635 102.5 -751.5t75.5 -126.5l12 -19l-32 -135q-145 2 -242 2l-330 -6l-12 14l27 148q70 8 88 16t18 33l4 65l-116 2l-125 -6q-23 -84 -23 -90q0 -18 33 -18h39l14 -19l-31 -143q-160 4 -260 4h-225zM367 1292 q211 78 510 205l32 -10l74 -221l-14 -33q-266 -49 -520 -113l-39 27zM492 487h73q39 0 76 2l-12 254h-41z" />
<glyph unicode="&#xe2;" horiz-adv-x="1175" d="M-43 -2l29 149q57 16 86 80l344 797l499 27l25 -23q88 -635 102.5 -751.5t75.5 -126.5l12 -19l-32 -135q-145 2 -242 2l-330 -6l-12 14l27 148q70 8 88 16t18 33l4 65l-116 2l-125 -6q-23 -84 -23 -90q0 -18 33 -18h39l14 -19l-31 -143q-160 4 -260 4h-225zM309 1282 q164 111 389 283h56q0 6 129 -112t190 -171l-88 -127l-49 -14q-90 41 -250 104q-102 -37 -274 -104l-45 14zM492 487h73q39 0 76 2l-12 254h-41z" />
<glyph unicode="&#xe3;" horiz-adv-x="1175" d="M-43 -2l29 149q57 16 86 80l344 797l499 27l25 -23q88 -635 102.5 -751.5t75.5 -126.5l12 -19l-32 -135q-145 2 -242 2l-330 -6l-12 14l27 148q70 8 88 16t18 33l4 65l-116 2l-125 -6q-23 -84 -23 -90q0 -18 33 -18h39l14 -19l-31 -143q-160 4 -260 4h-225zM287 1198 l4 33l190 235l35 9q37 0 152.5 -35t142.5 -35q45 0 125 90l27 29h32l107 -111l-4 -33l-191 -235l-35 -8q-37 0 -152.5 34.5t-141 34.5t-63.5 -29.5t-89 -89.5h-33zM492 487h73q39 0 76 2l-12 254h-41z" />
<glyph unicode="&#xe4;" horiz-adv-x="1175" d="M-43 -2l29 149q57 16 86 80l344 797l499 27l25 -23q88 -635 102.5 -751.5t75.5 -126.5l12 -19l-32 -135q-145 2 -242 2l-330 -6l-12 14l27 148q70 8 88 16t18 33l4 65l-116 2l-125 -6q-23 -84 -23 -90q0 -18 33 -18h39l14 -19l-31 -143q-160 4 -260 4h-225zM330 1266 q0 92 54 148t132 56q154 0 154 -139q0 -90 -54.5 -146.5t-142.5 -56.5q-143 0 -143 138zM492 487h73q39 0 76 2l-12 254h-41zM713 1266q0 92 54 148t134 56q154 0 154 -139q0 -90 -54.5 -146.5t-142.5 -56.5q-145 0 -145 138z" />
<glyph unicode="&#xe5;" horiz-adv-x="1175" d="M-43 -2l29 149q57 16 86 80l344 797l499 27l25 -23q88 -635 102.5 -751.5t75.5 -126.5l12 -19l-32 -135q-145 2 -242 2l-330 -6l-12 14l27 148q70 8 88 16t18 33l4 65l-116 2l-125 -6q-23 -84 -23 -90q0 -18 33 -18h39l14 -19l-31 -143q-160 4 -260 4h-225zM485 1295.5 q0 95.5 71 166t172 70.5t145.5 -49t44.5 -138.5t-71 -166t-170 -76.5t-145.5 49t-46.5 144.5zM492 487h73q39 0 76 2l-12 254h-41zM629 1309q-1 -64 67 -64q29 0 53.5 17.5t24.5 60.5q0 61 -69 61q-76 0 -76 -75z" />
<glyph unicode="&#xe6;" horiz-adv-x="1613" d="M-29 -2l15 152q72 18 102 77l318 604q-2 49 -37 50l-41 -4l-21 24l33 135q936 -12 1184 15l20 -27q-49 -176 -78 -326l-256 -16q12 49 12.5 81t-28.5 45t-93.5 13t-64.5 -35l15 -182l108 21l174 45l29 -31l-43 -201l-166 -22l-96 -19l2 -90q2 -106 69 -106q80 0 112 31.5 t60 134.5l238 14l21 -27q-51 -158 -91 -338l-30 -26q-375 10 -615 10l-291 -8l-12 14l29 146q68 8 88 18q29 14 29 90l6 74l-119 -23l-129 -41q-18 -70 -23 -77q-8 -17 -8 -23q0 -14 90 -14l-6 -19l-28 -143q-8 4 -343 4h-135zM543 520l59 6l78 15l6 202h-41z" />
<glyph unicode="&#xe7;" horiz-adv-x="1017" d="M33 422q0 631 618 631q137 0 387 -43l13 -37q-53 -150 -90 -352l-291 -17q18 94 18 123q0 82 -98 82q-78 0 -107.5 -79t-29.5 -243.5t19.5 -209t73.5 -44.5t77.5 33t44.5 140l286 18q-41 -195 -57 -354l-27 -27q-139 -47 -321 -57l-19 -62q76 -39 136.5 -93t60.5 -114 q0 -88 -97.5 -151.5t-232.5 -63.5q-61 0 -114.5 29t-53.5 74t125 153h17v-16q0 -98 82 -98q63 0 63 48t-158 130l60 164q-188 16 -286.5 126.5t-98.5 309.5z" />
<glyph unicode="&#xe8;" horiz-adv-x="1028" d="M-35 -16l35 159q61 10 87 40t34 102q69 529 69 549q0 45 -34 45l-41 -2l-21 24l33 137q254 -6 515 -6t415 21l20 -29q-53 -176 -78 -328l-260 -14q14 47 14.5 79t-28.5 46t-81 14t-62.5 -8t-14.5 -31l-30 -157h131l178 8l18 -27l-47 -198q-119 4 -155.5 4t-159.5 -9 q-18 -92 -18.5 -135t13 -54t76 -11t98.5 30.5t62 133.5l240 16l20 -27q-51 -158 -88 -340l-33 -26q-260 10 -436 10q-258 0 -471 -16zM322 1266l73 221l33 10q258 -111 510 -205l-43 -145l-39 -27q-190 50 -520 113z" />
<glyph unicode="&#xe9;" horiz-adv-x="1028" d="M-35 -16l35 159q61 10 87 40t34 102q69 529 69 549q0 45 -34 45l-41 -2l-21 24l33 137q254 -6 515 -6t415 21l20 -29q-53 -176 -78 -328l-260 -14q14 47 14.5 79t-28.5 46t-81 14t-62.5 -8t-14.5 -31l-30 -157h131l178 8l18 -27l-47 -198q-119 4 -155.5 4t-159.5 -9 q-18 -92 -18.5 -135t13 -54t76 -11t98.5 30.5t62 133.5l240 16l20 -27q-51 -158 -88 -340l-33 -26q-260 10 -436 10q-258 0 -471 -16zM305 1292q211 78 510 205l33 -10l74 -221l-15 -33q-266 -49 -520 -113l-39 27z" />
<glyph unicode="&#xea;" horiz-adv-x="1028" d="M-35 -16l35 159q61 10 87 40t34 102q69 529 69 549q0 45 -34 45l-41 -2l-21 24l33 137q254 -6 515 -6t415 21l20 -29q-53 -176 -78 -328l-260 -14q14 47 14.5 79t-28.5 46t-81 14t-62.5 -8t-14.5 -31l-30 -157h131l178 8l18 -27l-47 -198q-119 4 -155.5 4t-159.5 -9 q-18 -92 -18.5 -135t13 -54t76 -11t98.5 30.5t62 133.5l240 16l20 -27q-51 -158 -88 -340l-33 -26q-260 10 -436 10q-258 0 -471 -16zM276 1282q164 111 390 283h55q0 6 129 -112t190 -171l-88 -127l-49 -14q-90 41 -250 104q-102 -37 -274 -104l-45 14z" />
<glyph unicode="&#xeb;" horiz-adv-x="1028" d="M-35 -16l35 159q61 10 87 40t34 102q69 529 69 549q0 45 -34 45l-41 -2l-21 24l33 137q254 -6 515 -6t415 21l20 -29q-53 -176 -78 -328l-260 -14q14 47 14.5 79t-28.5 46t-81 14t-62.5 -8t-14.5 -31l-30 -157h131l178 8l18 -27l-47 -198q-119 4 -155.5 4t-159.5 -9 q-18 -92 -18.5 -135t13 -54t76 -11t98.5 30.5t62 133.5l240 16l20 -27q-51 -158 -88 -340l-33 -26q-260 10 -436 10q-258 0 -471 -16zM297 1266q0 92 54.5 148t131.5 56q154 0 154 -139q0 -90 -54.5 -146.5t-142.5 -56.5q-143 0 -143 138zM680 1266q0 92 54 148t134 56 q154 0 154 -139q0 -90 -54.5 -146.5t-142.5 -56.5q-145 0 -145 138z" />
<glyph unicode="&#xec;" horiz-adv-x="641" d="M-27 -6l29 147q68 14 90.5 39t28.5 90q70 547 69.5 565.5t-8.5 31t-43 12.5h-37q-6 8 -14 24l29 129h278l303 6l-30 -155q-55 -8 -72.5 -22.5t-28.5 -59.5q-20 -107 -54 -326t-34 -259t9.5 -52t31.5 -12l49 4l11 -19l-33 -143q-215 6 -285 6zM96 1266l74 221l33 10 q258 -111 510 -205l-43 -145l-39 -27q-190 50 -520 113z" />
<glyph unicode="&#xed;" horiz-adv-x="641" d="M-27 -6l29 147q68 14 90.5 39t28.5 90q70 547 69.5 565.5t-8.5 31t-43 12.5h-37q-6 8 -14 24l29 129h278l303 6l-30 -155q-55 -8 -72.5 -22.5t-28.5 -59.5q-20 -107 -54 -326t-34 -259t9.5 -52t31.5 -12l49 4l11 -19l-33 -143q-215 6 -285 6zM98 1292q211 78 510 205 l33 -10l74 -221l-15 -33q-266 -49 -520 -113l-39 27z" />
<glyph unicode="&#xee;" horiz-adv-x="641" d="M-27 -6l29 147q68 14 90.5 39t28.5 90q70 547 69.5 565.5t-8.5 31t-43 12.5h-37q-6 8 -14 24l29 129h278l303 6l-30 -155q-55 -8 -72.5 -22.5t-28.5 -59.5q-20 -107 -54 -326t-34 -259t9.5 -52t31.5 -12l49 4l11 -19l-33 -143q-215 6 -285 6zM37 1282q164 111 389 283h55 q0 6 129 -112t191 -171l-88 -127l-49 -14q-90 41 -250 104q-102 -37 -275 -104l-45 14z" />
<glyph unicode="&#xef;" horiz-adv-x="641" d="M-27 -6l29 147q68 14 90.5 39t28.5 90q70 547 69.5 565.5t-8.5 31t-43 12.5h-37q-6 8 -14 24l29 129h278l303 6l-30 -155q-55 -8 -72.5 -22.5t-28.5 -59.5q-20 -107 -54 -326t-34 -259t9.5 -52t31.5 -12l49 4l11 -19l-33 -143q-215 6 -285 6zM66 1266q0 92 54 148t134 56 q152 0 152 -139q0 -90 -54.5 -146.5t-142.5 -56.5q-143 0 -143 138zM449 1266q0 92 54 148t134 56q154 0 154 -139q0 -90 -54.5 -146.5t-142.5 -56.5q-145 0 -145 138z" />
<glyph unicode="&#xf0;" horiz-adv-x="1183" d="M10 -12l35 162q59 10 84 36.5t35 94.5l16 133h-141l-14 12l41 158h135q28 218 28 241q0 51 -30 52l-52 -5l-16 25l33 141q197 -6 264 -6l264 10q483 0 484 -401q0 -303 -178.5 -481t-477.5 -178q-156 18 -262 18zM516 242q0 -41 25 -41q213 0 213 432q0 109 -24.5 146.5 t-96.5 37.5q-27 0 -35 -43q-2 -6 -4 -19.5t-4 -24.5t-4 -22.5t-5 -27.5t-5.5 -29.5t-5.5 -32t-5 -32.5l99 4l12 -17l-31 -159h-104q-25 -166 -25 -172z" />
<glyph unicode="&#xf1;" horiz-adv-x="1255" d="M-20 -12l36 155q49 6 74 30t33 71q86 545 86 568.5t-16.5 37.5t-92.5 24l-20 25l26 141q127 -8 263 -8l231 6q94 -225 215 -454h27l22 227q4 41 -5 55.5t-40 14.5h-49l-8 18l24 139q197 -6 367 -6t170 4l-27 -155q-51 -8 -73.5 -30t-30.5 -71l-117 -772l-362 -18 l-228 454h-28q-23 -221 -23 -241.5t10.5 -36.5t49.5 -16l51 6l14 -15l-35 -147q-199 6 -268 6zM336 1198l4 33l190 235l35 9q37 0 153 -35t142 -35q45 0 125 90l27 29h32l107 -111l-4 -33l-191 -235l-34 -8q-37 0 -153 34.5t-141.5 34.5t-63.5 -29.5t-89 -89.5h-33z" />
<glyph unicode="&#xf2;" horiz-adv-x="1097" d="M33 418q0 635 596 635q459 0 458 -424q0 -313 -151 -480t-444 -167q-219 0 -339 110.5t-120 325.5zM342 1266l74 221l33 10q258 -111 509 -205l-43 -145l-38 -27q-191 50 -521 113zM453 454q0 -169 18.5 -210t63.5 -41q74 0 102.5 94t28.5 263t-19.5 210t-66.5 41 q-70 0 -98.5 -94t-28.5 -263z" />
<glyph unicode="&#xf3;" horiz-adv-x="1097" d="M33 418q0 635 596 635q459 0 458 -424q0 -313 -151 -480t-444 -167q-219 0 -339 110.5t-120 325.5zM319 1292q211 78 510 205l33 -10l74 -221l-14 -33q-266 -49 -521 -113l-39 27zM453 454q0 -169 18.5 -210t63.5 -41q74 0 102.5 94t28.5 263t-19.5 210t-66.5 41 q-70 0 -98.5 -94t-28.5 -263z" />
<glyph unicode="&#xf4;" horiz-adv-x="1097" d="M33 418q0 635 596 635q459 0 458 -424q0 -313 -151 -480t-444 -167q-219 0 -339 110.5t-120 325.5zM268 1282q164 111 389 283h56q0 6 129 -112t190 -171l-88 -127l-49 -14q-90 41 -250 104q-102 -37 -274 -104l-45 14zM453 454q0 -169 18.5 -210t63.5 -41q74 0 102.5 94 t28.5 263t-19.5 210t-66.5 41q-70 0 -98.5 -94t-28.5 -263z" />
<glyph unicode="&#xf5;" horiz-adv-x="1097" d="M33 418q0 635 596 635q459 0 458 -424q0 -313 -151 -480t-444 -167q-219 0 -339 110.5t-120 325.5zM244 1198l4 33l190 235l35 9q37 0 152.5 -35t140.5 -35q47 0 127 90l27 29h32l107 -111l-4 -33l-191 -235l-35 -8q-37 0 -152.5 34.5t-141 34.5t-63.5 -29.5t-89 -89.5 h-33zM453 454q0 -169 18.5 -210t63.5 -41q74 0 102.5 94t28.5 263t-19.5 210t-66.5 41q-70 0 -98.5 -94t-28.5 -263z" />
<glyph unicode="&#xf6;" horiz-adv-x="1097" d="M33 418q0 635 596 635q459 0 458 -424q0 -313 -151 -480t-444 -167q-219 0 -339 110.5t-120 325.5zM289 1266q0 92 54 148t132 56q154 0 154 -139q0 -90 -54.5 -146.5t-142.5 -56.5q-143 0 -143 138zM453 454q0 -169 18.5 -210t63.5 -41q74 0 102.5 94t28.5 263 t-19.5 210t-66.5 41q-70 0 -98.5 -94t-28.5 -263zM672 1266q0 92 54 148t134 56q154 0 154 -139q0 -90 -54.5 -146.5t-142.5 -56.5q-145 0 -145 138z" />
<glyph unicode="&#xf7;" horiz-adv-x="1005" d="M18 387l70 277q276 -2 453 -2l442 12l10 -31l-61 -278l-899 -5zM281 106q0 96 54 152.5t134 56.5q154 0 154 -141q0 -96 -54.5 -152.5t-134.5 -56.5q-154 0 -153 141zM371 846q0 96 54 152.5t136 56.5q154 0 154 -142q0 -94 -55.5 -151t-135.5 -57q-154 0 -153 141z" />
<glyph unicode="&#xf8;" horiz-adv-x="1097" d="M-8 -66l137 181q-96 108 -96 303q0 635 596 635q100 0 174 -21l143 195l197 -113l2 -22l-137 -187q80 -102 79 -276q0 -313 -151.5 -480t-443.5 -167q-78 0 -154 16l-148 -197l-192 117zM453 454q0 -169 18.5 -210t63.5 -41q74 0 102.5 94t28.5 263t-19.5 210t-66.5 41 q-70 0 -98.5 -94t-28.5 -263z" />
<glyph unicode="&#xf9;" horiz-adv-x="1046" d="M59 883l35 155q170 -6 312 -6l231 4l-37 -159q-78 -8 -84 -76q-70 -487 -70 -498q0 -100 84 -100q49 0 73 25.5t32 90.5q61 511 61 519q0 41 -32 41l-31 -2l-6 6l39 155q139 -6 198 -6l254 4l-33 -157q-49 -16 -63 -28.5t-18 -37.5l-54 -432q-29 -205 -144.5 -302 t-324.5 -97t-306 65.5t-99 202.5q0 14 33.5 291.5t33.5 296t-4 30t-30 11.5l-48 -2zM326 1266l73 221l33 10q258 -111 510 -205l-43 -145l-39 -27q-190 50 -520 113z" />
<glyph unicode="&#xfa;" horiz-adv-x="1046" d="M59 883l35 155q170 -6 312 -6l231 4l-37 -159q-78 -8 -84 -76q-70 -487 -70 -498q0 -100 84 -100q49 0 73 25.5t32 90.5q61 511 61 519q0 41 -32 41l-31 -2l-6 6l39 155q139 -6 198 -6l254 4l-33 -157q-49 -16 -63 -28.5t-18 -37.5l-54 -432q-29 -205 -144.5 -302 t-324.5 -97t-306 65.5t-99 202.5q0 14 33.5 291.5t33.5 296t-4 30t-30 11.5l-48 -2zM301 1292q211 78 510 205l33 -10l74 -221l-15 -33q-266 -49 -520 -113l-39 27z" />
<glyph unicode="&#xfb;" horiz-adv-x="1046" d="M59 883l35 155q170 -6 312 -6l231 4l-37 -159q-78 -8 -84 -76q-70 -487 -70 -498q0 -100 84 -100q49 0 73 25.5t32 90.5q61 511 61 519q0 41 -32 41l-31 -2l-6 6l39 155q139 -6 198 -6l254 4l-33 -157q-49 -16 -63 -28.5t-18 -37.5l-54 -432q-29 -205 -144.5 -302 t-324.5 -97t-306 65.5t-99 202.5q0 14 33.5 291.5t33.5 296t-4 30t-30 11.5l-48 -2zM281 1282q164 111 389 283h55q0 6 129 -112t190 -171l-88 -127l-49 -14q-90 41 -250 104q-102 -37 -274 -104l-45 14z" />
<glyph unicode="&#xfc;" horiz-adv-x="1046" d="M59 883l35 155q170 -6 312 -6l231 4l-37 -159q-78 -8 -84 -76q-70 -487 -70 -498q0 -100 84 -100q49 0 73 25.5t32 90.5q61 511 61 519q0 41 -32 41l-31 -2l-6 6l39 155q139 -6 198 -6l254 4l-33 -157q-49 -16 -63 -28.5t-18 -37.5l-54 -432q-29 -205 -144.5 -302 t-324.5 -97t-306 65.5t-99 202.5q0 14 33.5 291.5t33.5 296t-4 30t-30 11.5l-48 -2zM301 1266q0 92 54.5 148t131.5 56q154 0 154 -139q0 -90 -54.5 -146.5t-142.5 -56.5q-143 0 -143 138zM684 1266q0 92 54.5 148t133.5 56q154 0 154 -139q0 -90 -54.5 -146.5t-142.5 -56.5 q-145 0 -145 138z" />
<glyph unicode="&#xfd;" horiz-adv-x="1163" d="M74 872l37 162q209 -4 260 -4l309 10l12 -18l-33 -143h-6q-55 0 -55 -40t47 -200h27l63 152q31 55 31 73.5t-53 16.5l-4 10l30 137l275 2l194 6l4 -12l-30 -154q-127 -78 -201 -198l-184 -291q-41 -78 -41 -131t14 -72.5t59 -19.5l86 6l9 -10l-35 -164q-264 10 -365 10 l-360 -14l33 159q109 6 146.5 29t47.5 107q2 10 2 39.5t-31 97.5l-143 321q-27 57 -137 125zM375 1292q211 78 510 205l33 -10l73 -221l-14 -33q-266 -49 -520 -113l-39 27z" />
<glyph unicode="&#xfe;" horiz-adv-x="1046" d="M-27 -6l31 145q66 14 88.5 39t28.5 92q70 547 69.5 565.5t-8.5 32t-43 13.5l-37 -2l-14 24l29 129h278l301 6l-30 -155q-61 -12 -77 -19.5t-20 -27.5h111q373 0 373 -267q0 -160 -127 -255t-330 -95h-117q-6 -55 2 -62t39 -7l68 6l12 -19l-33 -143q-231 6 -305 6z M506 420q76 -14 92 -14q78 26 78 141q0 88 -111 88q-33 0 -35 -39z" />
<glyph unicode="&#xff;" horiz-adv-x="1163" d="M74 872l37 162q209 -4 260 -4l309 10l12 -18l-33 -143h-6q-55 0 -55 -40t47 -200h27l63 152q31 55 31 73.5t-53 16.5l-4 10l30 137l275 2l194 6l4 -12l-30 -154q-127 -78 -201 -198l-184 -291q-41 -78 -41 -131t14 -72.5t59 -19.5l86 6l9 -10l-35 -164q-264 10 -365 10 l-360 -14l33 159q109 6 146.5 29t47.5 107q2 10 2 39.5t-31 97.5l-143 321q-27 57 -137 125zM356 1266q0 92 54.5 148t134.5 56q152 0 151 -139q0 -90 -54 -146.5t-142 -56.5q-143 0 -144 138zM739 1266q0 92 54.5 148t134.5 56q154 0 153 -139q0 -90 -54 -146.5t-142 -56.5 q-145 0 -146 138z" />
<glyph unicode="&#x152;" horiz-adv-x="1812" d="M37 530q0 393 179 597t534 204q57 0 216.5 -12t258.5 -12q311 0 641 43l22 -33q-61 -215 -94 -408l-287 -18q16 66 16.5 109.5t-35.5 61t-108.5 17.5t-86 -10t-17.5 -45l-41 -231l160 -2l219 12l22 -29l-57 -235q-145 6 -236 6l-149 -13q-29 -205 -29 -233.5t11.5 -45.5 t70.5 -17q123 0 169 39.5t79 177.5l266 18l21 -31q-59 -199 -107 -422l-35 -32q-330 20 -526 20t-335.5 -13t-186.5 -13q-262 0 -408.5 143t-146.5 407zM502 481q0 -139 30.5 -199.5t100.5 -60.5q127 0 147 180q66 520 66 539q0 141 -141 141q-203 0 -203 -600z" />
<glyph unicode="&#x153;" horiz-adv-x="1525" d="M33 424q0 307 143 458.5t442 151.5q47 0 181.5 -9t291 -9t461.5 35l21 -27q-51 -176 -76 -326l-258 -16q12 49 12 81t-27.5 45t-82 13t-64.5 -8t-12 -31l-31 -157l129 -2l178 8l21 -25l-47 -198q-117 6 -191 6l-125 -11q-18 -121 -18 -147.5t8 -39.5t76 -13t103.5 30.5 t62.5 133.5l239 14l19 -27q-49 -158 -88 -338l-31 -26q-264 16 -432 16t-282.5 -11t-151.5 -11q-225 0 -348 112.5t-123 327.5zM446 383q0 -113 19 -153t70 -40q84 0 96 119q51 395 51 423t-23.5 59.5t-76.5 31.5q-135 0 -136 -440z" />
<glyph unicode="&#x178;" horiz-adv-x="1331" d="M82 1141l43 186q238 -4 303 -4l363 14l12 -22l-39 -168q-84 0 -84 -55q0 -68 68 -299h28l103 233q37 68 36.5 95.5t-69.5 27.5l-4 12l37 162h317l227 8l7 -16l-37 -178q-150 -84 -250 -258l-225 -373q-39 -72 -54 -191q-4 -25 -4 -53.5t15.5 -52t72.5 -23.5l103 7l8 -13 l-41 -192q-301 12 -418 12l-412 -18l39 188q129 10 173 41t55 121q6 49 6 63q0 68 -35 154l-164 407q-41 109 -172 172zM485 1540q0 92 54.5 148.5t132.5 56.5q154 0 153 -139q0 -90 -54 -146.5t-142 -56.5q-143 0 -144 137zM868 1540q0 92 54.5 148.5t134.5 56.5 q154 0 153 -139q0 -90 -54 -146.5t-142 -56.5q-145 0 -146 137z" />
<glyph unicode="&#x2c6;" horiz-adv-x="790" d="M125 1237q156 127 373 319h55q156 -178 295 -319l-109 -127l-49 -14q-55 43 -205 141q-147 -82 -235 -141l-47 14z" />
<glyph unicode="&#x2dc;" horiz-adv-x="790" d="M86 1186l4 33l191 235l34 8q37 0 154 -34.5t141 -34.5q45 0 125 90l27 28h33l108 -110l-4 -33l-190 -235l-35 -9q-37 0 -154 35t-142.5 35t-62 -29.5t-88.5 -89.5h-32z" />
<glyph unicode="&#x2000;" horiz-adv-x="930" />
<glyph unicode="&#x2001;" horiz-adv-x="1860" />
<glyph unicode="&#x2002;" horiz-adv-x="930" />
<glyph unicode="&#x2003;" horiz-adv-x="1860" />
<glyph unicode="&#x2004;" horiz-adv-x="620" />
<glyph unicode="&#x2005;" horiz-adv-x="465" />
<glyph unicode="&#x2006;" horiz-adv-x="310" />
<glyph unicode="&#x2007;" horiz-adv-x="310" />
<glyph unicode="&#x2008;" horiz-adv-x="232" />
<glyph unicode="&#x2009;" horiz-adv-x="372" />
<glyph unicode="&#x200a;" horiz-adv-x="103" />
<glyph unicode="&#x2010;" horiz-adv-x="643" d="M55 397l47 217l476 58l18 -37l-53 -221l-467 -54z" />
<glyph unicode="&#x2011;" horiz-adv-x="643" d="M55 397l47 217l476 58l18 -37l-53 -221l-467 -54z" />
<glyph unicode="&#x2012;" horiz-adv-x="643" d="M55 397l47 217l476 58l18 -37l-53 -221l-467 -54z" />
<glyph unicode="&#x2013;" horiz-adv-x="888" d="M-29 444l47 215h484q281 0 416 5l14 -39l-53 -217l-891 -2z" />
<glyph unicode="&#x2014;" horiz-adv-x="1640" d="M-29 444l47 215h803q803 0 846 5l16 -39l-55 -217l-1640 -2z" />
<glyph unicode="&#x2018;" horiz-adv-x="532" d="M121 926.5q0 101.5 92 217.5t250 206l119 -95v-51q-59 -43 -95 -102.5t-36 -132t59 -138.5l-6 -28q-117 -90 -202 -90t-133 56t-48 157.5z" />
<glyph unicode="&#x2019;" horiz-adv-x="532" d="M84 807v51q59 41 95 100.5t36 133t-59 139.5l6 29q117 90 202 90t133 -56.5t48 -158t-92.5 -217t-249.5 -205.5z" />
<glyph unicode="&#x201a;" horiz-adv-x="473" d="M-61 -104q59 43 95 102t36 132t-60 138l6 29q117 90 202 90t133 -56.5t48 -157.5t-92 -217t-250 -206l-118 94v52z" />
<glyph unicode="&#x201c;" horiz-adv-x="964" d="M238 926.5q0 101.5 92 217.5t250 206l118 -95v-51q-59 -43 -95 -102.5t-36 -132t60 -138.5l-6 -28q-117 -90 -202 -90t-133 56t-48 157.5zM672 926.5q0 101.5 92 217.5t250 206l119 -95v-51q-59 -43 -95.5 -102.5t-36.5 -132t60 -138.5l-6 -28q-117 -90 -202 -90t-133 56 t-48 157.5z" />
<glyph unicode="&#x201d;" horiz-adv-x="964" d="M211 807v51q59 41 95 100.5t36 133t-59 139.5l6 29q117 90 201.5 90t133 -56.5t48.5 -158t-92.5 -217t-249.5 -205.5zM645 807v51q59 41 95 100.5t36 133t-59 139.5l6 29q117 90 202 90t133 -56.5t48 -158t-92 -217t-250 -205.5z" />
<glyph unicode="&#x201e;" horiz-adv-x="892" d="M-74 -104q59 43 95 102t36 132t-59 138l6 29q117 90 202 90t133 -56.5t48 -157.5t-92 -217t-250 -206l-119 94v52zM354 -104q59 43 95 102t36 132t-59 138l6 29q117 90 202 90t133 -56.5t48 -157.5t-92 -217t-250 -206l-119 94v52z" />
<glyph unicode="&#x2022;" horiz-adv-x="675" d="M74 442q0 147 84 235.5t227 88.5q104 0 160.5 -57.5t56.5 -161.5q0 -146 -84 -235t-207 -89q-238 0 -237 219z" />
<glyph unicode="&#x2026;" horiz-adv-x="1390" d="M8 145q0 111 64.5 177.5t156.5 66.5q180 0 181 -166q0 -109 -65 -175t-169 -66q-168 0 -168 163zM467 145q0 111 64.5 177.5t156.5 66.5q180 0 180 -166q0 -109 -64.5 -175t-168.5 -66q-168 0 -168 163zM926 145q0 111 64.5 177.5t156.5 66.5q180 0 180 -166 q0 -109 -64.5 -175t-168.5 -66q-168 0 -168 163z" />
<glyph unicode="&#x202f;" horiz-adv-x="372" />
<glyph unicode="&#x2039;" horiz-adv-x="536" d="M14 449l6 55q197 190 353 360l119 -71l10 -48q-37 -51 -168 -270q49 -150 100 -268l-20 -47l-135 -74q-125 184 -265 363z" />
<glyph unicode="&#x203a;" horiz-adv-x="536" d="M35 205q72 104 166 270q-49 150 -101 268l21 48l135 73q98 -145 264 -362l-6 -56q-194 -190 -352 -360l-119 72z" />
<glyph unicode="&#x205f;" horiz-adv-x="465" />
<glyph unicode="&#x20ac;" horiz-adv-x="1103" d="M-23 340l35 137h123q0 43 6 82h-121l-14 12l35 138h137q129 342 574 342q113 0 370 -43l11 -33q-51 -143 -89 -336l-249 -14q16 88 16 116q0 92 -118 92.5t-158 -124.5l231 8l14 -17l-30 -139l-242 -2q-4 -49 -4 -82h2l231 8l15 -16l-29 -139l-211 -2q21 -125 125 -125 q66 0 98.5 39t57.5 147l249 17q-43 -186 -61 -338l-25 -25q-166 -59 -365.5 -59t-313 88t-138.5 256h-147z" />
<glyph unicode="&#x2122;" horiz-adv-x="1140" d="M8 1110q18 121 31 213l12 8l99 -8h251l105 8l8 -8l-20 -207l-115 -6q4 41 4 61.5t-2 28.5q-4 23 -27 23q-33 -256 -32 -277q0 -37 34 -37l39 2l4 -6l-16 -76q-123 4 -170 5l-174 -9l16 76q47 4 64.5 16.5t21.5 43.5l31 262q-18 0 -28.5 -21.5t-22.5 -85.5zM453 827l16 74 q39 2 51 49q59 238 60 281q0 14 -43 18l-9 6l19 72q88 -4 123 -4l137 4l14 -217h13q51 125 79 213q96 0 168 2t78 0l-16 -74q-31 0 -41 -6q-23 -18 -23 -282q0 -55 27 -56l24 2l7 -8l-17 -70q-51 2 -145 2.5t-113 -6.5l19 76q43 2 45 37l20 145h-12q-61 -145 -103 -254 l-118 -8q-39 250 -39 262h-10q-20 -150 -21 -157q0 -23 23 -23l20 2l8 -6l-20 -70q-94 2 -121 3z" />
<glyph unicode="&#xe000;" horiz-adv-x="1044" d="M0 0v1044h1044v-1044h-1044z" />
<glyph unicode="&#xfb01;" horiz-adv-x="1597" d="M-35 -16l35 161q61 8 86 38t35 102q69 529 69 549q0 45 -34 45l-41 -2l-21 24l33 137q254 -6 497.5 -6t381.5 21l22 -29q-43 -180 -67 -326l-259 -14q10 45 11 76q0 61 -95 61q-27 0 -37 -8t-14 -31l-35 -184l132 -2l174 8l20 -24l-47 -199q-115 4 -156 4t-155 -8 q-14 -94 -14.5 -119t9 -40t56.5 -15t86 14l27 -33l-46 -188q-197 4 -274 4q-162 0 -379 -16zM930 -6l28 147q68 14 90.5 39t28.5 90q70 547 70 565.5t-8.5 31t-42.5 12.5h-37q-6 8 -15 24l29 129h279l303 6l-31 -155q-55 -8 -72.5 -22.5t-27.5 -59.5q-21 -107 -54.5 -326 t-33.5 -259t9 -52t32 -12l49 4l10 -19l-33 -143q-215 6 -284 6z" />
<glyph unicode="&#xfb02;" horiz-adv-x="1921" d="M-35 -16l35 161q61 8 86 38t35 102q69 529 69 549q0 45 -34 45l-41 -2l-21 24l33 137q254 -6 497.5 -6t381.5 21l22 -29q-43 -180 -67 -326l-259 -14q10 45 11 76q0 61 -95 61q-27 0 -37 -8t-14 -31l-35 -184l132 -2l174 8l20 -24l-47 -199q-115 4 -156 4t-155 -8 q-14 -94 -14.5 -119t9 -40t56.5 -15t86 14l27 -33l-46 -188q-197 4 -274 4q-162 0 -379 -16zM922 -16l32 159q63 10 89 40t34 102q68 532 68 550.5t-8.5 31t-42.5 12.5h-41l-13 24l29 129h281l372 6l-41 -170q-86 -8 -120.5 -23.5t-38.5 -47.5q-82 -451 -82 -547 q0 -47 39 -47q78 0 111.5 52t60.5 214l239 23q16 -20 19 -27q-49 -215 -92 -447l-31 -28q-240 10 -406 10q-246 0 -458 -16z" />
</font>
</defs>
</svg>
