<?xml version="1.0" standalone="no"?>
<!DOCTYPE svg PUBLIC "-//W3C//DTD SVG 1.1//EN" "http://www.w3.org/Graphics/SVG/1.1/DTD/svg11.dtd" >
<svg xmlns="http://www.w3.org/2000/svg">
<metadata></metadata>
<defs>
<font id="averia_libreregular" horiz-adv-x="1049" >
<font-face units-per-em="2048" ascent="1638" descent="-410" />
<missing-glyph horiz-adv-x="561" />
<glyph horiz-adv-x="0" />
<glyph unicode="&#xd;" horiz-adv-x="2048" />
<glyph unicode=" "  horiz-adv-x="561" />
<glyph unicode="&#x09;" horiz-adv-x="561" />
<glyph unicode="&#xa0;" horiz-adv-x="561" />
<glyph unicode="!" horiz-adv-x="604" d="M175 99v22q0 50 25 80t62 30q20 5 25 5h35q102 0 102 -105v-30q0 -49 -26 -80.5t-69 -31.5q-8 -2 -12 -2l-18 -2h-17l-4 1h-9q-8 2 -23 2t-41.5 22t-26.5 64zM207 1190v106q0 78 24 111t89 33h24q43 0 64.5 -25t21.5 -89v-57l-1 -12l-4 -95l-2 -24q-1 -12 -1 -24l-2 -24 q-2 -24 -2 -37l-3 -36q-3 -38 -3 -49l-4 -50q-4 -50 -4 -61l-8 -110l-6 -72q-6 -72 -6 -84q0 -109 -22 -161q-14 -34 -57 -34h-12q-35 0 -50 28t-15 97l-2 24l-9 231v25l-2 36v25l-3 86v25l-2 49v36l-2 60v24z" />
<glyph unicode="&#x22;" horiz-adv-x="763" d="M122 1382v12q0 38 20 55.5t72 17.5h26q76 0 76 -66v-44l-1 -7l-5 -70l-1 -7l-4 -45q-11 -72 -11 -84q0 -93 -31 -155q-14 -27 -60 -27h-12q-35 0 -44 30t-9 92v68l-3 39v13zM451 1363v44q0 59 86 59h38q70 0 70 -71v-25l-1 -7v-12l-5 -64q-5 -30 -7 -53t-7 -59.5 t-5 -42.5q0 -77 -25 -132q-16 -36 -58 -36h-25q-30 0 -40 37.5t-10 216.5z" />
<glyph unicode="#" horiz-adv-x="1255" d="M107 462q0 41 34 61q14 8 76.5 20t81.5 32q45 48 45 175q0 48 -26 64q-7 4 -84 16t-77 51q0 44 24.5 61t96.5 29.5t99.5 41.5t54 139.5t43.5 141t62 30.5q61 0 61 -66q0 -30 -15.5 -124.5t-15.5 -116t15.5 -32.5t100 -11t103.5 19t44.5 132.5t47 155t75.5 41.5t54 -47 q0 -36 -8.5 -97.5t-8.5 -120t76 -79t76 -77.5q0 -48 -72 -62q-122 -23 -135 -43q-41 -60 -41 -184q0 -53 96 -64t96 -64q0 -42 -38 -61q-17 -8 -85.5 -19.5t-97 -48.5t-56.5 -150t-36 -125q-22 -33 -72 -33q-55 0 -55 64q0 31 16 127t16 118t-13 33.5t-97.5 11.5t-105 -18.5 t-48.5 -133.5t-42 -144q-28 -58 -83 -58t-55 69l17 185q0 68 -61 90q-83 30 -83 71zM470 548q0 -10 13 -10h109q108 0 119.5 19t23.5 83.5t13.5 72.5t4.5 22.5t10 40.5t7 36v14q0 12 -48 12h-58l-5 -1q-106 0 -121 -11q-33 -24 -33 -100l-8 -39l-4 -22l-1 -5l-2 -5 q-3 -20 -11.5 -51t-8.5 -42v-14z" />
<glyph unicode="$" horiz-adv-x="1119" d="M146 246q0 85 44.5 85t115 -72.5t122.5 -72.5t62.5 44.5t10.5 184.5t-45 198q-17 22 -70 55.5t-70 45.5q-76 57 -113.5 126.5t-37.5 176t75 195.5q45 53 141.5 103.5t98.5 51.5q24 21 44.5 71t49.5 50t48 -26q59 -81 94 -103q8 -5 71.5 -33.5t90.5 -53.5q57 -53 57 -139 q0 -58 -67 -58q-17 0 -77 49t-94.5 49t-50.5 -43t-16 -169.5t26 -162.5q10 -14 130 -86q118 -72 166 -146q48 -72 48 -190q0 -215 -213 -324q-10 -5 -74 -31.5t-77 -42t-27.5 -77t-53.5 -61.5t-60 59.5t-43.5 79t-112.5 53.5t-127 68q-66 61 -66 146zM332 1038 q0 -80 39 -125q70 -82 122 -82h8q18 0 18 210v81l1 17v16l2 26v31q0 32 -15 32h-9l-5 -1q-51 0 -118 -67q-43 -43 -43 -110v-28zM614 451l1 -7v-12l1 -12l1 -6l5 -74v-12l1 -7v-38q0 -133 15 -133l5 1h5q82 0 132 64.5t50 131.5v19q0 101 -64 174t-124 73h-5q-17 0 -17 -38 q-4 -24 -4 -36l-2 -31v-57z" />
<glyph unicode="%" horiz-adv-x="1621" d="M89 986v45q0 153 92 251.5t215 98.5h33q116 0 191 -86.5t75 -220.5v-45q0 -153 -92 -251.5t-215 -98.5h-33q-108 0 -186 78t-78 207zM232 1032l1 -7q0 -83 32.5 -147.5t90.5 -64.5h23q49 0 88 58.5t39 149.5v56q0 88 -36.5 143t-94.5 55h-6q-55 0 -94.5 -56.5 t-39.5 -131.5q-2 -14 -2 -20l-1 -28v-7zM332 42q0 18 30 72q326 591 678 1158q70 113 133 113t63 -34q0 -14 -30 -72q-205 -397 -687 -1173q-61 -98 -124 -98t-63 34zM902 342v33q2 22 2 33q0 113 86 205.5t209 92.5h22q125 0 199.5 -93.5t74.5 -227.5v-45 q0 -143 -85.5 -235.5t-208.5 -92.5h-33q-112 0 -189 89t-77 241zM1039 351q0 -94 32.5 -153t87.5 -59h18q57 0 99.5 61t42.5 134l2 14l1 21v42q0 98 -39.5 148.5t-84.5 50.5h-18q-67 0 -104 -74t-37 -171v-14z" />
<glyph unicode="&#x26;" horiz-adv-x="1411" d="M125 347v29q0 147 151 298q83 83 83 121q0 9 -38 105t-38 157q0 123 86.5 214t223.5 91h28q111 0 182 -77t71 -191q0 -27 -43.5 -201t-43.5 -225t49.5 -80.5t116.5 -29.5q17 0 40 28q88 107 181 107q41 0 41 -52q0 -10 -51 -129t-51 -186.5t67 -155t67 -96.5 q0 -28 -59 -28q-1 0 -56 8l-21 3q-44 7 -62 7t-144 -15t-217 -35t-167 -20q-171 0 -283 104q-49 45 -81 113t-32 136zM314 394l1 -8q0 -98 69 -173.5t175 -75.5h16q76 0 152 41t76 76v6l-186 242q-115 150 -126 150h-12q-39 0 -118 -106q-45 -60 -45 -119l-2 -16v-17z M478 1087q3 -18 3 -28q0 -46 47 -124.5t62 -78.5h4q53 0 111 105q41 74 41 120l3 31v6l-1 6q0 57 -33 106t-77 49h-26q-51 0 -92.5 -47.5t-41.5 -102.5v-42z" />
<glyph unicode="'" horiz-adv-x="452" d="M139 1378v7q0 74 76 74l13 2h32q76 0 76 -73v-19l-1 -6v-19l-1 -7v-13l-4 -45l-1 -6l-4 -46q-6 -38 -6 -45q0 -117 -39 -195q-15 -30 -58 -30h-19q-34 0 -41.5 31t-7.5 100v75l-2 26v13l-8 101z" />
<glyph unicode="(" horiz-adv-x="717" d="M140 559v65q0 126 30 280q63 323 242 521q89 99 146.5 99t57.5 -45q0 -5 -89 -153.5t-126 -268.5q-64 -208 -64 -459q0 -395 151 -647q107 -178 107 -196q0 -41 -60 -41t-145 97.5t-146 233.5q-104 232 -104 514z" />
<glyph unicode=")" horiz-adv-x="716" d="M109 -251q0 28 84.5 158t127.5 260q67 201 67 468t-62 453q-37 110 -116 242t-79 144q0 49 60 49t146 -102q164 -195 219 -480q29 -152 29 -296v-22q0 -310 -119 -576q-56 -124 -147.5 -229.5t-140.5 -105.5h-19q-50 0 -50 37z" />
<glyph unicode="*" horiz-adv-x="960" d="M193 1193q0 49 74 49q30 0 70.5 -19.5t72.5 -19.5q17 0 17 75q0 128 93 128q38 0 50.5 -23.5t12.5 -72.5t-4 -84l-6 -51q0 -17 4.5 -17t78.5 33t114 33q67 0 67 -61v-14q0 -58 -106 -96q-76 -27 -76 -52q0 -6 48.5 -56.5t48.5 -111.5q0 -44 -70 -44q-42 0 -78 21t-48 21 t-25 -11.5t-19 -14.5t-42 -27t-51 -24h-9q-22 0 -52 39.5t-60.5 49.5t-44 31.5t-13.5 70.5l6 24v27q0 20 8 40.5t8 21.5l-5 7q-24 21 -44 71.5t-20 56.5z" />
<glyph unicode="+" horiz-adv-x="1076" d="M100 575v17q0 58 36.5 68t172.5 10t143 11.5t7 150.5t12 171t69.5 32t66.5 -25t9 -175t8.5 -156t154 -6t171.5 -7.5t26 -37.5v-17q0 -65 -29 -77.5t-175 -12.5t-152.5 -12.5t-6.5 -161.5t-14 -173.5t-68 -24.5h-17q-43 0 -52 38q-5 21 -5 167.5t-6.5 154.5t-154.5 8 t-172 10.5t-24 47.5z" />
<glyph unicode="," horiz-adv-x="524" d="M126 -234q0 12 21 41q59 81 59 143q0 15 -32 68q-32 52 -32 110q0 114 118 115h15q62 0 90.5 -25.5t28.5 -92.5v-45q0 -109 -72.5 -233t-141.5 -124h-19q-35 0 -35 33v10z" />
<glyph unicode="-" horiz-adv-x="827" d="M111 538v23q0 67 31 77.5t286 10.5l196 3h37q58 0 58 -52v-22q-2 -14 -2 -22q0 -50 -37.5 -58.5t-278.5 -8.5h-45l-22 -1h-45l-30 -1h-104q-44 0 -44 51z" />
<glyph unicode="." horiz-adv-x="522" d="M131 97v32q0 44 23 76t67 32q14 3 17 3l22 2h14q12 -3 41.5 -3t52.5 -32.5t23 -78.5v-23l-1 -4v-9q-2 -8 -2 -13q0 -44 -31.5 -70t-90.5 -26h-14q-118 0 -118 93z" />
<glyph unicode="/" horiz-adv-x="825" d="M43 -99q0 16 57 169q329 886 506 1287q55 125 122 125t67 -42q0 -27 -52 -153l-41 -104q-17 -45 -20 -52l-63 -159l-27 -70q-21 -54 -40.5 -104.5t-28.5 -72.5l-14 -35q-7 -18 -31 -78t-125 -320t-129 -323q-49 -110 -115 -110t-66 42z" />
<glyph unicode="0" horiz-adv-x="1184" d="M106 616v63q0 150 40 280.5t99.5 209.5t149 126.5t178.5 47.5h59q87 0 172 -45q269 -142 269 -615l-1 -21q0 -304 -133 -495q-64 -91 -160 -139t-202 -48h-39q-90 0 -173 46q-170 93 -225 318q-34 136 -34 272zM308 595q0 -197 66 -335q66 -137 192 -138h14 q56 0 108 36.5t85 101.5q75 150 75 377v79q0 222 -66 354t-185 132h-13q-66 0 -120 -42.5t-83 -103.5q-73 -153 -73 -368v-93z" />
<glyph unicode="1" horiz-adv-x="849" d="M160 1113v11q0 37 81 87q188 115 251 115h16q50 0 66 -36t16 -147l-2 -58q-2 -39 -2 -40l-7 -323v-41l-2 -82v-110q0 -90 2 -108q9 -80 52.5 -148.5t43.5 -119t-55.5 -80.5t-141.5 -30h-19q-99 0 -173 49q-42 28 -42 75t46.5 109t60 117.5t13.5 310t-29 328.5 q-19 49 -76 65q-99 28 -99 56z" />
<glyph unicode="2" horiz-adv-x="1102" d="M132 114.5q0 76.5 98 199.5q59 74 203.5 206t220 232.5t75.5 199.5q0 221 -217 221q-86 0 -169 -72q-120 -104 -144 -104q-53 0 -53 86.5t122 171.5t282 85h32q77 0 151.5 -29t121.5 -79q91 -96 91 -246q0 -220 -222 -421q-68 -62 -141 -126t-122.5 -115.5t-49.5 -97.5 t172 -46q97 0 174 10l53 8l25 5q43 7 68 7q74 0 74 -73.5t-60.5 -102t-222.5 -28.5h-189l-31 1q-259 0 -300.5 15.5t-41.5 92z" />
<glyph unicode="3" horiz-adv-x="1089" d="M129 139.5q0 69.5 65 69.5q28 0 130.5 -40t198.5 -40t157 70t61 166.5t-76 166.5q-46 42 -94 57.5t-92 25t-65.5 26.5t-21.5 54q0 29 92 77q189 99 189 259q0 65 -45.5 104t-117.5 39t-166 -43t-126 -43q-47 0 -47 51q0 77 94 132q123 72 289 72q333 0 333 -265 q0 -122 -71.5 -230.5t-71.5 -109.5q0 -19 59.5 -59t111 -116.5t51.5 -172.5t-28 -171t-97.5 -137t-161.5 -94.5t-183 -32.5h-32q-129 0 -232 57.5t-103 127z" />
<glyph unicode="4" horiz-adv-x="1147" d="M93 437q0 93 476 728q122 162 195 162t91 -45q13 -32 13 -311t21.5 -352.5t61.5 -121.5q10 -12 38 -35.5t28 -40.5v-10q0 -63 -61.5 -122t-61.5 -80l5 -71q0 -171 -136 -171q-73 0 -107.5 46t-34.5 156q0 69 -63 104q-95 53 -228 53l-22 1q-22 1 -76 1t-86 19 q-53 31 -53 90zM258 479.5q0 -10.5 34 -10.5h48l8 1h84q173 0 193.5 11t20.5 62q2 18 2 26l3 54v19l4 72v28l9 171v17l4 69l2 42v23q0 11 -4 11t-101 -145.5t-202 -292.5t-105 -157.5z" />
<glyph unicode="5" horiz-adv-x="1096" d="M126 145.5q0 71.5 64 71.5q28 0 124.5 -44t193.5 -44t168.5 71.5t71.5 189.5q0 285 -366 285l-57 -2q-82 0 -115 32t-33 155t23.5 251.5t46 162.5t74.5 45t174 11t185 3l94 6q50 4 61 4q96 0 96 -56q0 -85 -84 -110q-40 -12 -210 -17t-202 -23t-58 -75t-26 -127t16 -83.5 t122 -13.5q329 0 440 -237q38 -82 38 -188q0 -201 -124 -321q-67 -65 -159 -99.5t-187 -34.5h-33q-135 0 -236.5 58t-101.5 129.5z" />
<glyph unicode="6" horiz-adv-x="1127" d="M109 536v54q0 166 45 310q90 288 325 396q113 51 215 51q197 0 197 -98q0 -69 -123 -80q-75 -6 -91 -9q-181 -29 -271 -175q-36 -59 -36 -113q0 -65 70 -65l190 14q169 0 276.5 -107.5t107.5 -282.5v-26q0 -85 -32 -164q-65 -157 -220 -222q-90 -38 -170 -38h-52 q-87 1 -172 39q-162 74 -221 260q-38 122 -38 256zM333 426q0 -140 69.5 -222t150.5 -82h27q92 0 162.5 76.5t70.5 188.5l2 19l1 30v10l-1 9q0 126 -63 195t-165 69l-9 -1q-105 0 -175 -64.5t-70 -161.5v-66z" />
<glyph unicode="7" horiz-adv-x="1043" d="M100 1190.5q0 75.5 50.5 110t174.5 34.5l24 -1h146q314 0 392 -21q61 -16 61 -76v-20q0 -66 -254 -655q-61 -142 -85.5 -214.5t-60 -187.5t-44.5 -135q-33 -75 -116 -75t-83 76.5t176 521.5q49 123 135 299.5t86 226t-48.5 65.5t-174.5 16t-215 -20t-96 -20 q-68 0 -68 75.5z" />
<glyph unicode="8" horiz-adv-x="1121" d="M96 327v44q0 151 144 291q60 59 60 64q0 6 -47 60q-104 121 -104 267.5t115.5 244t296.5 97.5h23q166 0 270 -90.5t104 -246.5q0 -119 -109 -245q-52 -60 -52 -71t31 -36q168 -135 168 -328v-22q0 -154 -115 -261q-61 -57 -148 -87.5t-165 -30.5h-70q-163 0 -277 96 q-67 56 -96 125t-29 129zM289 373q0 -106 67.5 -179.5t172.5 -73.5h36q103 0 170 67t67 157v36q0 100 -72 172q-102 102 -205 102h-33q-81 0 -154 -105q-48 -69 -48 -167zM346 1048q0 -87 73 -160t163 -73l7 1q75 0 131 77t56 163v8q0 83 -55 144t-146 61h-30 q-78 0 -138.5 -54.5t-60.5 -136.5v-30z" />
<glyph unicode="9" horiz-adv-x="1125" d="M107 889v26q0 206 128.5 323.5t332.5 117.5q104 0 187 -38q252 -117 252 -503v-55q0 -158 -40 -306q-79 -293 -309 -407q-126 -63 -243 -63h-22q-72 0 -119 25.5t-47 68.5t61 65q14 5 81.5 13t73.5 9q174 33 265 179q38 61 38 113q0 65 -71 65l-168 -13q-171 0 -282 101 q-60 54 -89 129.5t-29 149.5zM303 873q0 -113 63 -182t161 -69h9l9 1q101 0 174 61.5t73 172.5v38q0 145 -68.5 234t-173.5 89l-9 -1q-112 0 -175 -91t-63 -204v-49z" />
<glyph unicode=":" horiz-adv-x="548" d="M144 126v18q0 69 33 96.5t94 27.5h13q65 0 92 -27t27 -83v-26l-1 -5l-2 -21q0 -37 -26.5 -63.5t-66.5 -26.5q-8 -2 -13 -2l-18 -2h-18l-4 1h-9q-8 2 -13 2q-41 0 -64.5 28.5t-23.5 82.5zM148 822v4l2 22l3 21q0 40 33 63.5t87 23.5h14q71 0 96 -30t25 -91v-5 q0 -127 -104 -127l-26 -3h-14q-65 0 -90.5 30.5t-25.5 91.5z" />
<glyph unicode=";" horiz-adv-x="550" d="M143 -215q0 1 39 68t39 100t-31 79.5t-31 84.5l-2 13v21q0 52 32 78q33 26 77 26h29q59 0 84.5 -28t25.5 -95v-30l-1 -7v-15q-3 -21 -3 -29q0 -97 -76.5 -202.5t-134.5 -105.5h-13q-34 0 -34 38v4zM157 784v31q3 12 3 35.5t26.5 50t64.5 26.5q8 2 12 2l17 2h22 q106 0 106 -114v-22q0 -55 -25.5 -85.5t-68.5 -30.5q-8 -2 -13 -2l-17 -2h-22l-33 5q-69 0 -69 82z" />
<glyph unicode="&#x3c;" horiz-adv-x="1061" d="M102 585q0 52 85 107q623 402 686 402h15q26 0 26 -61t-91 -129q-59 -44 -281.5 -176t-222.5 -141q0 -3 241.5 -146t271.5 -164q86 -59 86 -110v-16q0 -60 -34 -60h-15q-9 0 -64 29q-353 187 -628 365q-75 48 -75 100z" />
<glyph unicode="=" horiz-adv-x="1106" d="M119 385v19l1 10q0 56 51 64q36 6 393 6l179 1h158q71 0 71 -52v-19q0 -64 -39 -71t-407 -7h-30l-20 -1h-89l-30 -1h-89l-29 -1h-39q-81 0 -81 52zM121 749l1 10q0 66 51 74q30 5 383 5l228 1h118q71 0 71 -51v-19l-1 -10q0 -56 -42 -63q-28 -5 -392 -5h-20l-20 -1h-109 l-39 -1h-167q-62 0 -62 60z" />
<glyph unicode="&#x3e;" horiz-adv-x="1056" d="M145 150.5q0 59.5 76 118.5q17 13 269 170.5t252 160t-231.5 140t-261.5 159.5q-103 75 -103 136.5t29 61.5h15q63 0 687 -395q77 -49 77 -88v-17q0 -50 -84 -104q-623 -402 -683 -402h-15q-27 0 -27 59.5z" />
<glyph unicode="?" horiz-adv-x="992" d="M127 1201v17q0 80 110 143.5t235 63.5h39q69 -1 145 -29q217 -81 217 -315q0 -118 -64 -219q-37 -59 -140 -155t-119.5 -119.5t-30.5 -99.5t-15 -77q-16 -25 -54 -25h-17q-77 0 -77 136q0 82 35 142.5t115.5 144t102.5 118.5q48 76 48 156.5t-54 121t-131 40.5 t-160.5 -59t-115.5 -59q-69 0 -69 74zM314 91v39q0 109 117 109h13q15 -3 26 -3q42 0 66.5 -29.5t24.5 -75.5v-30q0 -47 -28 -80.5t-71 -33.5l-21 -3h-22q-12 3 -30 3t-45 22.5t-27 60.5z" />
<glyph unicode="@" horiz-adv-x="1735" d="M106 533.5q0 165.5 64 317.5q137 324 454 429q131 44 282 44t272 -48q239 -96 337 -302q63 -133 63 -267.5t-33 -223.5q-66 -178 -206 -251q-77 -40 -143.5 -40t-136 24t-101.5 24l-39 -9l-43 -12q-61 -16 -91 -16q-239 0 -239 272q0 62 31 161q61 195 181 248 q45 20 115 20l38 -2l37 -4l36 3l35 5q83 0 109 -69q16 -43 23.5 -189t14.5 -178q20 -90 89 -90l33 10q46 23 78 94q32 70 33 166q0 213 -139 356q-139 142 -370 142q-136 0 -246 -56q-209 -107 -294 -323q-46 -116 -46 -260.5t54 -257.5q155 -327 582 -327q42 0 102 5l46 5 q63 7 96.5 7t33.5 -21q0 -53 -120.5 -90.5t-232.5 -37.5h-58q-142 0 -277 54q-277 110 -377 390q-47 132 -47 297.5zM648 455q0 -92 32 -138t82 -46h7q100 0 176 101.5t76 249.5q7 56 7 68v22q0 48 -28 76t-82 28h-14q-105 0 -180.5 -100.5t-75.5 -211.5v-49z" />
<glyph unicode="A" horiz-adv-x="1343" d="M103 166.5q0 53.5 36.5 107t53 96t146 422.5t174 474t78 119.5t82.5 25.5t89 -35t86 -134q1 -3 312 -880q17 -48 49 -100t32 -90v-20q0 -57 -48 -103q-26 -25 -95.5 -25t-98.5 37q-3 4 -38.5 136t-80 182.5t-173.5 50.5q-246 0 -292.5 -42.5t-89.5 -179.5 q-16 -50 -22 -96t-15 -59q-18 -27 -70.5 -27t-83.5 43.5t-31 97zM458 595q0 -24 103 -24h67l9 1l33 -1h17q152 0 152 29v6q0 10 -12.5 58.5t-14.5 57t-5 17t-29.5 122t-68.5 211.5t-48 98t-35 -72q-168 -420 -168 -497v-6z" />
<glyph unicode="B" horiz-adv-x="1261" d="M148 1325v15q0 33 47.5 46.5t174.5 13.5l24 1q24 1 47 1l48 2l121 2q223 0 337.5 -88.5t114.5 -244t-106 -258.5q-57 -55 -57 -59.5t24 -18.5l19 -10q93 -48 148 -128.5t55 -188.5v-25q-1 -99 -47 -177q-86 -145 -285 -189q-101 -22 -243 -22h-95l-24 1q-200 0 -251 13 q-49 13 -49 57q0 14 21 68t21 222v669q0 167 -22.5 229.5t-22.5 68.5zM409 300l1 -9l1 -37l2 -57q0 -52 133 -52h77q145 0 225.5 68.5t80.5 179.5v41q0 116 -83 181t-211 65h-94q-76 0 -101.5 -15t-25.5 -63q-4 -36 -4 -50v-24l-1 -28v-200zM411 884q0 -60 19 -73t78 -13h24 l8 1l32 1l49 4q98 0 176 78q57 57 57 159v19q0 107 -72 161t-195 54h-41q-104 0 -119 -28t-15 -229v-17l-1 -34v-83z" />
<glyph unicode="C" horiz-adv-x="1273" d="M103 651v33q0 144 42 284q82 272 319 385q126 59 294 59q271 0 348 -129q32 -54 32 -95q0 -87 -61 -87q-19 0 -86 46t-134.5 68.5t-152.5 22.5t-166 -47q-200 -117 -200 -501q0 -385 232 -495q72 -34 191 -34t290 99q46 27 77 27q41 0 41 -54q0 -29 -35 -77.5t-95 -83.5 q-141 -82 -324 -82h-32q-129 0 -243 49q-221 95 -301 359q-36 120 -36 253z" />
<glyph unicode="D" horiz-adv-x="1390" d="M154 1321v16q0 37 63 48q123 22 328 22h71q308 0 481 -173q87 -87 132 -219t45 -279l-1 -25q-1 -167 -53 -307q-103 -275 -378 -365q-117 -38 -296 -38h-46q-182 0 -282 18q-60 11 -60 48q0 23 23 75t27 112.5t4 410.5l-1 47v139l-4 182l-1 22q-1 22 -1 77.5t-25.5 118 t-25.5 70.5zM417 362l1 -16l1 -45l2 -61q0 -49 32 -70t128 -21l15 1q294 0 390 275q42 122 42 251v69q0 117 -32 219q-95 305 -388 305h-2h-44q-121 0 -136 -52q-8 -27 -8 -288v-349l-1 -63v-155z" />
<glyph unicode="E" horiz-adv-x="1180" d="M144 98v28l7 28l17 55q22 86 22 363l16 443q0 133 -5.5 163t-20 69t-14.5 75q0 87 479 87h220q163 0 163 -111q0 -36 -22 -54.5t-55.5 -18.5t-121 8.5t-193 8.5t-145.5 -51q-53 -68 -53 -240q0 -75 44.5 -105.5t163.5 -30.5l149 26q108 0 108 -98q0 -57 -25 -92 t-60.5 -35t-96.5 12t-99 12q-129 0 -166 -36t-37 -172t36.5 -202.5t144.5 -66.5q148 0 256.5 21t128.5 21q73 0 73 -56v-25q0 -84 -107 -106q-79 -16 -371 -16h-38q-239 0 -318.5 22t-79.5 74z" />
<glyph unicode="F" horiz-adv-x="1121" d="M158 162q0 19 19 69.5t25 85t6 160.5l3 151l4 271q0 254 -25 329t-25 81q0 48 77 60q255 40 619 40h30q140 0 140 -99v-22q0 -65 -68 -65q-4 0 -94.5 13.5t-213 13.5t-164.5 -48t-42 -226q0 -90 28 -132t128 -42q38 0 95 10.5t75 10.5q56 0 88 -37t32 -99q0 -81 -96 -81 l-46 4q-31 2 -74 2t-105 -24t-85 -57q-51 -73 -51 -285l6 -136q0 -35 -39 -58.5t-107 -23.5q-140 0 -140 134z" />
<glyph unicode="G" horiz-adv-x="1366" d="M108 667v40q0 143 44 277q87 269 336 378q124 54 262 54h39q185 0 282 -51t97 -141.5t-65 -90.5l-145 61q-96 40 -192 40q-192 0 -306.5 -138t-114.5 -387q0 -123 31 -228q90 -301 384 -301q102 0 163.5 60t61.5 151t-52 155t-52 67q0 36 102.5 36t164 -24.5t61.5 -69.5 v-24q0 -151 -20 -270.5t-40 -149.5q-32 -49 -123 -79q-150 -49 -260 -49h-35q-144 0 -262 55.5t-189 137t-121.5 211t-50.5 280.5z" />
<glyph unicode="H" horiz-adv-x="1435" d="M146 109q0 2 37 124q21 70 21 475l1 41q1 57 2 90t1 149.5t-7.5 154.5t-29 85t-21.5 74q0 85 139 85q72 0 114.5 -27.5t42.5 -65.5q0 -9 -10 -70t-10 -151q0 -187 52.5 -225.5t332.5 -38.5q147 0 174 55.5t27 256.5l-23 158q0 58 52.5 87t125 29t103 -25t30.5 -50v-33 l-8 -31l-13 -29l-12 -31q-17 -56 -17 -358l-2 -166q0 -28 -2 -83l-3 -84q-3 -126 -3 -180.5t7.5 -85t26 -74.5t18.5 -64q0 -54 -34.5 -73t-106 -19t-116.5 33.5t-45 65.5t8.5 73.5t14 79.5t5.5 182t-54 179q-38 25 -178 25q-275 0 -323 -54q-38 -43 -38 -252q0 -78 4 -111 l5 -32l6 -29q6 -34 6 -64.5t-39 -57.5t-116 -27q-145 0 -145 89z" />
<glyph unicode="I" horiz-adv-x="679" d="M146 85.5q0 30.5 34 95.5t45.5 147t11.5 394.5t-10.5 383t-45 123t-34.5 89t53.5 61.5t146.5 25h38q76 0 112 -26.5t36 -54.5v-14q0 -18 -26.5 -69t-36 -135t-9.5 -444.5t5 -401.5t34 -93t29 -84.5t-44.5 -54.5t-105.5 -22h-57q-77 0 -126.5 25t-49.5 55.5z" />
<glyph unicode="J" horiz-adv-x="889" d="M40 3v19q0 31 27.5 58.5t82.5 27.5l95 -7q59 0 107 52.5t76 131.5q52 148 52 466l-1 24q-1 24 -1 123.5t-19 177t-53 137.5t-34 96t53.5 68t153.5 32h22q59 0 103.5 -31.5t44.5 -83.5q0 -19 -8.5 -62t-19 -157.5t-10.5 -215.5l-2 -48q-1 -24 -1 -48l-2 -48l-3 -146 q0 -351 -97 -503q-54 -84 -141 -133.5t-180 -49.5h-22q-89 0 -156 34.5t-67 85.5z" />
<glyph unicode="K" horiz-adv-x="1322" d="M157 102q0 17 14 59.5t25.5 93t11.5 431.5t-10 446.5t-24 110.5t-14 72q0 76 132 76q63 0 112.5 -30t49.5 -84q0 -27 -7 -69l-8 -48q-3 -33 -3 -149.5t13 -145.5t48 -29t234 240q74 89 94 120.5t47.5 80.5t41.5 64q42 46 137 46t95 -57q0 -9 -200 -246.5t-200 -301.5 q0 -34 168 -278t241 -338.5t73 -113.5q0 -40 -84 -40h-34q-89 0 -147 59q-8 8 -123 189.5t-155 231.5q-85 107 -146 107q-48 0 -77.5 -88.5t-29.5 -223.5l14 -121q0 -70 -50.5 -106.5t-144.5 -36.5t-94 79z" />
<glyph unicode="L" horiz-adv-x="1114" d="M140 1314.5q0 38.5 37 64.5t95 26h24q76 0 125.5 -30t50.5 -86q0 -22 -14.5 -61.5t-26.5 -87.5t-12 -447t20 -450.5t67.5 -63.5t153.5 -12t156 16t101 37t76 21q68 0 68 -91v-23q0 -76 -56 -106q-39 -21 -160 -21h-203l-25 1h-26q-296 0 -370 16t-74 85q0 13 14 51.5 t21.5 77.5t7.5 149l3 152v322q0 232 -3.5 271.5t-26.5 95t-23 94z" />
<glyph unicode="M" horiz-adv-x="1748" d="M146 143q0 9 26.5 84t32.5 167q24 343 24 524t-10 253l-7 45q-10 60 -10 81.5t26.5 43.5t77.5 22q116 0 199 -110q59 -77 203.5 -390.5t174.5 -313.5l22 33l153 311q146 295 190 358q81 116 216 116q41 0 69 -18.5t28 -51.5l-4 -34l-6 -40q-5 -43 -5 -95v-105l1 -108 q0 -55 2 -163v-217q0 -227 20 -297l14 -38q20 -54 20 -71q0 -83 -124 -83q-71 0 -115 73q-23 39 -23 107l6 183q0 460 -38 559q-5 13 -21.5 13t-166 -346t-175.5 -386q-46 -71 -97 -71t-96 88q-28 56 -158.5 386.5t-160.5 330.5q-13 0 -21 -26q-50 -166 -50 -668 q0 -134 -30 -179.5t-108.5 -45.5t-78.5 79z" />
<glyph unicode="N" horiz-adv-x="1456" d="M144 92q0 38 25 100q40 100 40 485l1 43l3 87q2 87 2 214t-23 209.5t-23 83.5q0 48 72 48q143 0 271 -151t333.5 -461.5t225.5 -310.5q37 0 37 562q0 150 -10 208.5t-10 60.5q0 92 119 92q55 0 90 -36t35 -83t-24 -114.5t-32 -147.5t-8 -284l-1 -42q-1 -42 -1 -227.5 t-15 -307.5q-9 -77 -80 -77t-173 128q-31 39 -287.5 437t-304.5 398q-32 0 -32 -585q0 -64 8.5 -152.5t8.5 -94.5q0 -61 -47 -102.5t-112 -41.5q-88 0 -88 62z" />
<glyph unicode="O" horiz-adv-x="1432" d="M109 649v46q0 146 42 290q41 145 129 245q166 190 425 190h45q103 0 215 -48q225 -95 309 -363q40 -126 40 -258v-69q0 -140 -45 -282q-85 -269 -314 -370q-123 -55 -250 -55h-22q-259 0 -423 195q-68 82 -109.5 212t-41.5 267zM328 665q0 -224 85 -366 q50 -84 124.5 -128.5t137.5 -44.5h47q77 0 143 42q125 79 173 261q33 124 33 257v34v8q0 104 -25 212q-47 209 -174 290q-74 46 -152 46h-32q-68 0 -139 -40q-130 -73 -187 -262q-34 -113 -34 -258v-51z" />
<glyph unicode="P" horiz-adv-x="1211" d="M167 112.5q0 34.5 27 109t27 164.5l2 46q1 23 1 46l1 23q1 23 1 46l2 91v181l1 67v66l-2 43q-1 22 -1 43t-7.5 120t-16 134t-8.5 50q0 41 62 54q109 23 352 23h72q324 0 426 -234q32 -73 32 -160v-25q0 -77 -33 -158q-63 -155 -215 -222q-56 -25 -170 -51.5t-168 -61.5 q-105 -69 -105 -164l27 -172q0 -58 -47.5 -101.5t-121.5 -43.5h-20q-56 0 -87 26t-31 60.5zM436 750q0 -37 22.5 -55.5t82.5 -18.5h63q18 2 27 2q106 0 188.5 82.5t82.5 216.5v44q0 121 -77.5 192.5t-220.5 71.5h-27q-18 -2 -26 -2q-82 0 -100 -42q-13 -30 -13 -277l-1 -19 v-41l-1 -29v-125z" />
<glyph unicode="Q" horiz-adv-x="1466" d="M90 715v29q0 296 153 482q75 91 189 146.5t225 55.5h57q127 0 246 -52q239 -105 319 -378q30 -102 30 -280q0 -301 -104 -502q-74 -141 -74 -163q0 -45 93 -121.5t93 -92.5t-38 -40.5t-114 -24.5h-24q-113 0 -428.5 144t-392.5 215q-111 102 -170.5 259t-59.5 323z M320 673q0 -115 30.5 -220t74 -166.5t110.5 -100t138 -38.5h28q170 0 299 189q99 145 99 364v17q0 133 -30.5 238t-71.5 168t-113.5 107.5t-159.5 44.5h-34q-80 0 -150 -40q-131 -75 -185 -261q-35 -121 -35 -249v-53z" />
<glyph unicode="R" horiz-adv-x="1299" d="M151 148q0 25 23.5 77.5t29 97.5t5.5 206v284l-1 30q-1 30 -1 60l-3 118l-2 58q-1 29 -1 84.5t-10 112.5t-10 70q0 39 78 53t274 14h62q382 0 478 -231q25 -61 25 -150.5t-35 -161t-105.5 -146t-70.5 -124t86.5 -201t127.5 -195.5q80 -84 80 -117v-18q0 -47 -74 -47h-24 q-68 0 -125 60q-33 35 -140 213.5t-119 191.5q-63 70 -137 70t-112 -79q-19 -39 -19 -117t13 -145.5t13 -77.5q0 -59 -46.5 -86t-115.5 -27t-96 21q-48 37 -48 102zM416 826q0 -69 17 -88t76 -19h25q158 0 251 73t93 195v49q0 108 -70.5 172.5t-195.5 64.5h-35l-9 -1l-34 -2 q-18 -2 -25 -2q-85 0 -85 -81l-3 -26l-2 -37v-18l-1 -10v-46l-1 -28v-168z" />
<glyph unicode="S" horiz-adv-x="1143" d="M121 230.5q0 44.5 21 69t46 24.5t93.5 -57t137 -86t170.5 -29t166 54t64 153t-116 179q-32 22 -212 107.5t-238 146t-83.5 123t-25.5 149.5q0 158 133 262q119 95 357 95q146 0 245 -43q45 -20 75.5 -67.5t30.5 -88.5q0 -96 -63 -96q-18 0 -123 69t-210.5 69t-170 -49.5 t-64.5 -136.5t85 -155q46 -37 233 -121.5t255.5 -153t91 -131t22.5 -144.5t-35 -154q-70 -147 -249 -203q-85 -27 -174 -27h-7q-92 0 -203 23.5t-156 50t-70.5 75t-25.5 93z" />
<glyph unicode="T" horiz-adv-x="1187" d="M68 1273q0 102 87 116q122 19 575 19h278q77 0 109.5 -29t32.5 -90q0 -95 -58 -95q-22 0 -83 17t-121 17q-133 0 -157 -100q-20 -84 -20 -496l-3 -196v-100q0 -59 7.5 -89t23 -73t15.5 -68q0 -50 -42.5 -77t-118.5 -27h-25q-55 0 -98 27.5t-43 65.5t12 71l8 20l9 20 q9 21 21.5 65t12.5 162l1 28q1 28 1 56l2 57l3 226q0 284 -17 345q-22 79 -125 79q-60 0 -139.5 -26.5t-98.5 -26.5q-49 0 -49 102z" />
<glyph unicode="U" horiz-adv-x="1393" d="M128 1242q0 67 52 112q27 23 105 23q131 0 131 -106l-2 -24l-7 -53q-4 -46 -4 -130v-206q0 -434 39 -528q74 -178 273 -179q112 0 181.5 59.5t99.5 146.5q45 129 45 621q0 180 -7.5 247.5t-7.5 86.5q0 71 103 71h30q48 0 73 -32q43 -55 43 -100v-32q0 -22 -22.5 -86 t-26 -123.5t-3.5 -307.5v-26q0 -227 -17 -321q-18 -99 -80 -183q-125 -168 -447 -168q-418 0 -478 388q-15 97 -15 288.5t-4.5 297t-29 170.5t-24.5 94z" />
<glyph unicode="V" horiz-adv-x="1307" d="M64 1297q0 48 29.5 65t90 17t106.5 -25t62 -56.5t29 -92.5t35 -129l20 -57q4 -11 19 -58l49 -150q156 -502 185 -502t238 650q42 130 51 179.5t16.5 109t17.5 79.5q35 71 144 71q52 0 74.5 -16.5t22.5 -66t-63 -155.5q-18 -31 -178 -473.5t-204 -538t-73.5 -119 t-75 -23.5t-75.5 22.5t-74 120.5q-2 4 -167.5 471.5t-222 548t-56.5 128.5z" />
<glyph unicode="W" horiz-adv-x="1889" d="M130 1229v29q0 76 59 76t93.5 -26.5t66.5 -89.5q11 -22 124 -405.5t142 -383.5q34 0 103.5 260.5t84 382t19.5 137.5q31 91 122 91q112 0 152 -94q22 -52 43 -163t95 -358t94 -247q57 0 181 491q71 279 83 309q45 108 112.5 108t67.5 -93q0 -49 -39.5 -187t-110.5 -413 t-109.5 -376t-103.5 -150q-37 -28 -60 -28q-82 0 -140.5 101.5t-155 365.5t-105 264t-113.5 -269.5t-143 -335.5q-66 -115 -143 -115q-25 0 -54 21q-68 48 -106 151.5t-148.5 507.5t-110.5 439z" />
<glyph unicode="X" horiz-adv-x="1313" d="M108 78q0 31 67 105t129 167q202 303 202 349q0 68 -184 344q-74 111 -102 143q-96 109 -96 142q0 56 169 56q89 0 139 -51q17 -18 33.5 -75.5t56.5 -126.5q125 -218 154.5 -218t159.5 206q61 98 77 156.5t31 76.5q41 47 123.5 47t105 -15.5t22.5 -46.5t-64.5 -99.5 t-137.5 -178.5q-184 -276 -184 -324.5t184 -345.5q78 -126 148 -204t70 -110q0 -61 -165 -61q-94 0 -138 49q-14 16 -33.5 71.5t-63.5 131.5q-150 258 -174 258q-39 0 -178 -240q-59 -102 -76 -162t-28 -73q-35 -43 -141 -43t-106 72z" />
<glyph unicode="Y" horiz-adv-x="1239" d="M85 1326q0 51 130.5 51t169.5 -66q8 -14 20 -66.5t116 -259.5t126 -207q41 0 184 292q41 84 60 167t28 97q42 65 152 65t110 -54q0 -31 -58 -113t-121 -211q-192 -391 -197 -404q-72 -180 -72 -379q0 -30 14 -80.5t14 -64.5q0 -49 -40 -76t-113.5 -27t-108.5 25.5 t-35 81.5q0 18 19.5 69t32 94.5t12.5 156.5t-59 236q-9 18 -133.5 248.5t-154.5 270.5q-96 126 -96 154z" />
<glyph unicode="Z" horiz-adv-x="1220" d="M118 110.5q0 68.5 329.5 567t329.5 522t-34 36.5q-35 13 -166 13t-182.5 -12.5t-110.5 -31t-89 -18.5q-63 0 -63 103q0 69 78 100q48 19 265 19h215q247 0 337 -21q59 -14 59 -70q0 -100 -326 -573t-326 -524q0 -30 29 -45.5t194 -15.5t270 36.5t124 35.5q74 0 74 -68 q0 -55 -23 -89.5t-87 -54t-410 -19.5h-106q-279 0 -330 20.5t-51 89z" />
<glyph unicode="[" horiz-adv-x="740" d="M173 38v50l1 25l3 252v51l1 25v51l3 152q0 673 20 758t50.5 103t115.5 18l25 1q26 1 51 1l126 2q81 0 81 -39v-17q0 -49 -110 -73t-133 -91q-37 -108 -37 -695.5t18.5 -646t51.5 -81.5q4 -3 117 -34q78 -21 78 -64q0 -34 -21 -46t-89 -12h-177q-116 0 -141 40 q-34 54 -34 270z" />
<glyph unicode="\" horiz-adv-x="842" d="M53 1446.5q0 31.5 61 31.5h17q60 0 111.5 -121.5t177 -459t247 -655.5t121.5 -336v-16q0 -34 -61 -34h-17q-58 0 -109 116q-76 172 -483 1268q-65 175 -65 206.5z" />
<glyph unicode="]" horiz-adv-x="744" d="M99 -229q0 57 112 83.5t134 98.5q34 111 34 700.5t-18 646.5q-23 74 -110 93q-134 29 -134 81t94 52h201q98 0 124 -32q40 -49 40 -215v-125l-1 -26l-1 -50v-51l-3 -178v-77l-1 -25v-51l-2 -76q0 -733 -28 -819q-17 -53 -61.5 -63.5t-204.5 -10.5l-75 -1q-100 0 -100 45z " />
<glyph unicode="^" horiz-adv-x="1036" d="M126 795q0 77 297 513q45 66 100.5 66t96.5 -60q6 -8 261 -446q27 -46 27 -60v-11q0 -28 -58.5 -28t-108.5 63q-25 32 -121 189.5t-104 157.5q-2 0 -98.5 -154t-108.5 -170q-67 -88 -115 -88h-12q-56 0 -56 28z" />
<glyph unicode="_" horiz-adv-x="1080" d="M40 -149q0 62 50 69q40 6 467 6l359 3q76 0 96 -9t20 -47v-11q0 -60 -39 -68t-478 -8h-146l-22 -1h-157l-33 -1h-11q-106 0 -106 45v22z" />
<glyph unicode="`" horiz-adv-x="680" d="M121 1407v15q0 48 74 48h22q63 0 115 -59q175 -200 175 -257v-9q0 -31 -45 -31h-11q-50 0 -190 122.5t-140 170.5z" />
<glyph unicode="a" horiz-adv-x="1053" d="M80 258q0 252 319 314q207 41 214 44q49 25 49 90.5t-41.5 110t-113 44.5t-168.5 -48.5t-133 -48.5q-65 0 -65 89q0 56 102.5 106t233.5 50h50q98 0 174 -37t116 -100q57 -89 57 -407q0 -180 7.5 -224t34.5 -88.5t27 -74.5q0 -67 -135 -67q-24 0 -87.5 24.5t-80 24.5 t-108.5 -34.5t-162 -34.5h-23q-109 0 -188 71.5t-79 195.5zM289 267q0 -54 38.5 -97.5t109.5 -43.5h31q93 0 164 80q39 44 39 164l1 13v25q0 75 -62 75h-32l-52 -4l-27 -3q-92 0 -151 -51.5t-59 -122.5v-35z" />
<glyph unicode="b" horiz-adv-x="1123" d="M124 1361v19q0 66 89 66h20q88 0 112 -51.5t24 -208.5t10 -202t42 -45q23 0 95 18.5t144 18.5t147.5 -39.5t123.5 -112.5q91 -137 91 -325l-1 -24v-24q0 -95 -37 -184q-75 -179 -235 -240q-74 -28 -153 -28h-22q-58 0 -130 21t-110 21l-67 -8q-87 0 -106 82q-2 9 -2 152 v178l1 24v116l1 24v47l1 46v141l1 48v47l1 47v47q0 141 -4.5 180.5t-20 87t-15.5 61.5zM354 412q0 -165 43 -223.5t140 -58.5h30q100 0 169.5 95t69.5 262v68q0 144 -58.5 229.5t-144.5 85.5h-29q-101 0 -167 -82q-46 -58 -46 -168q-3 -30 -3 -41l-2 -20l-1 -21v-21l-1 -32 v-73z" />
<glyph unicode="c" horiz-adv-x="968" d="M85 463v23q0 118 35 214q67 184 245 263q85 37 209 37t203.5 -49.5t79.5 -120.5q0 -77 -78 -77q-23 0 -67 26t-50 29q-70 33 -141 33q-97 0 -160 -90.5t-63 -258t74.5 -253.5t193.5 -86q64 0 162.5 28.5t112.5 28.5q40 0 40 -44q0 -59 -113.5 -117.5t-232.5 -58.5h-22 q-96 0 -178 36q-161 71 -218 237q-32 94 -32 200z" />
<glyph unicode="d" horiz-adv-x="1137" d="M104 421v51q0 98 31.5 196.5t91.5 171.5q125 150 341 150q110 0 132 27q34 42 34 179q0 41 -9 84.5t-9 57.5q0 45 34 76t99 31h19q79 0 91 -71q9 -51 9 -561l-2 -120v-167l2 -92v-46l1 -22q1 -22 1 -79.5t16.5 -112t16.5 -76.5t-25 -43t-73.5 -21t-99 13.5t-69.5 13.5 t-103.5 -29t-147.5 -29h-22q-170 0 -264.5 115.5t-94.5 302.5zM296 452q0 -155 61.5 -239t151.5 -84h9q105 0 163 73t58 209q2 22 2 32l3 63v114l-2 31q-1 10 -1 20q0 88 -43.5 143t-143.5 55h-9l-10 -1q-104 0 -171.5 -98.5t-67.5 -271.5v-46z" />
<glyph unicode="e" horiz-adv-x="1024" d="M76 458v45q0 91 38 191q73 195 248 265q90 37 191 37h22q140 0 231 -85q52 -49 78.5 -117.5t26.5 -123.5q0 -121 -76 -158q-52 -25 -237.5 -47t-203.5 -27q-87 -22 -87 -78q0 -97 89 -162q65 -48 186 -48q46 0 149 29t113 29q52 0 52 -47q0 -59 -111.5 -116.5 t-229.5 -57.5h-44q-200 0 -321 135q-54 60 -84 152.5t-30 183.5zM298 605q0 -35 64 -35h23l6 1l75 5l50 4l34 4q9 1 24.5 3t21.5 2q68 0 96 21t28 48v42q0 72 -53 119t-116 47h-26q-91 0 -159 -76.5t-68 -167.5v-17z" />
<glyph unicode="f" horiz-adv-x="757" d="M114 905q0 8 76 133q15 25 50 136.5t81 171t115 91.5t134 32h50q74 0 116 -31t42 -53v-17q0 -71 -89 -71q-15 0 -32 2q-47 5 -77 5q-64 0 -103 -47t-39 -120t22 -100t101.5 -68t79.5 -78q0 -29 -81 -68q-59 -28 -86 -106q-46 -131 -46 -381q0 -69 21.5 -149t21.5 -100 q0 -48 -43 -81t-110.5 -33t-110.5 35t-43 95q0 14 17.5 70t23.5 90t6 146l-2 47l-1 49q0 176 -13.5 235.5t-47 97.5t-33.5 67z" />
<glyph unicode="g" horiz-adv-x="1116" d="M127 493v27q0 109 36 198q102 253 381 253q69 0 146 -27t121 -27l30 2q45 0 74.5 -35.5t29.5 -102.5v-51q0 -19 -15 -221.5t-15 -307.5l10 -231q0 -301 -254 -393q-83 -30 -189.5 -30t-192.5 39t-86 88q0 63 95 63q32 0 85.5 -9.5t91.5 -9.5q123 0 198 68.5t75 191.5 q0 50 -43 50q-7 0 -49 -6t-120 -6q-274 0 -371 267q-38 105 -38 210zM298 458q0 -142 50.5 -226t138.5 -84h35q110 0 165 91q41 68 41 203q2 20 2 31l2 52v52l-1 10l-1 30l-2 39q0 83 -42 129t-109 46h-26q-112 0 -182.5 -89.5t-70.5 -241.5v-42z" />
<glyph unicode="h" horiz-adv-x="1156" d="M129 101v27q0 16 10 55l15 55q18 85 18 348v379l5 223l1 31q1 31 1 59t-4 51l-5 21q-7 31 -7 37q0 47 56 47h26q102 0 128 -86q12 -38 16 -165.5t11.5 -192t42.5 -64.5q13 0 37 8l22 9q104 46 186 46q182 0 254 -150q50 -104 50 -408q0 -111 22 -188.5t22 -98.5 q0 -113 -126 -113q-57 0 -83.5 20t-26.5 68l1 22l2 23v53l-9 244q0 205 -44 277.5t-147 72.5q-55 0 -107.5 -34t-82.5 -102t-30 -365q0 -41 6.5 -102t6.5 -63q0 -55 -34.5 -89.5t-102.5 -34.5h-27q-103 0 -103 80z" />
<glyph unicode="i" horiz-adv-x="570" d="M128 895v20q0 58 120 58h36q73 0 89 -57q4 -15 4 -175v-227l2 -66l4 -77q0 -119 49 -202q20 -34 20 -75.5t-47 -66t-116 -24.5h-51q-42 0 -72 24t-30 52.5t17 82.5t17 96l2 25l2 52v41l1 27v325q-4 54 -17 91l-9 19q-21 52 -21 57zM161 1283v5l4 32q0 23 26 54t82 31h33 q43 0 74 -26t31 -76v-25q0 -41 -27 -73.5t-69 -32.5l-20 -3h-33q-12 3 -30 3t-42.5 24.5t-24.5 54.5q-2 8 -2 12z" />
<glyph unicode="j" horiz-adv-x="570" d="M-50 -328q0 57 114 90q76 22 103 107q41 128 41 439t-5.5 375.5t-27.5 132.5t-22 91q0 68 138 68q74 0 101 -62q18 -42 18 -226v-389l-1 -18v-38l-2 -111l-2 -76q0 -335 -208 -433q-64 -30 -128 -30h-33q-86 0 -86 65v15zM176 1255v13l1 5l2 21q0 40 37 70.5t82 30.5h31 q30 0 58 -23.5t28 -58.5q4 -16 4 -21v-31q0 -61 -35.5 -90.5t-89.5 -29.5h-24q-12 3 -28.5 3t-39.5 23t-23 61z" />
<glyph unicode="k" horiz-adv-x="1092" d="M131 1369v24q0 19 29 36t79 17h27q74 0 98 -60q18 -45 18 -205v-210l2 -126q0 -173 56 -173q25 0 160 142q37 39 71 82t62 62.5t84 19.5q114 0 114 -50q0 -10 -130.5 -160.5t-130.5 -213.5q0 -31 163.5 -258t163.5 -229q0 -43 -89 -43t-143 46q-7 6 -122.5 188 t-163.5 182q-35 0 -59 -52.5t-24 -130.5l4 -53q3 -40 3 -52q0 -119 -182 -119q-82 0 -82 103l3 24q18 148 18 277v162l1 34q1 34 1 68l2 68v68l2 135q0 219 -8 268.5t-17.5 85t-9.5 43.5z" />
<glyph unicode="l" horiz-adv-x="593" d="M141 1382q0 79 130 79h18q93 0 105 -77v-217l-2 -75v-37l-3 -114v-37l-1 -20v-38l-1 -19v-38l-1 -19v-94l3 -128q1 -18 1 -91t19.5 -155.5t49.5 -131t30 -82.5t-41.5 -60t-119.5 -26h-35q-141 0 -141 112q0 8 8 52t9 161l6 239l1 19v38l1 38v38l1 19v38l1 38v38l1 38v39 l1 38v188q0 114 -20 172t-20 75z" />
<glyph unicode="m" horiz-adv-x="1681" d="M127 177l6 34l10 33l9 34q14 62 14 157l3 280q0 175 1 180q9 40 69 40l190 -20q32 0 100.5 21.5t149.5 21.5t194 -64q45 -25 53 -25q37 0 127 49q91 49 173 49q186 0 253 -168q35 -87 40 -237l2 -84q2 -96 4.5 -137t21.5 -99.5t19 -95.5t-32 -66.5t-81 -29.5 q-82 0 -95 55q-3 11 -4.5 51.5t-2.5 54.5l-7 69q-28 330 -50 388q-42 117 -156 117q-92 0 -129 -80q-47 -101 -47 -375q0 -40 5 -76l6 -35q11 -58 11 -69q0 -53 -40.5 -90t-118.5 -37t-97.5 26t-19.5 51t10.5 77.5t12 74t1.5 208t-22 252.5q-31 92 -122 92q-68 0 -123 -49 t-75 -104q-40 -108 -40 -512q0 -86 -94 -86q-129 0 -129 124z" />
<glyph unicode="n" horiz-adv-x="1160" d="M118 108q0 38 20 94t23 113.5t3 176.5v187l2 52q2 52 2 74l-10 103q0 35 62.5 35t128.5 -34t81.5 -34t59 20t103 43.5t122.5 23.5h26q75 0 133.5 -40.5t85 -112t37.5 -262.5l3 -55l2 -55q3 -48 7 -104t27 -117.5t23 -82.5q0 -89 -136 -89q-58 0 -85 23.5t-27 79.5l2 37 q0 389 -56 530q-44 109 -155 109q-53 0 -103.5 -26.5t-78.5 -85.5q-50 -105 -50 -404l8 -181q0 -43 -41 -70t-101 -27h-3q-115 0 -115 79z" />
<glyph unicode="o" horiz-adv-x="1096" d="M93 458v51q0 94 29 188q57 186 226 266q87 42 178 42h50q86 0 170 -37q168 -74 226 -264q26 -84 26 -187v-33q0 -89 -29 -183q-59 -191 -232 -274q-100 -48 -198 -48h-34q-93 0 -173 38q-159 76 -211 252q-28 93 -28 189zM296 447q2 -24 2 -33q0 -114 63 -206t157 -92h20 q101 0 166 89t65 225l2 22l1 34v45q0 149 -60.5 245.5t-161.5 96.5h-20q-99 0 -166.5 -98t-67.5 -260v-68z" />
<glyph unicode="p" horiz-adv-x="1132" d="M116 -333q0 27 15 72.5t20 81t12 205t7 337.5v310q0 106 -17 162.5t-17 72.5q0 54 124 54q13 0 50 -7l30 -7q48 -8 67 -8t100 29t144 29h46q73 0 141 -39.5t109 -95.5q86 -119 86 -286v-50q0 -111 -38 -213q-105 -283 -429 -299q-92 -4 -139 -31t-47 -100q0 -26 14 -82 t14 -83q0 -60 -49.5 -98t-125.5 -38q-117 0 -117 84zM367 400q0 -149 29 -192q49 -73 152 -73h19q107 0 177 95.5t70 259.5v56q0 147 -58 234t-154 87h-9l-10 -1q-45 0 -96.5 -26t-85.5 -80t-34 -246v-114z" />
<glyph unicode="q" horiz-adv-x="1132" d="M101 497.5q0 223.5 114.5 361.5t308.5 138q63 0 159.5 -27.5t104.5 -27.5l82 7q98 0 98 -154l-2 -44q-2 -45 -2 -85v-401l1 -46v-93l2 -92v-45q0 -145 23 -211.5t23 -102t-27 -67.5t-79 -32h-40q-68 0 -101.5 33.5t-33.5 83.5q0 2 9 65t9 127t-30 94t-111 30l-57 -4 q-40 -2 -61 -2q-169 0 -279.5 135.5t-110.5 359zM302 473l1 -12q0 -165 61.5 -254.5t156.5 -89.5h20q48 0 99.5 29t79 77.5t27.5 241.5v53q0 204 -40.5 276.5t-137.5 72.5h-39h-3q-41 0 -89 -31q-136 -85 -136 -363z" />
<glyph unicode="r" horiz-adv-x="834" d="M129 98v16q0 7 19 66t22 114t3 148v111l-1 18v36l-2 54q-1 18 -1 70.5t-18.5 100t-18.5 61.5q0 60 105 60t152 -57q14 -17 29.5 -17t51.5 25q100 68 168 68h16q60 0 91.5 -27t31.5 -72q0 -89 -99 -89q-39 6 -82 6q-94 0 -146 -93.5t-52 -285.5q0 -85 7 -120.5t21.5 -88 t14.5 -91t-46 -70.5t-120 -32l-17 1h-18q-48 0 -79.5 27t-31.5 61z" />
<glyph unicode="s" horiz-adv-x="925" d="M106 153q0 87 54 87q16 0 117.5 -53.5t181 -53.5t125.5 34t46 92.5t-73 107.5q-30 20 -165 74.5t-189 102.5q-86 76 -86 196.5t103 197t262 76.5t232 -38.5t73 -100.5q0 -85 -55 -85q-19 0 -101 41t-159 41t-115.5 -35t-38.5 -90t74 -98q25 -15 162.5 -69.5t193.5 -103.5 q87 -77 87 -200t-102.5 -206.5t-264.5 -83.5q-275 0 -341 107q-21 34 -21 60z" />
<glyph unicode="t" horiz-adv-x="761" d="M90 921v13q0 26 47 57t54.5 44.5t30 97t47 117t66 33.5t59 -24t35 -99t38.5 -101.5t102 -55.5t81 -72q0 -38 -84.5 -68t-106.5 -74q-42 -85 -42 -301t37 -264.5t120.5 -59.5t83.5 -63q0 -40 -47.5 -68.5t-107.5 -28.5h-38q-144 0 -207 124q-52 101 -52 332t-25 317 q-9 32 -50 73t-41 71z" />
<glyph unicode="u" horiz-adv-x="1146" d="M106 899v22q0 55 104 55h24q83 0 107 -79q13 -43 13 -311t20 -324q42 -118 150 -118q132 0 191 102.5t59 348.5l2 54v53q0 54 -7.5 110t-7.5 62q0 47 33 66.5t97 19.5t82 -48q12 -32 12 -317.5t31 -413.5q14 -55 14 -57v-19q0 -26 -30.5 -48t-86.5 -22t-108 24.5 t-63.5 24.5t-105.5 -36t-167 -36h-26q-80 0 -145 36.5t-101 104.5q-53 101 -53 429q0 191 -13 236q-1 4 -13 36t-12 45z" />
<glyph unicode="v" horiz-adv-x="1043" d="M62 909q0 42 20 59q21 17 94 17q117 0 155 -85q9 -21 22 -91t86.5 -314t99.5 -244q31 0 117 271t94 331.5t12 70.5q23 62 111 62h20q51 0 69.5 -15.5t18.5 -56.5v-17q0 -26 -60 -129q-13 -22 -113.5 -292.5t-145 -354.5t-75 -102.5t-80.5 -18.5q-73 0 -134.5 130 t-138 353.5t-124.5 303.5t-48 122z" />
<glyph unicode="w" horiz-adv-x="1529" d="M105 867q0 91 67 91q92 0 131 -79q1 -2 76 -285.5t122 -283.5q37 0 102 254q19 73 33 188.5t19 127.5q30 73 121 73t128 -91q15 -37 27 -121t41 -193q62 -235 97 -235q40 0 114 255q23 78 47.5 189t36.5 138q29 64 94.5 64t65.5 -85q0 -32 -36.5 -149.5t-95.5 -319.5 t-80 -247t-60 -75.5t-72 -30.5q-59 0 -100.5 62t-129 257.5t-99.5 195.5q-1 0 -80 -182t-109 -232q-59 -98 -120 -98q-35 0 -75.5 30t-63 87.5t-71 228.5t-89.5 293.5t-41 172.5z" />
<glyph unicode="x" d="M91 52q0 4 144.5 209.5t144.5 237.5t-129 217q-36 52 -95.5 118.5t-59.5 91.5q0 57 143 57q104 0 146 -52q8 -10 20 -42.5t44 -91.5q70 -128 100 -128q24 0 105 132q32 52 48.5 97t22.5 53q30 39 94 39q121 0 121 -43q0 -25 -139 -202t-139 -228.5t148 -247.5 q49 -65 103.5 -118t54.5 -83q0 -56 -166 -57q-83 0 -120 47q-7 9 -23.5 47t-39.5 78q-90 155 -114 155q-30 0 -116 -143q-25 -42 -44.5 -95.5t-23.5 -59.5q-32 -44 -121 -44h-25q-84 0 -84 56z" />
<glyph unicode="y" horiz-adv-x="1058" d="M94 870q0 48 35 68t107 20t103 -71q4 -8 26 -120t85 -299t97 -187q8 0 28 26q50 66 108.5 242.5t67.5 313.5q4 59 14 76q27 45 93 45h26q91 0 91 -71q0 -43 -35.5 -132t-53.5 -148q-165 -554 -241 -708.5t-166.5 -240t-184.5 -85.5t-94 60q0 42 86.5 76t122.5 76 q70 81 70 184q0 57 -80 193.5t-123 231.5q-182 402 -182 450z" />
<glyph unicode="z" horiz-adv-x="981" d="M101 57v21q0 59 238 389t238 360t-149 30q-74 0 -154 -21t-100 -21q-59 0 -59 67t28.5 94.5t115.5 27.5l25 -1l288 -2l128 -3q109 0 136 -15.5t27 -50.5q0 -64 -235 -393t-235 -357q0 -38 116 -38t188 20l133 37q57 0 57 -74v-22q0 -101 -191 -101h-77l-26 1h-131 q-286 0 -308 4q-53 9 -53 48z" />
<glyph unicode="{" horiz-adv-x="748" d="M98 631.5q0 40.5 63 77t86 83.5t23 161l-1 25q-1 25 -1 50l-2 50l-1 74q0 186 67 275q83 111 247 111h24q56 0 56 -38q0 -44 -73.5 -92t-100.5 -101t-27 -190l4 -146q0 -127 -24.5 -190.5t-70 -105.5t-45.5 -46t23 -23t47.5 -45.5t41.5 -79.5t17 -193l-5 -172 q0 -128 42 -196q18 -29 87.5 -74t69.5 -88q0 -40 -75 -40q-170 0 -251 103q-64 82 -64 298l9 223q0 105 -27 145t-83 72t-56 72.5z" />
<glyph unicode="|" horiz-adv-x="563" d="M196 -99l1 19v99l1 59v79l1 40v98l1 40v99l1 40v59l1 40v59q0 702 7 785.5t25 97t65 13.5t59.5 -24.5t12.5 -86.5v-96l-1 -20v-97l-1 -20v-117l-1 -39v-99l-1 -39v-139l-1 -40v-99q0 -718 -9 -826q-6 -74 -71 -74h-19q-46 0 -58.5 24t-12.5 125v40z" />
<glyph unicode="}" horiz-adv-x="753" d="M100 -234q0 33 73 79t94 83q38 67 38 247l-2 123q0 125 20 178t51 88l62 71q0 1 -24 21q-66 55 -88 110t-22 167l9 221q0 112 -35 175q-21 37 -89.5 81.5t-68.5 78.5q0 49 65 49h24q69 0 130.5 -28t96.5 -71q65 -81 65 -272l-11 -269q0 -84 28 -122t85.5 -70.5t57.5 -72 t-63 -78.5t-84 -84.5t-21 -190.5l3 -149q0 -210 -66 -300q-84 -115 -243 -115h-24q-61 0 -61 33v17z" />
<glyph unicode="~" horiz-adv-x="1085" d="M114 649q0 71 72 138t156 67h32q52 0 184 -60t175 -60t113.5 48.5t87.5 48.5q44 0 44 -50q0 -80 -76.5 -142.5t-163.5 -62.5h-10q-59 0 -200 60.5t-175 60.5t-110 -49t-85 -49q-44 0 -44 50z" />
<glyph unicode="&#xa1;" horiz-adv-x="619" d="M177 1082v15l1 3v7q2 8 2 11q0 54 63 54l23 3h25q56 0 95.5 -33t39.5 -94v-15q0 -79 -59 -79q-9 -3 -11 -3l-19 -2h-24q-15 3 -21 3q-50 0 -80 36t-30 63zM214 -31l1 11l1 47v24l1 12v23l12 279l2 36q3 36 6 84t3 82l2 24l4 82q0 106 55 106h9q47 0 47 -99l2 -46 q4 -48 5 -71.5t2 -41.5l2 -36t1 -30l2 -24l2 -48l1 -12l3 -72q1 -12 1 -24l10 -264v-23l1 -47v-68q-2 -22 -2 -33q0 -81 -86 -81h-28q-34 0 -46.5 23.5t-12.5 94.5v92z" />
<glyph unicode="&#xa2;" horiz-adv-x="1053" d="M139 532v52q0 173 86 297q46 67 99 98.5t102 52.5t70.5 41.5t49.5 85t55 64.5h11q12 0 143.5 -154t131.5 -177q0 -73 -57 -73q-17 0 -61 33.5t-73 33.5q-45 0 -56 -67q-29 -170 -29 -449q0 -138 80 -138q24 0 84 19t91 19t31 -31q0 -52 -130 -129q-88 -52 -152.5 -130.5 t-84 -78.5t-34.5 29q-61 117 -101 143q-119 77 -173 161q-83 129 -83 298zM325 531q0 -88 55.5 -198.5t110.5 -110.5h6q8 0 8 110v123l1 8v17l1 8v18l6 114q3 27 4 44.5t2 29.5t1 21l25 186q0 37 -19 37q-71 0 -135 -104t-64 -206l-2 -20v-77z" />
<glyph unicode="&#xa3;" horiz-adv-x="1145" d="M128 68q0 39 52 107.5t74 125t22 135.5t-17 114.5t-67 68.5t-50 70t39.5 70.5t51.5 70t25 137t31 161.5q18 60 72 128q114 142 341 143q111 0 196 -43t85 -119t-56 -76q-23 0 -97.5 29t-143.5 29q-100 0 -158 -87q-42 -63 -42 -201q0 -79 55 -119q30 -22 132.5 -42 t102.5 -63q0 -54 -86 -82q-115 -37 -149 -86q-77 -109 -77 -259q0 -62 44 -84.5t117.5 -22.5t166.5 13l150 21q34 0 55.5 -23t21.5 -65q0 -130 -252 -130h-34l-372 17l-124 -3q-109 0 -109 65z" />
<glyph unicode="&#xa4;" horiz-adv-x="1171" d="M133 294q0 17 50.5 75t50.5 97q0 9 -23 73.5t-23 140.5t9.5 107.5t25 71.5t15.5 62.5t-50.5 80.5t-50.5 75.5t27 47.5t46.5 30t71 -46t86.5 -46q10 0 52 14l38 14q65 20 129.5 20t143 -23.5t97 -23.5t68.5 45t72.5 45t49 -27.5t26.5 -46.5t-53.5 -76.5t-53.5 -94.5 q0 -2 19 -69.5t19 -132.5t-28.5 -150.5t-28.5 -92.5q0 -25 55 -83.5t55 -75t-23 -43t-54 -26.5q-7 0 -64.5 48t-80.5 48t-68 -16t-76.5 -24.5t-90.5 -8.5t-131 19t-89.5 19t-69.5 -48.5t-73.5 -48.5t-48 26.5t-26.5 43.5zM335 683q0 -109 70 -185.5t169 -76.5h18 q97 0 170 79.5t73 181.5v47q0 99 -69 180.5t-173 81.5h-17q-97 0 -169 -78.5t-72 -192.5v-37z" />
<glyph unicode="&#xa5;" horiz-adv-x="1231" d="M110 1289q0 84 138 84q103 0 144 -50q18 -22 30 -88t64 -171q143 -286 157 -286l19 10q61 61 174 331q22 52 30 96l4 29l2 27q4 34 12 49q29 54 111 54t105.5 -24.5t23.5 -45.5q0 -2 -126.5 -214t-126.5 -285q0 -36 35 -93t35 -66q0 -36 -74.5 -69.5t-74.5 -66.5 q0 -38 80 -64t80 -65q0 -12 -110 -86q-70 -47 -70 -106l4 -22q10 -45 10 -50q0 -116 -142 -116h-37q-72 0 -117 33.5t-45 66t7 62.5t7 36q0 56 -85.5 113.5t-85.5 73.5q0 36 77.5 65t77.5 66q0 29 -73.5 66t-73.5 75q0 14 30 58t30 93t-96 225q-33 61 -91.5 142t-58.5 113z " />
<glyph unicode="&#xa6;" horiz-adv-x="546" d="M189 -200v579q0 57 12 73.5t57 16.5h35q36 0 46 -21.5t10 -98.5v-191l-1 -9v-217l1 -37v-72q0 -74 -12.5 -91t-65.5 -17t-67.5 11.5t-14.5 73.5zM189 849v559q0 54 11 73t55 19h44q50 0 50 -89v-550q0 -80 -14 -95.5t-71 -15.5h-17q-37 0 -47.5 18t-10.5 81z" />
<glyph unicode="&#xa7;" horiz-adv-x="1048" d="M164 618v29q0 74 45.5 141t45.5 75.5t-38 83t-38 147.5q0 120 95.5 202.5t250.5 82.5h31q98 0 175 -44t77 -115t-71 -71q-11 0 -37 17l-18 14q-73 59 -147.5 59t-114.5 -33t-40 -88.5t68 -114.5q27 -23 176 -101.5t211.5 -152.5t62.5 -168t-48 -177t-48 -90.5t25 -76 t25 -129.5q0 -122 -99 -207.5t-249 -85.5h-32q-141 0 -224 56t-83 127.5t54 71.5q24 0 108 -56.5t166 -56.5t122 40t40 97t-68 112q-18 14 -154.5 91.5t-189.5 134.5q-79 85 -79 186zM325 700q0 -70 88 -142q35 -29 138.5 -84.5t112.5 -55.5h5q18 0 29 16q30 45 30 93v22 q0 57 -64 127q-175 192 -232 192l-9 2h-5q-22 0 -57.5 -44t-35.5 -97v-29z" />
<glyph unicode="&#xa8;" horiz-adv-x="858" d="M105 1265v20l4 26q0 28 23 51t52 23l27 4h27l26 -4q26 0 47 -26t21 -70v-23l-1 -4l-2 -33q0 -17 -25.5 -42.5t-81.5 -25.5h-15q-51 0 -75 24t-24 57zM502 1255v35q3 12 3 30.5t25.5 44t82.5 25.5h11q104 0 104 -94v-36q-3 -9 -3 -28.5t-22.5 -42t-47.5 -22.5 q-14 -4 -15 -4l-23 -2h-15q-100 0 -100 94z" />
<glyph unicode="&#xa9;" horiz-adv-x="1546" d="M90 675v45q0 117 44 243t133.5 221.5t220 151t271.5 55.5h22q125 0 245 -45q246 -93 351 -333q59 -135 59 -272v-45q0 -116 -45 -244.5t-133.5 -219.5t-212.5 -148.5t-278 -57.5h-23q-126 0 -246 45q-245 92 -350 332q-58 133 -58 272zM216 675q0 -100 40 -202 q81 -205 263 -288q117 -53 226 -53h37q111 0 207 44q190 86 266 278q46 117 46 249l-1 19v19q0 108 -45 219q-84 207 -274 284q-101 41 -207 41h-19q-103 0 -205.5 -40.5t-174.5 -115.5q-159 -166 -159 -397v-57zM420 686v39q0 171 98 281t250 110h18q245 0 245 -161 q0 -45 -44 -45q-16 0 -87 45.5t-136 45.5q-190 0 -190 -319q0 -127 60.5 -196t136.5 -69t144.5 35.5t95.5 35.5t27 -27v-13q0 -57 -80.5 -103t-171.5 -46h-36q-60 0 -124 26t-110 78q-96 109 -96 283z" />
<glyph unicode="&#xaa;" horiz-adv-x="820" d="M95 902v16q0 87 85 146q40 28 149 52.5t115 28.5q26 17 26 59t-27.5 69.5t-70.5 27.5t-99 -33t-89 -33q-50 0 -50 50.5t54 78.5q89 46 181 46h34q151 0 212 -97q36 -56 36 -277q0 -106 5 -131.5t25 -60t20 -41.5v-12q0 -53 -110 -53q-27 0 -66 20.5t-52 20.5l-74 -30 q-52 -21 -104 -21h-15q-84 0 -134.5 50.5t-50.5 123.5zM250 905q3 -12 3 -18q0 -50 78 -50h30q49 0 95 46q27 27 27 110v24q0 43 -36 43h-22l-3 -1l-26 -3q-4 -1 -7 -1l-15 -3q-32 0 -76.5 -37.5t-44.5 -72.5l-3 -25v-12z" />
<glyph unicode="&#xab;" horiz-adv-x="1095" d="M85 549q0 38 194 232t225 194q54 0 54 -52q0 -38 -138.5 -202.5t-138.5 -168.5t139 -169.5t139 -202.5q0 -53 -55 -53q-45 0 -232 198t-187 224zM492 544v10q0 35 188 223t222.5 188t47.5 -36q7 -20 -12 -56t-134.5 -175t-115.5 -145.5t65 -84.5l16 -18q21 -24 23 -26 l30 -37l8 -9q123 -148 123 -184q0 -55 -50 -55h-10q-29 0 -215 186t-186 219z" />
<glyph unicode="&#xac;" horiz-adv-x="1156" d="M111 649v27q0 56 23 63.5t358 7.5h457q44 0 64 -21t20 -79v-82l-1 -14v-28l-1 -42q0 -158 -3 -177q-4 -28 -42 -28h-26q-83 0 -83 143.5t-52 165.5q-24 10 -331.5 10t-331.5 4q-51 9 -51 50z" />
<glyph unicode="&#xad;" horiz-adv-x="854" d="M116 538v30q0 70 37 79q22 5 283 5l169 2h84q50 0 50 -53v-15q0 -78 -37 -87q-22 -5 -283 -5h-69l-23 -1h-85l-23 -1h-45q-58 0 -58 46z" />
<glyph unicode="&#xae;" horiz-adv-x="1469" d="M94 821l1 21v21q0 109 50 233q93 229 307 318q125 52 230 52h42q129 0 248 -51.5t200 -138.5t122 -204t41 -218v-42q0 -126 -46.5 -240.5t-126 -199.5t-201 -134.5t-250.5 -49.5h-21q-130 0 -247 54q-230 105 -310 340q-39 114 -39 239zM200 815l1 -17q1 -94 37 -188 q74 -192 259 -272q99 -43 211 -43h17q103 1 197 41q175 76 246 240q48 111 48 207v52q0 99 -40 201q-78 202 -271 282q-91 38 -198 38h-35q-85 0 -177.5 -37t-159 -109.5t-101 -170t-34.5 -189.5v-35zM431 534q0 8 16 46t16 96v107l1 50v115l-1 32v60q0 55 -9 88.5t-9 34.5 q0 40 179 40h83q130 0 192 -53.5t62 -132t-44 -137.5q-11 -15 -41.5 -42.5t-30.5 -45t44 -97t76.5 -117.5t32.5 -69t-59 -31t-93 41q-12 15 -70 126.5t-107 111.5q-63 0 -63 -89q0 -27 9.5 -78t9.5 -53q0 -61 -91 -61h-15q-88 0 -88 58zM604 917q0 -65 52 -65h26 q60 0 105 26t45 71l3 24v15q-3 15 -3 24q0 40 -34.5 69t-63.5 29l-10 2l-42 3h-31q-47 0 -47 -35v-31l1 -4v-114z" />
<glyph unicode="&#xaf;" horiz-adv-x="847" d="M101 1224v30q0 70 55 70h552q45 0 45 -43v-23q0 -45 -14 -57.5t-64 -12.5h-529q-45 0 -45 36z" />
<glyph unicode="&#xb0;" horiz-adv-x="792" d="M114 1123v37q0 107 83 183.5t186 76.5h28q102 0 182.5 -74t80.5 -188v-19q0 -109 -80 -189t-191 -80h-28q-94 0 -177.5 70.5t-83.5 182.5zM240 1124q2 -12 2 -16q0 -48 42 -90t84 -42l10 -2h22q54 0 99 45t45 113v29q0 62 -41 108.5t-102 46.5h-16q-48 0 -95.5 -41.5 t-47.5 -100.5l-2 -11v-39z" />
<glyph unicode="&#xb1;" horiz-adv-x="1123" d="M122 706v17q0 60 34 72q20 7 163 7t153 13t10 144.5t10.5 154.5t61.5 23h17q47 0 55.5 -24.5t8.5 -155.5t11.5 -142.5t158 -11.5t162.5 -5q29 -9 29 -63.5t-27.5 -66t-168 -11.5t-153 -12.5t-12.5 -142.5t-10 -152t-68 -22t-66.5 24t-8.5 152t-17 144q-7 7 -146 7t-158 4 q-39 8 -39 47zM125 127v10q0 70 30.5 77t296.5 7h262l10 -1l140 1h50q80 0 80 -55v-10q0 -67 -29 -75.5t-319 -8.5h-231q-235 0 -262.5 5t-27.5 50z" />
<glyph unicode="&#xb2;" horiz-adv-x="812" d="M125 724v16q0 68 144 201.5t179 184.5q35 52 35 108q0 107 -108 107h-2q-43 0 -106.5 -47.5t-93.5 -47.5q-41 0 -41 61.5t79.5 109t172.5 47.5h20q117 0 180.5 -61t63.5 -173q0 -68 -49.5 -133t-159.5 -160t-110 -116.5t79 -21.5t134 12.5t77 12.5q46 0 46 -50v-16 q0 -52 -39 -69.5t-142 -17.5h-227q-132 0 -132 53z" />
<glyph unicode="&#xb3;" horiz-adv-x="810" d="M128 771v14q0 41 55 41q8 0 79 -27t124 -27t82 36t29 88q0 101 -135 126q-73 14 -73 60q0 8 83 60q84 52 84 103q0 94 -96 94q-41 0 -100.5 -23.5t-69.5 -23.5q-42 0 -42 46.5t74.5 85t178.5 38.5q218 0 218 -175q0 -80 -74 -154q-27 -27 -27 -37l40 -26 q106 -68 106 -172v-19q0 -94 -81.5 -161t-208.5 -67h-19q-89 0 -158 38t-69 82z" />
<glyph unicode="&#xb4;" horiz-adv-x="704" d="M182 1159v5q0 42 169 259q45 58 114 58h28q77 0 77 -42v-15q0 -65 -210 -228q-84 -65 -126 -65h-6q-46 0 -46 28z" />
<glyph unicode="&#xb5;" horiz-adv-x="1185" d="M146 851v29q0 106 114 106q64 0 94 -63q20 -42 20 -209l-1 -33q-1 -34 -1 -67l-2 -67l-1 -67q0 -192 35 -258q46 -87 147 -87q65 0 122 32.5t90 93t33 242.5l1 33q1 33 1 66l1 97q0 166 16 203q22 52 88.5 52t88.5 -64q12 -35 12 -202t28.5 -342.5t28.5 -176.5v-24 q0 -57 -28 -87t-74.5 -30t-98 21t-83 21t-109.5 -24.5t-169.5 -33t-114 -26t-29.5 -137.5t-24 -159q-25 -57 -85 -57t-75.5 73t-15.5 373l6 430v163q0 34 -6 93z" />
<glyph unicode="&#xb6;" horiz-adv-x="1195" d="M121 1002q0 326 305 390q96 20 265 20h37q194 0 253 -12.5t59 -63.5q0 -5 -16 -67.5t-28 -119.5t-12 -220l-1 -37q-1 -36 -1 -73l-1 -110v-408l1 -74q0 -60 2 -107l2 -35l3 -35q3 -42 3 -70q0 -81 -58 -81q-66 0 -82 113.5t-16 528t-21 559.5q-7 50 -48 50q-77 0 -85 -45 q-3 -17 -3 -398t-15 -533t-27 -184q-20 -52 -59 -52q-72 0 -72 89l8 163q0 245 -54 359q-34 73 -134.5 137t-135.5 110q-69 90 -69 206z" />
<glyph unicode="&#xb7;" horiz-adv-x="567" d="M147 626v27q0 61 32.5 88t72.5 27l28 3h18q119 0 119 -119v-23q0 -51 -27.5 -84t-69.5 -33l-32 -4h-27q-15 3 -36 3t-48 27t-27 66z" />
<glyph unicode="&#xb8;" horiz-adv-x="699" d="M182 -378q0 45 58 45q14 2 22 2q57 0 85 25.5t28 61t-57 62t-57 68.5q0 65 34 110q14 19 54 19l8 -1q39 0 39 -56q0 -21 73.5 -72t73.5 -125v-8q0 -86 -70 -134.5t-151 -48.5h-34q-106 0 -106 46v6z" />
<glyph unicode="&#xb9;" horiz-adv-x="684" d="M135 1319q0 22 45 49q135 81 195 81h11q44 0 51 -50v-258q0 -232 6.5 -258.5t39 -74t32.5 -74.5v-9q0 -15 -25.5 -38.5t-99.5 -23.5h-62q-76 0 -119 34q-18 14 -18 42t33.5 67.5t42.5 69.5t9 174t-15.5 174.5t-70.5 43.5t-55 51z" />
<glyph unicode="&#xba;" horiz-adv-x="842" d="M85 1052v23q0 149 87.5 243t224.5 94h23q24 -2 53.5 -2t90.5 -29t100 -80q67 -88 67 -211v-47q0 -143 -90.5 -233.5t-224.5 -90.5h-35q-135 0 -215.5 93t-80.5 240zM254 1052q0 -98 36.5 -165t94.5 -67h33q61 0 97.5 66.5t36.5 166.5v38l-2 23l-2 28q0 75 -45.5 126 t-101.5 51h-7q-59 0 -98 -56t-39 -134l-1 -7l-1 -8l-1 -30v-32z" />
<glyph unicode="&#xbb;" horiz-adv-x="1096" d="M130 909v9q0 47 56 47q33 0 216 -194t183 -212v-11q0 -22 -183 -216.5t-211 -194.5h-10q-49 0 -49 53q0 34 131.5 192t131.5 172q0 4 -132.5 163t-132.5 192zM522 926q0 50 55 50q26 0 220 -194t194 -230t-194.5 -230.5t-212.5 -194.5h-10q-50 0 -50 54q0 41 138.5 196.5 t138.5 176.5q0 4 -74 92l-24 27l-55 65q-126 160 -126 188z" />
<glyph unicode="&#xbc;" horiz-adv-x="1625" d="M155 1280q0 25 47 53q127 76 183 76h11q44 0 51 -47v-133l-2 -62v-38l-1 -38q0 -240 3.5 -265.5t33 -81.5t29.5 -65v-10q0 -21 -25.5 -42.5t-81.5 -21.5l-37 -3h-48q-53 0 -81.5 24t-28.5 52t29 64.5t38 76t9 175t-18.5 175.5t-64.5 63t-46 48zM328 17q0 21 59 119 l142 241q17 31 30.5 53.5t27 46.5t48.5 82l44 76q18 31 92.5 155.5t159 273t143 238t106.5 89.5h16q58 0 58 -33q0 -15 -33 -75q-301 -549 -702 -1195q-65 -105 -128 -105t-63 34zM892 257q0 86 302 459q58 72 114 72h13q48 0 60 -37q7 -21 7 -115v-156q2 -26 2 -39 q0 -89 63 -152q26 -26 26 -32v-6q0 -57 -30.5 -90t-30.5 -84t-26.5 -75.5t-89.5 -24.5h-13q-98 0 -98 125q0 22 -25 40q-52 38 -131 38t-111 18t-32 59zM1004 305q0 -5 30 -5h111q67 0 67 44v80l-1 5v28l-1 14v43l1 9v19l1 19v54q0 6 -4 6t-56.5 -84t-100 -150.5 t-47.5 -79.5v-2z" />
<glyph unicode="&#xbd;" horiz-adv-x="1679" d="M138 1276v7q0 24 45 49q149 82 192 82h11q39 0 47 -41q1 -5 1 -256.5t4 -280.5t34 -77t30 -75v-10q0 -22 -27 -45t-104 -23h-48q-58 0 -106 32q-23 15 -23 47t31 71t40 76.5t9 177t-18.5 169.5t-68 48.5t-49.5 48.5zM329 8q0 18 29.5 69t326 578t365.5 642t121 115h16 q59 0 59 -33q0 -60 -727 -1300q-61 -104 -115 -104h-16q-59 0 -59 33zM992 46v15q0 66 142.5 203.5t180 190.5t37.5 108t-29.5 82t-75 27t-109.5 -46t-93 -46q-42 0 -42 62t79.5 112t174.5 50h20q119 0 182.5 -63.5t63.5 -157t-70 -181.5q-30 -38 -139 -135.5t-109 -124.5 q0 -17 84.5 -17t142.5 10.5t61 10.5q45 0 45 -57.5t-40 -78t-184 -20.5h-77q-169 0 -207 10t-38 46z" />
<glyph unicode="&#xbe;" horiz-adv-x="1709" d="M142 715q0 56 57 56q11 0 75 -26.5t114 -26.5t86 32t36 88q0 102 -136 134q-68 16 -68 48t83.5 74t83.5 110q0 39 -27 65t-67.5 26t-97.5 -24.5t-81 -24.5q-33 0 -33 47.5t70.5 87.5t167.5 40h20q102 0 156 -45t54 -113t-24.5 -108.5t-52 -69.5t-27.5 -35q-1 -6 21 -18 q124 -66 124 -181v-19q0 -95 -81.5 -165t-204.5 -70h-38q-77 0 -143.5 36.5t-66.5 81.5zM422 20q0 19 33 74q207 345 407.5 690.5t306.5 512.5q68 107 117 107h17q58 0 58 -34q0 -21 -51 -106q-251 -418 -444.5 -751t-257 -430t-111.5 -97h-16q-59 0 -59 34zM986 252v9 q0 68 269 416q90 116 149 116h13q50 0 60 -38q5 -18 5 -114v-130l2 -54q1 -13 1 -52t64 -110q25 -27 25 -34v-6q0 -40 -31 -86.5t-31 -88t-23 -70t-92 -28.5h-26q-36 0 -60 32t-24 78t-61 76q-34 17 -114 17t-103 25t-23 42zM1098 302q0 -4 10 -4h8l4 1l64 -1h58q56 0 65 7 t9 94v5l-1 5v28l-1 14v9l-1 9q0 145 -4.5 145t-24.5 -35t-103 -151t-83 -126z" />
<glyph unicode="&#xbf;" horiz-adv-x="981" d="M116 80v18q0 192 199 360q79 63 109 104.5t41 112.5t13 74q14 28 50 28h16q75 0 75 -131q0 -72 -30.5 -135t-107 -139.5t-109 -132t-32.5 -135.5t53.5 -124t123.5 -44t155 46t112 46q61 0 61 -74t-74 -124q-103 -70 -239 -70h-37q-169 0 -274 89t-105 231zM416 1067v30 q0 44 32.5 71t77.5 27h27q61 0 90.5 -29.5t29.5 -68.5l3 -23v-19q0 -48 -27 -85.5t-78 -37.5h-30q-51 0 -86 29t-35 85q-4 16 -4 21z" />
<glyph unicode="&#xc0;" horiz-adv-x="1340" d="M76 166q0 24 42.5 91.5t77.5 167.5q297 857 308 878q51 100 147 100h4q55 0 89 -29q88 -74 230.5 -517.5t166.5 -504t60 -111.5t36 -88q0 -67 -62 -117q-30 -24 -99.5 -24t-96.5 25t-27 88.5t-28.5 141.5t-52.5 106q-44 50 -241 50t-231 -29t-67 -126t-33 -174t-79 -77 q-59 0 -88 29q-56 56 -56 120zM378 1778v15q0 51 84 51h11q67 0 130 -55q179 -157 179 -232v-5q0 -35 -40 -35h-11l-6 1q-67 0 -161 73q-186 145 -186 187zM430 594q0 -23 110 -23h202l9 1l24 1q8 1 15 1q35 0 35 19v7q0 107 -164 490q-30 71 -37 71q-1 0 -37.5 -78.5 t-96.5 -270.5t-60 -212v-6z" />
<glyph unicode="&#xc1;" horiz-adv-x="1339" d="M77 179q0 33 39.5 89t60.5 108t57.5 169.5t130.5 388t129 344t69.5 98t89 24.5t93.5 -32t83.5 -130.5t138 -368t130 -386.5t50.5 -146t50 -82t36 -89q0 -66 -63 -115q-31 -24 -100.5 -24t-96.5 25t-27 87.5t-30 144t-68 112.5t-226.5 31t-229 -33.5t-76.5 -170.5 q-13 -51 -17.5 -102.5t-6.5 -56.5q-15 -32 -72.5 -32t-86.5 29q-57 57 -57 118zM427 597q0 -17 34 -17h56l8 1l113 2q187 0 187 17v13q0 101 -156 491q-28 70 -33 70h-5q-2 0 -56.5 -116.5t-101 -275t-46.5 -179.5v-6zM521 1539l1 5q0 76 176 232q66 59 131 59h16 q83 0 83 -55v-6l-1 -5q0 -44 -144.5 -156t-213.5 -112l-5 1q-43 0 -43 37z" />
<glyph unicode="&#xc2;" horiz-adv-x="1340" d="M73 149v20q0 32 39 87t59.5 107t63.5 186.5t140 409t126 334.5t63.5 84t96 24t100.5 -45t77 -131t183 -504.5t150 -427.5q70 -125 70 -139q0 -66 -64 -116q-30 -23 -76 -23h-24q-85 0 -112 41q-10 16 -13 64t-9 79q-28 139 -88 190q-40 34 -232.5 34t-225.5 -30.5 t-66 -127t-33 -187.5q0 -58 -81 -58q-50 0 -76 18q-68 48 -68 111zM348 1536q0 20 29 54q154 181 189 211t88 30h9q50 0 89 -36q207 -190 207 -257q0 -29 -56.5 -29t-130.5 63q-4 3 -59.5 54t-62.5 51t-92.5 -85.5t-148.5 -85.5h-8q-53 0 -53 30zM430 599q0 -21 91 -21h76 l9 1h25q194 0 194 20v13q0 16 -57 199t-96.5 267.5t-40.5 84.5h-4q-5 0 -16.5 -29t-17.5 -41q-76 -153 -123 -339q-4 -16 -22 -74t-18 -75v-6z" />
<glyph unicode="&#xc3;" horiz-adv-x="1339" d="M79 169q0 32 37 84.5t58.5 104t146 432t167.5 473t77 117t90.5 24.5t92 -31.5t99.5 -167.5t182.5 -501t128.5 -388t46 -72.5t36 -102t-66 -101.5q-31 -23 -100.5 -23t-95 24.5t-25.5 92.5t-31 148.5t-70 112.5t-229.5 32t-223.5 -30t-65 -122.5t-32 -193.5 q0 -59 -68.5 -59t-97.5 28q-57 55 -57 119zM322 1589v8q0 65 61 120.5t127 55.5h16l9 -1q45 0 139.5 -44.5t125 -44.5t83.5 36.5t69 36.5q37 0 37 -39v-8q0 -60 -56 -116t-122 -56h-24q-48 0 -141.5 44t-128 44t-84.5 -37.5t-73 -37.5q-38 0 -38 39zM431 603q0 -21 194 -21 h136q69 0 69 20v13l-2 7l-3 16l-6 23q-1 3 -4.5 18t-10.5 37.5t-8 26.5q-37 155 -126 347l-37 79h-5q-1 0 -45 -94.5t-98 -267t-54 -198.5v-6z" />
<glyph unicode="&#xc4;" horiz-adv-x="1335" d="M63 170q0 29 41.5 89.5t58.5 106t48 144.5t138.5 410t139 375.5t64.5 87.5t89 23t93 -30q88 -72 234.5 -528.5t167.5 -507t56 -98.5t35 -88q0 -65 -64 -115q-30 -23 -76 -23h-23q-70 0 -96 25t-26 91t-32 150t-71 115t-229.5 31t-225 -30.5t-65.5 -121t-31 -172 t-80 -81.5q-60 0 -89 28q-57 55 -57 119zM341 1647v27l1 4v7q2 8 2 25t23 40t53 23q6 2 11 2l15 2h28q15 -5 29 -5q61 0 61 -70q2 -8 2 -11l2 -20v-12l-5 -33q0 -25 -24.5 -49.5t-80.5 -24.5h-15l-31 4q-25 0 -48 23t-23 68zM419 599q0 -21 65 -21h259q68 0 68 20v7 q0 94 -160 494q-28 71 -32 71h-5q-4 0 -32 -70q-163 -408 -163 -494v-7zM730 1641v23q0 51 25.5 76.5t59.5 25.5l23 3h19q41 0 66 -21t25 -58l3 -23v-24l-4 -27q0 -27 -24.5 -51.5t-72.5 -24.5h-23l-30 4q-27 0 -47 25.5t-20 71.5z" />
<glyph unicode="&#xc5;" horiz-adv-x="1356" d="M54 161v21q0 28 36.5 79.5t50 83.5t135 404.5t175.5 486.5t89.5 144t87.5 30h27q51 0 95 -38q96 -85 237.5 -535t163 -497.5t56 -97t34.5 -73.5v-21q0 -31 -45 -76t-98 -45h-47h-2q-109 0 -109 90l1 79q0 36 -29.5 109.5t-70 108t-234 34.5t-231.5 -42q-27 -30 -58 -127 t-31 -154t-15.5 -74t-69 -17t-86.5 29q-62 55 -62 98zM423 600q0 -20 67 -20h101l9 1l92 -1h26q101 0 101 20v7q0 119 -163 499q-30 69 -33 69h-3q-6 0 -30 -61q-167 -418 -167 -508v-6zM438 1681v27q0 70 56.5 126.5t136.5 56.5h34q14 -2 20 -2q65 0 116 -57t51 -114v-33 q0 -70 -57 -127t-142 -57h-21q-83 0 -138.5 55.5t-55.5 124.5zM539 1686l4 -23q0 -23 30.5 -47.5t57.5 -24.5h29q39 0 63.5 30.5t24.5 46.5l3 17v25l-4 20q0 11 -23 39.5t-51 28.5q-6 2 -10 2l-18 2h-4l-3 -1h-8l-14 -2q-23 0 -48.5 -25.5t-25.5 -49.5l-3 -17v-21z" />
<glyph unicode="&#xc6;" horiz-adv-x="1828" d="M113 153q0 42 51.5 117t75.5 119.5t107 222.5q298 644 360 707q35 36 122 49t318 13l229 5q266 0 266 -117q0 -49 -69 -49l-262 22q-110 0 -147 -30q-64 -52 -64 -184t32 -174.5t124 -42.5q29 0 72 9l71 14q83 0 120 -48q22 -28 22 -103q0 -69 -87 -69l-35 5l-36 7 q-34 5 -77 5q-115 0 -156 -52.5t-41 -146.5q0 -150 62 -213q40 -41 170 -41l252 32q83 0 83 -62q0 -69 -50 -100t-196 -31h-45q-268 0 -358 20t-120.5 44.5t-30.5 68.5l1 32l3 72q0 127 -54 169q-38 30 -170 30t-204.5 -69.5t-127.5 -239.5l-8 -28q-11 -41 -14 -46 q-19 -30 -70.5 -30t-85 35.5t-33.5 77.5zM519 610q0 -8 37 -8l41 2q16 -2 24 -2l79 -8l24 -3h54q61 0 68 30t7 301l5 92v18l6 107v23q0 44 -14 44q-34 0 -95 -102t-80.5 -160t-71.5 -162.5t-68 -127.5t-16 -39v-5z" />
<glyph unicode="&#xc7;" horiz-adv-x="1300" d="M93 633v68q0 149 45 284t121 222.5t193 137.5t225 50t247.5 -37t142.5 -38q41 -22 75 -74t34 -103q0 -87 -71 -87q-13 0 -80 34l-46 24q-66 34 -73 37q-128 60 -220 60t-158 -40q-182 -111 -182 -488t194 -483q69 -38 165 -38t320 94q85 36 103 36q53 0 53 -65 q0 -23 -37.5 -79t-95.5 -90q-146 -87 -312 -89q1 -9 1 -22q0 -11 73 -77t73 -146l-1 -8q0 -68 -69 -121t-164 -53h-26q-95 0 -95 57v7q0 49 60 49t88.5 25.5t28.5 64t-46 72t-46 56.5q0 58 33 98q-102 8 -198 48q-221 93 -304 330q-51 143 -51 284z" />
<glyph unicode="&#xc8;" horiz-adv-x="1186" d="M136 96q0 24 20.5 76.5t28 107.5t7.5 437.5t-7.5 432t-27 101t-19.5 52.5q0 56 63 73q88 23 436 23h228q88 0 125.5 -27t37.5 -91q0 -71 -85 -71q-16 0 -50 5l-28 5q-140 25 -253.5 25t-155.5 -54t-42 -177.5t26 -153.5q43 -49 172 -49q44 0 105 17.5t77 17.5 q103 0 103 -113q0 -68 -18.5 -100t-69.5 -32q-14 0 -81.5 19.5t-153 19.5t-122.5 -38t-37 -160q0 -195 52 -248q31 -32 117 -32q154 0 270.5 25t135.5 25q72 0 72 -63q0 -91 -51.5 -116t-246.5 -25h-153q-321 0 -398 17t-77 71zM340 1787v5q0 56 84 56h10q64 0 120.5 -49.5 t164.5 -188.5q23 -30 23 -48v-19q0 -25 -38 -25h-11l-5 1q-62 0 -139 60q-209 163 -209 208z" />
<glyph unicode="&#xc9;" horiz-adv-x="1186" d="M138 132q0 22 23.5 79t29.5 126t6 406.5t-5.5 399.5t-26.5 116t-21 57q0 56 66 70q95 20 281 20l74 2l150 1l37 -1q176 0 210 -13q59 -22 59 -106q0 -68 -82 -68q-2 0 -120 17.5t-216.5 17.5t-136 -52.5t-37.5 -173t27 -152.5q39 -46 167 -46q43 0 103 17.5t76 17.5 q95 0 95 -115q0 -64 -20.5 -95.5t-70.5 -31.5q-6 0 -71 19t-150.5 19t-129.5 -45q-29 -30 -29 -151q0 -188 53 -238q32 -30 149.5 -30t229 22.5t129.5 22.5q65 0 65 -65q0 -85 -53.5 -111t-246.5 -26h-226q-247 0 -317.5 17.5t-70.5 72.5zM474 1525v10q0 61 178 239 q59 59 117 59h24q76 0 76 -34v-14q0 -29 -135 -164t-178 -135l-10 -2h-21q-51 0 -51 41z" />
<glyph unicode="&#xca;" horiz-adv-x="1186" d="M131 98q0 25 24.5 83t29 126.5t4.5 406t-6 407t-27 126t-21 59.5q0 57 65 72q97 22 400 22h191q138 0 176 -14q61 -23 61 -101.5t-65 -78.5q-24 0 -70 7l-28 5q-147 24 -257.5 24t-149.5 -55.5t-39 -178t26 -152.5q41 -47 173 -47q45 0 111.5 18t71.5 18q52 0 75.5 -27 t23.5 -91t-21 -96t-72 -32q-10 0 -76.5 20t-151.5 20t-130 -46q-30 -31 -30 -172t34 -198.5t162 -57.5t246 23t132 23q68 0 68 -65q0 -54 -19 -83.5t-68 -44t-332 -14.5h-39q-325 0 -398.5 19.5t-73.5 74.5zM302 1548q0 48 196 244q49 49 106 49h8q82 -1 228 -193 q68 -88 68 -95v-6q0 -29 -52 -29h-15q-47 0 -138.5 84.5t-97 84.5t-96.5 -83.5t-149 -83.5t-58 28z" />
<glyph unicode="&#xcb;" horiz-adv-x="1185" d="M132 103q0 32 22.5 84.5t28.5 121.5t6 373.5t-4 409t-27 157.5t-23 82q0 40 102 55.5t431 15.5h190q92 0 128.5 -26.5t36.5 -80.5t-20.5 -69.5t-47.5 -15.5t-134.5 20t-219.5 20t-151.5 -52t-39.5 -243q0 -139 167 -139q72 0 138 17.5t72 17.5q55 0 79.5 -24.5 t24.5 -88.5q-1 -132 -73 -132q-36 0 -96.5 20t-148 20t-125 -36.5t-37.5 -156.5q0 -193 50 -249q31 -34 143.5 -34t240.5 24.5t138 24.5q73 0 73 -59v-28q0 -61 -50 -88t-168 -27h-304q-253 0 -327.5 16.5t-74.5 69.5zM292 1635v36q0 51 25 76t59 25l27 3h19l24 -4 q62 0 62 -75q2 -8 2 -12l2 -17v-20q0 -56 -24.5 -80.5t-53.5 -24.5l-17 -3h-24q-101 0 -101 96zM681 1656v15l1 4l2 19q0 33 23.5 56.5t57.5 23.5l23 3h28q87 0 87 -70q3 -9 3 -14l2 -20v-15q-6 -24 -6 -43.5t-27.5 -41.5t-85.5 -22l-4 1h-8l-11 1l-22 4q-60 0 -60 76z" />
<glyph unicode="&#xcc;" horiz-adv-x="673" d="M67 1783v10q0 51 74 51h16q51 0 102 -39.5t164 -185.5q39 -50 39 -73v-15q0 -30 -37 -30h-10l-5 1q-51 0 -197 113.5t-146 167.5zM129 1322q0 37 43.5 59.5t120.5 22.5l38 2h37q64 0 105.5 -23t41.5 -55.5t-31 -82t-38 -99t-7 -419t9 -431t42 -111.5t33 -82t-41 -56 t-126 -24h-75q-57 0 -101.5 22.5t-44.5 56.5t33 86t40 111.5t7 400t-7.5 407.5t-43 137.5t-35.5 77.5z" />
<glyph unicode="&#xcd;" horiz-adv-x="674" d="M133 117q0 36 32.5 84t41.5 112.5t9 410t-9.5 409.5t-41.5 112t-32 65v15q0 43 63 68q38 15 122 15h74q61 0 96 -24.5t35 -55.5t-31 -80.5t-39.5 -106t-8.5 -418t7.5 -414.5t40.5 -112t33 -64v-15q0 -83 -188 -83h-37q-76 0 -121.5 23t-45.5 59zM200 1517v15 q0 48 167 236q65 73 139 73h5q79 0 79 -54v-10l-1 -5q0 -52 -147 -166.5t-181 -114.5l-9 -2h-20q-32 0 -32 28z" />
<glyph unicode="&#xce;" horiz-adv-x="680" d="M35 1536q0 37 182 236q57 62 108 62h23q56 0 149 -119q133 -169 133 -171v-7q0 -30 -60 -30q-60 1 -147 79q-85 78 -91 78t-26 -20l-68 -61q-92 -77 -136 -77h-15q-52 0 -52 30zM132 1317q0 50 76 75q36 12 145 12h19q60 0 105.5 -20.5t45.5 -57t-31 -86t-38 -96 t-7 -420.5t8.5 -432t40.5 -111t32 -84t-44.5 -53t-122.5 -22h-76q-58 0 -103.5 20.5t-45.5 57.5t32 86.5t39.5 99.5t7.5 403t-7.5 418.5t-41.5 133.5t-34 76z" />
<glyph unicode="&#xcf;" horiz-adv-x="676" d="M25 1636v21q0 56 29 85t69 29h24q34 0 63 -24.5t29 -66.5l3 -24v-25q0 -46 -26 -78t-72 -32h-24q-43 0 -69 31t-26 84zM136 1309v15q0 40 47 62q48 22 134 22h74q57 0 92.5 -24.5t35.5 -55t-31.5 -81t-39 -101t-7.5 -415t9 -427t41.5 -111t32.5 -64.5v-15q0 -84 -184 -84 h-18q-94 0 -138.5 22.5t-44.5 58t34 86t40.5 109t6.5 276.5v344l-1 39l-2 122q0 88 -40.5 146t-40.5 76zM406 1647v32q0 40 22.5 67t57.5 27q8 2 11 2l19 2h16l30 -4q66 0 66 -70q2 -8 2 -11l2 -15v-24l-4 -26q0 -27 -24.5 -51.5t-74.5 -24.5h-27q-47 0 -70 23t-23 55z" />
<glyph unicode="&#xd0;" horiz-adv-x="1426" d="M86 702v22q0 47 40 62q6 2 44.5 10.5t48.5 23t10 104.5l-3 121q0 158 -30.5 218t-30.5 69q0 48 54 57q78 13 312 13h77q328 0 502 -164q87 -82 137.5 -218.5t50.5 -305.5l-1 -27q-1 -157 -49 -291q-96 -266 -348 -355q-118 -42 -299 -42h-177q-160 0 -207 9t-47 50 q0 15 23 69t29.5 112t6.5 209.5t-9.5 170t-71.5 31t-62 52.5zM434 400l1 -18v-37q0 -139 17 -174t85 -35h89q204 0 315.5 137t111.5 392v41l-1 20q0 258 -100 386q-63 81 -144.5 116.5t-193.5 35.5h-72q-78 0 -97 -51q-11 -30 -11 -191v-73q0 -107 27 -131.5t111 -32 t98 -12.5q33 -12 33 -58.5t-35 -60.5q-12 -5 -91 -14t-111 -35t-32 -150v-55z" />
<glyph unicode="&#xd1;" horiz-adv-x="1451" d="M129 80v32q0 11 24.5 59t31.5 108q7 61 7 321v325l-1 131q0 74 -7 110.5t-26 87.5t-19 57q1 59 77 59q148 0 256 -124q88 -100 336 -451.5t255 -351.5q28 1 28 341t-20 411t-20 95t30 44q31 20 93.5 20t100 -31.5t37.5 -76.5t-28 -112t-35.5 -145t-7.5 -471.5t-7 -417.5 q-13 -47 -68 -47q-76 0 -182 135q-52 65 -156 225q-400 612 -454 612q-19 0 -19 -309t20.5 -419.5t20.5 -147t-47 -77.5t-117 -41h-36q-67 0 -67 49zM388 1587v8q0 53 55.5 118.5t116.5 65.5h33q45 0 141 -48t134 -48t82.5 41t71.5 41q39 0 39 -35v-8q0 -58 -57.5 -120.5 t-121.5 -62.5h-17q-44 0 -147 48.5t-133.5 48.5t-85 -42t-72.5 -42q-39 0 -39 35z" />
<glyph unicode="&#xd2;" horiz-adv-x="1444" d="M99 663v70v7q0 144 43 277q82 259 296 355q121 54 248 54h47q131 0 240 -51.5t181.5 -135t114 -224.5t41.5 -292v-47q0 -145 -43 -281q-83 -261 -301 -358q-125 -56 -250 -56h-23q-276 0 -434 180q-73 84 -116.5 221.5t-43.5 280.5zM324 724q0 -260 94 -416 q93 -156 276 -156h2q185 0 281 134q95 134 95 398v51q0 129 -30 239t-78 178q-94 135 -266 135h-3h-17q-163 0 -264 -140q-34 -47 -62 -149.5t-28 -239.5v-34zM423 1780v15q0 53 82 53h23q79 0 141 -71q161 -184 161 -232q0 -36 -43 -36h-11q-15 3 -27 3q-47 0 -186.5 108.5 t-139.5 159.5z" />
<glyph unicode="&#xd3;" horiz-adv-x="1441" d="M100 692v23q0 163 44 299q83 261 299 358q116 52 249 52h24q262 0 420 -168q79 -84 125 -226t46 -291v-70v-6q0 -147 -45 -278q-88 -257 -302 -350q-124 -54 -251 -54h-23q-269 0 -430 184q-73 84 -114.5 225.5t-41.5 301.5zM324 697q0 -138 32 -242t61 -144 q102 -143 265 -143h33q80 0 153 40q207 115 207 509v67q0 104 -28.5 207.5t-68 162t-107.5 99.5t-150 41h-33q-182 0 -283 -167q-81 -135 -81 -380v-50zM562 1525v10q0 21 27 61q159 239 290 239h11q81 0 81 -50v-10q0 -59 -169 -190q-121 -94 -176 -94h-27q-37 0 -37 34z " />
<glyph unicode="&#xd4;" horiz-adv-x="1442" d="M99 660v70q0 146 44 284q82 257 293 355q120 55 248 55h24q152 0 266.5 -54.5t182 -137.5t110 -216.5t42.5 -296.5v-46q0 -144 -44 -283q-87 -276 -338 -372q-104 -40 -235 -40q-418 0 -548 398q-44 136 -45 284zM322 721q0 -141 30 -251q55 -198 173 -263 q80 -45 160 -45h33q175 0 272 155q85 136 85 385v66q0 109 -34.5 219t-79.5 171q-97 129 -262 129h-16q-173 0 -273 -156q-31 -48 -59.5 -151.5t-28.5 -241.5v-17zM389 1536q0 61 198 244q53 49 103 49h26q48 0 97 -53q186 -203 186 -231v-7q0 -30 -60.5 -30t-146.5 79 l-25 21q-61 56 -67 56t-49 -36q-143 -122 -194 -122h-15q-53 0 -53 30z" />
<glyph unicode="&#xd5;" horiz-adv-x="1445" d="M101 690l1 23v24q0 143 42 275.5t113 220t186 140.5t250 53h46q114 0 226.5 -47.5t182.5 -128t117.5 -216t47.5 -314.5v-23q-1 -155 -41 -293q-80 -275 -325 -376q-115 -47 -257 -47q-283 0 -443 198q-72 88 -109 226.5t-37 284.5zM323 696q0 -103 30 -215.5t76.5 -178 t118.5 -101.5t156 -36l17 1h16q145 0 251 143q35 47 64 152.5t29 216.5v84q0 104 -31 216q-87 313 -345 313h-2h-17q-169 0 -268 -140q-37 -52 -66 -157t-29 -214v-84zM361 1583v9q0 69 64 123.5t127 54.5h17l9 -1q44 0 142 -43.5t128.5 -43.5t77 35t71.5 35q36 0 36 -42 l-1 -8v-9q0 -62 -62.5 -115t-131.5 -53l-8 1q-48 0 -145.5 43.5t-130 43.5t-83.5 -35.5t-74 -35.5q-36 0 -36 41z" />
<glyph unicode="&#xd6;" horiz-adv-x="1442" d="M84 692l1 23v23v6q0 141 43 274q83 260 301 357q121 54 251 54h23q144 0 261 -52t190 -146t110 -231.5t37 -278.5v-23q0 -319 -149 -510q-77 -98 -198 -152t-251 -54h-24q-141 0 -257 52q-218 97 -294 353q-44 150 -44 305zM315 690q0 -232 87 -377q48 -80 119.5 -120 t149.5 -40h33q171 0 270 159q81 130 81 376v68q0 98 -26.5 211.5t-70 178.5t-111 105.5t-145.5 40.5h-49q-75 0 -143.5 -41t-111.5 -113q-83 -138 -83 -362v-86zM387 1661v15l4 30q0 26 22.5 48.5t50.5 22.5q9 3 15 3l19 2h20q44 0 69.5 -21t25.5 -54q2 -8 2 -12l2 -19v-12 l-5 -33q0 -68 -76 -68q-6 -2 -11 -2l-15 -2h-28l-26 4q-66 0 -66 75zM760 1645v20q0 48 28.5 76.5t83.5 28.5h30q41 0 67.5 -21t26.5 -52l5 -31v-24l-1 -4l-2 -32q0 -16 -24 -40.5t-55 -24.5q-16 -4 -20 -4h-34q-51 0 -76.5 25.5t-25.5 58.5z" />
<glyph unicode="&#xd7;" horiz-adv-x="1073" d="M160 897.5q0 22.5 32 52t60 29.5t151.5 -128t127.5 -128q14 0 138.5 129t158.5 129q15 0 46 -29t31 -49.5t-129 -154t-129 -141.5t130.5 -143.5t130.5 -155.5t-32.5 -50t-57.5 -30t-135 110l-66 69q-75 78 -83 78t-136.5 -128.5t-157.5 -128.5q-17 0 -47.5 27t-30.5 50.5 t129 152.5t129 143t-130 144t-130 152.5z" />
<glyph unicode="&#xd8;" horiz-adv-x="1454" d="M109 670v27q1 154 47 299q88 274 323 374q116 49 233 49t178.5 -12t89 -12t74.5 25t74 25q64 0 64 -73l-1 -18l-8 -38q-3 -19 -3 -53t36 -125.5t41 -109.5q40 -131 40 -272v-53q0 -155 -49 -299q-92 -270 -326 -370q-111 -47 -269 -47l-221 20q-28 0 -77 -27t-77 -27 q-62 0 -62 75l12 95q0 57 -28 121q-90 205 -91 426zM325 671q0 -178 62 -316q15 -34 30 -34q31 0 225 314q75 122 235 441q32 64 32 105t-61 71.5t-120 30.5h-52q-81 0 -149 -44q-202 -131 -202 -514v-54zM515 184q0 -16 31 -43t83 -27h11l11 1q88 0 161.5 50.5t119.5 124.5 t84.5 211t38.5 305v88q0 203 -39 203q-15 0 -127 -216.5t-145.5 -272.5t-52.5 -90.5t-97.5 -161.5t-78.5 -153v-19z" />
<glyph unicode="&#xd9;" horiz-adv-x="1409" d="M102 1275.5q0 52.5 64 99.5q26 19 86 19q171 0 171 -99q0 -11 -14 -72q-20 -90 -20 -468.5t64 -487.5q78 -133 273.5 -133t269.5 172q45 105 45 442t-19.5 446.5t-19.5 118.5q0 82 134 82q70 0 95 -25q50 -49 50 -92.5t-25 -103.5t-31.5 -106.5t-6.5 -325.5t-17 -382 t-76 -192t-169.5 -137.5t-258.5 -48.5q-308 0 -440 189q-59 85 -75.5 207t-16.5 370.5t-6 307.5t-31.5 113t-25.5 106.5zM431 1787v9q0 51 84 51h11q68 0 134 -58q176 -154 176 -229v-5q0 -34 -40 -34h-16q-63 0 -152 69q-197 153 -197 197z" />
<glyph unicode="&#xda;" horiz-adv-x="1410" d="M105 1241v31q0 63 66 109q26 18 88 18q168 0 168 -97q0 -16 -8 -51q-24 -105 -24 -397v-52q0 -250 9 -339q30 -305 321 -305q198 0 270 172q43 103 43 543q0 234 -19.5 338t-19.5 113q0 77 150 77q54 0 80 -26q50 -50 50 -93t-25.5 -103.5t-31 -105t-5.5 -299t-12 -362.5 t-65 -202.5t-166 -151t-239 -56.5h-79q-136 0 -239 51.5t-158 132.5t-73.5 193t-18.5 270v213l-1 37q-1 36 -1 118t-30 145.5t-30 78.5zM575 1552v4q0 53 186 216q77 67 140 67h16q67 0 67 -42v-10l-1 -5q0 -66 -140 -164t-203 -98h-22q-43 0 -43 32z" />
<glyph unicode="&#xdb;" horiz-adv-x="1410" d="M100 1271.5q0 55.5 64 102.5q27 20 97.5 20t116.5 -24t46 -74q0 -15 -8 -52q-24 -106 -24 -474l-1 -8q0 -361 47 -464q74 -163 270 -163q94 0 161.5 31.5t111.5 109.5q58 104 58 451.5t-19.5 466.5t-19.5 120q0 81 134 81q70 0 97 -25q50 -47 50 -93v-32q0 -17 -24 -73 t-30.5 -104.5t-6.5 -320t-16 -381.5q-34 -231 -220 -325q-122 -61 -285 -61h-40q-133 0 -239 50q-199 95 -239 332q-19 116 -19 396.5t-8 324.5t-31 88.5t-23 100zM402 1551q0 61 203 247q47 43 93 43h25q55 0 171 -137t116 -145v-7q0 -28 -56 -28t-130 63q-34 29 -74 66 t-45 37t-52 -44q-132 -123 -189 -123h-1h-15q-46 0 -46 28z" />
<glyph unicode="&#xdc;" horiz-adv-x="1410" d="M93 1278.5q0 54.5 65 100.5q25 18 87 18q168 0 168 -100q0 -2 -16.5 -85t-16.5 -446t44 -456t114.5 -131t172.5 -38q205 0 279 173q44 103 44 447.5t-34 506.5q-7 34 -7 61.5t32.5 48t102.5 20.5t96 -25q49 -48 49 -92t-25.5 -102t-32 -110.5t-6.5 -326.5t-17 -377 t-77.5 -192t-171.5 -136t-257 -47q-465 0 -517 422q-12 97 -12 345t-6 304.5t-32 109.5t-26 107.5zM383 1664l1 4v11q3 17 3 30t23 36t76 23h33l33 -5q63 0 63 -95v-7l-1 -4l-3 -27q-1 -4 -1 -18.5t-26 -40.5t-84 -26h-9l-38 6q-66 0 -66 78l-3 16v8zM779 1651v23l4 26 q0 26 23 49t58 23l23 3h24q12 -3 31.5 -3t43 -23.5t23.5 -76.5v-12q0 -55 -25 -80t-57 -25q-8 -2 -11 -2l-20 -2h-16l-30 4q-67 0 -67 69q-2 8 -2 12z" />
<glyph unicode="&#xdd;" horiz-adv-x="1243" d="M50 1343q0 54 139 54t189 -64q16 -20 27 -85.5t49 -148.5q150 -327 190 -327q73 53 181 305q36 84 49.5 169t17.5 91q39 62 160 62t121 -42q0 -31 -88 -143q-33 -42 -153 -273.5t-133 -260.5q-59 -136 -59 -356q0 -71 25.5 -125t25.5 -87t-38 -62.5t-109 -29.5h-56 q-62 0 -95 18q-53 29 -53 82q0 22 20 71.5t28.5 79.5t8.5 153.5t-74 274.5q-19 39 -138 255.5t-144 248.5q-91 116 -91 140zM506 1539v5q0 24 26 57q111 142 167 192t118 50h5l6 -1q82 0 82 -55v-5q0 -37 -204 -196q-100 -78 -160 -78l-6 1q-34 0 -34 30z" />
<glyph unicode="&#xde;" horiz-adv-x="1228" d="M156 1329q0 70 107 70t161 -43.5t72 -105.5q9 -30 45 -49.5t191.5 -46t245.5 -96.5q60 -46 97.5 -125t37.5 -185q0 -199 -125 -313q-62 -57 -134 -81.5t-164.5 -38t-121.5 -26.5q-84 -37 -84 -94q2 -24 2 -42q0 -65 -55.5 -105.5t-135.5 -40.5h-21q-116 0 -116 72 q0 33 19.5 82t28 90.5t8.5 168.5l1 24q1 24 1 54v327l-2 94q-1 24 -1 48l-1 23q-1 24 -1 105.5t-27.5 142t-27.5 91.5zM424 510q0 -46 30.5 -62.5t95.5 -16.5h35q125 0 205.5 74t80.5 211v44q0 136 -77 207.5t-211 71.5h-18l-8 -1q-80 0 -106.5 -20t-26.5 -81v-427z" />
<glyph unicode="&#xdf;" horiz-adv-x="1232" d="M133 52q0 25 16 86t22.5 124.5t6.5 202t-14 243.5l-10 74q-15 91 -15 113.5t43.5 179.5t99.5 225q125 151 307 151h2q293 0 376 -192q22 -51 22 -119.5t-69 -180t-69 -165t100 -145t129 -134.5q58 -87 58 -179q0 -158 -103 -247.5t-262 -89.5q-91 0 -143 29.5t-52 81.5 q0 42 63 42l23 -1l26 -1q28 -1 59 -1q70 0 126 46.5t56 123t-40.5 127t-128.5 107.5t-125 100.5t-37 108t98 180.5t98 202q0 53 -39 101.5t-117 48.5q-152 0 -206 -164q-47 -141 -47 -783q0 -219 -14 -263q-28 -86 -151 -86q-89 0 -89 54z" />
<glyph unicode="&#xe0;" horiz-adv-x="1056" d="M77 248v24q1 68 33 127q72 130 275 170q46 9 116.5 18t100.5 23q56 25 56 90t-39 112t-113 47t-170 -48t-125 -48q-71 0 -71 82q0 61 84 104q111 57 243 57h48q219 0 312 -157q44 -74 44 -401q0 -163 6 -204t34.5 -91t28.5 -71q0 -72 -129 -72q-33 0 -93 24.5t-72.5 24.5 t-113.5 -34.5t-179 -34.5q-126 0 -201 75t-75 183zM251 1421v5q0 50 77 50h28q10 -2 16 -2q50 0 103 -60q162 -182 162 -253v-10q0 -29 -47 -29h-11q-43 0 -123 71q-205 182 -205 228zM283 282q0 -63 44 -102t111 -39h19q97 0 153.5 56.5t56.5 153.5v69q0 75 -62 75h-46 l-7 -1l-26 -2l-32 -3q-88 0 -149.5 -48t-61.5 -125v-34z" />
<glyph unicode="&#xe1;" horiz-adv-x="1055" d="M74 251v23q0 139 123 221q72 48 150 63.5t149.5 25.5t101.5 23q53 24 53 81q0 83 -44.5 123t-108.5 40t-161 -47t-128 -47q-67 0 -67 84q0 64 105.5 111.5t222.5 47.5h24q222 0 314 -134q37 -55 49 -132.5t12 -263t6.5 -229.5t35.5 -90t29 -70q0 -70 -132 -70 q-34 0 -92.5 25.5t-81.5 25.5t-52 -11l-19 -8l-19 -9q-91 -42 -205 -42t-189.5 75.5t-75.5 183.5zM283 280q0 -58 40 -93.5t90 -35.5h34q100 0 160 60t60 177v57q0 64 -55 64h-19l-7 -1l-32 -2l-26 -2q-114 0 -179.5 -58.5t-65.5 -138.5v-27zM379 1149v10q0 67 162 252 q53 61 120 61h23q82 0 82 -55v-5q0 -52 -136.5 -173.5t-183.5 -121.5h-22q-45 0 -45 32z" />
<glyph unicode="&#xe2;" horiz-adv-x="1056" d="M74 253v24q0 57 28 113q66 135 286 179q43 8 114 17.5t103 24.5q52 24 52 88.5t-40 111t-112 46.5t-168 -48t-130 -48q-67 0 -67 86q0 59 100.5 109t231.5 50h24q229 0 316 -135q61 -95 61 -406q0 -181 7.5 -225t35.5 -90t28 -72q0 -70 -133 -70q-37 0 -92.5 25t-76 25 t-114.5 -34.5t-157 -34.5h-23q-112 0 -193 71t-81 193zM212 1162q0 53 185 255q50 54 108 54h8q52 0 94 -46q194 -212 194 -268q0 -32 -52 -32h-23q-47 0 -139 100l-82 84q-7 0 -94.5 -87.5t-143 -87.5t-55.5 28zM281 283q0 -70 44 -104.5t98 -34.5h19q116 0 187 80 q41 46 41 157v37q0 74 -68 74h-32l-7 -1l-25 -1l-33 -3l-26 -2q-77 0 -137.5 -53.5t-60.5 -134.5v-14z" />
<glyph unicode="&#xe3;" horiz-adv-x="1055" d="M78 246v24q0 130 103 212q77 61 203 86q3 1 97.5 15.5t120.5 25.5q56 24 56 81q0 168 -174 168q-51 0 -145 -47t-124 -47q-76 0 -76 79q0 69 107 116t236 47q234 0 326 -129q38 -53 50 -121.5t12 -277t7.5 -246t35.5 -80.5t28 -66q0 -76 -126 -76q-32 0 -97.5 25.5 t-87.5 25.5t-62.5 -18t-90 -35t-121.5 -17q-126 0 -202 74t-76 181zM176 1211v16q0 60 62 112.5t121 52.5h16l8 -1q45 0 138.5 -44t127 -44t78.5 34t70 34q38 0 38 -38v-8q0 -70 -61.5 -122t-114.5 -52h-24q-48 0 -141 46.5t-125 46.5t-83 -35t-71 -35q-39 0 -39 37z M280 285q0 -54 40.5 -94.5t108.5 -40.5h32q82 0 144 55.5t62 117.5l2 13v12l2 31v36q0 83 -63 83h-26l-6 -1h-13l-33 -3l-6 -1l-19 -1l-39 -4q-71 0 -128.5 -50.5t-57.5 -125.5v-27z" />
<glyph unicode="&#xe4;" horiz-adv-x="1054" d="M74 247v24q0 131 104 212q79 61 203 86q25 5 110.5 18.5t106.5 22.5q56 25 56 90t-39.5 112.5t-112 47.5t-167.5 -47.5t-125 -47.5q-74 0 -74 80q0 62 82 104q114 58 252 58q352 0 388 -275q8 -61 8 -253t6.5 -235.5t35.5 -89.5t29 -68q0 -75 -127 -75q-32 0 -97.5 25.5 t-87.5 25.5q-23 0 -55 -16q-113 -55 -227 -55q-1 1 -2 1q-115 0 -191 74t-76 181zM203 1280v16l5 33q0 26 22.5 48.5t58.5 22.5l23 3h19q12 -3 34 -3t42.5 -26t20.5 -70v-20l-4 -30q0 -28 -23 -51t-59 -23l-23 -3h-19l-4 1h-8q-6 2 -22.5 2t-39.5 23t-23 77zM276 292 q0 -71 41 -107t97 -36h31q98 0 164 74q47 53 47 163v12l1 19v13q0 72 -66 72h-6l-7 -1l-32 -2l-31 -3l-26 -3q-18 -3 -25 -3q-71 0 -129.5 -52t-58.5 -133v-13zM574 1271v15l4 29q0 22 23.5 45.5t79.5 23.5h21q52 0 75.5 -23.5t23.5 -49.5l5 -30v-27q-3 -12 -3 -29.5 t-22.5 -40t-49.5 -22.5q-6 -2 -11 -2l-15 -2h-20l-4 1h-8q-8 2 -11 2q-35 0 -61.5 26.5t-26.5 83.5z" />
<glyph unicode="&#xe5;" horiz-adv-x="1060" d="M68 244.5q0 93.5 26 149.5q62 131 290 181q31 7 46 9l70 9q76 12 101 24q52 25 52 90.5t-40.5 110.5t-111.5 45t-169 -49t-131 -49q-67 0 -67 87q0 58 89 103q112 56 244 56h49q99 0 175.5 -36.5t115.5 -95t50.5 -134t11.5 -272t10 -238t37 -82.5t27 -68.5t-27 -48.5 t-85 -21t-117.5 26t-83 26t-50.5 -11l-39 -18q-105 -42 -214 -42t-184 77.5t-75 171zM278 283q0 -61 35 -101t103 -40h32q108 0 175 86q40 51 40 162v56q0 48 -55 48h-12l-7 -1l-51 -4q-35 -5 -39 -5q-86 0 -153.5 -52.5t-67.5 -141.5v-7zM291 1322v21q0 72 57 129t137 57 h35q14 -2 20 -2q66 0 119.5 -59.5t53.5 -139.5l-1 -6q0 -81 -57 -138t-132 -57h-34q-80 0 -139 59t-59 136zM395 1328q0 -41 27.5 -68.5t42.5 -28.5t17 -1l14 -2h15l24 4q11 0 39 22.5t28 50.5l3 17v22l-1 3v7q-2 8 -2 19t-26.5 37.5t-50.5 26.5l-18 3h-18l-24 -4 q-11 0 -38 -21.5t-27 -45.5l-5 -27v-14z" />
<glyph unicode="&#xe6;" horiz-adv-x="1604" d="M87 248v34q0 117 98 199q75 63 209 91q211 44 217 47q48 22 48 86t-43.5 109.5t-116.5 45.5t-161 -47.5t-118 -47.5q-68 0 -68 70.5t100.5 118t229.5 47.5t228 -55q57 -31 75 -31t119.5 45.5t181.5 45.5h35q151 0 250 -87q60 -52 90.5 -129.5t30.5 -136.5v-33 q0 -93 -67 -119q-46 -18 -256.5 -33.5t-230.5 -22.5q-47 -18 -47 -83q0 -96 71.5 -156t184.5 -60q57 0 160 31.5t107 31.5q48 0 48 -56.5t-106 -108.5t-228 -52h-36q-133 0 -278 94q-50 33 -66 33q-16 -1 -80 -41q-134 -85 -278 -85q-1 1 -2 1q-145 0 -223 75t-78 179z M304 284q0 -63 42.5 -96t100.5 -33h33q95 0 153.5 52t58.5 126v105q0 57 -67 57h-26l-6 -1h-13l-7 -1h-13q-48 -5 -52 -5q-89 0 -158 -61q-46 -41 -46 -110v-33zM860 594q0 -38 87 -38h6l6 1l181 10q18 3 30 3q103 0 103 67v19q-3 18 -3 30q0 73 -55.5 122t-126.5 49h-13 q-86 0 -149.5 -63.5t-63.5 -167.5l-2 -13v-19z" />
<glyph unicode="&#xe7;" horiz-adv-x="1013" d="M86 435v72q0 95 36 193q68 186 238 251q82 32 209.5 32t223.5 -52t96 -137.5t-75 -85.5q-28 0 -124 57t-183.5 57t-138.5 -91.5t-51 -244.5q0 -341 245 -341q61 0 159.5 28.5t120.5 28.5q48 0 48 -64t-112 -122q-104 -54 -204 -58q4 -35 78 -90q77 -57 77 -136v-2v-16 q0 -63 -75.5 -115.5t-164.5 -52.5h-18q-99 0 -99 60v7q0 49 52.5 49t86 26t33.5 66t-41.5 69t-41.5 53q0 48 20 86q-267 30 -356 271q-39 107 -39 202z" />
<glyph unicode="&#xe8;" d="M81 477v24q1 104 31 203q57 187 223 264q93 43 194 43h46q153 0 255 -95q49 -46 79.5 -120t30.5 -149q0 -111 -72 -139q-56 -22 -258.5 -31.5t-242.5 -20.5q-60 -17 -60 -71q0 -109 76.5 -175t194.5 -66q62 0 171.5 30t116.5 30q44 0 44 -54t-107 -109t-240 -55h-46 q-86 0 -171 34q-265 106 -265 457zM274 1429l1 5q0 50 82 50h17q67 0 126 -67q159 -182 159 -248v-5q0 -29 -52 -29h-5q-36 0 -138 79q-190 148 -190 215zM303 628q0 -35 58 -35l30 -3h71l6 1l190 9q6 1 11 1q68 0 68 46v33q0 88 -53 147.5t-133 59.5h-34q-89 0 -151.5 -70 t-62.5 -171v-18z" />
<glyph unicode="&#xe9;" d="M84 464v70q0 98 37 197q70 188 257 254q71 25 153 25h23q171 0 276 -98q48 -44 77.5 -116.5t29.5 -129.5v-21q0 -107 -73 -135q-52 -20 -245.5 -29t-230.5 -17q-73 -16 -73 -78q0 -110 76.5 -171t193.5 -61q63 0 165 28t114 28q40 0 40 -52.5t-107.5 -107.5t-242.5 -55 h-23h-6q-89 0 -170 31q-165 62 -230 223q-41 103 -41 215zM301 619q0 -35 94 -35h13l6 1l86 5q21 3 31 3l111 7q6 1 29 1q59 0 59 87v7l-1 6v12l-2 25q0 60 -54.5 108.5t-120.5 48.5h-28q-84 0 -153.5 -69.5t-69.5 -186.5v-20zM407 1155v10q0 43 159 247q51 65 123 65h22 q82 0 82 -45v-15q0 -40 -140 -164.5t-182 -124.5h-21q-43 0 -43 27z" />
<glyph unicode="&#xea;" d="M80 458v71q0 110 38 205q112 279 438 279q161 0 264 -87q55 -46 88.5 -123.5t33.5 -141.5v-22q0 -106 -74 -136.5t-272 -30.5t-244 -22t-46 -72q0 -109 79 -172t200 -63q59 0 166 29.5t120 29.5q41 0 41 -54t-109 -110t-246 -56h-24q-209 0 -334 133q-56 60 -87.5 152.5 t-31.5 190.5zM236 1163v7q0 46 182 245q56 61 113 61h8q57 0 105 -57q180 -213 180 -252q0 -32 -59 -32h-8q-43 0 -119 76q-12 12 -20.5 22t-31.5 33l-52 52q-3 0 -94.5 -91.5t-134.5 -91.5h-23q-46 0 -46 28zM304 630q0 -36 84 -36h12l7 1l241 10l24 2q67 0 67 54v13l-1 7 v13q-2 12 -2 18q0 70 -59 122.5t-132 52.5h-20q-94 0 -157.5 -72.5t-63.5 -171.5v-13z" />
<glyph unicode="&#xeb;" horiz-adv-x="1047" d="M78 464v47q0 226 125 364q53 59 139 98.5t194 39.5h24q255 0 344 -205q34 -78 34 -148v-21q0 -96 -63 -127q-42 -21 -270 -36.5t-232 -16.5q-71 -17 -71 -82q0 -103 90 -178q67 -56 192 -56q60 0 163.5 28.5t121.5 28.5q39 0 39 -53q0 -59 -114 -111q-116 -52 -236 -52 q-334 0 -440 261q-40 100 -40 219zM227 1274v23l1 4l2 33q0 17 23.5 40.5t59.5 23.5l23 3h19q47 0 70 -23t23 -54l3 -15v-7l1 -12v-4l-1 -4v-8l-5 -30q0 -66 -77 -66l-18 -3h-31q-20 5 -29 5q-59 0 -59 64zM298 637q0 -39 57 -39l29 -3h12l7 1l114 4q130 0 171.5 12.5 t41.5 47.5v19q0 91 -53 150.5t-147 59.5h-7l-6 -1q-93 0 -156 -71t-63 -174v-6zM602 1275v15l1 3l2 31q0 17 24.5 41.5t71.5 24.5h35q20 -5 30 -5q64 0 64 -73l3 -23v-22q0 -38 -21 -64.5t-51 -26.5l-19 -4l-23 -2h-12l-31 4q-70 0 -70 71q-2 8 -2 11z" />
<glyph unicode="&#xec;" horiz-adv-x="587" d="M32 1420v5q0 49 74 49h5q70 0 124 -62q164 -187 164 -267v-13q0 -24 -40 -24h-14q-34 0 -129 84q-184 164 -184 228zM115 935v10q0 37 38 49t141 12l12 1q63 0 75.5 -43.5t12.5 -301.5t9.5 -333.5t34.5 -138.5t25 -69v-11q0 -37 -56 -66q-29 -15 -97 -15h-67 q-60 0 -88 24t-28 46t27 89.5t28.5 115.5t1.5 61l1 27v42l-1 27v97q0 194 -9.5 240t-34.5 84.5t-25 52.5z" />
<glyph unicode="&#xed;" horiz-adv-x="586" d="M122 928v10q0 38 40 50.5t124 12.5h37q57 0 69 -56q7 -32 7 -303.5t7.5 -334t32.5 -125t25 -66.5v-12q0 -85 -179 -85h-40q-63 0 -91 24.5t-28 51t25.5 80.5t31.5 129.5t6 260t-6.5 224t-33.5 83.5t-27 56zM162 1139v14q0 51 160 257q54 69 120 69h20q72 0 72 -55l-1 -5 q0 -51 -142.5 -177.5t-172.5 -126.5h-19q-37 0 -37 24z" />
<glyph unicode="&#xee;" horiz-adv-x="598" d="M2 1159q0 42 191 268q41 48 97 48h8q44 0 79 -35t117 -150t82 -123v-13q0 -26 -58 -26h-8q-47 0 -119 72q-18 18 -58 61.5t-43 43.5l-102 -102q-75 -75 -119 -75h-15q-52 0 -52 31zM124 925v10q0 37 37.5 50.5t128.5 13.5h26q70 0 82 -57q8 -38 8 -184v-160l1 -41v-28 l1 -42v-27l3 -95q1 -14 1 -68t29.5 -109.5t29.5 -79.5v-11q0 -42 -55 -68q-32 -15 -98 -15h-81q-46 0 -76 22.5t-30 50t25 80.5t30 116.5t5 265.5t-8 241t-33.5 80.5t-25.5 54.5z" />
<glyph unicode="&#xef;" horiz-adv-x="596" d="M-12 1273v4l1 4l3 32q0 30 26 56t67 26h25l24 -4q21 0 43.5 -22.5t22.5 -52.5q3 -12 3 -15l2 -21v-12q0 -58 -28 -86t-76 -28h-15q-43 0 -68 25t-25 54l-2 8zM126 928v11q0 37 39 49.5t124 12.5h38q50 0 63 -48q9 -33 9 -187v-166l1 -42v-83l1 -27v-41l4 -80 q0 -61 10.5 -89t30 -64.5t19.5 -52.5v-22q0 -42 -55 -68q-34 -16 -123 -16h-39q-59 0 -86.5 23.5t-27.5 49.5t25 81.5t30.5 125t5.5 264.5t-8 233t-34.5 81t-26.5 55zM359 1283v4l1 3l3 31q0 33 26 54.5t55 21.5l22 3h24q39 0 65.5 -21t26.5 -61q2 -8 2 -12l1 -15v-8l-1 -4 q0 -53 -24 -77t-52 -24q-10 -3 -15 -3l-19 -2h-16l-4 1h-7q-8 2 -24 2t-40 24t-24 83z" />
<glyph unicode="&#xf0;" horiz-adv-x="1150" d="M113 425v29q0 225 143 364q69 67 153 90.5t215 23.5q79 0 79 46.5t-47 91.5t-124 45l-76 -4q-48 0 -48 51q0 7 23.5 44.5t23.5 54.5t-50 65t-50 70q0 49 49.5 49t136.5 -29t127 -29l129 15q64 0 64 -70l-3 -16l-12 -30q-10 -31 -10 -56t57 -136q133 -259 133 -537 t-116 -420q-126 -157 -345.5 -157t-335.5 126t-116 319zM326 432q0 -137 62 -230t165 -93h21q104 0 166.5 100t62.5 273v33q-2 22 -2 33q0 122 -60.5 204.5t-171.5 82.5h-29q-98 0 -156 -96.5t-58 -262.5v-44z" />
<glyph unicode="&#xf1;" horiz-adv-x="1175" d="M106 62v24q0 6 26.5 69.5t26.5 115.5l2 114v117q0 283 -16 334l-8 20l-10 19q-11 23 -11 45q0 50 147 51q38 0 88.5 -24.5t64.5 -24.5t43 13l23 11q29 14 82.5 35t137.5 21t155 -38.5t112 -125.5t41 -420q0 -141 4.5 -173.5t28 -83.5t23.5 -70q0 -87 -98 -87 q-189 0 -189 115q0 3 9.5 52t11.5 88t2 237.5t-39 281.5t-147 83q-71 0 -127.5 -34t-80.5 -76q-37 -67 -37 -357q0 -130 16 -191.5t16 -77.5q0 -50 -55.5 -84t-161.5 -34q-80 0 -80 55zM252 1245q0 57 63.5 111t130.5 54h9q44 0 140 -45t132 -45t79.5 36.5t70.5 36.5 q39 0 39 -55t-61 -110.5t-116 -55.5h-33q-43 0 -134 45.5t-123 45.5t-86 -37.5t-79 -37.5q-32 0 -32 57z" />
<glyph unicode="&#xf2;" horiz-adv-x="1121" d="M90 480v34q0 96 29 193q55 183 217 262q91 44 182 44h67q91 -1 179 -41q167 -77 219 -251q31 -103 31 -208v-34q0 -232 -133 -371q-122 -128 -315 -128q-18 0 -36 1q-205 0 -323 134q-117 134 -117 365zM289 1417v10q0 52 79 52h28q71 0 119 -62q159 -204 159 -255v-15 q0 -26 -49 -26h-11q-50 0 -150 89q-175 156 -175 207zM299 502q0 -172 64.5 -272t190.5 -100h11q102 0 165.5 79t63.5 218l2 23l1 46v12l-1 11q0 175 -67 272.5t-185 97.5h-11l-11 -1q-105 0 -164 -89t-59 -239v-58z" />
<glyph unicode="&#xf3;" horiz-adv-x="1120" d="M90 462v52q0 118 35 214q68 185 239 253q84 33 187 33l17 -1q93 0 179 -34q179 -71 240 -273q27 -90 27 -192v-18l-1 -17q0 -338 -258 -458q-88 -41 -191 -41h-34q-92 0 -174 32q-164 64 -230 245q-36 98 -36 205zM299 472q0 -148 62 -238t165 -90h32q57 0 108 30 q133 78 133 360v12q0 163 -62 256t-173 93h-22q-110 0 -175 -88.5t-65 -220.5l-2 -22l-1 -35v-57zM422 1139v10q0 72 166 262q53 61 123 61h16q81 0 81 -57t-180 -217q-99 -88 -142 -88h-22q-42 0 -42 29z" />
<glyph unicode="&#xf4;" horiz-adv-x="1123" d="M88 478v17l1 18q0 216 114 356q53 64 140.5 104.5t174.5 40.5h68q90 0 178 -40q160 -74 221 -253q32 -96 32 -209v-34q0 -117 -35 -212q-68 -184 -231 -251q-94 -39 -203 -39l-17 1q-208 0 -332 143q-53 61 -82 158t-29 200zM252 1155q0 53 189 258q50 54 108 54h8 q52 0 93 -45q189 -206 189 -265q0 -32 -56 -32t-144 88t-91.5 88t-42 -38.5t-64.5 -62.5q-82 -76 -135.5 -76t-53.5 31zM298 488q2 -22 2 -33q0 -129 64 -222t166 -93h43q112 0 169.5 95.5t57.5 250.5v56q0 167 -72 257t-167 90h-33q-102 0 -166 -93.5t-64 -249.5v-58z" />
<glyph unicode="&#xf5;" horiz-adv-x="1121" d="M91 464v52q0 217 114 355q51 62 140.5 103.5t190.5 41.5h34q95 0 182 -36q163 -68 223 -227q41 -108 41 -221v-52q0 -234 -127 -367t-341 -133l-17 1q-301 0 -405 277q-35 93 -35 206zM218 1207v8q0 60 58.5 118.5t127.5 58.5h25q43 0 137.5 -44.5t127.5 -44.5t75.5 35.5 t71.5 35.5q36 0 36 -40v-8q0 -71 -62 -123.5t-128 -52.5l-8 1q-55 0 -143 44t-124.5 44t-83.5 -36t-73 -36q-37 0 -37 40zM296 518q0 -181 67 -278t178 -97h33q105 0 167 90.5t62 249.5v68q-2 22 -2 33q0 122 -68 215t-193 93l-11 -1q-108 0 -170.5 -91t-62.5 -259v-23z" />
<glyph unicode="&#xf6;" horiz-adv-x="1117" d="M81 480v18l1 17q0 107 30 199q58 174 203 249q98 51 197 51h67q91 0 179 -40q166 -77 223 -267q27 -90 27 -193v-17l-1 -17q0 -99 -29 -196q-58 -193 -234 -265q-92 -38 -186 -38h-34q-112 0 -197.5 41t-137 103.5t-80 157.5t-28.5 197zM247 1266v23q0 111 104 111h24 q41 0 66.5 -20.5t25.5 -52.5q2 -6 2 -11l2 -15v-27q0 -40 -22.5 -68t-59.5 -28q-8 -2 -11 -2l-19 -2h-12l-30 4q-67 0 -67 73zM292 515q0 -185 61.5 -283t175.5 -98h32q90 0 153.5 79.5t63.5 219.5l2 22l1 35v57q0 159 -64.5 252.5t-168.5 93.5h-32q-110 0 -167 -97 t-57 -269v-12zM613 1259v20l1 3l2 32q0 16 22.5 42.5t58.5 26.5q8 2 12 2l16 2h24l30 -5q63 0 63 -74l3 -20v-32q0 -46 -26 -72t-62 -26q-8 -2 -12 -2l-16 -1h-4l-4 1h-8l-23 3q-33 0 -55 27.5t-22 72.5z" />
<glyph unicode="&#xf7;" horiz-adv-x="1115" d="M107 576v20l1 10q0 58 43 65q24 4 409 4h361q77 0 77 -39v-40q0 -58 -44 -65q-19 -3 -410 -3h-31l-41 -1h-308q-57 0 -57 49zM429 936v20q5 20 5 39t29 43t83 24h13q60 0 84.5 -24.5t24.5 -51.5l5 -31v-24q-3 -9 -3 -28.5t-25 -44.5t-61 -25l-16 -3h-8l-13 -1h-4 q-114 0 -114 107zM432 234v32q3 12 3 32t29 44.5t90 24.5h4l4 -1l24 -2q4 -1 21 -1t41.5 -24.5t24.5 -72.5v-32q-3 -9 -3 -28.5t-23.5 -43t-55.5 -23.5q-10 -3 -15 -3l-21 -2h-16q-107 0 -107 100z" />
<glyph unicode="&#xf8;" horiz-adv-x="1137" d="M105 464v21q0 255 142 397q71 71 160.5 99t215.5 28l84 -3q39 0 93.5 26t67.5 26h14q53 0 53 -52l-16 -101q0 -7 42 -137t42 -239v-20q0 -242 -130 -383t-369 -141l-104 4q-39 0 -93 -27t-67 -27h-14q-51 0 -51 54l17 101l-55 170q-32 99 -32 204zM300 488l1 -9v-17 q2 -18 2 -26q0 -81 36 -153q8 -15 15 -15q13 0 103.5 130.5t156 261.5t65.5 148v13q0 19 -24.5 41t-78.5 22h-41q-105 0 -170 -94t-65 -267v-35zM440 147q0 -42 72 -42h13q111 0 185.5 121t74.5 289q2 18 2 26l2 33v63l-4 44q0 55 -17 55q-8 0 -75 -134t-160 -278.5 t-93 -163.5v-13z" />
<glyph unicode="&#xf9;" horiz-adv-x="1162" d="M87 938q0 52 111.5 52t135.5 -81q18 -60 18 -319.5t22 -321.5q44 -124 152 -124q144 0 206 96q44 68 44 339q0 139 -9 190.5t-16 82t-7 37.5q0 50 48.5 76t115.5 26t79 -53q2 -10 2 -210v-310l2 -83q0 -102 21.5 -159.5t21.5 -68.5q0 -80 -126 -80q-64 0 -109.5 27 t-67.5 27q-1 0 -94 -40t-177 -40q-187 0 -261 135q-56 101 -56 436q0 142 -4 194.5t-28 103t-24 68.5zM304 1422v5l1 5q0 52 75 52h15q69 0 129 -68q168 -192 168 -252l-1 -4q0 -26 -41 -26h-10l-6 1q-38 0 -143 82q-187 145 -187 205z" />
<glyph unicode="&#xfa;" horiz-adv-x="1161" d="M88 926v22q0 43 109 43t134.5 -66t25.5 -336q0 -271 24 -329q47 -114 159 -114h2q143 0 204 118q29 56 29 271t-17 284.5t-17 83.5q0 47 52.5 69t119.5 22t76 -66q1 -7 1 -265.5t3.5 -353t24.5 -143.5t21 -68q0 -71 -140 -71q-58 0 -103 28t-51 28t-106.5 -41t-185 -41 t-155 36.5t-105.5 107.5q-50 100 -50 440q0 168 -4 200t-27.5 85t-23.5 56zM436 1162v9q0 49 172 246q57 65 123 65h16q75 0 75 -53v-5q0 -59 -147.5 -174t-183.5 -115h-5l-5 1h-6q-39 0 -39 26z" />
<glyph unicode="&#xfb;" horiz-adv-x="1161" d="M85 935q0 53 112 53t139 -82q18 -55 18 -332.5t28.5 -336t67 -81t98 -22.5t111 29t76.5 71q40 66 40 281t-16.5 292.5t-16.5 80.5q0 41 40.5 71.5t118 30.5t88.5 -55q2 -9 2 -341t17 -400q4 -15 18 -50.5t14 -49.5q0 -80 -130 -80q-63 0 -108.5 28.5t-69.5 28.5 q-2 0 -93.5 -41t-179.5 -41q-188 0 -264 136q-54 97 -54 469q0 150 -5.5 189t-28 84t-22.5 68zM269 1171q0 51 189 257q50 55 106 55h8q50 0 92 -46q194 -212 194 -265q0 -30 -52 -30h-23q-44 0 -137 101q-11 12 -23.5 24.5t-18 19t-22.5 23.5t-18 17t-93.5 -92.5 t-132.5 -92.5h-16q-53 0 -53 29z" />
<glyph unicode="&#xfc;" horiz-adv-x="1161" d="M81 936q0 53 110.5 53t137.5 -82q17 -52 17 -330t29.5 -339t67.5 -82t104.5 -21t119 35.5t79.5 93.5t27 252t-17 290l-5 21l-6 21q-7 28 -7 38q0 43 39 73.5t115.5 30.5t89.5 -53q2 -8 2 -278.5t2.5 -345.5t8.5 -99t20.5 -62.5t14.5 -49.5v-19q0 -15 -24.5 -38.5 t-94.5 -23.5t-115.5 27t-62.5 27t-45 -13l-22 -11q-110 -57 -204 -57q-191 0 -270 136q-55 95 -55 467q0 142 -6 185.5t-28 89.5t-22 64zM250 1284v8l1 4q0 106 114 106h4q51 0 76.5 -21t25.5 -54q2 -8 2 -11l2 -16v-19l-5 -34q0 -24 -24 -48t-70 -24h-35q-9 3 -18 3 q-68 0 -68 68q-4 16 -4 22zM639 1272v27l4 27q0 71 72 71q12 3 15 3l23 2h8l4 -1h7l29 -5q63 0 63 -103v-4q0 -114 -99 -114h-35q-12 3 -26 3t-39.5 20.5t-25.5 73.5z" />
<glyph unicode="&#xfd;" horiz-adv-x="1070" d="M75 908q0 45 32 62.5t92 17.5q102 0 136 -63q11 -20 29 -132t86 -316t100 -204q10 0 28 23q54 70 110 260.5t56 346.5q0 93 124 93h28q83 0 83 -72q0 -31 -37 -111t-73 -197q-177 -566 -255 -715q-153 -291 -341 -291q-62 0 -97 31q-13 12 -13 39t47 58q13 9 79.5 26 t104.5 55q75 75 75 182q0 49 -88 205t-122 235q-184 422 -184 467zM420 1149v5q0 70 178 270q49 55 101 55h16q33 0 61 -21t28 -40l-1 -4q0 -29 -150 -162.5t-174 -133.5h-16q-43 0 -43 31z" />
<glyph unicode="&#xfe;" horiz-adv-x="1162" d="M124 1375q0 47 115 47h24q69 0 95 -64q16 -40 21 -178t13 -171q11 -48 49 -48q17 0 92 21.5t144 21.5t143 -32q143 -61 199 -234q31 -97 31 -199v-30q0 -117 -38 -220q-75 -200 -256 -261q-56 -19 -154 -26.5t-149 -29t-51 -82.5q0 -26 13.5 -72.5t13.5 -94.5t-57 -82 t-128 -34t-93 17.5t-22 43.5q1 26 21 94.5t20 267.5l2 56l2 140v85l1 57v414q0 416 -17 481q-6 22 -20 56.5t-14 55.5zM377 403q0 -174 29 -217q47 -70 163 -70h21q108 0 171.5 98.5t63.5 271.5v47q0 166 -62 256t-159 90l-10 -1q-99 0 -156 -57t-57 -149q-2 -20 -2 -31 l-2 -54v-184z" />
<glyph unicode="&#xff;" horiz-adv-x="1080" d="M95 890v20q0 66 138 66q95 0 121 -73q6 -17 13 -60l3 -23q11 -84 50 -213q101 -340 134 -340q50 0 123.5 220.5t73.5 399.5q0 100 114 100h28q88 0 88 -66q0 -38 -35.5 -115t-69.5 -191q-166 -555 -239.5 -697t-161.5 -225.5t-184 -83.5q-60 0 -86 21t-26 35q0 36 44 66 q15 10 80.5 27t102.5 53q80 78 80 181q0 56 -79.5 194t-126.5 240q-185 400 -185 464zM231 1258v17l4 32q0 74 69 74l21 3h27l29 -4q63 0 63 -57q4 -12 4 -19l2 -28v-20q0 -105 -100 -105h-28q-85 0 -85 68q-3 9 -3 15zM614 1269v8q0 57 24 81t53 24q8 2 11 2l15 2h31 q37 0 62.5 -20t25.5 -54q2 -6 2 -11l2 -15v-20l-5 -34q0 -67 -71 -67q-12 -3 -15 -3l-20 -2h-15l-33 5q-22 0 -44.5 22.5t-22.5 81.5z" />
<glyph unicode="&#x152;" horiz-adv-x="1928" d="M115 657v45q1 151 43 285q83 261 305 360q115 51 278 51q36 0 177 -13t207 -13l36 3q142 15 268 15t213 -36t87 -79q0 -35 -133 -35l-33 2l-35 1q-36 1 -114 1q-125 0 -173.5 -61.5t-48.5 -210.5q0 -88 40.5 -123t116.5 -35q28 0 88.5 10.5t100.5 10.5t68.5 -26.5 t28.5 -93.5q0 -101 -104 -101q-17 0 -72 9.5t-119.5 9.5t-110.5 -37t-46 -175t39 -198.5t181 -60.5l308 14q47 0 47 -26q0 -72 -120 -112q-87 -29 -203.5 -29t-210.5 10t-146 10t-148 -9l-38 -4l-39 -5q-88 -10 -123 -10h-41q-273 0 -428 187q-74 90 -110 215.5t-36 253.5z M335 630q0 -208 100 -352t259 -144h30q136 0 175 78t39 285q2 30 2 46l2 63v32l2 64v32l1 48v32q0 303 -41 378.5t-200 75.5t-271 -159q-40 -56 -69 -162t-29 -235v-82z" />
<glyph unicode="&#x153;" horiz-adv-x="1710" d="M76 474v32q0 101 34 202.5t99 166.5q125 124 325 124q151 0 259 -79q67 -49 79 -49q12 -1 53 29q142 100 274 100h29q159 0 253.5 -99.5t94.5 -260.5q0 -92 -66 -127q-43 -23 -225.5 -42t-229.5 -33q-62 -18 -62 -73q0 -90 73.5 -150t180.5 -60q55 0 161 30.5t112 30.5 q39 0 39 -54q0 -60 -127 -121q-96 -46 -234 -46t-260 81q-57 38 -77 38t-76.5 -36t-86.5 -48q-92 -37 -190 -37q-197 0 -317 129q-54 58 -84.5 151.5t-30.5 200.5zM285 460q0 -161 70 -263q56 -82 170 -82q225 0 225 336v89q-2 22 -2 32q0 122 -53.5 213t-160.5 91h-10 q-109 0 -173 -93t-64 -231l-2 -23v-69zM966 616q0 -37 59 -37h46l6 1l104 7l6 1l37 3q30 5 48 5q103 0 103 66v41q0 61 -46 113.5t-120 52.5h-20q-92 0 -157.5 -73.5t-65.5 -173.5v-6z" />
<glyph unicode="&#x178;" horiz-adv-x="1223" d="M82 1312q0 58 159 58q94 0 127 -58q9 -17 17.5 -51t17 -57t107.5 -225.5t117 -202.5q40 0 168 262q41 83 52 121t22 91t28 80q41 67 138 67h25q93 0 93 -55q0 -32 -57 -117.5t-181 -338t-140 -294.5q-66 -170 -66 -341q0 -40 15 -85t15 -74t-30.5 -58.5t-91.5 -29.5h-24 q-144 0 -144 103q0 18 17 64l8 21q14 35 27 76t13 149.5t-57 232.5q-16 35 -85 160t-114.5 211t-110.5 174t-65 117zM332 1622v33q5 20 5 32q0 72 78 72h18l4 -1l39 -1l13 -2q47 0 47 -60l5 -32v-33l-5 -31q0 -22 -25 -47t-63 -25l-8 -2h-18q-9 3 -17 3q-69 0 -69 67 q-2 8 -2 11zM710 1639v30l4 26q0 26 22.5 48.5t52.5 22.5q8 2 12 2l19 2h19q12 -3 23 -3q68 0 68 -66q2 -6 2 -11l2 -15v-26q0 -102 -118 -102l-4 1h-15q-16 3 -18 3q-69 0 -69 88z" />
<glyph unicode="&#x2c6;" horiz-adv-x="822" d="M120 1162v7q0 47 198 262q47 51 100 51h9q50 0 98 -52q187 -203 187 -266q0 -34 -60 -34l-8 1h-8q-48 0 -165 138q-43 51 -53 51q-4 0 -98.5 -94.5t-147 -94.5t-52.5 31z" />
<glyph unicode="&#x2dc;" horiz-adv-x="932" d="M120 1183v17q0 61 64 115t122 54h34q44 0 137.5 -44t132.5 -44t87 37t82.5 37t34.5 -35v-17q0 -62 -64 -116.5t-130 -54.5h-17l-9 1q-49 0 -141.5 43.5t-130.5 43.5t-85.5 -36.5t-74.5 -36.5q-42 0 -42 36z" />
<glyph unicode="&#x2000;" horiz-adv-x="945" />
<glyph unicode="&#x2001;" horiz-adv-x="1891" />
<glyph unicode="&#x2002;" horiz-adv-x="945" />
<glyph unicode="&#x2003;" horiz-adv-x="1891" />
<glyph unicode="&#x2004;" horiz-adv-x="630" />
<glyph unicode="&#x2005;" horiz-adv-x="472" />
<glyph unicode="&#x2006;" horiz-adv-x="315" />
<glyph unicode="&#x2007;" horiz-adv-x="315" />
<glyph unicode="&#x2008;" horiz-adv-x="236" />
<glyph unicode="&#x2009;" horiz-adv-x="378" />
<glyph unicode="&#x200a;" horiz-adv-x="105" />
<glyph unicode="&#x2010;" horiz-adv-x="827" d="M111 538v23q0 67 31 77.5t286 10.5l196 3h37q58 0 58 -52v-22q-2 -14 -2 -22q0 -50 -37.5 -58.5t-278.5 -8.5h-45l-22 -1h-45l-30 -1h-104q-44 0 -44 51z" />
<glyph unicode="&#x2011;" horiz-adv-x="827" d="M111 538v23q0 67 31 77.5t286 10.5l196 3h37q58 0 58 -52v-22q-2 -14 -2 -22q0 -50 -37.5 -58.5t-278.5 -8.5h-45l-22 -1h-45l-30 -1h-104q-44 0 -44 51z" />
<glyph unicode="&#x2012;" horiz-adv-x="827" d="M111 538v23q0 67 31 77.5t286 10.5l196 3h37q58 0 58 -52v-22q-2 -14 -2 -22q0 -50 -37.5 -58.5t-278.5 -8.5h-45l-22 -1h-45l-30 -1h-104q-44 0 -44 51z" />
<glyph unicode="&#x2013;" horiz-adv-x="1081" d="M107 554v10q0 62 48 70q36 6 389 6l302 2h19q70 0 90 -10t20 -45v-20q0 -62 -48 -70q-36 -6 -408 -6h-191l-40 -1h-100q-54 0 -67.5 12.5t-13.5 51.5z" />
<glyph unicode="&#x2014;" horiz-adv-x="1612" d="M90 550v15q0 62 78 70q39 4 656 4l456 2h31q155 0 180.5 -10t25.5 -52v-15q0 -62 -80 -70q-40 -4 -655 -4h-267l-62 -1h-250q-66 0 -89.5 9.5t-23.5 51.5z" />
<glyph unicode="&#x2018;" horiz-adv-x="507" d="M126 1140l1 7q0 125 63.5 225t131.5 100h6q39 0 39 -43q0 -10 -32 -68.5t-32 -104.5q0 -12 36 -72t36 -109v-13q0 -43 -34 -67t-82 -24h-7q-73 0 -99.5 41.5t-26.5 127.5z" />
<glyph unicode="&#x2019;" horiz-adv-x="503" d="M145 999v10q0 17 35.5 73t35.5 99q0 11 -32.5 70.5t-32.5 110.5q0 105 109 105h28q52 0 79 -30.5t27 -79.5l2 -14v-43q0 -103 -68 -219t-139 -116h-6q-38 0 -38 34z" />
<glyph unicode="&#x201a;" horiz-adv-x="502" d="M131 -191l42 84q24 48 24 77t-31.5 81.5t-31.5 106.5q0 107 116 107h2h14q60 0 87.5 -31t27.5 -100v-29q0 -110 -68.5 -227t-135.5 -117h-6q-40 0 -40 38v10z" />
<glyph unicode="&#x201c;" horiz-adv-x="855" d="M113 1134v14q0 116 62 222t134 106h6q40 0 40 -48q0 -12 -40 -79q-25 -50 -25 -78t35.5 -87.5t35.5 -112.5l-1 -6q0 -41 -29.5 -67t-84.5 -26h-7q-71 0 -98.5 39.5t-27.5 122.5zM481 1120v43q0 101 61.5 206.5t133.5 105.5h5q41 0 41 -47l-39 -78q-26 -52 -26 -79 t35.5 -83t35.5 -108v-20q0 -39 -33.5 -62.5t-80.5 -23.5h-7q-126 0 -126 146z" />
<glyph unicode="&#x201d;" horiz-adv-x="852" d="M131 1008v5q0 2 34 70t34 91t-31.5 81t-31.5 111q0 106 101 106h35q43 0 73.5 -27.5t30.5 -76.5l2 -14l1 -21v-21l-1 -7l-2 -36q0 -99 -73 -199.5t-128 -100.5l-5 1h-6q-33 0 -33 38zM498 1008v5q0 18 34 71.5t34 83t-31.5 87t-31.5 111.5t28.5 79.5t72.5 25.5h36 q52 0 78.5 -30t26.5 -80l2 -14v-43q0 -107 -66.5 -221t-137.5 -114h-6q-39 0 -39 39z" />
<glyph unicode="&#x201e;" horiz-adv-x="857" d="M121 -195q0 2 32 66t32 90.5t-31.5 84t-31.5 109.5t30 79t82 27h14l7 -1q50 0 79.5 -26.5t29.5 -77.5l2 -14v-49l-5 -49q0 -64 -65 -175.5t-125 -111.5h-17q-33 0 -33 38v10zM491 -199q0 4 32 68t32 104q0 10 -31.5 73t-31.5 112t30.5 76t83.5 27h21q14 -2 21 -2 q39 0 65.5 -30t26.5 -93v-36q-3 -21 -3 -35q0 -87 -70 -197t-131 -110h-5q-40 0 -40 43z" />
<glyph unicode="&#x2022;" horiz-adv-x="869" d="M179 634v26q0 102 76.5 172t179.5 70h17q16 -2 24 -2q78 0 144.5 -66.5t66.5 -154.5v-42q0 -103 -75 -172t-172 -69h-34q-100 0 -163.5 69.5t-63.5 168.5z" />
<glyph unicode="&#x2026;" horiz-adv-x="1487" d="M100 131q0 53 25 88t67 35q12 3 13 3l21 2h18q114 0 114 -109v-31q-3 -12 -3 -21q0 -43 -35 -68t-79 -25h-35q-106 0 -106 126zM593 113v31q0 53 29.5 82.5t73.5 29.5q10 2 13 2l18 1l22 -2l16 -2q31 0 58 -27t27 -78v-31q-3 -12 -3 -21q0 -39 -33 -66.5t-90 -27.5h-13 l-34 4q-34 0 -59 30t-25 75zM1084 126v9q0 124 126 124h13l34 -4q30 0 55 -25t25 -55l3 -12l2 -22v-17l-5 -34q0 -33 -30.5 -58t-68.5 -25q-8 -2 -13 -2l-18 -1h-4l-34 4q-35 0 -60 30t-25 88z" />
<glyph unicode="&#x202f;" horiz-adv-x="378" />
<glyph unicode="&#x2039;" horiz-adv-x="754" d="M111 538v11q0 26 201 227t247 201t46 -48v-9q0 -41 -145.5 -204.5t-145.5 -172.5t73.5 -87t89.5 -96q128 -143 128 -192t-47 -49h-10q-20 0 -228.5 186.5t-208.5 232.5z" />
<glyph unicode="&#x203a;" horiz-adv-x="755" d="M154 931.5q0 48.5 41 48.5h10q31 0 234 -192.5t203 -229.5t-201.5 -238.5t-236.5 -201.5q-48 0 -48 49t146 213.5t146 172.5q0 1 -147 165.5t-147 213z" />
<glyph unicode="&#x205f;" horiz-adv-x="472" />
<glyph unicode="&#x20ac;" horiz-adv-x="1294" d="M93 552.5q0 32.5 56 57t56 57.5q0 52 -37 75q-62 38 -62 65.5t72 88.5q42 36 111.5 161.5t146.5 189.5q152 126 367 126q140 0 227.5 -44t87.5 -118q0 -63 -78 -63q-10 0 -87.5 18t-156.5 18t-156 -55.5t-77 -113.5t60 -91q34 -19 137 -43.5t103 -54.5q0 -69 -223 -79 q-116 -5 -146.5 -19t-30.5 -60t187 -58.5t187 -59.5q0 -40 -112.5 -73.5t-125.5 -41.5q-49 -28 -49 -68q0 -87 103 -143q79 -43 188 -43q45 0 125 16t106 16q44 0 44 -40q0 -71 -114 -125.5t-232 -54.5q-231 0 -365 122q-65 59 -128 185t-123.5 173t-60.5 79.5z" />
<glyph unicode="&#x2122;" horiz-adv-x="1679" d="M97 1318v13q0 65 39 76q18 5 257 5l206 1q62 0 62 -66v-25q0 -41 -34 -41q-6 0 -46.5 11.5t-68.5 11.5q-48 0 -58 -47q-6 -28 -6 -136v-187l1 -42q0 -25 16.5 -68.5t16.5 -59.5q0 -48 -93 -48h-27q-87 0 -87 67q0 2 17 41.5t17 96.5v135q0 177 -11 211.5t-47 34.5 t-74.5 -11.5t-48.5 -11.5q-31 0 -31 39zM752 779v18q0 5 11.5 33t13.5 37.5t2 81.5v98l1 27q1 27 1 54l2 53v53q0 43 -7.5 83t-7.5 45q0 31 73 31t105.5 -36.5t115 -201.5t90.5 -165q3 0 83 163.5t103 192.5q40 50 110.5 50t70.5 -45l-1 -18l-6 -44q-3 -47 -3 -76l1 -26v-54 l1 -27v-185q2 -43 14.5 -80t12.5 -40q0 -56 -87 -56q-40 0 -56.5 29t-16.5 115q0 270 -24 270q-17 0 -80 -157.5t-72 -175.5q-30 -60 -66.5 -60t-54 30t-87.5 202t-83 172q-22 0 -22 -308l1 -22l2 -38q0 -59 -68 -59h-19q-53 0 -53 36z" />
<glyph unicode="&#xe000;" horiz-adv-x="990" d="M0 0v990h990v-990h-990z" />
</font>
</defs>
</svg>
