<?xml version="1.0" standalone="no"?>
<!DOCTYPE svg PUBLIC "-//W3C//DTD SVG 1.1//EN" "http://www.w3.org/Graphics/SVG/1.1/DTD/svg11.dtd" >
<svg xmlns="http://www.w3.org/2000/svg">
<metadata></metadata>
<defs>
<font id="averia_librebold" horiz-adv-x="1204" >
<font-face units-per-em="2048" ascent="1638" descent="-410" />
<missing-glyph horiz-adv-x="561" />
<glyph horiz-adv-x="0" />
<glyph unicode="&#xd;" horiz-adv-x="2048" />
<glyph unicode=" "  horiz-adv-x="561" />
<glyph unicode="&#x09;" horiz-adv-x="561" />
<glyph unicode="&#xa0;" horiz-adv-x="561" />
<glyph unicode="!" horiz-adv-x="636" d="M178 107v15l4 33q0 46 34 70.5t72 24.5l29 3h20l5 -1h9q15 -3 19 -3q42 0 68.5 -32t26.5 -89v-25q0 -131 -130 -131h-34q-15 3 -38 3t-52.5 25.5t-29.5 77.5zM195 1297v11q0 75 32 99t111 24h36q49 0 69 -21.5t20 -96.5l-1 -12v-36l-3 -60l-1 -12l-1 -25l-3 -62 q-5 -60 -5 -87l-2 -26q-2 -26 -2 -38l-3 -39q-2 -26 -2 -38l-2 -26q-2 -26 -2 -38l-3 -38q-2 -26 -2 -38l-3 -37q-2 -25 -2 -38l-5 -74l-2 -24q-2 -24 -2 -37l-2 -24q-1 -12 -1 -45q0 -67 -98 -67h-13q-43 0 -57.5 19.5t-14.5 76.5q-4 48 -4 61l-2 50l-2 24l-3 75l-2 25 l-1 37l-4 90l-4 76l-7 165l-1 12l-3 74v25z" />
<glyph unicode="&#x22;" horiz-adv-x="822" d="M130 1374v13q0 36 21.5 50.5t78.5 14.5h54q70 0 70 -64v-20l-1 -7l-5 -82l-2 -28q-4 -28 -5 -41.5t-2.5 -27.5t-1.5 -20l-3 -21q-2 -14 -2 -21l-4 -28q-3 -21 -3 -28q0 -72 -25 -108q-15 -21 -62 -21h-33q-50 0 -50 61l-19 269l-1 7l-1 13v14l-3 41v13zM483 1356v40 q0 56 109 56h35q79 0 79 -54v-41l-1 -7l-6 -88l-1 -7l-1 -14l-3 -34q-6 -42 -6 -55l-3 -21q-3 -21 -3 -28l-6 -42q-5 -35 -5 -41q0 -50 -20 -67.5t-64 -17.5h-26q-53 0 -53 57q-2 14 -2 21l-1 6v14l-2 21v14l-9 124l-5 62z" />
<glyph unicode="#" horiz-adv-x="1276" d="M87 463.5q0 47.5 40 70.5q16 9 81.5 19t84.5 33q43 53 43 185q0 29 -16 39.5t-75 15t-81.5 16t-22.5 62t40 76.5q15 10 89.5 19.5t96 40t43.5 144t43 136.5t93 23t72 -59q0 -30 -16 -130.5t-16 -104.5q0 -52 89 -52t110 16.5t44 129.5t47.5 159.5t96.5 46.5t72 -59 l-23 -197q0 -49 15 -65t82 -36t67 -67v-29q0 -62 -111 -72q-69 -6 -86 -20q-54 -43 -54 -210q0 -31 57 -39q106 -14 119.5 -26t13.5 -58t-22.5 -67.5t-96 -29.5t-98.5 -36t-51.5 -142.5t-33.5 -126.5q-23 -41 -97.5 -41t-74.5 65q0 36 15.5 123.5t15.5 116t-13.5 37.5t-88 9 t-95.5 -16.5t-43.5 -129t-49 -160t-76 -47.5t-71.5 13.5t-22 69.5l8 66q10 82 10 114.5t-13 53.5t-77 47t-64 73.5zM501 564q0 -10 15 -10h181q38 0 38 39l5 25q11 55 11 65l7 39q12 60 12 70l2 9v13q0 11 -39 11h-50l-6 -1h-20q-94 0 -103 -4q-23 -10 -23 -75 q-28 -140 -28 -159l-2 -9v-13z" />
<glyph unicode="$" horiz-adv-x="1154" d="M126 229q0 110 70 110q46 0 123.5 -64.5t131.5 -64.5t54 200q0 106 -38 159q-17 23 -128 97t-159 160q-40 71 -40 158q0 20 2 42q18 185 207 274q126 60 135.5 68.5t38.5 66t55 57.5h22q28 0 64 -52t70 -74t99 -44q151 -50 151 -169q0 -42 -21 -72t-52 -30t-97 41t-86 41 q-67 0 -67 -211v-6q0 -82 17 -103.5t142 -90t177 -146t52 -205t-79 -225.5q-50 -61 -102 -87.5t-108.5 -47.5t-67.5 -28q-31 -19 -45 -88t-59 -69q-55 0 -89.5 69.5t-62.5 85t-112 40.5q-198 59 -198 208zM364 1005l1 -5v-9q2 -10 2 -14q0 -41 49 -90t88 -49h7q15 0 15 177 v28l1 9v28l1 14v41q0 58 -26 58l-4 -1q-54 0 -92.5 -46.5t-38.5 -88.5l-3 -23v-29zM647 459l1 -5l3 -43q3 -18 3 -27l4 -38v-56l-2 -17l-2 -22q-3 -15 -3 -20l-2 -10v-16l1 -8q0 -24 12 -24q60 0 111.5 37t51.5 122l1 11v6q-2 10 -2 16q0 80 -44.5 142t-112.5 62 q-15 0 -15 -30q0 -4 -5 -29v-51z" />
<glyph unicode="%" horiz-adv-x="1649" d="M86 980v47q2 24 2 34q0 134 91.5 225.5t221.5 91.5h23q126 0 204.5 -90.5t78.5 -231.5v-47q-2 -22 -2 -34q0 -132 -92 -224t-222 -92h-23q-116 0 -199 83t-83 238zM264 1025l1 -7l3 -50q1 -6 1 -28.5t28.5 -74t74.5 -51.5h28q44 0 72 50.5t28 98.5l2 12v13l2 39v6l-1 7 l-3 50q-1 6 -1 12q0 62 -35.5 102.5t-77.5 40.5h-5q-46 0 -79.5 -43t-33.5 -107l-2 -12v-13l-2 -39v-6zM314 36q0 15 48 108q4 7 302.5 494.5t400.5 637.5q71 104 141 104h17q72 0 72 -40q0 -16 -31 -76q-163 -315 -709 -1149q-77 -118 -151 -118h-17q-73 0 -73 39zM920 337 v23q0 164 87 257t224 93h11q128 0 215 -87t87 -246v-47q0 -150 -88 -244t-225 -94h-12q-143 0 -221 96t-78 249zM1101 327q0 -84 31.5 -134.5t69.5 -50.5h28q49 0 78.5 53.5t29.5 108.5l3 25v13l1 21v13l-1 7v13l-1 19l-4 35q0 48 -32.5 89.5t-70.5 41.5h-12l-5 -1 q-52 0 -83.5 -56.5t-31.5 -137.5v-59z" />
<glyph unicode="&#x26;" horiz-adv-x="1400" d="M135 341v30q0 150 160 295q79 72 79 95.5t-41.5 122t-41.5 173.5q0 140 100.5 227t232.5 87t221.5 -76t89.5 -203q0 -90 -66 -258.5t-66 -190t56 -67t115 -45.5q7 1 44 53q83 118 170 118q88 0 88 -64q0 -4 -63.5 -147.5t-63.5 -195.5t68.5 -136t68.5 -103v-11 q0 -26 -48 -26l-171 22q-15 0 -68 -9.5t-103 -13t-157 -24t-181 -20.5h-29q-165 0 -279.5 105.5t-114.5 261.5zM353 368q0 -91 73.5 -164.5t153.5 -73.5h29q81 0 169 56q34 22 34 38v5q0 10 -59 74q-82 98 -160.5 211.5t-87.5 113.5q-33 0 -109 -105q-41 -56 -41 -114 l-2 -17v-24zM511 1077l1 -5l2 -25q0 -40 56 -141q22 -40 40 -40q44 0 118 99q46 61 46 122v27q0 57 -39 96t-73 39h-25q-48 0 -87 -45.5t-39 -105.5v-21z" />
<glyph unicode="'" horiz-adv-x="500" d="M143 1372v28q0 58 71 58q14 2 20 2l27 2h28q81 0 81 -60v-28l-1 -7l-2 -41l-9 -104l-4 -34l-4 -28q-3 -21 -3 -27l-5 -35q-4 -28 -4 -35q0 -69 -20.5 -95t-75.5 -26h-14q-48 0 -56 33q-20 80 -20 248z" />
<glyph unicode="(" horiz-adv-x="732" d="M143 578v88q0 130 35 294q68 319 255 506q64 64 121 64q82 0 82 -53v-16q0 -18 -84 -158.5t-126.5 -294.5t-42.5 -412t69 -465q29 -87 105 -204.5t76 -148t-25.5 -51t-72.5 -20.5t-127 83t-140 214q-124 270 -125 574z" />
<glyph unicode=")" horiz-adv-x="733" d="M100 -240q0 32 86 175.5t112 237.5q60 218 60 463q0 392 -150 635q-98 159 -98 188.5t24.5 50t71 20.5t130.5 -93q170 -189 226 -480q33 -173 33 -298v-66q0 -125 -29.5 -276t-86 -280.5t-164.5 -249.5q-73 -81 -132 -81q-83 0 -83 54z" />
<glyph unicode="*" horiz-adv-x="983" d="M190 1179.5q0 10.5 30.5 33t51.5 22.5l88 -19q53 0 53 55q0 46 29 86t76 40h17q35 0 49.5 -23.5t14.5 -139.5l-5 -55q0 -19 5 -19t74 32t98 32t60.5 -35.5t31.5 -68.5q0 -53 -95 -89t-95 -53q0 -7 35 -37.5t40 -36.5q35 -39 35 -112q0 -50 -95 -50q-36 0 -80.5 30.5 t-63.5 30.5q-4 0 -57.5 -51.5t-83.5 -51.5q-35 0 -140 150q-50 71 -50 155l11 44q-6 16 -9.5 23.5t-8 34t-10.5 44.5t-6 28.5z" />
<glyph unicode="+" horiz-adv-x="1097" d="M97 569v36q0 71 24.5 82.5t171.5 11.5t153 13q2 4 2 151t6 164q12 34 80 34h36q53 0 63.5 -25t10.5 -174t7 -156t153 -7t159 -3q35 -8 35 -58v-35q0 -66 -28 -79t-172.5 -13t-150.5 -13q-2 -4 -2 -157t-13.5 -173.5t-89.5 -20.5h-18q-63 0 -72 40q-4 17 -4 162.5 t-5.5 153.5t-150 8t-157.5 3q-38 9 -38 55z" />
<glyph unicode="," horiz-adv-x="569" d="M129 -235q0 1 35.5 67t35.5 112q0 13 -26.5 66t-26.5 118q0 127 122 127h40q16 -2 24 -2q58 0 78 -25t20 -81v-46q0 -125 -82 -258t-151 -133h-14q-55 0 -55 45v10z" />
<glyph unicode="-" horiz-adv-x="854" d="M113 536v40l1 8l2 39q0 39 29 45.5t301 6.5l203 2h40q53 0 53 -57v-39q0 -81 -25 -90.5t-301 -9.5h-56l-25 -1h-65l-32 -1h-80q-45 0 -45 57z" />
<glyph unicode="." horiz-adv-x="568" d="M137 104v35q0 71 34.5 100.5t99.5 29.5h35q15 -3 24 -3q47 0 72.5 -30t25.5 -79l1 -4l1 -5l1 -21v-15q0 -132 -114 -132l-25 -3h-26q-25 5 -53 5t-52 33.5t-24 88.5z" />
<glyph unicode="/" horiz-adv-x="878" d="M44 -99q0 17 34 104q388 997 545 1364q48 113 115 113h18q84 0 84 -33v-15q0 -19 -124 -329t-243 -616t-212 -523q-48 -113 -116 -113h-17q-84 0 -84 33v15z" />
<glyph unicode="0" horiz-adv-x="1212" d="M90 615v86q0 145 38 275q73 250 262 341q96 45 189 45h42q110 0 205 -50q189 -100 249 -351q31 -131 31 -262v-43q0 -150 -36.5 -285.5t-98 -221.5t-164 -139t-217.5 -53h-41q-89 0 -175 44q-171 88 -243 336q-41 142 -41 278zM346 622q0 -219 66 -357q33 -68 79.5 -98.5 t86.5 -30.5h26q107 0 170 126t63 365v60q0 352 -130 460q-48 40 -99 40h-26q-110 0 -173 -126.5t-63 -349.5v-89z" />
<glyph unicode="1" horiz-adv-x="914" d="M141 1112q0 49 83 102q236 150 316.5 150t92.5 -77q2 -12 2 -443t3 -448q12 -66 60 -134q48 -66 48 -134q0 -132 -207 -132h-63q-107 0 -180 55q-39 29 -39 92.5t46 116.5t62 105.5t16 310t-29 310.5q-18 32 -114.5 49.5t-96.5 76.5z" />
<glyph unicode="2" horiz-adv-x="1138" d="M124 87v28q0 87 123 238q44 54 198.5 201.5t197.5 203.5q88 114 88 206t-46.5 147.5t-137 55.5t-174.5 -71q-121 -103 -167 -103q-72 0 -72 103.5t128.5 190t292.5 86.5h33q181 0 296 -100t115 -261.5t-90.5 -281.5t-273 -272.5t-182.5 -206.5q0 -38 125 -38t215 18 t135 18t69 -26.5t24 -65.5v-27q0 -85 -84 -114q-55 -19 -244 -19h-64l-32 1h-32q-356 0 -398.5 15.5t-42.5 73.5z" />
<glyph unicode="3" horiz-adv-x="1133" d="M123 170q0 40 22 65t70.5 25t146.5 -48t184 -48t146.5 57.5t60.5 151.5t-64 161t-183 82q-68 10 -83 19q-41 24 -41 77.5t90.5 88t140.5 86.5q74 76 74 171q0 47 -45 78t-100 31t-153 -39t-145 -39q-83 0 -83 71q0 77 96 134q129 77 291 77h33q354 0 354 -298 q0 -122 -97 -247q-53 -68 -53 -72q0 -13 68 -58q163 -108 163 -316q0 -176 -143 -294q-71 -59 -165.5 -91t-185.5 -32h-32q-152 0 -259.5 64.5t-107.5 142.5z" />
<glyph unicode="4" horiz-adv-x="1164" d="M78 416v17q0 60 75 170q214 312 458 629q49 64 87 88.5t105 24.5h20q60 0 76 -65q5 -21 5 -314t13 -337.5t68 -124.5q5 -7 33.5 -32.5t28.5 -52.5q0 -76 -55 -131q-54 -54 -54 -89l2 -80q0 -86 -48 -132q-28 -27 -116.5 -27t-120.5 36q-46 52 -46 206q0 54 -128 95 q-62 20 -195 20t-162 16q-46 25 -46 83zM299 502q0 -4 32 -4h77l8 1h62q168 0 178 15q10 16 10 166v205l1 8v38l1 31v45q0 17 -4.5 17t-89 -122.5t-103.5 -147.5t-95.5 -135.5t-76.5 -112.5v-4z" />
<glyph unicode="5" horiz-adv-x="1131" d="M114 165q0 46 25.5 70.5t58 24.5t141 -49t189.5 -49q115 0 182 83q49 61 49 180q0 45 -22 99q-58 141 -296 141l-30 -2l-31 -3q-37 -3 -60 -3q-88 0 -119 43.5t-31 158.5q0 232 35 383q12 53 31 74q41 46 295 46q66 0 130 2l64 3q85 4 96 4l31 -1h31q77 0 77 -53 q0 -110 -63 -144q-34 -18 -229 -18t-227 -18q-61 -34 -61 -180q0 -95 52 -95l61 4q32 2 96.5 2t148.5 -32q169 -63 236 -205q43 -91 43 -197q0 -219 -139 -345q-139 -125 -360 -125h-33q-155 0 -263 63t-108 138z" />
<glyph unicode="6" horiz-adv-x="1155" d="M105 549v54q1 149 39 291q77 285 320 398q148 69 305 69q83 0 129.5 -27.5t46.5 -80.5t-62 -76q-13 -5 -139 -21q-226 -29 -306 -171q-24 -43 -24 -78.5t25.5 -47t97.5 -11.5l44 2q46 2 97.5 2t137.5 -32q241 -92 241 -378v-2v-26q0 -213 -140 -336q-65 -57 -161 -85 q-94 -28 -192 -28q-98 1 -192 45q-190 90 -241 305q-26 106 -26 234zM361 436q0 -120 64 -205t163 -85h17q91 0 150 72.5t59 175.5v45q0 102 -57.5 178.5t-153.5 76.5h-26q-16 -2 -25 -2q-88 0 -139.5 -63t-51.5 -141v-52z" />
<glyph unicode="7" horiz-adv-x="1076" d="M94 1197q0 102 67 139q46 25 197 25h198q323 0 374 -18.5t51 -89.5t-144 -388q-144 -316 -221.5 -568.5t-81.5 -261.5q-32 -68 -125 -68h-24q-101 0 -101 66q0 77 191 539q47 113 130 291t83 218.5t-39 54.5t-148 14t-197 -27.5t-128 -27.5q-82 0 -82 102z" />
<glyph unicode="8" horiz-adv-x="1150" d="M94 326v45q0 94 47 173.5t122 135.5q34 26 34 34q-1 8 -47 58q-108 117 -108 281q0 63 30.5 127t90.5 113q122 99 306 99h24q87 0 168.5 -28.5t132.5 -74.5q105 -95 105 -241q0 -78 -29 -135.5t-79 -117.5t-50 -64q1 -5 61 -57q146 -127 146 -311.5t-144 -297.5 q-58 -46 -146.5 -74t-181.5 -28h-24q-193 0 -326 104q-62 48 -97 118.5t-35 140.5zM337 373q0 -111 75 -172.5t176 -61.5l8 1q86 0 148 56t62 143v33q0 100 -87.5 179.5t-179.5 79.5h-23q-63 0 -121 -71t-58 -146v-41zM386 1035q0 -76 66 -142t150 -66h19q56 0 117 79 q36 46 36 119v21q0 73 -49.5 128.5t-134.5 55.5h-35q-67 0 -118 -45t-51 -116v-34z" />
<glyph unicode="9" horiz-adv-x="1158" d="M99 918q0 208 133 331q61 56 149 86t178 30h27q214 0 347 -146q61 -67 92.5 -174t31.5 -214v-83q0 -155 -44 -308.5t-118 -245.5t-208.5 -157.5t-272.5 -65.5h-22q-82 0 -133 25.5t-51 74t61 74.5q7 3 134.5 22t196.5 63.5t102.5 102t33.5 102.5q0 59 -103 59 q-17 0 -47.5 -4t-97.5 -4q-66 0 -144 34q-244 106 -245 398zM343 908q0 -120 63.5 -190t157.5 -70h9l8 1q97 0 156.5 54.5t59.5 154.5v26l-1 9v17q-2 18 -2 26q0 87 -61.5 169t-145.5 82h-43q-89 0 -145 -74.5t-56 -186.5v-18z" />
<glyph unicode=":" horiz-adv-x="600" d="M160 137v15l1 5l2 24q0 56 37 82.5t96 26.5h25q15 -3 29 -3q104 0 104 -134v-15l-4 -35q0 -46 -33 -74.5t-99 -28.5h-30q-125 0 -125 107zM162 829v10l2 20l3 24q0 100 140 100h11l39 -4q99 0 99 -133v-16l-4 -34q0 -104 -136 -104h-16l-39 4q-99 0 -99 133z" />
<glyph unicode=";" horiz-adv-x="604" d="M154 -215q0 7 34 66.5t34 102.5q0 9 -27 68.5t-27 116.5q0 129 134 129h24q75 0 101 -23.5t26 -85.5v-31q0 -139 -81 -270.5t-150 -131.5h-7q-61 0 -61 48v11zM168 826v10l1 5l2 24q0 53 32 80.5t79 27.5l24 3h30q15 -3 24 -3q102 0 102 -136v-5q0 -75 -30.5 -110.5 t-112.5 -35.5h-16q-78 0 -106.5 33.5t-28.5 106.5z" />
<glyph unicode="&#x3c;" horiz-adv-x="1086" d="M102 601q0 62 63 105q324 220 653 399q59 32 84 32q43 0 43 -91q0 -68 -104 -147q-31 -24 -252.5 -158t-221.5 -139.5t68.5 -43.5t233.5 -138.5t167 -101.5q113 -77 113 -143v-17q0 -85 -52 -85q-21 0 -83 33q-335 177 -640 384q-72 49 -72 111z" />
<glyph unicode="=" horiz-adv-x="1141" d="M118 381v41q0 73 43 80q25 4 420 4l288 1h74q63 0 63 -56v-31q0 -83 -44 -90q-25 -4 -421 -4h-32l-32 -1h-201l-32 -1h-63q-63 0 -63 57zM119 763l1 10v11q0 73 22 83.5t176 10.5h95l10 -1l96 1h436q54 0 54 -55v-31q0 -81 -31 -88t-424 -7h-223l-43 -1h-115 q-54 0 -54 67z" />
<glyph unicode="&#x3e;" horiz-adv-x="1079" d="M135 153q0 80 99 152q28 20 254.5 157.5t226.5 138.5q0 8 -97 65.5t-145.5 88.5t-129 77t-116.5 77q-88 75 -88 152t40 77q81 0 716 -417q79 -52 79 -115.5t-72 -112.5q-304 -206 -634 -386q-62 -34 -82 -34q-51 0 -51 80z" />
<glyph unicode="?" horiz-adv-x="1015" d="M107 1198q0 86 110 150t248 64h39q171 0 283.5 -96.5t112.5 -247.5v-19q0 -116 -68 -216q-35 -52 -136.5 -142.5t-119 -114t-33.5 -98.5t-19 -79q-20 -22 -78.5 -22t-81 31.5t-22.5 101.5q0 143 135 269q99 92 134 147t35 126.5t-44 113.5t-119.5 42t-168.5 -57 t-130.5 -57t-57 30t-19.5 74zM302 127v5l1 5q0 64 23.5 96.5t82.5 32.5l10 2l21 1h15l36 -4q43 0 70.5 -32t27.5 -91v-30q0 -61 -32 -98t-90 -37l-10 -2h-26l-33 5q-26 0 -58.5 23.5t-32.5 72.5q-3 15 -3 20z" />
<glyph unicode="@" horiz-adv-x="1738" d="M98 513q0 343 207 577q96 108 240 179.5t321 71.5h59q139 0 264 -51q243 -99 342 -301q63 -127 63 -265q0 -355 -248 -492q-84 -46 -169 -46q-29 0 -88.5 17t-86 17t-96 -19t-113.5 -19q-102 0 -169.5 71.5t-67.5 214.5q0 64 56.5 204t103.5 183q78 71 275 71 q83 0 120 -63q25 -42 40 -190t23 -174q26 -82 87 -82q39 0 76 65.5t37 165t-42 196t-110 156.5t-146 91.5t-196 31.5t-226 -59q-209 -114 -284 -340q-33 -98 -33 -211.5t46.5 -234t130.5 -198.5q167 -155 444 -155h4q39 0 101 9l48 8q63 11 81 11q59 0 59 -46 q0 -35 -112 -84.5t-268 -49.5h-58q-145 0 -281 50q-136 51 -236 151q-198 198 -198 539zM679 447q2 -14 2 -22q0 -55 35.5 -99.5t67.5 -44.5h12q79 0 134 95q81 139 81 293l2 13v38q0 66 -101 66h-20q-94 0 -153.5 -93.5t-59.5 -199.5v-46z" />
<glyph unicode="A" horiz-adv-x="1371" d="M90 159q0 31 84 199q8 15 151 429.5t182.5 496t76.5 104.5t110.5 23t106.5 -35.5t84.5 -145.5t142 -361t132.5 -379.5t49 -145.5q74 -170 74 -179v-20q0 -90 -51 -123q-33 -21 -113 -21h-24q-82 0 -110 49q-14 24 -31 140t-59 160t-158 44q-264 0 -310 -41t-66 -166.5 t-30 -140.5q-26 -40 -104 -40t-107.5 42t-29.5 111zM491 596q0 -21 137 -21h85q125 0 125 19v12q0 89 -141 456q-19 50 -26 50q-2 0 -10.5 -21.5t-20.5 -47.5q-149 -323 -149 -435v-12z" />
<glyph unicode="B" horiz-adv-x="1282" d="M123 1319q0 58 36.5 72.5t143.5 14.5l221 5l75 1h25q381 0 475 -215q25 -57 25 -142.5t-32.5 -146t-50.5 -77.5t-54 -47t-36 -32q1 -2 69 -45q173 -108 173 -299q-1 -416 -590 -416h-25l-26 1h-50l-73 1q-203 0 -241 8q-62 13 -62 58q0 25 22 102t22 196l2 122v542 q0 102 -13 163zM439 299q0 -91 23.5 -107.5t126.5 -16.5h72q135 0 197.5 62.5t62.5 163.5v19q-2 18 -2 27q0 76 -65.5 135.5t-161.5 59.5q-18 2 -27 2l-44 2h-61q-93 0 -106.5 -21t-13.5 -125v-116l-1 -34v-51zM440 931q0 -72 10 -92t52 -20h98l8 1l31 1l39 3q77 0 129.5 58 t52.5 130v33q0 76 -53 129t-139 53q-16 2 -24 2l-39 2h-62q-72 0 -87.5 -17.5t-15.5 -93.5v-189z" />
<glyph unicode="C" horiz-adv-x="1302" d="M100 690v34q0 138 44 275t119.5 221.5t200.5 140.5t233 56h63q234 0 329.5 -64t95.5 -159q0 -61 -23.5 -89t-59.5 -28t-152.5 56t-155.5 65q-43 10 -84 10q-70 0 -134 -30q-192 -92 -192 -444q0 -282 91 -404q107 -145 296 -145q78 0 209.5 52t150.5 52q68 0 68 -63v-22 q0 -31 -42.5 -78.5t-124.5 -84.5q-137 -62 -300 -62h-32q-120 0 -248 54q-352 149 -352 657z" />
<glyph unicode="D" horiz-adv-x="1403" d="M124 1347q0 33 34.5 45.5t135.5 12.5l211 7h124q149 0 281 -46q256 -88 343 -344q47 -138 47 -284v-52q0 -152 -47 -290q-92 -270 -354 -358q-129 -44 -282 -44h-147l-165 4q-104 0 -141.5 11t-37.5 49.5t21 95t24.5 111t3.5 487.5v377q-5 58 -28 121.5t-23 96.5z M433 328l2 -29q1 -15 1 -28q0 -61 24.5 -78t105.5 -17h59q187 0 294 138q37 48 65.5 144.5t28.5 201.5v82q0 108 -28 206q-27 98 -73 154q-105 128 -299 128h-30l-14 -1q-88 0 -110 -17.5t-23 -66t-1 -62.5l-1 -29v-104l1 -30v-313l-1 -44v-89l-1 -59v-87z" />
<glyph unicode="E" d="M136 107q0 23 20 93t21 271q0 201 6 351l5 112q4 99 4 156t-22 122q-22 64 -22 100t21.5 52t87.5 28t451 12l110 1h36q120 0 167 -28t47 -93q0 -113 -104 -113q-13 1 -125 15t-212.5 14t-130.5 -48t-30 -217q0 -55 35.5 -85t130.5 -30q26 0 89 14.5t107 14.5 q106 0 106 -97q0 -71 -11 -101q-18 -50 -65.5 -50t-111.5 13.5t-142 13.5t-114 -33t-36 -176.5t36.5 -187.5t124 -44t216.5 23.5t165.5 23.5t67 -22t30.5 -96t-69 -101q-49 -19 -322 -19h-266q-189 0 -245 21.5t-56 89.5z" />
<glyph unicode="F" horiz-adv-x="1146" d="M143 147q0 16 22.5 93t22.5 163l2 147v91l3 244v153q0 74 -21.5 165.5t-21.5 117.5q0 47 80 59q179 26 604 26h62q103 0 136.5 -21.5t33.5 -83.5v-28q0 -58 -27 -80.5t-62 -22.5t-130 21.5t-198 21.5t-142.5 -35.5t-39.5 -164t26 -162t113 -33.5l199 17q120 0 120 -143 q0 -54 -29 -74.5t-98 -20.5l-23 2q-23 2 -47 2q-155 0 -205 -55t-50 -270l7 -133q0 -138 -161 -138h-27q-79 0 -114 34t-35 108z" />
<glyph unicode="G" horiz-adv-x="1383" d="M101 705q0 513 396 670q115 46 264 46h39q193 0 273 -40.5t108 -85t28 -68.5q0 -73 -27.5 -99.5t-48 -26.5t-151 51t-222.5 51q-191 0 -294 -142q-89 -122 -89 -362q0 -115 30.5 -209.5t71 -150t123.5 -97.5t173.5 -42t142 50t51.5 122t-67.5 139.5t-67.5 106.5 q0 14 14 28q36 36 163.5 36t180.5 -25.5t53 -87.5q0 -393 -68 -473q-43 -51 -171.5 -85t-274.5 -34q-300 0 -465 191q-73 85 -119 227.5t-46 309.5z" />
<glyph unicode="H" horiz-adv-x="1449" d="M128 1291.5q0 46.5 38 72t172.5 25.5t134.5 -121q0 -6 -9 -81t-9 -193.5t51.5 -148t300.5 -29.5q130 0 161 38.5t31 161.5q0 46 -16.5 141t-16.5 104q0 139 194 139q96 0 128 -26.5t32 -87.5q0 -16 -19.5 -84.5t-24 -136.5t-4.5 -308v-163q-3 -125 -3 -225t11 -135 q36 -113 36 -126q0 -63 -32 -83t-107 -20h-38q-88 0 -131.5 32.5t-43.5 105.5q0 16 8 65l12 71q12 88 12 199t-57 137q-29 13 -214 13t-233 -29t-48 -198q0 -83 17.5 -167t17.5 -112q0 -65 -47 -91t-146 -26t-125 29.5t-26 67.5t16 88q28 88 28 186v106l2 165v235 q0 194 -2.5 217.5t-26.5 84.5t-24 107.5z" />
<glyph unicode="I" horiz-adv-x="703" d="M131 1318.5q0 52.5 55 72t177 19.5h40q84 0 123.5 -28t39.5 -88q0 -25 -33 -93.5t-38 -117t-5 -388t8.5 -399.5t40 -114.5t31.5 -105.5q0 -78 -157 -78h-40q-40 2 -92.5 2t-99.5 27t-47 73.5t36.5 106t45.5 126t9 388.5t-7 372.5t-47 111.5t-40 113.5z" />
<glyph unicode="J" horiz-adv-x="908" d="M39 12v19q0 49 46 83t126 34l28 -2q120 0 173 164q62 192 62 543q0 163 -24 234.5t-48 123t-24 96t60.5 74t160.5 29.5h23q64 0 108.5 -33t44.5 -89v-38q0 -15 -8 -57t-28 -186q-2 -18 -2 -309q0 -290 -18 -410q-37 -244 -196 -347q-111 -71 -230 -71h-23 q-110 0 -170.5 39.5t-60.5 102.5z" />
<glyph unicode="K" horiz-adv-x="1350" d="M137 1299q0 101 173 101q80 0 121.5 -34.5t41.5 -74.5q0 -2 -15.5 -92t-15.5 -174q0 -186 45.5 -186t209.5 202q99 122 129 171t52.5 98.5t41.5 63.5q44 33 129 33h36q55 0 82 -15t27 -56q0 -24 -208.5 -265t-208.5 -299q0 -6 154.5 -236t242.5 -339t88 -145 q0 -54 -114 -54h-38q-100 0 -161 56q-27 24 -108 167t-162.5 253.5t-127.5 110.5q-98 0 -98 -227l22 -202q0 -75 -53 -123q-34 -31 -125 -31t-123 21t-32 80q0 17 20 95t20 210v288q0 284 -2 334.5t-22.5 153t-20.5 115.5z" />
<glyph unicode="L" horiz-adv-x="1134" d="M125 1293q0 69 48 100q24 16 114 16h25q178 0 178 -121q0 -37 -20 -118t-22.5 -126t-2.5 -378t18.5 -394t61.5 -75q25 -8 112 -8t220 34t161 34t48 -16t20 -71v-24q0 -82 -25 -111q-37 -43 -166 -43h-76l-25 1h-128l-76 1q-333 0 -391 18q-57 18 -57 90q0 19 13 69 t19.5 83.5t6.5 107.5l1 77v330l-1 26v49l-1 25v49l-1 50v76q0 52 -27 140t-27 109z" />
<glyph unicode="M" horiz-adv-x="1756" d="M148 110.5q0 29.5 15.5 88.5t23.5 129t8 241l1 52l7 157q8 208 8 258t-7 102l-24 126q0 116 143 116q120 0 214 -125q76 -101 201.5 -385.5t152.5 -284.5l21 30l119 263q159 346 170 362q90 138 242 138q84 0 117 -39q18 -21 18 -61l-5 -37q-4 -39 -6 -92l-1 -49l1 -49 v-106l5 -427q0 -158 4.5 -197.5t19.5 -99.5t15 -72q0 -69 -35 -100t-115.5 -31t-124.5 65q-23 34 -23 150l2 47l3 47q4 63 4 97q0 494 -38 494q-18 0 -156 -329t-159 -358q-43 -60 -107 -60t-106 75q-19 33 -157.5 357.5t-162.5 324.5q-37 0 -37 -657q0 -155 -25 -185 q-44 -52 -130 -52q-43 0 -69.5 23.5t-26.5 53z" />
<glyph unicode="N" horiz-adv-x="1465" d="M141 1322.5q0 26.5 20.5 43t96 16.5t134.5 -35t119 -105q142 -164 273 -369q263 -412 276 -412q19 0 19 195l2 82q1 42 1 178t-11 231.5t-11 140.5t35.5 74t100.5 29t94 -17q53 -31 53 -116l-1 -35q-2 -30 -13 -75l-9 -36q-13 -52 -19 -85t-6 -446t-23 -512 q-14 -59 -63 -59q-120 0 -198 89q-42 47 -153.5 227t-143.5 229q-256 386 -291 386q-23 0 -23 -195.5t5 -324.5t13.5 -181.5t8.5 -70.5q0 -154 -197 -154h-3q-84 0 -84 65q0 34 33 142q15 49 15 196l2 210v85l1 128q0 227 -3.5 272t-26.5 114t-23 95.5z" />
<glyph unicode="O" horiz-adv-x="1457" d="M94 680v46q0 167 48.5 302.5t126 218.5t192 130t248.5 47h24q281 0 454 -186q67 -71 115.5 -204t48.5 -286v-69q0 -150 -45.5 -289.5t-121.5 -227t-197.5 -143.5t-261.5 -56q-139 1 -263 51q-368 150 -368 666zM360 664q0 -104 30 -212q81 -298 332 -298q153 0 245 120 q40 52 69 153.5t29 191.5l2 32v80q0 96 -27 203q-50 199 -176 268q-68 37 -137 37h-31q-150 0 -248 -139q-32 -46 -60 -144t-28 -212v-80z" />
<glyph unicode="P" horiz-adv-x="1239" d="M139 85q0 40 36 196q15 65 15 204l1 24q1 24 1 47l2 95v189q0 263 -2.5 326t-16.5 114.5t-14 79t37 39t179 11.5l69 1q24 1 47 1l48 2h145q359 0 459 -245q31 -77 31 -165v-25q0 -206 -144 -329q-88 -75 -241 -101t-237 -70.5t-84 -101.5q0 -23 11.5 -73.5t11.5 -129 t-47 -125.5t-151 -47h-45q-111 0 -111 83zM452 823q0 -77 16.5 -97.5t83.5 -20.5h85q130 0 197.5 67.5t67.5 185.5v19q0 126 -72 192t-205 66h-43q-65 0 -93.5 -14.5t-28.5 -51.5q-5 -40 -5 -50l-1 -27v-81l-1 -26v-90l-1 -27v-45z" />
<glyph unicode="Q" horiz-adv-x="1479" d="M86 708v28q0 152 44 290q86 274 347 370q109 40 255 40q288 0 465 -188q73 -77 118.5 -204t45.5 -289v-27q-1 -302 -163 -526q-69 -95 -69 -110q1 -41 72 -132q72 -92 72 -94q0 -25 -29 -45q-71 -50 -142 -50h-25q-92 0 -298 96q-419 195 -504.5 280.5t-137 236.5 t-51.5 324zM369 690q0 -135 33 -241q33 -107 72 -157q85 -109 238 -109q83 0 138.5 34t142 155t86.5 325v48q0 111 -28 212.5t-71 160t-108 92t-136 33.5h-33q-80 0 -148 -42.5t-113 -117.5q-73 -122 -73 -360v-33z" />
<glyph unicode="R" horiz-adv-x="1326" d="M128 121q0 8 25 101t25 170l1 60v187l1 32v188q0 248 -5 300.5t-17 104t-12 76.5q0 44 91 55t301 11t313 -23.5t175.5 -81.5t101.5 -132.5t29 -176t-38 -173t-106 -138t-68 -107.5t143 -269t143 -230q0 -50 -32.5 -64t-115.5 -14t-133 47.5t-131.5 216t-105.5 200.5 q-60 79 -118.5 79t-97.5 -39t-39 -101.5t14 -145t14 -110.5q0 -84 -46.5 -117.5t-160.5 -33.5h-29q-122 0 -122 128zM441 844q0 -61 15 -80.5t64 -19.5h81l8 1l25 1l33 2q97 0 158 67t61 174v9q0 108 -66.5 168.5t-206.5 60.5h-33q-109 0 -123.5 -26.5t-14.5 -132.5v-114 l-1 -26v-84z" />
<glyph unicode="S" horiz-adv-x="1174" d="M109 207v30q0 37 23.5 69.5t48.5 32.5t161 -80t244.5 -80t169 46.5t60.5 133t-86 150.5q-45 33 -235 113.5t-269 159.5q-100 100 -100 276q0 66 32 136q64 140 245 200q88 29 169 29h35q298 0 384 -115q30 -41 30 -97t-23.5 -82.5t-44 -26.5t-180.5 83q-93 48 -193.5 48 t-148 -48.5t-47.5 -128t102 -143.5q24 -16 214 -97q190 -82 260 -148q120 -114 120 -283q0 -173 -128 -289t-339 -116h-35q-337 0 -438 144q-31 45 -31 83z" />
<glyph unicode="T" horiz-adv-x="1208" d="M48 1250q0 100 37.5 127t174.5 27l194 4l254 3h282q112 0 148.5 -24.5t36.5 -99.5v-26q0 -92 -60 -103q-3 -1 -8 -1q-29 0 -111 22q-96 25 -142.5 25t-71.5 -25t-35 -85t-10 -272v-254l-1 -28v-120q0 -92 2.5 -113t26.5 -89q24 -70 24 -124q0 -96 -152 -96h-82 q-136 0 -136 112q0 39 25 118.5t30.5 139t5.5 386.5t-12 379q-17 72 -103 72q-43 0 -129.5 -27.5t-111.5 -27.5q-76 0 -76 100z" />
<glyph unicode="U" horiz-adv-x="1414" d="M117 1234v30q0 68 53 112q26 22 125 22t129.5 -29.5t30.5 -99.5l-3 -27l-4 -29q-10 -87 -10 -263l2 -106l1 -36v-147q0 -287 69.5 -386t228.5 -99t232 137q53 99 53 358l1 37q1 38 1 84v101q0 153 -14.5 283t-14.5 159q0 74 140 74q89 0 114 -33q45 -60 45 -119 t-20.5 -130t-22.5 -107l-1 -35l1 -73v-147q0 -291 -17 -399q-37 -231 -252 -330q-120 -54 -276 -54q-313 0 -446 194q-57 83 -71.5 171.5t-14.5 357.5t-5.5 320t-29.5 112t-24 97z" />
<glyph unicode="V" horiz-adv-x="1360" d="M62 1283v24q0 52 34 69.5t118 17.5t126 -24q72 -40 95 -160t145 -494t130 -374q29 0 196 535q73 231 83 330.5t24 132.5q29 65 154 65q75 0 101.5 -19.5t26.5 -72t-48 -146.5t-71 -161q-276 -803 -344 -933q-41 -79 -133 -79h-29q-84 0 -129 91q-29 58 -182.5 491 t-197.5 514q-99 183 -99 193z" />
<glyph unicode="W" horiz-adv-x="1930" d="M119 1233v32q0 57 22.5 72t71 15t106 -40.5t101.5 -141.5q18 -40 51.5 -167.5t89 -314t69 -186.5t105.5 357t116 402.5t108.5 45.5t113.5 -21t55 -70t112 -372t115 -323q17 0 99 324t91 341q37 70 86.5 109t127.5 39q46 0 46 -56v-31q0 -6 -121 -478t-142 -527.5 t-80.5 -104.5t-126.5 -49q-18 0 -62 37.5t-89 133t-110 281.5l-82 235l-16 36q-20 -1 -108 -269t-124 -337q-70 -132 -156 -132q-44 0 -97.5 46t-80 104t-159 498t-132.5 512z" />
<glyph unicode="X" horiz-adv-x="1345" d="M96 80q0 5 197 289t197 329q0 63 -185 341q-73 110 -104 144q-99 110 -99 149.5t41 52t154.5 12.5t163.5 -51q23 -24 45.5 -90.5t36.5 -92.5q117 -227 147.5 -227t158.5 212q37 62 58 128.5t38 84.5q38 41 142.5 41t126 -16t21.5 -54t-70 -114.5t-133 -166.5 q-180 -260 -180 -310t205 -362.5t205 -315.5q0 -64 -179 -64h-35q-92 0 -142 55q-20 22 -40.5 84t-58.5 134q-123 231 -151 231q-46 0 -179 -245q-25 -47 -46.5 -120.5t-38.5 -92.5q-37 -42 -138.5 -42t-129.5 17.5t-28 59.5z" />
<glyph unicode="Y" horiz-adv-x="1291" d="M62 1328q0 35 41 47q58 17 160 17t150 -64q11 -14 39 -86.5t122.5 -257.5t95.5 -185q48 0 183 281q28 59 47 146.5t30 105.5q44 71 175 71h27q105 0 105 -58q0 -50 -59.5 -132.5t-116 -192.5t-122 -223.5t-111 -225.5t-45.5 -251q0 -45 16.5 -114t16.5 -116t-50 -80 q-27 -18 -88 -18h-26q-113 0 -144 22t-31 86q0 13 27 114.5t27 199.5t-39.5 180.5t-172 311t-148.5 248.5q-109 139 -109 174z" />
<glyph unicode="Z" horiz-adv-x="1226" d="M90 84.5q0 62.5 56 156.5q13 21 311 464.5t298 478.5t-124.5 35t-267.5 -31t-179 -31t-50.5 31.5t-14.5 98t48.5 94.5t183.5 28h390q266 0 310 -8q67 -12 67 -67q0 -77 -61 -177q-61 -101 -149 -229q-444 -644 -444 -691.5t190 -47.5q106 0 245.5 36t174.5 36 q70 0 70 -93.5t-58 -132t-209 -38.5h-494q-207 0 -238 9q-55 16 -55 78.5z" />
<glyph unicode="[" horiz-adv-x="757" d="M176 -99l1 25v102l1 50v177l1 26v202l1 51v440q0 390 11 453t36.5 80t88.5 17h254q98 0 98 -54v-22q0 -40 -25 -59t-66 -28l-44 -7q-31 -5 -42 -9q-42 -16 -59.5 -73.5t-17.5 -653t14 -644.5t45 -67q11 -6 74 -19.5t89 -34t26 -69t-29.5 -57.5t-202.5 -9h-76 q-127 0 -152.5 33.5t-25.5 149.5z" />
<glyph unicode="\" horiz-adv-x="883" d="M46 1439q0 42 94 42q52 0 75 -20t54 -93t521 -1333q43 -111 43 -140q0 -41 -93 -41h-18q-47 0 -67.5 29t-76.5 160q-219 511 -488 1256q-44 122 -44 140z" />
<glyph unicode="]" horiz-adv-x="763" d="M100 -212q0 76 107.5 96.5t129.5 98.5q15 55 15 645.5t-13.5 640t-37 64.5t-81 23.5t-87.5 28.5t-30 68.5t24 59.5t123 11h101q176 0 205 -32.5t29 -169.5v-51l-1 -25v-381l-1 -26v-229q0 -794 -21 -843q-12 -29 -39.5 -39t-220.5 -10h-75q-127 0 -127 48v22z" />
<glyph unicode="^" horiz-adv-x="1064" d="M123 791q0 15 31 75q133 256 259 437q49 70 119 70h14q52 0 94 -61q128 -184 260 -438q31 -60 31 -75q0 -38 -101 -38q-46 0 -86.5 47.5t-126 194t-92.5 146.5t-37.5 -55t-94.5 -156.5t-82 -123.5q-48 -57 -108 -57h-13q-67 0 -67 34z" />
<glyph unicode="_" horiz-adv-x="1083" d="M33 -176l1 11q0 58 13 73t57 15l23 2l750 1h47q82 0 101 -10.5t19 -49.5v-22l-1 -12q0 -46 -13 -61t-58 -15l-22 -2h-737l-36 -1h-23q-82 0 -101.5 10t-19.5 61z" />
<glyph unicode="`" horiz-adv-x="685" d="M113 1401v11q0 16 28.5 35t71.5 19h17q77 0 129 -58q166 -187 166 -254v-16q0 -32 -56 -32h-22q-44 0 -140 75q-194 151 -194 220z" />
<glyph unicode="a" horiz-adv-x="1100" d="M71 260v24q0 282 435 322q79 7 110 17q59 20 59 87.5t-55 105.5q-33 23 -88 23t-159.5 -45.5t-147.5 -45.5t-67 30t-24 73q0 73 117.5 122t256.5 49q266 0 362 -138q43 -61 55.5 -137.5t12.5 -257t7.5 -219.5t31.5 -85.5t24 -79.5v-21q-1 -84 -137 -84q-68 0 -120 27.5 t-92 27.5q-3 0 -99 -36.5t-177 -36.5q-136 0 -220.5 77t-84.5 201zM333 297q0 -55 35.5 -95.5t85.5 -40.5l29 -3h23q18 3 28 3q56 0 101 45t45 89q2 12 2 17l2 35v18l1 23v18q0 64 -54 64h-35l-6 -1h-12q-115 0 -180 -40.5t-65 -107.5v-24z" />
<glyph unicode="b" horiz-adv-x="1163" d="M103 1386.5q0 46.5 33.5 64.5t136.5 18h23q64 0 89.5 -48t25.5 -170l3 -113q0 -159 56 -159q16 0 93 16.5t144.5 16.5t135.5 -32q141 -68 201 -253q31 -97 31 -215v-25q0 -231 -130 -369q-55 -59 -136 -93.5t-173 -34.5h-24q-48 0 -130.5 23t-103.5 23t-51 -11.5 t-55 -11.5q-80 0 -107.5 30t-27.5 113l1 22q1 22 2 45l3 69q4 92 4 152v132l1 23v144l1 72v265q0 99 -8.5 137.5t-23 80.5t-14.5 88.5zM393 444l1 -9l3 -68q1 -10 1 -19q0 -197 184 -197l10 1q99 0 160 77.5t61 228.5v53q0 165 -54 249t-152 84h-18q-113 0 -162 -81 q-34 -57 -34 -220v-99z" />
<glyph unicode="c" horiz-adv-x="1005" d="M85 480v48v6q0 107 37 200q75 194 270 258q88 29 214 29t215 -47t89 -123q0 -54 -26 -81t-67 -27t-132 43t-129 43q-111 0 -161.5 -81.5t-50.5 -242t70.5 -244.5t198.5 -84q54 0 126 21.5t106 21.5q72 0 72 -67v-17q0 -51 -116 -103t-232 -52h-46q-85 0 -177 39 q-261 111 -261 460z" />
<glyph unicode="d" horiz-adv-x="1171" d="M94 454l1 25v26q0 85 33 191q34 108 98 178q125 137 335 137h3l77 -4q49 0 67 34.5t18 127.5l-21 184q0 50 47.5 80.5t140 30.5t110 -56t17.5 -438v-563q0 -134 16.5 -215t16.5 -98q0 -85 -160 -85q-42 0 -78 18.5t-64.5 18.5t-104 -30.5t-146.5 -30.5h-23 q-181 0 -282 130t-101 339zM338 479q0 -151 57 -236.5t152 -85.5h18q107 0 163 93q30 50 30 253v10q0 203 -34 260q-49 81 -148 81h-27q-104 0 -157.5 -89t-53.5 -232v-54z" />
<glyph unicode="e" horiz-adv-x="1070" d="M74 470v24q0 236 119 372q63 72 157 110.5t198 38.5h47q71 0 148 -28q149 -54 207 -212q29 -79 29 -149v-22q0 -101 -66 -127q-83 -33 -323.5 -33t-240.5 -72q0 -95 73 -149t208 -54q52 0 132 26t125 26q55 0 55 -88q0 -56 -120.5 -107t-233.5 -51h-23 q-123 0 -216.5 37.5t-148.5 94.5t-90.5 152t-35.5 211zM341 622q0 -30 39 -30l25 -3h63l5 1l183 10l21 2q60 0 60 57v6l-1 6v11q-2 12 -2 17q0 58 -52 103.5t-113 45.5h-30q-84 0 -141 -65t-57 -145v-16z" />
<glyph unicode="f" horiz-adv-x="794" d="M97 919q0 46 66 107q24 22 65 145.5t93.5 183t123.5 88.5t139 29h51q88 0 131.5 -28.5t43.5 -66.5v-20q0 -37 -33 -62t-99 -25l-21 1l-44 4q-76 0 -108 -40t-32 -99t18.5 -83t82.5 -49t76 -33q44 -31 44 -81.5t-73.5 -71t-102.5 -70.5q-56 -97 -56 -329q0 -82 26 -186 t26 -118q0 -72 -45 -104.5t-141 -32.5h-45q-64 0 -108 57q-17 22 -17 61t14 84q35 112 35 304.5t-14 242t-55 98t-41 94.5z" />
<glyph unicode="g" horiz-adv-x="1146" d="M98 486q0 118 30 218q58 189 194 244q69 28 154.5 28t178.5 -26t104 -26t58.5 11t87.5 11q99 0 99 -114v-24q0 -53 -11.5 -144t-11.5 -220l-1 -28q-1 -27 -1 -55l-2 -109q0 -54 2 -108l5 -135q0 -109 -28 -187q-60 -163 -260 -220q-94 -27 -219 -27t-242 55 q-59 28 -59 92q0 30 24.5 60.5t56.5 30.5t111.5 -19t172 -19t149.5 57t57 157q0 49 -28 49q-5 0 -61.5 -18.5t-146.5 -18.5q-296 0 -380 264q-33 103 -33 221zM317 468q3 -30 3 -50q0 -112 67 -201q47 -63 136 -63h37q94 0 146.5 57t52.5 166q2 18 2 28l2 48v49l-1 9l-1 29 l-2 38q0 109 -47 164.5t-153 55.5l-10 -1q-112 0 -172 -78.5t-60 -219.5v-31z" />
<glyph unicode="h" horiz-adv-x="1194" d="M123 101v27q0 12 13.5 68t18.5 89t5 141l3 202v472q0 156 -19.5 217.5t-19.5 62.5q0 42 27.5 58.5t122 16.5t124.5 -60q20 -39 24 -175t15 -197.5t44 -61.5q4 0 88 27q83 27 159 27q159 0 234 -116t75 -385q0 -172 22 -272t22 -117q0 -63 -37 -87.5t-139 -24.5 q-129 0 -129 112l15 141q6 73 6 220.5t-34 230.5t-133 83q-124 0 -184 -104q-28 -47 -28 -200v-6q0 -158 4 -191t11 -82t7 -82q0 -124 -152 -124h-29q-136 0 -136 90z" />
<glyph unicode="i" horiz-adv-x="611" d="M116 898v12q0 49 32 64.5t109 15.5l42 3h41q73 0 85 -59q4 -19 4 -169v-214l1 -42v-71l2 -41q1 -14 1 -47.5t34 -122.5t34 -118v-11q0 -101 -173 -101h-83q-120 1 -120 93q0 44 19.5 98t28 96t8.5 245.5t-6.5 229t-32.5 70.5t-26 69zM161 1294l1 5v10l2 19q0 46 34 75 t102 29h15q135 0 135 -108v-38q-3 -15 -3 -37t-30.5 -52.5t-77.5 -30.5l-29 -3h-28q-56 0 -87 26.5t-31 71.5q-2 8 -2 14z" />
<glyph unicode="j" horiz-adv-x="618" d="M-14 -311q0 40 18 59t108 56q51 21 78.5 91t27.5 406.5t-6 377t-34 118.5t-28 95q0 55 37 73.5t154 18.5h18q62 0 85.5 -58t23.5 -209v-536q0 -191 -17 -278q-38 -191 -193 -267q-81 -40 -176.5 -40t-95.5 77v16zM189 1265v21q0 73 38 100q59 42 115 42h35 q50 0 77.5 -32.5t27.5 -91.5v-16q0 -75 -31 -111t-105 -36l-10 -2h-20l-4 1h-10q-14 3 -17 3l-23 4q-27 0 -50 32t-23 86z" />
<glyph unicode="k" horiz-adv-x="1138" d="M115 1376v28q0 23 35.5 45.5t143.5 22.5q78 0 99 -56.5t21 -322.5t6 -321q10 -88 51 -88q35 0 138 120q25 29 61 82.5t71 78.5t114 25q137 0 137 -50.5t-139 -186.5t-139 -197q0 -23 174 -255t174 -256q0 -39 -75 -39h-31q-144 0 -201 57q-23 23 -67 111t-103 167.5 t-101 79.5q-13 0 -35.5 -33.5t-22.5 -119.5l13 -139q0 -112 -182 -112q-73 0 -102 26t-29 90q0 16 10 66q19 95 19 221v250l1 102v288q0 136 -5.5 165t-20.5 84.5t-15 66.5z" />
<glyph unicode="l" horiz-adv-x="635" d="M125 1383v17q0 43 42.5 58t144 15t118.5 -75q2 -9 2 -244l-1 -20v-38l-1 -59v-96l-1 -38q0 -472 9.5 -538t52 -164.5t42.5 -102.5q0 -101 -165 -101h-76q-83 0 -118 30t-35 90q0 15 9 61l7 31q26 114 26 179v84l1 38v136l1 58v97q0 374 -3 407.5t-29 97t-26 77.5z" />
<glyph unicode="m" horiz-adv-x="1725" d="M118 117v36q0 23 16 80t18 89.5t2 221.5t-7 257l-5 34q-9 55 -9 78t19 45t63.5 22t111.5 -14.5t111.5 -14.5t115 20t133 20t111 -17.5t98 -42t67 -24.5t118.5 50.5t191.5 50.5t159 -42.5t108 -127.5t39.5 -413q0 -119 11 -164l11 -34l12 -31q11 -36 11 -79t-33 -74.5 t-98 -31.5h-36q-100 0 -125 72q-10 29 -10 294.5t-25.5 328.5t-69.5 83q-24 11 -65.5 11t-82 -24t-60.5 -85t-20 -318q0 -53 16.5 -132t16.5 -91q0 -87 -41 -111.5t-158 -24.5t-117 91l1 38l5 36l13 70q4 30 4 229t-35.5 268.5t-120.5 69.5q-30 0 -76.5 -25.5t-73.5 -77.5 t-27 -280l10 -274q0 -84 -36.5 -115t-112 -31t-112.5 28t-37 76z" />
<glyph unicode="n" horiz-adv-x="1201" d="M113 101v26q0 18 20 80.5t23 119t3 238.5t-3 209.5t-16 73t-13 75.5q0 55 133 55q64 0 114.5 -33t75.5 -33t119.5 40.5t176.5 40.5q156 0 238 -113q64 -90 64 -346l2 -58l1 -86q0 -91 12 -133l26 -65q15 -42 15 -72q0 -70 -38 -88t-121 -18t-120 26.5t-37 108.5 q0 8 5.5 78t5.5 157q0 258 -40 349.5t-149.5 91.5t-163.5 -98q-33 -59 -33 -240.5t9 -253.5q9 -73 9 -123q0 -100 -159 -100h-27q-71 0 -101.5 19.5t-30.5 71.5z" />
<glyph unicode="o" horiz-adv-x="1141" d="M82 492v18l1 18q1 107 35 204q68 191 253 259q93 34 197 34l18 -1q214 0 350 -148q116 -127 116 -346v-18q0 -106 -32 -212q-61 -204 -251 -290q-96 -43 -190 -43h-18q-221 0 -360 145q-119 125 -119 380zM332 504q0 -166 58 -262.5t166 -96.5h20q93 0 151 79.5t58 192.5 l2 21l1 31v65q0 139 -60 229t-160 90h-30q-96 0 -151 -91.5t-55 -257.5z" />
<glyph unicode="p" horiz-adv-x="1165" d="M112 -310q0 22 18 91t22.5 177t4.5 290v326l-1 72q0 127 -22 188.5t-22 91.5q0 59 155 59h5q22 0 64 -14.5t84.5 -14.5t118.5 27t146 27h24q160 0 265 -127q104 -127 104 -340v-26q0 -102 -33.5 -210t-104 -180.5t-151 -100t-187.5 -27.5t-153 -31q-22 -15 -22 -51 t13.5 -98.5t13.5 -110.5t-50.5 -87t-116.5 -39h-46q-129 0 -129 87v21zM399 428l1 -10l3 -67q1 -10 1 -19q0 -81 45.5 -130t120.5 -49h28q100 0 161 85.5t61 228.5v54q0 149 -48 224q-62 96 -161 96h-19q-103 0 -154 -77q-39 -59 -39 -228v-108z" />
<glyph unicode="q" horiz-adv-x="1156" d="M83 489v26q0 220 114 357q53 64 133 103t174 39h47q47 0 131.5 -27.5t103.5 -27.5q19 1 54 15q36 14 84 14q98 0 98 -142l-3 -44l-6 -67q-2 -31 -2 -153v-350l-1 -49v-192l1 -23q1 -24 1 -59t19 -117.5t19 -97.5q0 -66 -30.5 -97.5t-100.5 -31.5h-46q-165 0 -165 144 q0 22 15 83.5t15 119.5t-23 75.5t-92 17.5l-146 -11q-265 0 -360 280q-34 100 -34 215zM333 491q0 -161 55.5 -247t141.5 -86h37q84 0 132.5 57t48.5 152l3 28l2 39v20l1 19v20l1 30v19l-1 10l-1 39l-2 49q0 106 -48.5 158.5t-132.5 52.5h-20q-102 0 -159.5 -89.5 t-57.5 -259.5v-11z" />
<glyph unicode="r" horiz-adv-x="861" d="M112 904q0 36 34 61.5t95 25.5h35q106 -1 146 -69q13 -22 25.5 -22t50.5 24t80 44.5t108 20.5t98.5 -29.5t32.5 -73t-28 -84t-73 -40.5l-123 13q-31 0 -72.5 -26t-66.5 -82t-25 -175.5t27 -221.5q27 -100 27 -156q0 -112 -205 -112h-19q-139 0 -139 105q0 31 20.5 92.5 t25 101t4.5 221.5t-7 221.5t-29 82t-22 78.5z" />
<glyph unicode="s" horiz-adv-x="960" d="M97 135v23q0 47 21 72.5t37 25.5q42 0 146.5 -51t177 -51t113 29.5t40.5 83t-78 97.5q-21 12 -166 65t-202 107q-84 79 -84 201t102 205t272 83q359 0 359 -146q0 -49 -19 -79q-20 -31 -50.5 -31t-127 42.5t-163.5 42.5t-100.5 -28.5t-33.5 -59.5q0 -57 57 -95 q21 -14 174.5 -69.5t217.5 -113.5q86 -79 86 -202t-82 -200q-111 -105 -274 -105h-27q-184 0 -274 32q-122 43 -122 122z" />
<glyph unicode="t" horiz-adv-x="784" d="M69 924q0 51 31 72q7 5 40 22.5t40.5 28t30 96t46 119t67.5 33.5h17q57 0 84 -36q14 -19 29 -94t41 -105t108.5 -51.5t82.5 -69.5t-25 -67t-98 -35t-95 -49.5t-22 -185.5l-1 -21q-1 -21 -1 -49v-59q0 -185 37 -238q23 -33 99.5 -44.5t81.5 -13.5q39 -20 39 -65v-16 q0 -41 -54.5 -69.5t-134.5 -28.5h-41q-151 0 -223 121q-55 93 -55 341t-17 312q-9 35 -58 68t-49 84z" />
<glyph unicode="u" horiz-adv-x="1182" d="M93 928q0 36 28 53t97 17h27q100 0 128 -68q17 -41 17 -325t31 -350q39 -84 142 -84q53 0 101.5 27t71.5 72q37 71 37 292q0 102 -13 193t-13 128q0 110 175 110q86 0 100 -66q4 -19 4 -282t14 -348t22.5 -122.5t8.5 -48.5v-22q0 -89 -162 -89q-49 0 -101 27.5t-64 27.5 l-106 -41q-85 -33 -154 -33h-27q-85 0 -155 37.5t-107 104.5q-54 97 -54 438q0 154 -5 184t-24 81t-19 87z" />
<glyph unicode="v" horiz-adv-x="1087" d="M56 924.5q0 48.5 28.5 63.5t99.5 15h22q115 0 158 -66q19 -28 32 -115.5t47 -203.5q95 -330 122 -330q21 0 125 328q32 100 55 216.5t25 119.5q25 50 155 50q59 0 79 -12t20 -59v-18q0 -35 -53 -143.5t-135.5 -335t-126.5 -318t-73.5 -108t-92.5 -16.5t-89.5 17.5 t-63.5 87t-133.5 335t-148.5 355t-52 138z" />
<glyph unicode="w" horiz-adv-x="1574" d="M86 887q0 55 21.5 72t79.5 17q107 0 155 -79q12 -20 80 -280t97 -260t94 250q16 62 33.5 179t30.5 138q28 48 156 48q119 0 153 -238q10 -67 27 -142q54 -232 78 -232q52 0 127 383q24 123 40 160q35 82 134 82h31q51 0 51 -67v-27q0 -37 -41 -167.5t-100 -335.5 t-79.5 -249t-66.5 -77.5t-81 -33.5q-76 0 -119 67q-7 11 -104 243t-101.5 232t-77 -198.5t-117 -272.5t-105.5 -74q-40 0 -87 30.5t-69.5 79.5t-91 272t-108.5 324t-40 156z" />
<glyph unicode="x" horiz-adv-x="1090" d="M77 57q0 15 149.5 214.5t149.5 232t-148.5 232t-148.5 211.5q0 32 27 41q44 15 180 15q72 0 115 -39l68 -139q64 -130 100 -130q24 0 104 143q15 26 33.5 73t28.5 59q31 36 105 36q151 0 151 -51q0 -34 -141 -208.5t-141 -237.5q0 -27 153.5 -235t153.5 -217 q0 -30 -27 -42q-47 -21 -154 -21h-26q-90 0 -126 51q-9 12 -32.5 72.5t-29.5 72.5q-71 138 -98 138q-21 0 -100 -139q-18 -32 -38 -88t-35 -72q-33 -35 -120.5 -35t-120 11t-32.5 52z" />
<glyph unicode="y" horiz-adv-x="1098" d="M65 909.5q0 41.5 38.5 60.5t133 19t135.5 -68q19 -32 29.5 -118t38.5 -180q89 -301 124 -301q48 0 112.5 191t75.5 352q4 63 18 88q31 55 113 55q142 0 142 -61q0 -29 -156 -488t-183 -513q-179 -350 -354 -350q-90 0 -141 41q-15 12 -15 30q0 55 46 91q6 5 85 27 q164 46 164 215q0 44 -87 190t-132 249q-187 429 -187 470.5z" />
<glyph unicode="z" horiz-adv-x="1000" d="M82 48v23q0 66 234 390.5t234 342.5q0 30 -114 30q-57 0 -153 -24t-123 -24q-59 0 -59 110q0 61 27.5 88.5t99.5 27.5h51l26 -1l185 1h159l26 -1l27 1q126 0 152 -6q43 -10 43 -68t-31.5 -108t-103.5 -148q-324 -437 -324 -485q0 -26 95 -26t201 29.5t117 29.5 q62 0 62 -106q0 -61 -31 -94.5t-116 -33.5h-26l-25 1h-26l-157 3h-158q-216 0 -235 2q-57 6 -57 46z" />
<glyph unicode="{" horiz-adv-x="780" d="M90 615v23q0 41 64 75t84 74.5t20 286.5t61 335q82 120 295 120q83 0 83 -68q0 -59 -81 -99t-103 -96t-22 -251.5t-22 -247t-46 -76t-47.5 -43t-23.5 -22.5q0 -6 23 -22q75 -54 95 -117t20 -233l-2 -124q0 -120 28 -167t65 -66q73 -38 91 -60t18 -65q0 -57 -70 -57h-25 q-180 0 -261 92q-47 53 -63.5 124.5t-16.5 218.5l3 150q0 126 -21 167t-83.5 70.5t-62.5 77.5z" />
<glyph unicode="|" horiz-adv-x="624" d="M210 -154v1565q0 72 12.5 92t80.5 20h39q49 0 62.5 -22t13.5 -109v-1563q0 -72 -13 -92.5t-81 -20.5h-19q-68 0 -81.5 22t-13.5 108z" />
<glyph unicode="}" horiz-adv-x="782" d="M96 -224q0 60 80.5 106t100.5 96.5t20 246.5t23.5 259t69.5 99.5t46 45.5q0 2 -24 20q-66 49 -89.5 106.5t-23.5 257.5t-21.5 254.5t-100.5 96t-79 100.5q0 65 96 65q197 0 278 -124q57 -87 57 -377q0 -188 15 -230t68 -72q82 -46 82 -90q0 -63 -50 -90 q-78 -42 -96.5 -84.5t-18.5 -287.5t-61 -334q-84 -125 -256 -125q-82 0 -99 11.5t-17 49.5z" />
<glyph unicode="~" horiz-adv-x="1099" d="M114 624q0 94 76 161t161 67h22q65 0 188 -61.5t171 -61.5t117 46t88 46q59 0 59 -62v-11q0 -73 -70 -143t-157 -70h-22q-67 0 -191 62t-173.5 62t-117.5 -48t-100 -48q-51 0 -51 61z" />
<glyph unicode="&#xa1;" horiz-adv-x="686" d="M191 1066v9l4 33q0 28 25 53t86 25h46q15 -3 48 -3t60.5 -32t27.5 -90v-13l-1 -4v-9q-2 -8 -2 -12q0 -42 -32 -65t-85 -23h-41q-136 0 -136 131zM231 -55l1 12v36l2 49v24l3 61v25l9 190l2 50q4 52 4 75l3 49l2 25q3 39 3 60l2 24q1 12 1 24l2 24l1 23q0 73 58 73h40 q50 0 50 -91l2 -48l2 -23q3 -39 3 -61l2 -24q1 -12 1 -24l3 -50l2 -25q3 -39 3 -63l2 -25l14 -350v-24l2 -58v-57q0 -57 -24.5 -76t-80.5 -19h-40q-43 0 -58.5 18.5t-15.5 69.5v106z" />
<glyph unicode="&#xa2;" horiz-adv-x="1114" d="M128 583v26q0 197 101 324q64 80 191 135q62 26 85 44t63.5 87t71.5 69q50 0 143 -133q35 -50 106.5 -98.5t71.5 -109.5q0 -37 -21.5 -62.5t-43.5 -25.5t-66 16.5t-80 16.5t-46 -56q-24 -130 -24 -295.5t13.5 -200t62.5 -34.5q6 0 63 13.5t82 13.5q74 0 74 -60 q0 -47 -117.5 -113t-157.5 -125q-75 -109 -129 -109q-29 0 -55 64q-28 64 -36 73q-22 20 -109.5 66t-152.5 144q-90 135 -90 330zM370 583l1 -9v-17q2 -16 2 -25q0 -78 49 -161.5t94 -83.5h5q22 0 22 214v22l3 54v15l7 99l1 8l3 45q5 38 5 52l3 30l4 29v14l1 14q0 44 -16 44 h-6q-70 0 -124 -84.5t-54 -216.5v-43z" />
<glyph unicode="&#xa3;" horiz-adv-x="1171" d="M111 97q0 41 44 99q7 9 44.5 52.5t53.5 81.5t16 115t-20 111q-9 16 -82 53q-50 26 -50 78.5t41 90t51.5 61t27.5 136.5t22 131q52 175 226 248q97 41 195 41h34q142 0 225 -49.5t83 -132.5q0 -46 -21.5 -73.5t-84.5 -27.5q-15 0 -93 30.5t-120 30.5q-100 0 -146.5 -51.5 t-46.5 -195.5q0 -63 40 -90.5t137 -43.5t126 -31t29 -61q0 -72 -91 -86q-73 -12 -85 -15q-56 -16 -99 -73q-72 -95 -72 -235q0 -39 40.5 -52t122.5 -13t155.5 10.5t124.5 10.5t85.5 -28.5t34.5 -91.5t-59.5 -96.5t-219.5 -33.5l-101 3l-102 6q-85 5 -134 5l-229 -8 q-51 0 -76.5 26.5t-25.5 67.5z" />
<glyph unicode="&#xa4;" horiz-adv-x="1186" d="M103 306.5q0 18.5 51 77t51 101.5q0 10 -24 77t-24 138.5t24 153.5t24 83q0 33 -51 93.5t-51 70.5q0 28 33.5 62.5t67.5 34.5q8 0 65.5 -48.5t86 -48.5t97 19.5t131.5 19.5t145 -21.5t99.5 -21.5t75.5 52.5t78.5 52.5t55 -35.5t34.5 -57.5t-51 -80.5t-51 -102.5 q0 -8 12 -44.5t20.5 -72t8.5 -99t-25.5 -144t-25.5 -99t55.5 -82t55.5 -67.5q0 -29 -33 -62t-68 -33q-14 0 -70.5 51.5t-109.5 51.5q-7 0 -69 -20t-134 -21q-71 0 -137 19t-75 19q-41 0 -82 -38q-77 -72 -100.5 -72t-56.5 37.5t-33 56zM348 697q0 -96 69 -171t155 -75h33 q86 0 154 74t68 173v34q0 94 -69.5 170t-155.5 76h-33q-81 0 -151 -70t-70 -177v-34z" />
<glyph unicode="&#xa5;" horiz-adv-x="1249" d="M85 1292q0 84 144 84t193 -61q24 -29 40 -101t42 -132q114 -261 146 -261q22 0 140 236q36 72 59 158.5t35 105.5q34 54 174 54q47 0 72.5 -20t25.5 -37v-23q0 -34 -122 -226.5t-122 -274.5q0 -29 39.5 -74t39.5 -63q0 -41 -77 -85.5t-77 -56.5q0 -38 60 -67 q90 -43 90 -70t-66 -83l-21 -15q-68 -45 -76 -61.5t-11.5 -78.5t-34 -101.5t-142.5 -39.5h-37q-91 0 -127 38t-36 129q0 62 -54 95q-118 73 -118 111q0 32 75 67t75 72q0 19 -68 51t-68 85q0 20 29 56.5t29 77.5q0 77 -125.5 280.5t-125.5 230.5z" />
<glyph unicode="&#xa6;" horiz-adv-x="598" d="M194 -198v593q0 54 17.5 65.5t63.5 11.5h67q60 0 60 -69l2 -18v-583q0 -56 -15.5 -71.5t-75.5 -15.5h-56q-40 0 -51.5 18.5t-11.5 68.5zM194 824v594q0 55 16 68.5t90 13.5h19q53 0 69 -14.5t16 -70.5v-584q0 -65 -16 -78.5t-82 -13.5h-47q-41 0 -53 18.5t-12 66.5z" />
<glyph unicode="&#xa7;" horiz-adv-x="1078" d="M147 625.5q0 109.5 67 200.5q35 49 35 56t-35 84.5t-35 128.5q0 132 98 219t251.5 87t233.5 -41q108 -55 108 -118q0 -111 -74 -111q-13 0 -95.5 47.5t-148 47.5t-98 -28t-32.5 -66q0 -61 66 -113q18 -14 164.5 -88.5t218 -146t71.5 -165.5t-32 -155q-10 -19 -37.5 -56.5 t-27.5 -58.5t24.5 -88t24.5 -133q0 -134 -108.5 -218.5t-270 -84.5t-260.5 56t-99 123.5t34 100.5q12 12 39.5 12t80.5 -33.5t61 -37.5q78 -38 150.5 -38t101.5 34t29 84t-72 101q-7 5 -145.5 74.5t-194.5 123.5q-93 91 -93 200.5zM358 682q2 -10 2 -16q0 -48 111.5 -126 t185.5 -78h16q55 0 55 65l2 11v17q0 64 -72 128q-143 127 -222 127h-9q-23 0 -46 -27t-23 -78v-23z" />
<glyph unicode="&#xa8;" horiz-adv-x="910" d="M112 1264v14q0 119 84 119q20 5 30 5l18 1h4l5 -1h4q112 0 112 -94l3 -27v-22l-4 -31q0 -37 -26.5 -59t-61.5 -22q-8 -2 -13 -2l-22 -2h-18l-5 1h-8q-10 2 -13 2q-89 0 -89 118zM533 1260v32q3 12 3 35t24 47t60 24l18 3l26 2h5l4 -1q115 0 115 -85q2 -8 2 -13l2 -18v-28 l-1 -4v-9q-2 -8 -2 -13q0 -40 -29 -64.5t-86 -24.5h-27q-110 0 -110 86q-3 12 -3 13z" />
<glyph unicode="&#xa9;" horiz-adv-x="1558" d="M88 668v46q0 135 46 262q97 264 355 371q137 57 283 57h23q124 0 250 -45q260 -93 367 -346q61 -144 61 -282v-69q-1 -126 -55 -258q-103 -250 -347 -352q-137 -57 -282 -57h-24q-143 1 -270 53q-255 106 -355 359q-52 133 -52 261zM237 662q0 -100 43 -208 q81 -206 284 -286q94 -37 194 -37h37q106 1 204 39q209 82 287 297q39 107 39 210v56v5q0 105 -45 210q-85 201 -266 277q-104 44 -210 44h-38q-111 0 -212 -43t-167.5 -112.5t-108 -174.5t-41.5 -216v-56v-5zM421 699q0 287 209 377q68 30 136 30h36q258 0 258 -164 q0 -60 -63 -60q-30 0 -122 48q-60 31 -104 31q-23 0 -43 -9q-110 -51 -110 -223q0 -290 194 -290q46 0 109 30.5t87 30.5q58 0 58 -49t-80.5 -102.5t-183.5 -53.5h-37q-151 0 -247 105q-96 106 -97 299z" />
<glyph unicode="&#xaa;" horiz-adv-x="851" d="M74 934q0 189 286 213q45 4 74 15t29 48q0 82 -90 82q-27 0 -87 -31t-109 -31q-60 0 -60 76q0 53 88 88t207 35q159 0 227 -86q48 -61 48 -276q0 -117 4.5 -134.5t22 -51.5t17.5 -62v-14q0 -62 -114 -62q-60 0 -98 25t-46.5 25t-36 -16.5t-59 -30t-88.5 -13.5 q-107 0 -161 54t-54 147zM286 926l3 -11q0 -45 48 -45h4l3 1h11q60 0 87.5 27.5t27.5 44.5l6 32v48q0 36 -23 36h-18l-3 -1h-43l-6 -1h-6l-25 -5q-14 0 -38.5 -31t-24.5 -60l-3 -18v-17z" />
<glyph unicode="&#xab;" horiz-adv-x="1161" d="M85 559.5q0 50.5 310 360.5q85 85 133 85h11q66 0 66 -65q0 -46 -139 -209.5t-139 -169t140 -170.5t140 -204v-10q0 -18 -25.5 -40.5t-47.5 -22.5h-11q-43 0 -122 79q-316 316 -316 366.5zM524 555q0 40 291 348q86 91 138 91h10q67 0 67 -62q0 -49 -133.5 -207.5 t-133.5 -161.5q0 -11 52.5 -69.5t93.5 -110.5q123 -154 123 -187v-10q0 -18 -27.5 -40t-45.5 -22h-10q-46 0 -119 77q-306 324 -306 354z" />
<glyph unicode="&#xac;" horiz-adv-x="1172" d="M101 667v15q0 79 15.5 87.5t88.5 8.5h763q51 0 70.5 -24t19.5 -81v-367q0 -53 -74 -53t-95 29t-21 119q0 164 -54 181q-16 5 -326 5t-339 6q-48 10 -48 74z" />
<glyph unicode="&#xad;" horiz-adv-x="887" d="M117 532v59q0 77 33 84q23 5 311 5l211 2h42q56 0 56 -66v-51q0 -85 -41 -85l-16 -1h-16l-17 -1h-144l-17 -1h-118l-17 -1h-93l-17 -1h-68l-25 -1q-64 0 -64 58z" />
<glyph unicode="&#xae;" horiz-adv-x="1473" d="M83 848v6q0 137 47 256q99 251 345 345q114 43 246 43t248 -46q249 -99 347 -346q46 -117 46 -244v-44q0 -122 -45 -236q-93 -237 -321 -339q-127 -57 -262 -57h-43q-130 0 -248 54.5t-189 130.5q-171 184 -171 477zM213 837l1 -18q0 -215 139 -360q67 -70 156.5 -107 t177.5 -37h34q89 0 181 34q188 69 270 253q42 94 42 189v69q0 106 -43.5 206.5t-105.5 162.5t-152 101t-176 39h-53q-100 0 -191 -41q-178 -80 -241 -261q-39 -110 -39 -230zM432 553v15q0 10 13 41.5t13 106.5v188l1 49v81q0 63 -9 99t-9 51q0 30 194 30l48 1 q292 0 292 -188q0 -91 -43 -143q-69 -84 -69 -93.5t73 -133t73 -131.5q0 -37 -67 -37t-92.5 23t-63.5 107.5t-46 96.5q-30 44 -69 44q-49 0 -49 -84q0 -11 7 -50.5t7 -71.5q0 -66 -89 -66h-31q-84 0 -84 65zM621 923q0 -41 42 -41h41l4 1l33 3q4 1 14 1t41.5 25.5t31.5 67.5 v35q0 35 -27.5 62.5t-57.5 27.5l-17 3h-8l-13 1h-41q-43 0 -43 -46v-140z" />
<glyph unicode="&#xaf;" horiz-adv-x="871" d="M100 1204v50q0 49 15 61t53 12h552q50 0 50 -45v-50q0 -59 -30 -68q-14 -4 -327 -4h-131l-33 -1h-82q-67 0 -67 45z" />
<glyph unicode="&#xb0;" horiz-adv-x="831" d="M114 1116v29q0 115 84 199t202 84h20q119 0 201.5 -82.5t82.5 -190.5v-39q0 -105 -83.5 -188.5t-192.5 -83.5h-39q-111 0 -193 82t-82 190zM263 1131l1 -5l2 -25q0 -46 43.5 -83t89.5 -37h20q47 0 90 36.5t43 87.5l2 10v36q-3 15 -3 24q0 50 -46 83t-96 33h-5 q-59 0 -100 -41t-41 -109v-10z" />
<glyph unicode="&#xb1;" horiz-adv-x="1146" d="M117 724v35q0 69 29 80q18 7 161.5 7t154 11.5t10.5 150t14.5 155.5t69.5 17h52q45 0 55 -36q5 -18 5 -149.5t14.5 -140t159 -8.5t163.5 -9.5t19 -44.5v-52q0 -58 -39 -70q-24 -7 -160.5 -7t-146 -19t-9.5 -145t-13.5 -144t-69.5 -18h-53q-45 0 -55 36q-6 21 -6 148 t-21 137q-10 5 -145.5 5t-155.5 6q-33 10 -33 55zM123 123v33q0 75 37 83t374 8h109q316 0 345.5 -6.5t29.5 -51.5v-54q0 -64 -37 -72t-353 -8h-172q-273 0 -303 6.5t-30 61.5z" />
<glyph unicode="&#xb2;" horiz-adv-x="851" d="M121 738v17q0 70 148 212.5t177 184.5t29 87q0 96 -89 96q-32 0 -95.5 -43t-111.5 -43t-48 66t75 117.5t186 51.5h20q130 0 194 -66.5t64 -157t-56.5 -162.5t-152 -151t-95.5 -105q0 -12 51.5 -12t129.5 11.5t95 11.5q44 0 44 -71t-54 -92q-31 -12 -142 -12h-111l-19 1 q-183 0 -200 5q-39 11 -39 54z" />
<glyph unicode="&#xb3;" horiz-adv-x="864" d="M126 795.5q0 58.5 65 58.5q26 0 89 -26.5t108 -26.5t76 27t31 81t-33.5 79.5t-59 30.5t-53 8t-34.5 6q-29 12 -29 48t84.5 79.5t84.5 113.5q0 52 -88 52q-22 0 -79 -19t-95 -19q-47 0 -47 54.5t74.5 95.5t172.5 41h19q111 0 162 -38q69 -51 69 -142t-85 -169 q-14 -13 -14 -18.5t38.5 -27t71.5 -64t33 -102.5v-19q0 -106 -84.5 -175.5t-211 -69.5t-208.5 49q-57 34 -57 92.5z" />
<glyph unicode="&#xb4;" horiz-adv-x="759" d="M190 1147v10q0 75 166 262q54 61 143 61h19q12 -2 18 -2q81 0 81 -46v-11q0 -48 -185 -212q-101 -90 -165 -90h-18q-59 0 -59 28z" />
<glyph unicode="&#xb5;" horiz-adv-x="1210" d="M128 891.5q0 51.5 13 69.5q26 36 118.5 36t118.5 -53q25 -52 25 -310v-20v-21q0 -257 23 -313q47 -114 141 -114q134 0 193 104q28 49 28 228.5t-6 245.5t-6 83q0 87 31 122.5t114 35.5t111 -78q10 -27 10 -177q0 -366 39 -497l7 -25q12 -41 12 -47q0 -152 -122 -152 q-56 0 -90 14l-23 12l-21 13q-27 15 -46 15t-75.5 -18t-103 -30t-129.5 -12l-26 1l-46 3q-41 0 -41 -112l2 -61q2 -63 2 -111.5t-27.5 -85.5t-87.5 -37t-80 18.5t-28.5 72.5t-8.5 583l1 65v231q0 132 -11 201t-11 120.5z" />
<glyph unicode="&#xb6;" horiz-adv-x="1241" d="M119 1052q0 182 128 290q49 41 138.5 69t208.5 28h76q310 0 368.5 -13.5t58.5 -73.5q0 -9 -10 -54l-7 -30l-4 -33l-5 -33q-22 -130 -24.5 -191t-2.5 -328v-412q0 -83 7 -149t7 -113t-25.5 -67t-56.5 -20q-75 0 -88 101q-16 126 -16 454l-13 587q0 91 -11.5 109t-62.5 18 t-62 -28q-6 -15 -6 -131l-2 -102q-1 -34 -1 -69q0 -457 -43 -832q-11 -93 -74 -93q-51 0 -73 23t-22 89l1 35l3 33q2 33 2 98q0 252 -57 373q-29 60 -106 108q-116 71 -155 126q-71 100 -71 231z" />
<glyph unicode="&#xb7;" horiz-adv-x="628" d="M154 634v27q0 69 32 101t80 32q20 4 25 4h43q131 0 131 -137v-26q0 -69 -32 -101t-80 -32q-20 -4 -26 -4h-37q-70 0 -103 33t-33 103z" />
<glyph unicode="&#xb8;" horiz-adv-x="756" d="M195 -358q0 43 63 43q14 2 22 2q51 0 76 22.5t25 50t-47 57.5t-47 59q0 63 25 97.5t58 34.5h34q46 0 46 -42q0 -18 63.5 -70t63.5 -112v-25q0 -74 -65 -129t-154 -55h-43q-120 0 -120 52v15z" />
<glyph unicode="&#xb9;" horiz-adv-x="732" d="M130 1308v9q0 33 49 62q152 91 209 91h24q40 0 51 -29q3 -8 3 -244.5t2 -251.5t35.5 -82t33.5 -109q0 -82 -162 -83h-26q-153 0 -153 91q0 42 32.5 89t39 67.5t6.5 151.5t-14 150t-72 35.5t-58 52.5z" />
<glyph unicode="&#xba;" horiz-adv-x="863" d="M78 1055v37q0 148 89 243t222 95h49q136 0 218 -77q104 -98 104 -238l2 -24v-25l-1 -12q0 -147 -89.5 -242.5t-236.5 -95.5h-50q-127 0 -217 90t-90 249zM282 1066l1 -7v-20q3 -30 3 -32q0 -62 37.5 -110t90.5 -48h6q44 0 79 40t35 99q3 18 3 25l2 32v55q0 92 -35 144.5 t-92 52.5h-6q-54 0 -89 -52.5t-35 -149.5v-29z" />
<glyph unicode="&#xbb;" horiz-adv-x="1167" d="M140 920q0 32 23.5 54t56.5 22t107 -74q309 -309 309 -363t-313 -367q-69 -69 -115 -69q-67 0 -67 60q0 47 134 206t134 173q0 2 -68 87l-16 19q-16 19 -24 29l-16 19q-145 172 -145 204zM562 175q0 44 139.5 208t139.5 180q0 7 -139.5 171t-139.5 206v10q0 57 73 57 q40 0 117 -77q318 -318 318 -374q0 -28 -196.5 -235.5t-235.5 -207.5h-10q-66 0 -66 62z" />
<glyph unicode="&#xbc;" horiz-adv-x="1609" d="M146 1256.5q0 30.5 53 62.5q143 86 204 86h12q45 0 52 -37q5 -25 5 -265.5t3.5 -266t29 -74t25.5 -75.5v-10q0 -68 -104 -68l-25 -2l-36 -1h-36q-46 0 -91 35q-22 17 -22 48t19 63.5t33.5 71t14.5 161.5t-18.5 157t-68.5 59t-50 55.5zM314 0q0 58 770 1274 q67 106 144.5 106t77.5 -34q0 -22 -32 -77q-382 -658 -747 -1215q-58 -89 -113 -89h-17q-83 0 -83 35zM904 226v10q0 88 318 481q41 51 99 51h41q44 0 54 -33q3 -9 3 -173t7.5 -192.5t31 -62.5t39 -48.5t15.5 -20.5v-6q0 -32 -17.5 -67t-26.5 -42.5t-13.5 -13t-4.5 -31.5 q0 -123 -83 -123h-41q-76 0 -94 19q-31 33 -31 103q0 38 -48.5 59t-121.5 21t-100 16.5t-27 52.5zM1055 293.5q0 -6.5 13 -6.5h63l4 1h8q82 0 85.5 7t3.5 81v107l1 7v44l1 12v12l-3 4q-6 0 -39.5 -58.5t-85 -131t-51.5 -79z" />
<glyph unicode="&#xbd;" horiz-adv-x="1685" d="M134 1258v8q0 29 50 61q147 93 197 93h22q42 0 50 -43q3 -17 3 -199v-289q0 -25 30 -96.5t30 -103.5v-11q0 -39 -47 -64q-21 -11 -101 -11h-24q-139 0 -139 96q0 27 21.5 70t34.5 78.5t13 152.5t-13.5 142t-70 51t-56.5 65zM291 5q0 16 44 94q412 732 713 1199 q73 113 141 113q96 0 96 -39q0 -19 -45 -95q-311 -524 -428.5 -733t-219 -366t-117.5 -174q-37 -39 -89 -39h-17q-78 0 -78 40zM1007 33v17q0 70 151.5 221.5t176 189t24.5 86t-25.5 69.5t-60.5 21t-100.5 -43t-107.5 -43q-51 0 -51 82q0 60 81 110q82 50 177 50h40 q111 0 179.5 -66t68.5 -152t-40.5 -147t-152.5 -164.5t-112 -118.5t83 -15l179 16q56 0 56 -58v-17q0 -48 -31 -73.5t-109 -25.5h-170l-19 1q-175 0 -200 7q-37 10 -37 53z" />
<glyph unicode="&#xbe;" horiz-adv-x="1700" d="M139 736q0 65 60 65q24 0 84 -27t110 -27t82.5 28.5t32.5 82t-34 80.5t-93 36.5t-65 13.5q-23 14 -23 52q0 29 97 76q74 36 74 94q0 66 -90 66q-29 0 -83.5 -20t-86.5 -20q-48 0 -48 54.5t73.5 94.5t156.5 40h59q85 0 145 -43q60 -44 61 -116q0 -109 -89 -191 q-13 -12 -13 -16t23 -15q124 -59 124 -181v-19q0 -95 -82.5 -165.5t-216.5 -70.5h-19q-96 0 -167.5 38t-71.5 90zM408 5q0 78 803 1323q48 75 126.5 75t78.5 -36q0 -23 -43 -93q-699 -1141 -754 -1223.5t-111 -82.5h-17q-83 0 -83 37zM998 234v10q0 85 323 484q40 50 100 50 h28q57 0 66 -34q3 -12 3 -178.5t14 -208t46.5 -72t32.5 -38.5v-5q0 -31 -31.5 -94t-31.5 -70q0 -61 -23 -87.5t-72 -26.5h-41q-64 0 -80 18q-30 35 -30 104q0 37 -59 62q-36 15 -112.5 15t-104.5 17t-28 54zM1156 293q0 -2 5 -2h42l4 1h40q85 0 88 5t3 81v124l1 15v38l-1 1 q-4 0 -55.5 -77.5t-89 -122.5t-37.5 -61v-2z" />
<glyph unicode="&#xbf;" horiz-adv-x="1040" d="M123 74.5q0 145.5 68 245.5q43 63 111 124q111 99 131 126.5t36 100.5t19 76q18 21 78 21h17q44 0 64.5 -25t20.5 -100t-35 -140t-108 -135.5t-103 -120.5t-30 -124t43.5 -115.5t117.5 -41.5t152.5 45.5t118.5 45.5t60 -30t20 -71v-17q0 -80 -115.5 -134t-281 -54 t-275 89t-109.5 234.5zM426 1074v23q3 15 3 36.5t29.5 47t77.5 25.5l26 3h32q18 -3 26 -3q49 0 78 -34t29 -96v-16l-1 -6l-2 -26q0 -55 -38 -87.5t-92 -32.5h-25q-81 0 -112 43.5t-31 122.5z" />
<glyph unicode="&#xc0;" horiz-adv-x="1361" d="M69 155q0 38 77 199q23 48 151 431.5t173 482.5t82.5 117.5t123 18.5t117 -25.5t76.5 -111t290 -821.5q26 -78 70.5 -156t44.5 -116v-21q0 -72 -30.5 -110t-128.5 -38h-27q-87 0 -122 42q-19 23 -35.5 145t-59.5 159.5t-230 37.5t-216 -21q-44 -31 -68.5 -171.5 t-26.5 -144.5q-25 -47 -118 -47t-112 30q-31 48 -31 120zM383 1797v10q0 14 28 36t68 22h12l6 -1q88 0 155 -60t146 -172q25 -36 25 -64v-5q0 -43 -53 -43h-12l-6 1q-70 0 -173 72q-196 137 -196 204zM470 594q0 -25 93 -25h139q120 0 120 22q0 3 -42 159.5t-87 255 t-49 98.5t-89 -238t-85 -272z" />
<glyph unicode="&#xc1;" horiz-adv-x="1360" d="M67 155q0 4 99 247q5 13 134.5 401t172.5 478t77 107.5t101 17.5h54q66 0 103 -41.5t86 -149t159.5 -452t143.5 -413.5q74 -155 74 -173v-21q0 -89 -48 -125q-32 -24 -112 -24h-26q-101 0 -132 57q-7 13 -25 133.5t-59.5 157t-235.5 36.5t-227 -38.5t-49.5 -160.5 t-25.5 -138q-28 -47 -119.5 -47t-111.5 30q-33 49 -33 118zM467 597q0 -19 70 -19h139q142 0 142 19v11q0 74 -147 456q-20 51 -23 51h-4q-5 0 -91 -240.5t-86 -265.5v-12zM518 1555v17q0 20 56 100t126.5 134.5t145.5 54.5h24q28 0 57.5 -19.5t29.5 -37.5v-11 q0 -60 -200 -200q-107 -75 -171 -75h-17q-51 0 -51 37z" />
<glyph unicode="&#xc2;" horiz-adv-x="1359" d="M69 153q0 39 77 200q23 48 151 431.5t173 482.5t82.5 117.5t123 18.5t117 -25.5t76.5 -111t290 -821.5q26 -78 70.5 -156t44.5 -116v-21q0 -72 -30.5 -110t-128.5 -38h-27q-87 0 -122 42q-19 23 -35.5 145t-59.5 159.5t-230 37.5t-216 -21q-44 -31 -68.5 -171.5 t-26.5 -144.5q-25 -47 -118 -47t-112 30q-31 48 -31 119zM350 1550v7q0 66 198 249q53 49 124 49h9q65 0 115 -46q197 -182 197 -242v-7q0 -40 -73 -40t-138 60q-104 96 -110 96t-91.5 -79t-145.5 -79h-8l-8 1q-69 0 -69 31zM470 593q0 -25 93 -25h162q97 0 97 22 q0 3 -42 159.5t-87 255t-49 98.5t-89 -238t-85 -272z" />
<glyph unicode="&#xc3;" horiz-adv-x="1365" d="M70 153q0 6 91 224q29 70 149 436.5t165.5 462t80.5 114t122.5 18.5t122 -29t78 -111.5t281.5 -797.5q30 -90 76 -174.5t46 -123.5v-20q0 -88 -50 -124q-32 -23 -135.5 -23t-135.5 58q-4 6 -22.5 130.5t-61 160.5t-246.5 36h-55l-27 -1q-27 -1 -53 -1q-65 0 -94.5 -55 t-42 -163.5t-38 -136.5t-103.5 -28t-103 17q-45 30 -45 131zM312 1602v19q0 68 61.5 125t127.5 57h26q45 0 159.5 -44.5t143.5 -44.5t74.5 35t87.5 35q48 0 48 -64.5t-55.5 -124.5t-124.5 -60h-35q-53 0 -154 45t-140.5 45t-82 -36t-89.5 -36t-47 49zM474 599q0 -21 155 -21 h125q76 0 76 22v6q0 30 -86 271t-90 241t-31 -64q-149 -348 -149 -443v-12z" />
<glyph unicode="&#xc4;" horiz-adv-x="1358" d="M66 155q0 9 99 247q18 44 139 414t166.5 462.5t79.5 110.5t121 18t122 -29t85.5 -132.5t165.5 -455t132.5 -396t55.5 -110t38 -107.5v-21q0 -89 -48 -125q-32 -24 -112 -24h-26q-102 0 -132 57q-6 12 -24.5 133.5t-60 157.5t-236 36t-227 -39t-49 -160t-25.5 -138 q-26 -47 -118.5 -47t-112.5 30q-33 50 -33 118zM333 1651v28q0 112 95 112l26 3h27l18 -2l21 -3q67 0 67 -73q3 -12 3 -13l2 -22v-32l-4 -31q0 -75 -81 -75l-4 -1l-5 -1l-36 -3h-9l-4 1h-14q-19 3 -21 3q-81 0 -81 109zM465 597q0 -19 77 -19h193q80 0 80 18v5 q0 46 -146 455q-21 59 -28 59t-30 -64q-146 -409 -146 -448v-6zM745 1637v37l4 31q0 36 27.5 59t79.5 23h44q15 -3 22 -3q80 0 80 -108v-28q0 -68 -30 -93t-103 -25l-5 1h-18q-20 3 -21 3q-80 0 -80 103z" />
<glyph unicode="&#xc5;" horiz-adv-x="1390" d="M70 166q0 67 43 140.5t65.5 129.5t137 412.5t158 446.5t85 112t127.5 22h28q74 0 119 -42.5t95 -149.5t161 -453.5t142 -413.5q81 -177 81 -198q0 -85 -59 -123q-34 -22 -116 -22h-27q-108 0 -138 55q-4 8 -19.5 127.5t-63.5 164.5t-237.5 45t-228 -39.5t-51.5 -164 t-29 -148.5q-25 -39 -112 -39t-109 21q-52 50 -52 117zM462 1701v29q0 83 65 141.5t151 58.5h14q92 0 155.5 -57.5t63.5 -145.5v-15q0 -90 -65 -148.5t-144 -58.5h-36q-79 0 -141.5 56.5t-62.5 139.5zM482 614q0 -19 95 -19h182q85 0 85 20v6q0 127 -147 445q-30 66 -33 66 t-37 -74q-145 -314 -145 -438v-6zM587 1707q0 -36 27.5 -63.5t61.5 -27.5h20q41 0 64 29t23 51l2 13v17l-4 23q0 12 -23 40.5t-71 28.5h-4l-32 -5q-19 0 -40.5 -26.5t-21.5 -49.5l-2 -13v-17z" />
<glyph unicode="&#xc6;" horiz-adv-x="1838" d="M135 156q0 8 170 380.5t302 597.5q18 31 44.5 83t40.5 69q48 58 143 68.5t395 10.5l133 2l45 1h44q142 0 188.5 -28.5t46.5 -117.5q0 -65 -66 -65q-34 0 -137.5 14t-184 14t-112 -49.5t-31.5 -188.5q0 -69 33.5 -99t128.5 -30l149 18q126 0 126 -119t-67 -119l-146 12 q-123 0 -165 -38t-42 -126q0 -143 53 -199q24 -25 95 -25l264 21q77 0 106.5 -21.5t29.5 -66.5q0 -73 -56.5 -103.5t-322 -30.5t-380.5 37q-86 28 -86 110l2 36q5 59 5 71q0 90 -40.5 117.5t-112.5 27.5q-161 0 -224 -55q-42 -36 -112 -199l-12 -32q-19 -48 -22 -53 q-27 -48 -94 -48t-99 33t-32 90zM561 616q0 -6 13 -6l54 8q88 -25 147 -25l34 -2l7 -1h6q20 0 20 52l-8 64q10 80 10 116l3 37q5 45 6 63t2 32q3 40 3 51l2 8l3 15l4 28q6 28 6 41l3 32v6q0 11 -11 11q-38 0 -85.5 -69t-69.5 -163.5t-85.5 -193t-63.5 -104.5z" />
<glyph unicode="&#xc7;" horiz-adv-x="1351" d="M79 657v4v36q1 512 365 678q132 60 266 60h34q90 0 209 -28t167.5 -54t82.5 -75t34 -102t-20 -81.5t-49 -28.5q-78 0 -202 54q-122 54 -204 73q-35 9 -67 9q-43 0 -80 -16q-98 -41 -150 -151.5t-52 -280t22 -266.5q65 -288 299 -288q99 0 228 69.5t223 69.5q61 0 61 -72 q0 -51 -15 -80q-42 -83 -120 -131q-156 -96 -366 -96h-9q54 -10 143 -130q28 -37 28 -90v-17q0 -77 -62 -134t-165 -57h-35q-56 0 -94 22q-21 12 -21 51v14q0 29 55 29l30 2q107 0 107 71q0 42 -47 72t-47 64q0 104 73 104h6q-119 6 -235 51q-134 52 -220 146 q-173 191 -173 499z" />
<glyph unicode="&#xc8;" horiz-adv-x="1205" d="M126 98q0 23 22 107t22 188l1 75v563q0 77 -15 139l-9 30l-9 27q-12 39 -12 57v29q0 55 75.5 66.5t481.5 11.5l75 1h188q78 0 103 -35t25 -92q0 -111 -114 -111q-34 0 -166 20t-211 20t-104.5 -49.5t-25.5 -202.5q0 -75 51 -102t148 -27q21 0 82 15.5t117 15.5t75.5 -28 t19.5 -101.5t-16.5 -101t-80.5 -27.5l-33 5l-33 6l-32 7q-61 11 -149 11t-125 -48q-25 -32 -25 -144.5t27.5 -168.5t123.5 -56q63 0 202 22.5t184 22.5q108 0 108 -123q0 -72 -46.5 -98t-165.5 -26h-451q-195 0 -251.5 18.5t-56.5 83.5zM343 1790v11q0 14 28.5 36t73.5 22h6 l6 -1q86 0 153.5 -59t147.5 -173q25 -36 25 -64v-6q0 -42 -54 -42h-17q-69 0 -168 69q-201 141 -201 207z" />
<glyph unicode="&#xc9;" d="M133 133q0 15 22.5 105t22.5 183l1 73v259l1 74v220q0 76 -22 164t-22 111q0 53 81 65.5t465 12.5l74 1h185q126 0 126 -124q0 -108 -110 -108q-31 0 -161 20t-206 20t-101 -47.5t-25 -151.5t24 -130q41 -45 170 -45q15 0 76 15t116 15t74 -27.5t19 -99t-16.5 -99 t-79.5 -27.5l-32 4l-32 7l-32 6q-65 11 -148 11t-119 -49q-23 -31 -23 -142t26 -165t107 -54t210 21.5t176 21.5q107 0 107 -118q0 -71 -47.5 -97t-161.5 -26h-258q-331 0 -396 11q-91 15 -91 90zM472 1531v16q0 23 46 93t124 136t139 66h27q94 0 94 -44v-5q0 -44 -239 -259 q-61 -55 -126 -55h-10q-55 0 -55 52z" />
<glyph unicode="&#xca;" d="M126 97q0 27 22 110.5t22 152.5v107l1 37v451l-1 75q0 82 -14 139l-9 29l-10 28q-11 36 -11 57v28q0 55 72.5 67t484.5 12l151 1h75q94 0 129.5 -26.5t35.5 -100.5q0 -111 -114 -111l-360 40q-96 0 -122 -50t-26 -156t25 -131q44 -44 175 -44q21 0 80 15t117.5 15 t77.5 -28t19 -102t-16 -100.5t-82 -26.5l-33 4l-65 14q-61 11 -148.5 11t-124.5 -49q-25 -33 -25 -144t26.5 -167.5t110 -56.5t215.5 22t190 22q103 0 103 -121q0 -73 -47 -99.5t-166 -26.5h-263q-337 0 -403 11q-92 15 -92 92zM298 1552q0 67 203 254q48 44 117 44h9 q65 0 115 -46q199 -184 199 -248q0 -41 -70.5 -41t-140.5 59q-13 11 -59.5 54t-52 43t-90.5 -78.5t-144 -78.5h-17q-69 0 -69 38z" />
<glyph unicode="&#xcb;" d="M127 1315.5q0 44.5 49.5 62t283.5 17.5h487q129 0 129 -126q0 -112 -114 -112q-34 0 -166 20t-211 20t-105 -49.5t-26 -155.5t25 -132q41 -43 175 -43q21 0 79.5 15t116.5 15t77.5 -28t19.5 -101.5t-16 -100.5t-81 -27q-4 0 -81.5 14t-165 14t-124.5 -48 q-25 -32 -25 -143.5t26.5 -168t109.5 -56.5t218.5 22t181.5 22q108 0 109 -122q0 -71 -47.5 -98t-165.5 -27h-413q-233 0 -289 18.5t-56 84.5q0 19 20 100.5t22 156t2 382t-2 352.5t-22.5 111.5t-20.5 111zM281 1646v32l4 30q0 31 22.5 53.5t58.5 22.5q14 3 17 3l22 2h19 q111 0 111 -82l3 -18l2 -27v-5l-1 -4v-14q-3 -20 -3 -21q0 -39 -25 -60t-61 -21q-8 -2 -13 -2l-22 -2h-23l-5 1h-8q-10 2 -13 2l-17 3q-63 0 -63 72q-3 12 -3 13zM696 1646v27q0 112 90 112q8 2 13 2l22 2h18q60 0 88 -23.5t28 -85.5v-36q0 -63 -29 -87t-87 -24h-32l-4 1h-9 q-8 2 -13 2q-85 0 -85 110z" />
<glyph unicode="&#xcc;" horiz-adv-x="699" d="M85 1780l1 6v6q0 17 27.5 38.5t57.5 21.5h5q88 0 149 -69q176 -198 176 -263v-17q0 -37 -42 -37h-15q-71 0 -170 89q-189 170 -189 225zM123 1319.5q0 50.5 44 72t154 21.5h58q88 0 121 -18q57 -31 57 -80t-31.5 -107.5t-38 -105t-6.5 -361t6 -369.5t42 -119t36 -91v-34 q0 -37 -44.5 -56t-172.5 -19h-19q-106 0 -141 18q-57 30 -57 81t31 108.5t37 99.5t6 360.5t-6.5 376t-41 115t-34.5 108z" />
<glyph unicode="&#xcd;" horiz-adv-x="703" d="M131 1315q0 93 160 93h117q91 0 136 -43q21 -20 21 -63.5t-31.5 -104t-39.5 -116t-8 -375.5t5.5 -368t40.5 -101t35 -106.5t-53 -79.5q-33 -16 -146 -16h-59h-3q-174 0 -174 105q0 48 31 106.5t39 113.5t8 376t-7 371t-39.5 100.5t-32.5 107.5zM192 1522v5l1 5 q0 78 172 250q72 72 161 72h6q32 0 58.5 -20t26.5 -35v-12q0 -42 -189 -212q-99 -89 -173 -89h-21q-42 0 -42 36z" />
<glyph unicode="&#xce;" horiz-adv-x="707" d="M45 1521q0 56 190 262q48 52 115 52h16q56 0 105 -53q186 -202 186 -256v-7q0 -41 -95 -41q-52 0 -164 93q-12 10 -26.5 26t-19.5 16t-28.5 -23.5t-82 -68.5t-112.5 -45l-8 1q-76 0 -76 44zM133 1313.5q0 50.5 53 77.5q33 17 125 17h97q68 0 100 -19q56 -34 56 -81 t-31 -111.5t-35.5 -103t-4.5 -382t6.5 -380t37.5 -88t31 -102.5q0 -89 -158 -89h-116q-156 0 -156 111q0 31 29.5 92t34.5 97.5t5 394.5v327q-8 71 -41 130t-33 109.5z" />
<glyph unicode="&#xcf;" horiz-adv-x="708" d="M35 1615v30q0 69 32 101t78 32h27q46 0 73.5 -32t27.5 -79l3 -29v-20l-4 -38q0 -48 -36 -73.5t-67 -25.5h-34q-8 2 -19 2t-43.5 23t-32.5 71q-3 12 -3 14zM146 1315.5q0 51.5 52 78.5q33 17 164 17h19q104 0 138 -19q56 -31 56 -79.5t-30.5 -109.5t-37.5 -109.5t-7 -372 t7 -371.5t39.5 -100t32.5 -106v-16q0 -47 -66 -66q-34 -10 -130 -10h-58q-175 0 -175 102q0 48 29.5 107t36.5 106.5t7 371.5t-7 372.5t-38.5 100.5t-31.5 103.5zM422 1648v32q3 12 3 32.5t21 46t58 25.5l13 3l22 2h36q58 0 81.5 -28.5t23.5 -81.5v-31q0 -64 -30 -89 t-91 -25h-23l-35 4q-74 0 -74 75l-1 5l-2 8z" />
<glyph unicode="&#xd0;" horiz-adv-x="1425" d="M67 705q0 61 20 74t61.5 22t53 25t11.5 161t-9 178.5t-26 84t-17 81t23.5 43.5t106.5 13l121 4l74 3h155q485 0 627 -384q47 -125 47 -281v-6v-27q0 -520 -404 -661q-115 -40 -276 -40h-231q-180 0 -209 12.5t-29 65.5q0 16 18 72.5t24 103t6 191t-12 157.5t-61 22.5 t-52 11.5q-22 13 -22 74zM457 372q0 -144 15.5 -168t135 -24t189.5 28q153 61 203 237q28 100 28 184v93q0 373 -243 459q-70 25 -185 25h-33q-83 0 -98 -37q-10 -24 -10 -176.5t22.5 -179t158.5 -26.5q73 0 73 -85q0 -55 -19.5 -70.5t-101 -15.5t-108.5 -30.5t-27 -145.5 v-68z" />
<glyph unicode="&#xd1;" horiz-adv-x="1452" d="M120 1326l11 27q23 32 103 32t144.5 -28t137.5 -119l23 -32q44 -60 115 -168.5t228 -340.5t162 -232q12 0 12 269t-17.5 395t-17.5 137q0 117 160 117q68 0 104 -31.5t36 -117.5q0 -33 -18 -100.5t-23.5 -106t-5.5 -261.5l-2 -170l-1 -43l-2 -211q0 -260 -8 -282 q-17 -46 -77 -46q-116 0 -200 93q-38 42 -295.5 437t-288.5 395q-13 0 -13 -161.5t6 -242t17.5 -206.5t11.5 -148q0 -178 -190 -178q-73 0 -92 22.5t-19 64t22 107t24 93.5t2 310v430q0 104 -24.5 190t-24.5 106zM363 1618.5q0 62.5 59 126.5t139 64h9l9 -1q50 0 153.5 -46 t141 -46t82 35t85.5 35q49 0 49 -46v-18q0 -77 -64 -132t-124 -55h-27q-43 0 -149 47t-144.5 47t-81.5 -36.5t-87 -36.5q-50 0 -50 62.5z" />
<glyph unicode="&#xd2;" horiz-adv-x="1444" d="M81 703v24q1 330 159 519q76 90 199 137.5t259 47.5h24q151 0 271.5 -55.5t194.5 -145.5q145 -176 145 -510v-5l-1 -24q0 -496 -345 -648q-128 -56 -255 -56h-48q-150 0 -268 54.5t-190.5 143.5t-108.5 227.5t-36 290.5zM366 707q0 -116 26 -219q24 -102 64 -160 q88 -128 242 -129q13 0 26 1h15q130 0 213.5 117t83.5 344v93q0 100 -25.5 202t-65 160t-101.5 93t-136 35h-45q-146 0 -230 -142q-67 -113 -67 -332v-63zM415 1802v11q0 17 32 39t71 22h6l6 -1q87 0 142.5 -49t149.5 -184q29 -41 29 -77q0 -44 -50 -44h-23q-70 0 -180 80 q-183 133 -183 203z" />
<glyph unicode="&#xd3;" horiz-adv-x="1444" d="M81 676v47q0 167 42.5 301t115 217t190.5 134.5t245 51.5h48q144 0 264 -52q346 -151 347 -664l-1 -23q0 -162 -44 -301.5t-125 -225.5t-200 -132t-255 -46h-24q-141 0 -264 53.5t-190.5 139.5t-108 216.5t-40.5 283.5zM365 679q0 -97 25.5 -196t69.5 -160 q82 -114 243 -114t247 126t86 367v62q0 339 -176 443q-68 40 -146 40h-30q-150 0 -234.5 -125t-84.5 -366v-77zM555 1538v10q0 78 174 252q55 55 138 55l12 2h12l6 -1q28 0 58 -20t30 -38v-5q0 -72 -200 -228q-85 -66 -155 -66h-29q-46 0 -46 39z" />
<glyph unicode="&#xd4;" horiz-adv-x="1443" d="M82 672v47l1 23q0 135 38 267.5t112.5 220.5t194.5 140.5t245 52.5h48q145 0 261 -50.5t190 -132.5t117 -217.5t43 -290.5v-70q0 -127 -39.5 -264.5t-118 -227.5t-201 -140t-264.5 -50h-23q-136 0 -254 49q-228 94 -303 338q-47 152 -47 305zM363 696q0 -132 29 -229 t66 -149.5t97.5 -86.5t136.5 -34h46q70 0 126 36q176 112 176 436v77q0 329 -181 447q-64 42 -147 42h-31q-149 0 -240 -134q-78 -114 -78 -328v-77zM382 1550q0 20 60 103.5t142 153.5q52 44 117 44h18q58 0 99 -38q85 -78 141.5 -157t56.5 -99v-7q0 -37 -88 -37 q-59 0 -140 75l-51 43q-31 26 -34.5 26t-90 -73.5t-137.5 -73.5h-24q-69 0 -69 40z" />
<glyph unicode="&#xd5;" horiz-adv-x="1451" d="M86 700l1 24q0 510 352 654q123 50 244 50h48q143 0 260.5 -50t195.5 -136t118 -227t40 -305l-1 -23q0 -158 -42 -294q-80 -260 -306 -356q-132 -56 -280 -56h-24q-144 1 -260 51q-346 150 -346 668zM345 1607.5q0 66.5 60 126.5t137 60h18l9 -1q46 0 156.5 -43t136 -43 t69 33.5t88.5 33.5t45 -51v-18q0 -62 -56 -122.5t-127 -60.5h-26q-43 0 -157.5 44.5t-144 44.5t-71 -35t-89.5 -35t-48 66.5zM366 725q0 -122 26.5 -224.5t67 -162t110 -94t144.5 -34.5l15 1h15q64 0 126 35q181 102 181 407v3l2 30v78q0 349 -208 452q-62 31 -139 31h-15 q-154 0 -239.5 -124.5t-85.5 -366.5v-31z" />
<glyph unicode="&#xd6;" horiz-adv-x="1450" d="M75 677v47q0 160 41.5 294t115.5 222t198 139q126 51 266 51q305 0 476 -184q76 -82 119 -220t43 -291v-71q0 -123 -39.5 -260.5t-116.5 -226t-200 -142t-248 -53.5h-48q-133 0 -251.5 48.5t-194 132.5t-118.5 222.5t-43 291.5zM360 702q0 -248 88.5 -378t251.5 -130 l16 1h15q67 0 130 40q169 107 169 454v48q0 122 -26 224q-45 180 -164 247q-62 35 -135 35h-30q-148 0 -231.5 -122.5t-83.5 -371.5v-47zM367 1654v37l4 30q1 35 25 55q27 22 70 23l27 3h18q116 0 116 -90l3 -27v-27q0 -106 -86 -106q-14 -3 -17 -3l-23 -2h-23 q-57 0 -85.5 23.5t-28.5 83.5zM767 1660l1 5q0 69 25 99t82 30q8 2 14 2l19 1h10q110 0 110 -87q2 -10 2 -14l2 -18v-33l-4 -32q0 -34 -24 -58t-62 -24l-33 -4h-19q-71 0 -97 31t-26 102z" />
<glyph unicode="&#xd7;" horiz-adv-x="1124" d="M151 913q0 28 42 66t79 38q24 0 154 -130t137 -130t134 131.5t156 131.5h16q16 0 57.5 -38.5t41.5 -67.5t-131.5 -160.5t-131.5 -147.5q0 -5 133 -143t133 -163t-41.5 -63.5t-72 -38.5t-161.5 131t-136 131t-137 -132t-170 -132q-15 0 -58 38.5t-43 66t132 164t132 146 t-132.5 142t-132.5 160.5z" />
<glyph unicode="&#xd8;" horiz-adv-x="1454" d="M98 660v54q0 162 50 300q98 271 339 360q106 39 276 39q60 0 124.5 -11t93 -11t76.5 24t78 24q93 0 93 -81q0 -13 -12 -56.5t-12 -70.5t36.5 -122t39.5 -106q39 -122 39 -275v-54q0 -138 -45 -278q-90 -282 -348 -379q-103 -39 -249 -39l-213 17q-51 0 -64.5 -5 t-49.5 -23.5t-51 -18.5h-19q-91 0 -91 66q0 16 12 65.5t12 84t-28.5 102t-45.5 120.5q-41 126 -41 274zM372 689q0 -187 51 -295q8 -18 21 -18q36 0 173 236q265 458 265 517v9q0 23 -29 45q-60 45 -129 45h-47q-141 0 -223 -134.5t-82 -355.5v-49zM531 209q0 -57 93 -57 q286 0 378 420q32 145 32 268v54q0 134 -22 134q-10 0 -45.5 -71t-235.5 -404.5t-200 -334.5v-8v-1z" />
<glyph unicode="&#xd9;" horiz-adv-x="1409" d="M98 1211q0 183 135 183h34q107 0 148.5 -30t41.5 -99q-1 -26 -7 -70q-28 -183 -28 -480v-11q0 -305 45.5 -392t120.5 -116q52 -20 134 -20q178 0 243 162q36 88 36 388t-16 412.5t-16 134.5q0 73 33 96.5t124.5 23.5t113.5 -24q47 -52 47 -119t-20.5 -139t-23.5 -95 t-3 -292.5t-17 -371.5q-17 -100 -79 -190q-130 -187 -444 -188q-314 0 -454 179q-66 86 -83 197.5t-17 361.5t-2.5 291.5t-24 110t-21.5 97.5zM417 1795v5q0 16 31 36.5t71 20.5h6q18 -3 30 -3q66 0 130 -57t145 -173q25 -36 25 -59v-16q0 -37 -59 -37l-6 1h-6 q-68 0 -177 76q-190 133 -190 206z" />
<glyph unicode="&#xda;" horiz-adv-x="1410" d="M98 1216q0 109 51 157q26 25 125.5 25t142.5 -31t43 -98q0 -19 -7 -67q-28 -190 -28 -496.5t48 -399.5q66 -128 240 -128t240 133q48 97 48 409t-16 424t-16 159t33 70.5t124.5 23.5t113.5 -24q48 -52 48 -120.5t-20.5 -135t-24.5 -95t-4 -295t-15.5 -369.5t-77.5 -192 q-131 -189 -447 -189t-453 180q-58 77 -78.5 180.5t-20.5 367t-2.5 303.5t-24.5 109t-22 99zM557 1554v16q0 56 170 226q65 65 157 65h18q36 0 65.5 -19.5t29.5 -34.5v-11q0 -64 -197 -202q-107 -75 -172 -75h-24q-47 0 -47 35z" />
<glyph unicode="&#xdb;" horiz-adv-x="1409" d="M98 1209q0 184 135 184h34q107 0 148.5 -30t41.5 -99q0 -26 -5 -59q-29 -199 -29 -504.5t45 -391t109.5 -110.5t144.5 -25q179 0 243 163q36 92 36 389.5t-16 410.5t-16 134q0 74 33 97.5t124.5 23.5t113.5 -24q47 -52 47 -119t-20.5 -139t-23.5 -95t-3 -292.5t-17 -371 t-78 -189.5q-131 -188 -445 -188q-1 0 -1 -1q-313 0 -453 179q-66 86 -83 197.5t-17 361t-2.5 289.5t-24 109t-21.5 100zM383 1550q0 18 29 59q86 121 174 195q51 43 117 43h8q68 0 109 -38q205 -188 205 -253v-7q0 -34 -73 -34t-136 58q-104 96 -110 96l-109 -92 q-76 -64 -135 -64l-8 1h-9q-62 0 -62 36z" />
<glyph unicode="&#xdc;" horiz-adv-x="1413" d="M91 1215v32q0 77 49 126q25 25 87 25h34q108 0 149.5 -30t41.5 -98q0 -26 -5 -59q-29 -189 -29 -499.5t44.5 -396.5t109 -112t147 -26t147 40.5t99 126t34.5 388.5t-16 414t-16 158.5t34 70t125 22.5t113 -24q48 -52 48 -117t-21 -139t-24.5 -101t-3.5 -293t-15.5 -366.5 t-77.5 -190.5q-132 -191 -457 -191h-3q-327 0 -464 208q-51 77 -66.5 179.5t-15.5 353.5t-2.5 290t-24 108t-21.5 101zM359 1661v4l1 5l3 35q0 85 114 85h32q110 0 110 -86q2 -8 2 -13l2 -22v-18q0 -112 -91 -112q-8 -2 -13 -2l-23 -2h-23l-4 1h-9q-10 2 -28.5 2t-43 20.5 t-24.5 57.5l-3 18zM775 1660v5l1 4v14q3 20 3 21q0 39 25 60t57 21l13 3l22 2h33l31 -4q31 0 53.5 -22.5t22.5 -62.5l3 -27v-27q-5 -25 -5 -35q0 -72 -80 -72l-18 -3l-22 -2h-24l-18 2l-21 3q-76 0 -76 120z" />
<glyph unicode="&#xdd;" horiz-adv-x="1283" d="M38 1341q0 30 32 43.5t131 13.5q153 0 216 -75q24 -28 45 -112t46 -136q133 -282 152 -282q37 0 163 267q33 70 50.5 157.5t40.5 115.5q51 62 212 62q103 0 103 -51.5t-84 -155.5q-37 -46 -162.5 -275t-147.5 -280q-46 -109 -46 -247q0 -57 20 -140.5t20 -123.5 q0 -79 -60 -111q-24 -13 -103 -13h-55q-164 0 -164 104q0 48 28 134t28 184.5t-49 200.5q-7 15 -147.5 262t-170.5 284q-98 121 -98 174zM500 1560v16q0 75 184 239q61 54 150 54h13q38 0 65.5 -21.5t27.5 -36.5v-5l-1 -5q0 -65 -197 -203q-107 -75 -174 -75h-23 q-45 0 -45 37z" />
<glyph unicode="&#xde;" horiz-adv-x="1260" d="M135 1329q0 46 30.5 60t91.5 14h46q94 0 134.5 -31.5t60.5 -95.5t37 -74q51 -28 207 -45t265 -98q71 -53 107.5 -138.5t36.5 -167.5v-51q0 -90 -39 -172t-117 -146t-234.5 -87t-222.5 -54q-29 -14 -29 -97q0 -167 -190 -167h-23q-93 0 -124 20.5t-31 68t22.5 127.5 t22.5 171l1 24v651q0 88 -26 180t-26 108zM457 570q0 -70 14 -84q29 -29 86 -29h57q120 0 183 69.5t63 188.5v19q0 120 -62.5 188.5t-175.5 68.5h-65q-67 0 -89 -34q-11 -17 -11 -96v-291z" />
<glyph unicode="&#xdf;" horiz-adv-x="1272" d="M121 887q0 15 60 238q25 97 91 171q133 152 346 152t323.5 -91.5t110.5 -234.5q0 -71 -68 -180t-68 -142q0 -63 68 -130q125 -123 159.5 -185t34.5 -138q0 -155 -96 -249q-54 -53 -127.5 -79.5t-121.5 -26.5h-40q-81 0 -145.5 29t-64.5 74.5t29.5 69t76.5 23.5l31 -1 q43 -2 67 -2q67 0 105 52q37 50 37 110q0 105 -165.5 202.5t-165.5 209.5q0 78 91 183.5t91 177.5q0 43 -32.5 77.5t-97.5 34.5t-110.5 -51t-68.5 -132q-43 -154 -43 -646l2 -203q0 -104 -50 -156t-117 -52h-33q-53 0 -77 28.5t-24 53.5t18 109.5t18 240.5t-22 302t-22 161z " />
<glyph unicode="&#xe0;" horiz-adv-x="1105" d="M74 289q0 248 332 306q17 3 106.5 12.5t117.5 21.5q42 17 42 76.5t-37 95.5t-96 36t-164 -43t-146.5 -43t-65.5 30.5t-24 71.5q0 70 111 117.5t272 47.5h25q99 0 186 -34q163 -64 194 -247q11 -65 11 -243.5t7 -214.5t31 -84t24 -97.5t-34.5 -69.5t-103.5 -20t-119 26.5 t-93 26.5q-7 0 -100.5 -35.5t-172.5 -35.5q-147 0 -225 83t-78 216zM270 1425v15q0 11 28 32t70 21h24q79 0 135 -56q9 -9 135 -189q31 -44 31 -77v-11q0 -36 -68 -36l-6 1h-5q-52 0 -126 66q-218 194 -218 234zM332 313q0 -56 39.5 -90.5t89.5 -34.5h36q85 0 146 53 q41 36 41 112v81q0 65 -68 65h-18l-6 -1h-12l-12 -1h-12q-45 -5 -47 -5q-68 0 -122.5 -41t-54.5 -120v-18z" />
<glyph unicode="&#xe1;" horiz-adv-x="1104" d="M67 267v24q0 251 338 307q32 5 109 13t97 15q59 20 59 59q0 68 -32 112t-94 44t-168 -43.5t-151 -43.5t-70.5 28.5t-25.5 74.5q0 66 88 107q129 60 275 60q276 0 376 -136q37 -50 53 -124t16 -252t5.5 -220t32 -94.5t26.5 -87.5v-20v-1q0 -83 -143 -83q-70 0 -123 28.5 t-89 28.5q-2 0 -100 -36.5t-175 -36.5h-24q-124 0 -202 83t-78 194zM330 305q0 -48 34 -82t87 -34h34q73 0 130.5 44.5t57.5 89.5l4 27v11l1 5v11l1 11v28l1 17q0 60 -44 60h-40l-5 -1l-29 -2l-29 -3q-91 0 -147 -49t-56 -109v-24zM391 1168v16q0 76 151 246q58 65 144 65 h18q37 0 84 -28q20 -12 20 -29v-11q0 -40 -128 -168t-205 -128h-22q-62 0 -62 37z" />
<glyph unicode="&#xe2;" horiz-adv-x="1105" d="M71 264v24q0 287 432 321q88 7 112 15q60 19 60 81t-37.5 98.5t-96 36.5t-163.5 -43t-149 -43t-69 29t-25 73q0 65 87 108q120 60 273 60q388 0 434 -277q13 -79 13 -259t6.5 -213.5t31 -82.5t24.5 -85v-21q0 -83 -140 -83q-71 0 -120 27.5t-93 27.5q-2 0 -99 -36 t-176 -36h-24q-112 0 -196.5 77t-84.5 201zM227 1187q0 54 189 259q50 54 122 54l9 -1h9q59 0 100 -44q197 -213 197 -273q0 -44 -74 -44h-17q-66 0 -165 117q-47 56 -52.5 56t-64.5 -59t-95.5 -81t-97 -22t-60.5 38zM331 297q0 -56 38 -88.5t93 -32.5h23q72 0 133.5 41 t61.5 95q2 10 2 16l3 32v17l1 11v28q0 60 -65 60h-29l-6 -1h-11l-63 -5q-12 -2 -17 -2q-68 0 -128 -60q-36 -36 -36 -105v-6z" />
<glyph unicode="&#xe3;" horiz-adv-x="1104" d="M70 288q0 236 314 302q32 7 118.5 16t111.5 17q59 19 59 79.5t-38 97.5t-94.5 37t-161.5 -43t-151.5 -43t-70.5 29t-24 74q0 68 87 107q130 59 273 59h51q115 0 199 -38t127.5 -96.5t56.5 -135.5t13 -258t8 -217.5t32.5 -85.5t24.5 -82v-20q-1 -84 -145 -84 q-70 0 -122 28.5t-89 28.5q-2 0 -99 -37t-175 -37q-132 0 -218.5 76t-86.5 226zM180 1228v18q0 66 61 122.5t140 56.5l9 -1q62 0 161 -44t133.5 -44t78 31t75.5 31q54 0 54 -69t-57 -126t-121 -57h-26q-49 0 -158 48.5t-140.5 48.5t-74.5 -33t-79 -33q-56 0 -56 51zM328 322 q0 -54 32 -91.5t94 -37.5l12 -2h46q61 0 116 42.5t55 92.5l1 5l1 6l1 21v55q0 73 -64 73h-17l-6 -1h-24l-17 -1h-17l-17 -1l-23 -2q-78 0 -137 -59q-36 -36 -36 -95v-5z" />
<glyph unicode="&#xe4;" horiz-adv-x="1104" d="M73 270v24q0 148 123 231q98 65 311 87q86 9 110 17q58 19 58 80t-37.5 97.5t-115.5 36.5q-36 0 -141 -43t-150.5 -43t-70.5 29t-25 74q0 66 88 107q127 59 272 59h51q248 0 346 -164q50 -84 51 -406q0 -144 7.5 -178t32 -83t24.5 -82v-20v-1q0 -83 -143 -83 q-68 0 -121 28t-108 28q-5 1 -47 -19q-176 -54 -225 -54h-5q-113 0 -199 75.5t-86 202.5zM216 1283v45q3 20 3 22q0 86 120 86h18q112 0 112 -87q2 -10 2 -13l2 -23v-14q0 -117 -89 -117q-10 -2 -13 -2l-22 -2h-23l-4 1h-9q-8 2 -13 2q-81 0 -81 84zM331 316 q0 -56 33.5 -89.5t86.5 -33.5h34l33 4q49 0 114 57q38 33 38 77l1 6l1 5l3 55v50q0 51 -59 51h-5l-6 -1l-68 -5q-24 -4 -35 -4q-73 0 -135 -62q-36 -36 -36 -98v-12zM607 1285v35q0 42 26.5 68.5t104.5 26.5h14q15 -3 42 -3t51.5 -24.5t24.5 -64.5q2 -8 2 -13l2 -23v-9 l-1 -5l-3 -35q0 -83 -108 -83h-18q-69 0 -103 28.5t-34 101.5z" />
<glyph unicode="&#xe5;" horiz-adv-x="1108" d="M71 276v24q0 147 124 231q79 53 215 76q20 3 106.5 12.5t122.5 26t36 75.5t-39 94t-115 35q-35 0 -142 -44t-151.5 -44t-69.5 29t-25 76q0 64 89 107q121 59 273 59h51h6q99 0 184 -33q165 -63 196 -249q12 -71 12 -251.5t7 -213.5t32.5 -83.5t25.5 -82.5v-21v-1 q0 -82 -147 -82q-72 0 -121.5 28.5t-104.5 28.5q-5 0 -48.5 -20t-92 -37t-118.5 -17q-132 0 -219 74.5t-87 202.5zM309 1353v15l1 7q0 79 64.5 137t152.5 58h31q86 0 148.5 -62.5t62.5 -149.5v-15q0 -77 -54.5 -143.5t-151.5 -66.5h-30q-79 0 -151.5 59t-72.5 161zM334 310 q0 -56 36.5 -87.5t91.5 -31.5h23q69 0 131 41.5t62 95.5l1 5l1 6l3 54v49q0 47 -51 47h-27l-6 -1l-51 -4q-18 -3 -29 -3q-87 0 -136 -49t-49 -105v-17zM438 1345l4 -19q0 -15 24 -39t49 -24l13 -2h21l3 1h6l13 3q10 0 35 20t25 45q2 6 2 9l2 17v13l-1 4l-2 25q0 11 -24 35 t-44 24l-16 3h-27q-9 -3 -21 -3t-37 -25t-25 -57v-30z" />
<glyph unicode="&#xe6;" horiz-adv-x="1636" d="M69 257v35q0 140 123 222q74 50 156 66.5t153.5 25t100.5 19.5q48 18 48 56q0 74 -40.5 113.5t-110 39.5t-154 -41.5t-122 -41.5t-66 23t-28.5 70q0 69 87 114q116 60 301 60q88 0 186 -38.5t110 -38.5t110 41t175 41h36h2q276 0 364 -243q30 -84 31 -168v-34 q0 -76 -48.5 -97t-263.5 -30.5t-234 -14.5q-57 -16 -57 -84t67 -123t187 -55q46 0 136.5 25.5t111.5 25.5q62 0 62 -70t-80 -113q-118 -64 -263 -64h-35q-145 0 -288 86q-60 36 -77 36t-70 -34t-117 -60t-191 -26t-214.5 75t-87.5 202zM337 293q0 -54 37.5 -86t92.5 -32h17 q90 0 140.5 44t50.5 109v78q0 71 -63 71h-33l-6 -1h-11l-38 -4q-6 -1 -11 -1q-71 0 -122.5 -45.5t-51.5 -91.5l-2 -11v-30zM905 621q0 -43 81 -43h44l6 1l158 7q15 3 25 3q51 0 51 49v16q0 79 -44.5 130t-96.5 51l-12 2h-40q-16 -3 -22 -3q-51 0 -98.5 -55.5t-47.5 -124.5 q-4 -20 -4 -28v-5z" />
<glyph unicode="&#xe7;" horiz-adv-x="1069" d="M76 512v50q0 90 40 190q38 100 100 158q140 131 364 131h3h25q174 0 274 -58q54 -31 72 -64.5t18 -85.5t-24 -75t-85 -23t-164 51.5t-132 51.5q-98 0 -144.5 -80t-46.5 -253q0 -324 241 -324q21 0 112.5 30.5t184.5 30.5q60 0 60 -50v-21q0 -100 -127 -165 q-99 -50 -252 -51q40 -21 124 -105q41 -41 41 -105v-8l-1 -8q0 -80 -59.5 -134.5t-152.5 -54.5h-43q-112 0 -112 71v7q0 35 61 35q123 0 123 76q0 38 -46 67t-46 75t27 76q5 6 16 9q-79 4 -167 40q-98 40 -159.5 108.5t-93 177.5t-31.5 230z" />
<glyph unicode="&#xe8;" horiz-adv-x="1090" d="M78 458v72q0 111 36 210q65 181 242 251q87 34 204 34h24q94 0 174 -31q154 -59 209 -214q29 -81 29 -151v-22q0 -109 -55 -131t-262 -22t-246 -7q-76 -14 -76 -57q0 -96 81 -161q59 -47 201 -47q54 0 134.5 23t129.5 23q55 0 55 -69t-97 -115q-124 -59 -262 -59h-48 q-89 0 -185 32q-185 62 -251 241q-37 101 -37 200zM285 1433v15q0 12 30 32t75 20l6 -1h6q89 0 141 -59q161 -181 161 -254v-10q0 -35 -61 -35h-17q-63 0 -147 76q-194 175 -194 216zM348 645q0 -43 110 -43h6l6 1l90 1q186 0 186 44v30q0 76 -48.5 131.5t-126.5 55.5h-31 q-78 0 -135 -57t-57 -151v-12z" />
<glyph unicode="&#xe9;" horiz-adv-x="1090" d="M81 485v24q0 370 276 479q87 34 201 34h24q92 0 167 -28q149 -55 205 -191q37 -89 37 -170v-22q0 -105 -56.5 -128.5t-264.5 -23.5t-257 -14t-49 -53q0 -95 81 -157q59 -45 197 -45q54 0 132.5 23t109.5 23q69 0 69 -70t-117.5 -120t-242.5 -50q-377 0 -475 269 q-37 101 -37 220zM344 636q0 -43 61 -43l30 -3h37l6 1l68 3q27 5 39 5h46q59 0 84 12.5t25 52.5v34q0 77 -53 123.5t-119 46.5h-26q-92 0 -144 -67t-52 -135l-2 -12v-18zM412 1180l1 5v5q0 69 163 252q52 58 142 58h12q101 0 101 -53v-6q0 -49 -188 -218q-90 -81 -152 -81 h-23q-56 0 -56 38z" />
<glyph unicode="&#xea;" horiz-adv-x="1088" d="M74 478v48q0 112 33 206q62 177 227 251q96 43 201 43h49q90 0 172 -30q158 -58 215 -216q29 -81 29 -153v-22q0 -110 -55.5 -133t-276 -23t-256.5 -10q-59 -16 -59 -54q0 -100 83 -162q63 -47 204 -47q49 0 137 23t130 23q56 0 56 -90q0 -53 -116 -104t-246 -51h-48 q-111 1 -209 41q-96 40 -152 102q-118 130 -118 358zM243 1187q0 56 189 261q50 54 121 54h9q66 0 108 -42q196 -196 196 -268v-7q0 -37 -81 -37l-8 1q-52 0 -117 65l-104 104q-8 0 -47.5 -42.5t-55.5 -57.5q-76 -70 -132 -70h-8q-70 0 -70 39zM351 636q0 -34 65 -34h173 l6 1l96 3q5 1 11 1q47 0 47 43v12q-2 12 -2 18q0 79 -55 127t-123 48h-25q-78 0 -134.5 -56.5t-56.5 -134.5l-2 -11v-17z" />
<glyph unicode="&#xeb;" horiz-adv-x="1088" d="M75 455v73q0 340 259 457q96 43 201 43h50q192 0 307 -115q50 -50 79 -131t29 -153v-22q0 -111 -56.5 -133.5t-276 -22.5t-255.5 -10q-58 -16 -58 -54q0 -98 83 -162q62 -48 155.5 -48t183.5 23.5t132 23.5q55 0 55 -90q0 -54 -116.5 -105t-242.5 -51q-371 0 -483 255 q-46 105 -46 222zM224 1285v27q0 112 89 112q8 2 13 2l21 2h18l18 -2l21 -3q77 0 77 -113v-23q0 -112 -89 -112q-8 -2 -12 -2l-22 -2h-18l-18 2l-21 3q-77 0 -77 109zM349 646q0 -35 71 -35h143q182 0 182 43v17q0 81 -49.5 137.5t-141.5 56.5l-6 -1q-84 0 -141.5 -57.5 t-57.5 -150.5v-10zM622 1279v22l4 34q0 82 115 82h28q111 0 111 -78l3 -17l2 -22v-22q0 -106 -83 -106l-5 -1l-8 -2l-23 -2h-32q-25 5 -43.5 5t-43.5 21t-25 86z" />
<glyph unicode="&#xec;" horiz-adv-x="632" d="M60 1411v22q0 45 73 45h15q82 0 137 -71q156 -201 156 -294v-6q0 -30 -55 -30h-5q-59 0 -142 93q-179 201 -179 241zM112 946v12q0 42 29.5 56t120.5 14l28 2l56 1q72 0 86.5 -40.5t14.5 -270.5t7 -288.5t34 -144t27 -115.5v-12q0 -53 -55 -82q-27 -14 -130 -14h-43 q-88 0 -122 21t-34 71.5t18 97.5t26 84t8 222v39q0 151 -7 183q-8 36 -36 86t-28 78z" />
<glyph unicode="&#xed;" horiz-adv-x="632" d="M122 924v13q0 50 42.5 63.5t173.5 13.5h28q71 0 79 -53q7 -44 7 -299.5t4.5 -294t30 -122.5t25.5 -107v-11q0 -55 -51 -87q-27 -17 -116 -17h-98q-118 0 -118 101q0 39 22.5 94t31.5 98t9 231.5t-6 218.5t-35 80t-29 78zM169 1142v15q0 85 167 273q57 64 141 64h6 q92 0 92 -54v-5q0 -45 -167 -212q-109 -109 -168 -109h-16q-55 0 -55 28z" />
<glyph unicode="&#xee;" horiz-adv-x="649" d="M26 1142v8q0 59 188 281q39 46 106 46h8q61 0 98 -44q185 -219 185 -283q0 -47 -97 -47q-62 0 -172 122q-24 26 -26.5 26t-26 -28t-75 -75t-100.5 -47l-8 1h-8q-72 0 -72 40zM124 935v13q0 44 29 58t108 14q56 4 71 4h42q49 0 66.5 -28t17.5 -96l2 -28v-29l2 -71v-28 l1 -28v-29l1 -42q0 -164 5 -225.5t29 -154t24 -99.5v-22q0 -53 -54 -81q-23 -12 -118 -12h-15l-14 1l-56 -1h-14q-116 0 -116 96q0 40 19.5 88.5t26.5 90.5t7 240t-4 217.5t-32 73t-28 78.5z" />
<glyph unicode="&#xef;" horiz-adv-x="645" d="M6 1254v34q3 15 3 23q0 51 35.5 76.5t78.5 25.5h12q111 0 111 -130v-25l-4 -38q0 -38 -29 -67t-77 -29h-23q-37 0 -69.5 23t-32.5 69l-3 14zM136 931v12q0 44 30 58t117 14l28 2l42 1h27q48 0 64.5 -27t16.5 -82l2 -27l1 -28v-28l1 -43v-28l-1 -28v-71q0 -229 5.5 -274 t31 -125.5t25.5 -109.5l-1 -12v-12q0 -55 -61 -78q-29 -11 -120 -11h-56q-82 0 -111.5 24t-29.5 73t19 93.5t29 91.5q10 48 10 164v201l-2 56q0 52 -33.5 107t-33.5 87zM383 1282v23l4 35q0 38 25 59t58 21q12 3 17 3l26 2h9q66 0 92.5 -26.5t26.5 -89.5v-23l-4 -35 q0 -38 -27.5 -61t-81.5 -23h-40q-12 3 -21 3q-84 0 -84 112z" />
<glyph unicode="&#xf0;" horiz-adv-x="1194" d="M98 479q0 113 40 209q87 209 291 259q61 15 205 15q70 0 70 26q0 56 -65 93q-38 22 -116 22l-21 -1l-41 -4q-70 0 -70 59q0 20 20.5 54t20.5 48t-46.5 59t-46.5 91q0 56 97 56q40 0 131.5 -28t138.5 -28l133 16q59 0 59 -87q0 -1 -9 -49.5t-7 -59t61.5 -132t84.5 -199.5 q52 -162 52 -336v-29q0 -265 -136 -412q-65 -70 -156.5 -108.5t-188.5 -38.5h-30q-109 0 -200 38q-180 75 -243 267q-28 86 -28 200zM361 463q0 -130 59 -222t152 -92h27q89 0 144 92t55 235v50q0 121 -44 189q-58 90 -165 90h-19q-79 0 -143 -75.5t-64 -195.5l-2 -20v-51z " />
<glyph unicode="&#xf1;" horiz-adv-x="1218" d="M106 88v27q0 19 19 77t22.5 95.5t3.5 218t-4.5 230.5t-21.5 108.5t-17 90t32 45.5t106 14t123.5 -26t74.5 -26t114 36.5t151 36.5h58q66 0 135.5 -36.5t116 -122t46.5 -417.5q0 -136 5.5 -167.5t24.5 -80.5t19 -97t-23.5 -70.5t-123 -22.5t-141 32t-41.5 100 q0 2 9.5 104.5t9.5 269t-30 232.5q-42 91 -148.5 91t-165.5 -76q-44 -57 -44 -233l2 -57q1 -29 1 -76t10.5 -123.5t10.5 -92.5q0 -94 -32 -125q-48 -46 -189 -46q-72 0 -92.5 22t-20.5 65zM245 1259.5q0 67.5 63.5 126t127.5 58.5h26q46 0 148.5 -45.5t141 -45.5t82.5 34 t77 34q52 0 52 -65.5t-60 -125.5t-130 -60h-18q-49 0 -153.5 46.5t-142 46.5t-82.5 -35.5t-80 -35.5q-52 0 -52 67.5z" />
<glyph unicode="&#xf2;" horiz-adv-x="1154" d="M78 470v53q0 228 123 364q63 69 157 104.5t195 35.5h17l18 -1q213 0 343 -130q62 -62 96 -158t34 -201v-53v-3q0 -340 -269 -459q-90 -40 -192 -41h-71h-5q-106 0 -190 41q-169 82 -224 252q-32 99 -32 196zM292 1431v17q0 11 27.5 32.5t73.5 21.5h30q12 -2 18 -2 q61 0 107 -52q161 -181 161 -270v-5q0 -40 -69 -40h-6q-76 0 -160 84q-182 182 -182 214zM336 515q0 -170 60 -259.5t165 -89.5h30q103 0 153 83t50 209v76q0 141 -50 224q-62 103 -174 103h-31q-99 0 -157 -91q-46 -72 -46 -211v-44z" />
<glyph unicode="&#xf3;" horiz-adv-x="1154" d="M75 470v72q0 100 34 193t88.5 152.5t146 100.5t191.5 41h53q226 0 356 -142q55 -60 87.5 -152t32.5 -197v-54q0 -112 -32 -204q-66 -185 -223 -253q-111 -48 -209 -48h-71q-101 1 -187 39q-170 76 -229 240q-38 107 -38 212zM338 498l1 -10l2 -51q0 -119 75 -200 q54 -58 149 -58l10 1q101 0 158.5 81t57.5 243v43l-1 11l-2 50q0 113 -61.5 185.5t-161.5 72.5l-10 -1q-101 0 -159 -81.5t-58 -241.5v-44zM424 1160v5l1 6q0 83 161 264q53 60 137 60h19q38 0 67 -19t29 -31v-11q0 -43 -184 -227q-83 -83 -152 -83h-11l-6 1q-61 0 -61 35z " />
<glyph unicode="&#xf4;" horiz-adv-x="1157" d="M75 468v54q0 229 125 365q59 65 152.5 103.5t201.5 38.5h18l18 -1q232 0 367 -154q59 -67 84.5 -166t25.5 -191v-18l-1 -18q0 -113 -34 -209q-69 -195 -251 -262q-98 -36 -197 -36h-36q-117 0 -207 40q-168 75 -228 241q-38 104 -38 213zM255 1173v7q0 37 185 256 q48 57 120 57h18q70 0 112 -50q184 -217 184 -261t-92 -44q-54 0 -113 64q-92 100 -101 100t-40.5 -33.5t-66.5 -66.5q-70 -65 -123 -65h-9q-74 0 -74 36zM336 510q0 -157 55.5 -249.5t168.5 -92.5h20q99 0 158 75.5t59 223.5v74q0 152 -64.5 234t-168.5 82l-10 -1 q-96 0 -157 -77.5t-61 -225.5v-43z" />
<glyph unicode="&#xf5;" horiz-adv-x="1158" d="M77 470v54q1 345 269 465q92 41 193 41h54q113 0 204 -38q176 -73 235 -241q38 -107 38 -214v-54q0 -228 -126 -365q-65 -71 -163 -106t-195 -35h-36h-5q-93 0 -183 33q-180 66 -247 247q-38 104 -38 213zM214 1229v9q0 74 61.5 131t134.5 57h9q48 0 161 -44t141 -44 t68 34t72 34q57 0 57 -56v-9q0 -71 -58 -129t-127 -58h-17q-59 0 -155 45t-134 45t-79.5 -35t-75.5 -35q-58 0 -58 55zM336 519q0 -154 53 -236q66 -102 184 -102h10l10 1q102 0 155.5 83t53.5 230v43q0 158 -65 243t-171 85h-10q-220 0 -220 -325v-22z" />
<glyph unicode="&#xf6;" horiz-adv-x="1154" d="M75 469v54q0 354 281 469q87 36 179 36h53q215 0 345 -130q62 -62 96.5 -159t34.5 -202v-72q0 -95 -34 -190q-66 -185 -235 -255q-102 -42 -194 -42h-72q-97 0 -187 39q-168 73 -229 240q-38 104 -38 212zM243 1294v14l4 35q0 30 21.5 56t67.5 26l26 3h32q20 -5 33 -5 q68 0 68 -77q3 -14 3 -22l1 -27l-3 -40q0 -79 -77 -79q-16 -4 -21 -4l-27 -2h-9l-4 1h-13q-20 3 -21 3q-77 0 -77 83q-2 8 -2 13zM336 520q0 -342 228 -342l10 1q92 0 148 71t56 190l2 21l1 42v32q0 155 -56.5 243t-160.5 88h-20l-10 -1q-94 0 -146 -81t-52 -242v-22z M634 1265v33l4 32q0 37 27.5 60t66.5 23l26 3h27q99 0 99 -86q2 -8 2 -14l2 -18v-38q-3 -15 -3 -23q0 -43 -28 -66.5t-75 -23.5h-40q-15 3 -33.5 3t-45 22t-26.5 70z" />
<glyph unicode="&#xf7;" horiz-adv-x="1150" d="M90 571v33q0 54 10.5 70.5t53.5 16.5h833q42 0 42 -51v-65q0 -41 -14 -53t-72 -12h-121l-11 1h-290l-45 -1h-343q-43 0 -43 61zM423 966v10l1 5v9l2 18q0 99 129 99h14q74 0 99.5 -30.5t25.5 -86.5v-38q0 -112 -94 -112q-10 -2 -14 -2l-19 -2h-28l-32 4q-84 0 -84 126z M424 209v37q0 60 28.5 88.5t97.5 28.5h24l19 -2l22 -3q29 0 53 -24t24 -73q2 -8 2 -14l1 -19v-4l-1 -5q0 -122 -94 -122q-8 -2 -13 -2l-19 -2h-29l-4 1h-10q-8 2 -13 2q-40 0 -64 29t-24 84z" />
<glyph unicode="&#xf8;" horiz-adv-x="1180" d="M107 451v4v41q1 256 163 400q82 72 171.5 94t266.5 22q48 0 123 25t82 25q74 0 74 -60q0 -14 -10 -48.5t-10 -56t40.5 -139.5t40.5 -227v-20l-1 -21q0 -121 -43.5 -229t-125.5 -175.5t-168.5 -88.5t-196.5 -21t-157 -15q-109 -35 -114 -35q-75 0 -75 59q0 17 11.5 55 t11.5 66t-22 78q-61 140 -61 267zM349 503q0 -187 40 -187q20 0 103 124q189 284 189 341l-1 6v6q0 53 -99 53h-29q-75 0 -136.5 -68t-61.5 -176q-3 -24 -3 -31l-2 -38v-30zM478 171q0 -32 58 -32h6q99 0 160 105q86 147 86 303q2 14 2 20l2 33v19l-2 25l-2 28q0 8 -5.5 8 t-28 -49.5t-95.5 -174.5t-127 -192t-54 -88v-5z" />
<glyph unicode="&#xf9;" horiz-adv-x="1201" d="M86 915v25q0 44 29 57.5t131 13.5t129 -65q21 -51 21 -329.5t29 -342.5q39 -85 144.5 -85t155 68.5t49.5 226t-14 256t-14 156t49.5 87.5t138.5 30t103 -66q4 -19 4 -203v-295l1 -82q0 -49 19.5 -138.5t19.5 -100.5q0 -68 -44 -88.5t-112.5 -20.5t-113 28t-63.5 28 t-106.5 -37.5t-168.5 -37.5h-28q-183 0 -267 161q-44 85 -45 402q0 160 -3.5 191.5t-23.5 84.5t-20 76zM313 1436v5q0 21 17 32q41 27 66 27h23l6 -1q84 0 138 -61q174 -196 174 -255v-15q0 -27 -65 -27l-6 1q-80 0 -257 157q-96 85 -96 137z" />
<glyph unicode="&#xfa;" horiz-adv-x="1203" d="M82 909v25q0 44 30.5 58t132.5 14t131 -64q21 -47 21 -319.5t18 -332.5q35 -115 150.5 -115t163 69.5t47.5 293.5q0 103 -15.5 211.5t-15.5 152.5t49.5 75.5t138.5 31.5h27q66 0 81 -64q4 -17 4 -292t2 -314.5t21.5 -128.5t19.5 -90q0 -69 -45 -90t-113 -21t-117.5 28 t-65 28t-104 -38t-169.5 -38h-28q-190 1 -272 163q-42 84 -42 404q0 161 -4 194.5t-25 85.5t-21 73zM438 1180v15q0 69 160 249q57 64 147 64h12q43 0 72 -19.5t29 -29.5v-16q0 -46 -193 -218q-89 -79 -148 -79h-18q-61 0 -61 34z" />
<glyph unicode="&#xfb;" horiz-adv-x="1202" d="M83 909v25q0 45 29.5 58.5t104.5 13.5q132 0 159 -66q21 -52 21 -335.5t28 -346.5q38 -86 153.5 -86t169.5 104q28 54 28 207.5t-15 261t-15 154.5t49.5 78.5t140.5 31.5t105 -67q3 -15 3 -282t3 -318t21 -136.5t18 -89.5q0 -70 -43 -90.5t-113 -20.5t-116 28t-63 28 q-17 -1 -109 -39t-178 -38q-190 0 -271 130q-43 67 -52.5 157.5t-9.5 272t-3 207t-24 80.5t-21 78zM274 1182v7q0 13 31 59q92 139 173 213q43 40 110 40h9q61 0 106 -45q196 -196 196 -267q0 -40 -86 -40q-58 0 -124 66l-104 104q-4 0 -32 -30.5t-83.5 -86t-112.5 -55.5h-9 q-74 0 -74 35z" />
<glyph unicode="&#xfc;" horiz-adv-x="1201" d="M80 935.5q0 47.5 29.5 61t132.5 13.5t132 -66q20 -46 20 -330.5t29 -351.5q37 -86 145.5 -86t157 70.5t48.5 240.5t-15.5 263.5t-15.5 122.5q0 77 49.5 108.5t139.5 31.5h26q66 0 80 -66q3 -14 3 -281.5t3 -319t21 -135.5t18 -91q0 -72 -44.5 -91.5t-113.5 -19.5 t-113.5 28t-60.5 28t-109 -38t-172 -38h-29q-183 0 -269 163q-43 81 -43 393v14q0 161 -4 194.5t-24.5 84t-20.5 98zM247 1284v36q6 30 6 49t27 41.5t91 22.5h18l34 -4q81 0 81 -106v-36l-4 -31q0 -32 -24.5 -56.5t-82.5 -24.5h-40l-30 4q-33 0 -54.5 26t-21.5 79zM656 1283 v37l1 4v9q2 8 2 13q0 87 120 87h18q113 0 113 -91l3 -27v-27l-4 -31q0 -37 -25.5 -58t-63.5 -21l-17 -3h-45q-19 3 -21 3q-81 0 -81 105z" />
<glyph unicode="&#xfd;" horiz-adv-x="1111" d="M58 930q0 33 30 48q55 27 127 27q128 0 167 -82q18 -38 29 -146.5t69.5 -284.5t94.5 -176q8 0 28 28q101 138 145 444q20 146 27 160q29 63 120 63h30q117 0 117 -60q0 -8 -157.5 -480.5t-196.5 -547.5q-83 -159 -155 -226q-105 -97 -212 -97q-56 0 -106.5 24.5t-50.5 72 t63 82.5q11 5 85 25q163 43 163 194q0 54 -87 190q-88 137 -139 247q-191 413 -191 495zM424 1167v10l1 5q0 60 174 256q57 64 137 64h11q43 0 71.5 -22t28.5 -36v-10q0 -15 -227 -242q-60 -60 -122 -60h-12q-62 0 -62 35z" />
<glyph unicode="&#xfe;" horiz-adv-x="1203" d="M108 1361q0 66 102 66h80q86 0 116 -79q10 -27 15.5 -173.5t10.5 -162.5q12 -39 57 -39q10 0 82.5 20.5t142.5 20.5t144 -32q148 -63 206 -233q32 -94 32 -198v-30q0 -122 -38 -231q-74 -213 -272 -273q-70 -21 -167.5 -25t-146.5 -20q-25 -8 -25 -68l17 -129 q0 -177 -192 -177q-92 0 -121.5 18t-29.5 94l12 71q26 130 26 340v437q0 522 -4 593t-25.5 134.5t-21.5 75.5zM416 422l1 -10l3 -76q1 -10 1 -19q0 -69 40.5 -117t114.5 -48h36q95 0 150 92t55 247v33q0 155 -54.5 240t-144.5 85h-9q-92 0 -139.5 -56t-47.5 -139l-4 -48 l-2 -57v-127z" />
<glyph unicode="&#xff;" horiz-adv-x="1131" d="M90 926q0 72 156 72q108 0 149 -64q18 -27 40.5 -161.5t73 -289t93.5 -154.5q7 0 27 27q95 130 141 448q20 134 24 143q26 54 112 54t116.5 -13.5t30.5 -51.5l-98 -305q-181 -565 -258 -710q-157 -295 -350 -295q-78 0 -128 37q-20 15 -20 28q0 70 63 108q8 5 82 25 q152 40 152 191q0 43 -86 179.5t-136 246.5q-184 406 -184 485zM228 1258v9q0 134 93 134h42q12 -3 21 -3l36 -8q53 0 53 -88v-51q-5 -25 -5 -47t-30.5 -43.5t-71.5 -21.5h-51q-83 0 -83 77l-2 9v9zM631 1275v18l1 4l5 39q0 74 121 74h9q116 0 116 -86q2 -8 2 -13l2 -23v-18 l-1 -4v-9q-5 -20 -5 -40t-26 -41.5t-82 -21.5h-35q-103 0 -103 85q-2 10 -2 13z" />
<glyph unicode="&#x152;" horiz-adv-x="1931" d="M91 699q0 494 346 645q123 54 280 54q75 0 198 -15t156 -15t116 10t156 10q240 0 334.5 -34t94.5 -111q0 -64 -99 -64q-28 0 -110 9t-163.5 9t-131.5 -46.5t-50 -157t32.5 -141.5t124.5 -31l182 21q67 0 88 -22.5t21 -64.5q0 -109 -25.5 -135t-64 -26t-100 10.5 t-125.5 10.5t-100.5 -46t-36.5 -162t34 -168.5t143 -52.5l330 19q76 0 76 -49q0 -79 -91.5 -121.5t-329.5 -42.5q-74 0 -122 5l-74 12q-46 7 -83.5 7t-168 -14.5t-181.5 -14.5h-43q-306 0 -459.5 190.5t-153.5 521.5zM370 663q0 -358 200 -465q63 -34 149 -34l15 1 q124 0 160 52q47 69 47 278q2 28 2 42l3 86v29l1 43v144q0 229 -40 305.5t-179 76.5h-45q-60 0 -122 -31t-107 -97q-82 -120 -82 -322l-2 -31v-77z" />
<glyph unicode="&#x153;" horiz-adv-x="1747" d="M71 470v32q1 378 275 491q90 37 193 37h32q141 0 249 -77q61 -44 85 -44q2 0 59 37q129 84 285 84q269 0 356 -243q31 -87 31 -180.5t-64 -125.5q-31 -15 -224.5 -25t-229.5 -16q-82 -14 -82 -63q0 -82 65 -142t155 -60t174 27.5t111 27.5q59 0 59 -84q0 -65 -104 -119 t-259 -54t-274 80q-61 40 -77 40t-52 -23l-46 -30q-53 -31 -112 -48q-58 -17 -156 -17q-204 0 -329 137q-59 65 -89.5 160.5t-30.5 197.5zM327 479q0 -151 54 -241.5t144 -90.5h29q97 0 148 85t51 252v11l-1 11l-1 31l-2 41q0 135 -62 208t-140 73h-10l-10 -1 q-97 0 -148.5 -85.5t-51.5 -239.5v-54zM1023 620q0 -29 79 -29h70l5 1l134 9l20 2q52 0 52 40v34q-3 18 -3 29q0 48 -40 101.5t-89 53.5l-27 3h-22q-68 0 -122.5 -62.5t-54.5 -147.5l-2 -12v-22z" />
<glyph unicode="&#x178;" horiz-adv-x="1281" d="M53 1325.5q0 55.5 191 55.5q106 0 152 -59q8 -11 48 -100t72.5 -152.5t77.5 -169t59 -105.5q7 0 26 25q146 195 197 380q28 98 35 110q51 83 168 83h25q82 0 110 -31q10 -11 10 -35q0 -51 -85 -162q-34 -44 -97.5 -164t-122 -220t-93.5 -180q-62 -143 -62 -290 q0 -42 14.5 -103t14.5 -94q0 -124 -112 -124h-25q-115 0 -147 14q-50 22 -50 96q0 24 28 127.5t28 169.5q0 121 -58 237q-9 18 -143.5 248.5t-171.5 276.5q-89 111 -89 166.5zM324 1647v27l4 30q0 33 23.5 56.5t61.5 23.5l8 2l31 2h9l4 -1l26 -2q4 -1 8 -1q77 0 77 -77 q2 -8 2 -12l2 -18v-22l-1 -5l-2 -21q0 -34 -23 -61.5t-69 -27.5q-8 -2 -12 -2l-22 -2h-18l-34 4q-70 0 -70 72l-3 13zM737 1651v18l2 17l3 21q0 34 26 55.5t62 21.5l22 3h35l30 -4q72 0 72 -76q3 -12 3 -13l1 -17v-27l-4 -30q0 -31 -24.5 -55.5t-65.5 -24.5l-17 -3h-9 l-13 -1h-9l-5 1l-29 3q-5 1 -9 1q-68 0 -68 84z" />
<glyph unicode="&#x2c6;" horiz-adv-x="845" d="M111 1153v7q0 50 194 260q47 51 115 51t111 -36.5t123 -145.5t80 -125v-7q0 -41 -79 -41h-16q-44 0 -130 86t-87.5 86t-40.5 -40t-65 -64q-73 -67 -139 -67t-66 36z" />
<glyph unicode="&#x2dc;" horiz-adv-x="960" d="M111 1186v9q0 65 61.5 126.5t129.5 61.5h36q43 0 151 -45.5t139 -45.5t80 35t85 35q52 0 52 -58v-9q0 -69 -63 -127.5t-129 -58.5h-18l-9 1q-53 0 -155.5 45.5t-138 45.5t-82 -36.5t-79.5 -36.5q-60 0 -60 58z" />
<glyph unicode="&#x2000;" horiz-adv-x="965" />
<glyph unicode="&#x2001;" horiz-adv-x="1930" />
<glyph unicode="&#x2002;" horiz-adv-x="965" />
<glyph unicode="&#x2003;" horiz-adv-x="1930" />
<glyph unicode="&#x2004;" horiz-adv-x="643" />
<glyph unicode="&#x2005;" horiz-adv-x="482" />
<glyph unicode="&#x2006;" horiz-adv-x="321" />
<glyph unicode="&#x2007;" horiz-adv-x="321" />
<glyph unicode="&#x2008;" horiz-adv-x="241" />
<glyph unicode="&#x2009;" horiz-adv-x="386" />
<glyph unicode="&#x200a;" horiz-adv-x="107" />
<glyph unicode="&#x2010;" horiz-adv-x="854" d="M113 536v40l1 8l2 39q0 39 29 45.5t301 6.5l203 2h40q53 0 53 -57v-39q0 -81 -25 -90.5t-301 -9.5h-56l-25 -1h-65l-32 -1h-80q-45 0 -45 57z" />
<glyph unicode="&#x2011;" horiz-adv-x="854" d="M113 536v40l1 8l2 39q0 39 29 45.5t301 6.5l203 2h40q53 0 53 -57v-39q0 -81 -25 -90.5t-301 -9.5h-56l-25 -1h-65l-32 -1h-80q-45 0 -45 57z" />
<glyph unicode="&#x2012;" horiz-adv-x="854" d="M113 536v40l1 8l2 39q0 39 29 45.5t301 6.5l203 2h40q53 0 53 -57v-39q0 -81 -25 -90.5t-301 -9.5h-56l-25 -1h-65l-32 -1h-80q-45 0 -45 57z" />
<glyph unicode="&#x2013;" horiz-adv-x="1120" d="M113 536v21l1 10q0 81 34 89q23 5 422 5l301 1h32q73 0 88 -11.5t15 -49.5v-31q0 -81 -36 -89q-21 -5 -412 -5h-320l-32 -1q-61 0 -77 11t-16 50z" />
<glyph unicode="&#x2014;" horiz-adv-x="1653" d="M87 547v32q0 74 58 80q31 3 688 3l615 1h16q58 0 77.5 -13t19.5 -59v-16q0 -89 -60 -95q-31 -3 -708 -3h-444l-50 -1h-132q-42 0 -61 12.5t-19 58.5z" />
<glyph unicode="&#x2018;" horiz-adv-x="547" d="M130 1107v45q3 21 3 37q0 99 70.5 193t134.5 94h13q50 0 50 -52q0 -16 -31 -69.5t-31 -83t38 -89t38 -109.5v-22q0 -48 -37 -75t-109 -27l-7 1h-8q-68 0 -96 38.5t-28 118.5z" />
<glyph unicode="&#x2019;" horiz-adv-x="538" d="M139 986v11q0 10 33.5 67.5t33.5 86.5t-29 77t-29 88l-2 14v22q0 113 117 113l15 2h16l7 -1h8q72 0 93.5 -31t21.5 -88v-38q0 -125 -75.5 -247.5t-151.5 -122.5q-58 0 -58 47z" />
<glyph unicode="&#x201a;" horiz-adv-x="534" d="M131 -197q0 10 32.5 70t32.5 92.5t-15 55.5q-44 67 -44 135.5t33.5 96t100.5 27.5h23q69 0 96.5 -27.5t27.5 -92.5v-30l-1 -8v-15q-2 -14 -2 -22q0 -94 -75 -216t-139 -122h-14q-56 0 -56 51v5z" />
<glyph unicode="&#x201c;" horiz-adv-x="900" d="M119 1090v45q3 21 3 37q0 96 69 196t143 100h7q52 0 52 -56q0 -16 -31 -64t-31 -84t33 -91t33 -105v-22q0 -51 -37.5 -78.5t-96.5 -27.5h-16q-64 0 -96 32t-32 118zM506 1114l1 8q0 115 59 225q31 58 77 88.5t74 30.5h13q50 0 50 -51q0 -1 -31 -68.5t-31 -89.5 t33.5 -83.5t33.5 -108.5v-14l-1 -7q0 -42 -31 -73t-98 -31h-22q-16 2 -22 2q-43 0 -72 29t-29 84q-2 14 -2 22z" />
<glyph unicode="&#x201d;" horiz-adv-x="895" d="M128 980v5q0 13 33 67t33 84.5t-29 83.5t-29 114t29.5 90.5t101.5 29.5h23q63 0 91 -25.5t28 -87.5v-59q0 -113 -74 -233.5t-150 -120.5h-6q-51 0 -51 52zM512 972v17q0 6 33 63t33 84.5t-29.5 81.5t-29.5 120q0 115 123 115h38q68 0 92 -30t24 -88v-45q-3 -21 -3 -37 q0 -101 -78 -213.5t-136 -112.5h-14q-53 0 -53 45z" />
<glyph unicode="&#x201e;" horiz-adv-x="903" d="M121 -190q0 4 32.5 64t32.5 92t-16.5 59.5t-29 57.5t-12.5 85q0 112 128 112h31q14 -2 22 -2q96 0 96 -114v-37l-1 -8v-15q-2 -14 -2 -22q0 -92 -75 -214t-140.5 -122t-65.5 54v10zM511 -194q0 10 33 66.5t33 89t-29 85.5t-29 117t36 90t104 26h8l8 -1q71 0 98 -27 t27 -99v-23l-2 -22l-2 -30q0 -104 -93 -238q-66 -95 -126 -95h-7q-59 0 -59 61z" />
<glyph unicode="&#x2022;" horiz-adv-x="938" d="M198 629v44q0 112 83.5 182.5t193.5 70.5h8l9 -1q98 0 173 -63.5t75 -180.5v-26q0 -114 -79.5 -187.5t-188.5 -73.5h-27q-102 0 -174.5 66.5t-72.5 168.5z" />
<glyph unicode="&#x2026;" horiz-adv-x="1569" d="M100 153v30l4 29q0 42 35 72t96 30h35q58 0 92 -29t34 -85l3 -30v-5l-1 -6l-2 -24q0 -50 -36 -80.5t-97 -30.5h-35q-128 0 -128 129zM618 158v25q0 131 140 131h26q15 -3 43 -3t59 -31t31 -95v-26q0 -61 -30 -96t-81 -35q-14 -3 -19 -3l-26 -2l-5 1q-135 0 -135 109z M1136 163v10q0 77 36 108t89 31l10 2h36q58 0 91 -28.5t33 -76.5q4 -18 4 -24v-26q0 -135 -135 -135h-36q-15 3 -24 3q-46 0 -75 34t-29 102z" />
<glyph unicode="&#x202f;" horiz-adv-x="386" />
<glyph unicode="&#x2039;" horiz-adv-x="803" d="M122 560.5q0 53.5 304 341.5q113 107 150 107h10q54 0 54 -68q0 -46 -127 -195q-15 -15 -87 -99t-72 -88.5t145 -166t145 -205.5v-10q0 -67 -61 -67q-42 0 -152 104q-309 293 -309 346.5z" />
<glyph unicode="&#x203a;" horiz-adv-x="803" d="M166 938v10q0 63 60 63q37 0 243.5 -206.5t206.5 -244.5t-205.5 -243.5t-243.5 -205.5h-10q-49 0 -49 72q0 45 145 206t145 174t-146 167t-146 208z" />
<glyph unicode="&#x205f;" horiz-adv-x="482" />
<glyph unicode="&#x20ac;" horiz-adv-x="1333" d="M85 541q0 50 60.5 74t60.5 50q0 60 -33 78q-81 44 -81 69q0 46 73.5 107.5t127.5 167.5q102 200 300 269q102 36 197 36q386 0 386 -191q0 -40 -25.5 -64.5t-62.5 -24.5t-125.5 25t-169.5 25t-137.5 -41t-56.5 -88.5t45 -76.5q21 -13 141 -47t120 -78t-49.5 -61 t-163.5 -20t-137 -12q-48 -19 -48 -57t52 -52q30 -8 139.5 -12.5t149.5 -21t40 -47.5q0 -55 -143.5 -93.5t-143.5 -104t88 -112.5q58 -31 132 -31t163 18t118 18q63 0 63 -68.5t-105 -127t-251 -58.5h-41q-199 0 -329 100q-77 59 -149 189.5t-138.5 171.5t-66.5 91z" />
<glyph unicode="&#x2122;" horiz-adv-x="1647" d="M80 1321v13q0 59 25 73t157 14h183q175 0 201.5 -10.5t26.5 -56.5v-26q0 -54 -59 -54l-95 14q-40 0 -51 -52q-6 -28 -6 -123v-109l1 -27v-28l1 -13v-32q0 -18 13 -59t13 -65.5t-20 -36.5t-88 -12t-92 13.5t-24 45t12 64.5q12 32 13 84v122q0 162 -7 188q-11 41 -61 41 l-103 -14q-40 0 -40 46zM740 817q0 3 10.5 46t10.5 81v74l3 152v70q0 32 -2 54l-3 22q-5 34 -5 38q0 59 107 59q69 0 112 -57q17 -22 88.5 -175.5t80.5 -153.5q2 0 68.5 149.5t88.5 179.5q40 55 112 55q102 0 102 -57q-5 -90 -5 -110l2 -152v-75l1 -75q0 -30 11.5 -66.5 t11.5 -57.5q0 -67 -83 -67t-97.5 62t-14.5 188t-9 126t-70.5 -146t-66.5 -154q-26 -45 -67 -45t-61 28q-7 10 -72 163t-76 153q-17 0 -17 -155t-15.5 -187.5t-54.5 -32.5q-90 0 -90 66z" />
<glyph unicode="&#xe000;" horiz-adv-x="1004" d="M0 0v1005h1005v-1005h-1005z" />
</font>
</defs>
</svg>
